<?xml version="1.0" encoding="UTF-8"?>
<svg id="_圖層_2" data-name="圖層 2" xmlns="http://www.w3.org/2000/svg" viewBox="0 0 425.87 29.2">
  <g id="text">
    <g>
      <path d="M403.24,20.27c.56-.18,1.16-.39,1.72-.59,2.9-1.1,5.65-3.01,8.53-4.22,2.38-1.03,4.93-1.57,7.25-1.35,.02,0,.03,.02,.02,.04,0,.02-.02,.03-.03,.03-1.2,.2-2.38,.48-3.54,.87-2.35,.78-4.52,2.05-6.72,3.37-1.12,.67-2.29,1.35-3.45,1.91-1.79,.87-3.66,1.45-5.52,1.82-1.01,.19-2.06,.31-3.05,.27,3.45,1.11,9.76,2.24,15.31-1.61,8.14-5.65,10.17-6.89,12.1-7.23,0,0-6.27-3.93-13.83-2.74-8.85,1.39-12.48,8.89-15.45,10.33,2.08,.39,4.44-.2,6.66-.89Z" fill="#fff"/>
      <path d="M0,20.8s3-6.97,7.97-7.28c4.98-.31,7.41,3.64,7.41,3.64,0,0,2.55-4.42,7.13-4.66,4.58-.23,7.92,6.34,7.92,6.34,0,0,.8-2.2,4.13-2.2,3.9,0,3.9,4.15,3.9,4.15H0Z" fill="#fff"/>
      <g>
        <path d="M75.97,10.89c-.3-.23-.63-.34-.98-.34-.04,0-.06-.04-.06-.11s.02-.11,.06-.11c.14,0,.35,.01,.65,.04l.61,.02c.41,0,.97-.01,1.69-.04l1.08-.02s.04,.04,.04,.11-.01,.11-.04,.11c-.59,0-.89,.15-.89,.45,0,.14,.07,.31,.22,.52l3.01,4.52-1.17,.86-3.18-4.76c-.4-.59-.75-1.01-1.05-1.24Zm5.49,5.12v4.43c0,.38,.03,.66,.1,.84,.07,.17,.21,.29,.41,.35,.21,.06,.53,.09,.98,.09,.04,0,.06,.04,.06,.11s-.02,.11-.06,.11c-.38,0-.69,0-.91-.02l-1.34-.02-1.3,.02c-.22,.01-.54,.02-.95,.02-.03,0-.04-.04-.04-.11s.01-.11,.04-.11c.45,0,.77-.03,.99-.09,.21-.06,.35-.18,.43-.36,.07-.18,.11-.46,.11-.83v-4.26l1.49-.17Zm2.29-4.72c0-.5-.34-.74-1.02-.74-.02,0-.04-.04-.04-.11s.01-.11,.04-.11l.91,.02c.5,.03,.95,.04,1.36,.04,.21,0,.46-.01,.76-.04l.69-.02s.04,.04,.04,.11-.01,.11-.04,.11c-.43,0-.89,.19-1.38,.56-.48,.37-.92,.87-1.3,1.49l-2.75,4.35-.35-.3,2.64-4.15c.3-.48,.45-.89,.45-1.21Z" fill="#fff"/>
        <path d="M112.64,21.27c.07,.17,.21,.29,.41,.35,.2,.06,.54,.09,1,.09,.02,0,.04,.04,.04,.11s-.01,.11-.04,.11c-.4,0-.71,0-.93-.02l-1.34-.02-1.3,.02c-.24,.01-.56,.02-.97,.02-.03,0-.04-.04-.04-.11s.01-.11,.04-.11c.45,0,.77-.03,.99-.09,.21-.06,.36-.18,.44-.36,.08-.18,.12-.46,.12-.83V11.83c0-.37-.04-.64-.12-.82-.08-.17-.23-.29-.44-.36-.21-.07-.54-.1-.99-.1-.03,0-.04-.04-.04-.11s.01-.11,.04-.11l.97,.02c.54,.03,.98,.04,1.3,.04,.36,0,.81-.01,1.36-.04l.91-.02s.04,.04,.04,.11-.01,.11-.04,.11c-.45,0-.77,.04-.98,.11-.2,.07-.34,.2-.42,.38-.07,.18-.11,.46-.11,.83v8.57c0,.38,.03,.66,.1,.84Z" fill="#fff"/>
        <path d="M148.81,22.24c-.06,.01-.1,0-.12-.02l-8.76-10.38c-.41-.48-.78-.82-1.1-1.01-.32-.19-.65-.29-.97-.29-.02,0-.04-.04-.04-.11s.01-.11,.04-.11l.73,.02c.15,.01,.36,.02,.63,.02l.95-.02c.12-.01,.27-.02,.43-.02,.1,0,.17,.03,.22,.07,.05,.05,.12,.15,.22,.3l.45,.59,7.25,8.74,.15,2.16s-.03,.04-.08,.06Zm-9.33-11.49l.48,.04v9.04c0,.64,.12,1.12,.36,1.43,.24,.31,.61,.46,1.11,.46,.02,0,.04,.04,.04,.11s-.01,.11-.04,.11c-.32,0-.57,0-.74-.02l-.95-.02-1,.02c-.19,.01-.46,.02-.82,.02-.02,0-.04-.04-.04-.11s.01-.11,.04-.11c.53,0,.93-.15,1.18-.46,.25-.31,.38-.79,.38-1.43V10.75Zm9.41,11.44l-.46-.58V12.46c0-.64-.12-1.12-.35-1.44-.24-.32-.6-.47-1.1-.47-.03,0-.04-.04-.04-.11s.01-.11,.04-.11l.74,.02c.37,.03,.69,.04,.95,.04,.22,0,.55-.01,.97-.04l.78-.02s.04,.04,.04,.11-.01,.11-.04,.11c-1.02,0-1.52,.64-1.52,1.92v9.73Z" fill="#fff"/>
        <path d="M274.24,21.36c-.9-.54-1.59-1.27-2.08-2.19-.49-.92-.73-1.93-.73-3.02,0-1.28,.32-2.37,.97-3.28,.64-.91,1.47-1.6,2.48-2.05,1.01-.46,2.04-.69,3.1-.69,1.18,0,2.21,.28,3.1,.83,.89,.55,1.58,1.28,2.06,2.18,.48,.91,.72,1.87,.72,2.88,0,1.13-.3,2.16-.89,3.11-.6,.94-1.39,1.69-2.39,2.23-1,.55-2.08,.82-3.24,.82s-2.18-.27-3.08-.81Zm5.87-.21c.63-.41,1.13-1.01,1.5-1.79,.37-.79,.55-1.73,.55-2.82,0-1.15-.2-2.18-.6-3.09-.4-.9-.98-1.61-1.73-2.12-.75-.51-1.62-.76-2.61-.76-1.29,0-2.29,.44-3.01,1.31-.72,.87-1.08,2.08-1.08,3.62,0,1.18,.2,2.24,.61,3.2,.41,.95,.98,1.7,1.72,2.25,.74,.55,1.58,.82,2.52,.82,.79,0,1.51-.2,2.14-.61Z" fill="#fff"/>
        <path d="M308.87,21.83c0,.07-.03,.11-.09,.11-.24,0-.6-.01-1.1-.04-.52-.02-.89-.04-1.12-.04-.29,0-.64,.01-1.06,.04-.42,.03-.74,.04-.95,.04-.05,0-.07-.04-.07-.11s.02-.11,.07-.11c.42,0,.73-.04,.91-.12,.19-.08,.28-.23,.28-.44s-.09-.5-.28-.87l-4-8.31,.6-.89-3.63,8.41c-.17,.42-.26,.77-.26,1.04,0,.4,.15,.69,.46,.89,.31,.2,.76,.3,1.34,.3,.06,0,.09,.04,.09,.11s-.03,.11-.09,.11c-.22,0-.55-.01-.97-.04-.47-.02-.88-.04-1.23-.04-.32,0-.71,.01-1.15,.04-.4,.03-.72,.04-.97,.04-.05,0-.07-.04-.07-.11s.02-.11,.07-.11c.35,0,.64-.07,.88-.2,.24-.14,.47-.37,.7-.71s.48-.83,.76-1.49l3.96-9.13s.06-.06,.13-.07c.07,0,.12,.02,.13,.07l4.46,9.2c.43,.91,.8,1.52,1.09,1.84,.29,.32,.62,.48,1,.48,.06,0,.09,.04,.09,.11Zm-9.48-5.15h5.06l.13,.41h-5.41l.22-.41Z" fill="#fff"/>
        <path d="M323.19,13.64c.24,.35,.52,.66,.86,.91,.33,.25,.8,.56,1.4,.92,.62,.38,1.11,.72,1.48,.99,.37,.28,.68,.62,.94,1.03,.26,.41,.39,.89,.39,1.45,0,.61-.16,1.16-.47,1.65-.32,.49-.77,.87-1.36,1.15-.59,.28-1.27,.42-2.05,.42-.5,0-.99-.06-1.47-.18s-.9-.29-1.26-.51c-.06-.04-.11-.08-.13-.13-.02-.05-.04-.12-.04-.22l-.19-2.66s.02-.08,.08-.09c.07-.01,.11,0,.12,.06,.3,.94,.71,1.74,1.25,2.4,.53,.66,1.23,.99,2.08,.99,.58,0,1.07-.16,1.47-.47s.6-.83,.6-1.55c0-.55-.12-1.02-.37-1.43-.25-.41-.55-.75-.91-1.03s-.84-.6-1.43-.96c-.58-.37-1.04-.69-1.39-.96-.34-.27-.63-.59-.86-.99-.24-.39-.35-.85-.35-1.37,0-.63,.17-1.17,.51-1.62s.79-.78,1.34-.99c.55-.22,1.13-.33,1.74-.33,.82,0,1.57,.14,2.25,.43,.19,.09,.28,.2,.28,.33l.09,2.32s-.03,.08-.1,.08c-.07,0-.11-.02-.12-.07-.14-.67-.42-1.3-.86-1.9s-1.07-.89-1.89-.89c-.62,0-1.1,.19-1.44,.56s-.51,.84-.51,1.41c0,.47,.12,.88,.35,1.24Z" fill="#fff"/>
        <path d="M344.38,21.27c.07,.17,.2,.29,.41,.35,.2,.06,.54,.09,.99,.09,.02,0,.04,.04,.04,.11s-.01,.11-.04,.11c-.4,0-.71,0-.93-.02l-1.34-.02-1.3,.02c-.24,.01-.56,.02-.97,.02-.02,0-.04-.04-.04-.11s.01-.11,.04-.11c.45,0,.77-.03,.99-.09,.21-.06,.36-.18,.44-.36,.08-.18,.12-.46,.12-.83V11.83c0-.37-.04-.64-.12-.82-.08-.17-.23-.29-.44-.36-.21-.07-.54-.1-.99-.1-.02,0-.04-.04-.04-.11s.01-.11,.04-.11l.97,.02c.55,.03,.98,.04,1.3,.04,.36,0,.81-.01,1.36-.04l.91-.02s.04,.04,.04,.11-.01,.11-.04,.11c-.45,0-.77,.04-.98,.11s-.34,.2-.42,.38c-.07,.18-.11,.46-.11,.83v8.57c0,.38,.03,.66,.1,.84Z" fill="#fff"/>
        <path d="M361.01,13.64c.24,.35,.52,.66,.86,.91,.33,.25,.8,.56,1.4,.92,.62,.38,1.11,.72,1.48,.99,.37,.28,.68,.62,.94,1.03,.26,.41,.39,.89,.39,1.45,0,.61-.16,1.16-.47,1.65-.32,.49-.77,.87-1.36,1.15-.59,.28-1.27,.42-2.05,.42-.5,0-.99-.06-1.47-.18s-.9-.29-1.26-.51c-.06-.04-.11-.08-.13-.13-.02-.05-.04-.12-.04-.22l-.19-2.66s.02-.08,.08-.09c.07-.01,.11,0,.12,.06,.3,.94,.71,1.74,1.25,2.4,.53,.66,1.23,.99,2.08,.99,.58,0,1.07-.16,1.47-.47s.6-.83,.6-1.55c0-.55-.12-1.02-.37-1.43-.25-.41-.55-.75-.91-1.03s-.84-.6-1.43-.96c-.58-.37-1.04-.69-1.39-.96-.34-.27-.63-.59-.86-.99-.24-.39-.35-.85-.35-1.37,0-.63,.17-1.17,.51-1.62s.79-.78,1.34-.99c.55-.22,1.13-.33,1.74-.33,.82,0,1.57,.14,2.25,.43,.19,.09,.28,.2,.28,.33l.09,2.32s-.03,.08-.1,.08c-.07,0-.11-.02-.12-.07-.14-.67-.42-1.3-.86-1.9s-1.07-.89-1.89-.89c-.62,0-1.1,.19-1.44,.56s-.51,.84-.51,1.41c0,.47,.12,.88,.35,1.24Z" fill="#fff"/>
      </g>
      <g>
        <path d="M202.93,0l3.83,2.71c-.22,.38-.61,.54-1.53,.54h-13.55c-1.31,3.51-3.12,6.92-5.55,9.98l1.08,.41h12.05l1.43-1.91,3.89,2.77c-.25,.29-.8,.61-1.5,.77v12.62c-.03,.06-.99,.92-3.47,.92v-2.65h-12.81v2.04c0,.22-1.08,.99-2.81,.99h-.61v-12.85c-1.88,1.88-4.02,3.54-6.41,4.91l-.22-.41c5.1-4.46,8.89-11.22,10.61-17.6h-10.1l-.19-.61h23.78l2.07-2.65Zm-3.31,14.28h-12.81v11.25h12.81V14.28Z" fill="#fff"/>
        <path d="M237.9,9.63l3.98,2.84c-.26,.41-.67,.57-1.59,.57h-16.51l3.25,.92c-.13,.35-.45,.54-1.27,.48-1.43,2.77-3.83,6.53-6.34,9.59,4.27-.1,9.75-.29,15.68-.54-1.18-2.14-2.77-4.18-4.43-5.61l.29-.26c7.14,2.49,9.4,6.12,9.4,8.51,0,1.5-.86,2.52-1.98,2.52-.51,0-1.05-.19-1.59-.67-.22-1.15-.64-2.36-1.21-3.57-4.33,.89-10.36,1.85-19.13,3.16-.22,.41-.54,.64-.89,.7l-2.49-4.11c1.31,0,3.09-.03,5.2-.1,1.37-3.41,2.74-7.71,3.57-11.03h-9.63l-.16-.64h23.68l2.17-2.77Zm.54-6.41c-.25,.41-.64,.54-1.53,.54h-21.07l-.16-.61h16.73l2.14-2.71,3.89,2.77Z" fill="#fff"/>
      </g>
    </g>
  </g>
</svg>