<?xml version="1.0" encoding="UTF-8"?>
<svg id="_圖層_2" data-name="圖層 2" xmlns="http://www.w3.org/2000/svg" viewBox="0 0 473.57 216.32">
  <g id="text">
    <g>
      <path d="M132.47,28.52h-12.89V13.14c0-4.5-2.43-9.87-13.99-9.87H38.43c-5.48,0-8.26,1.67-8.26,4.96,0,5.43,6.21,5.43,8.26,5.43h30c-3.39,4.23-6.41,9.29-8.85,14.85H12.42c-5.87,.36-7.11,2.9-7.11,4.96,0,2.37,.95,5.2,5.49,5.2H55.78c-1.28,4.18-2.33,8.67-3.44,13.92h-16.67c-7.7,0-9.32,2.95-9.32,5.43,0,4.96,6.7,4.96,8.9,4.96h15.35c-.71,5.62-1.51,12.79-1.93,20.75,0,57.04-16.19,98.97-48.12,124.62l-.54,.44v.7c0,2.2,1.29,3.56,3.37,3.56,1.67,0,3.09-1.07,4.04-1.91,35.51-25.65,53.73-70.16,54.16-132.31,0-4.93,.3-10.13,.91-15.84h42.26c12.27,0,14.84-6.51,14.84-11.97v-12.34h13.63c3.44,0,5.49-1.94,5.49-5.2,0-1.68-.81-4.56-6.24-4.96Zm-24.51-13.27v13.27h-38.09c2.33-5.91,5.15-10.79,8.55-14.85h26.32c.76,0,3.22,.11,3.22,1.58Zm0,23.43v10.93c0,1.44-.33,2.99-4.28,2.99H63.66c.63-5.08,1.56-9.66,2.84-13.92h41.46Z" fill="#fff"/>
      <path d="M467,58.68h-40.92c-.3-3.82-.82-8.23-1.66-10.24-.8-3.3-2.81-3.8-3.94-3.8h-.37l-.33,.18c-1.25,.69-2.1,1.99-2.41,3.67-.43,1.05-.97,3.33-1.27,10.18h-44.29l-.26,.02c-.51,.09-1.02,.19-1.52,.28,.69-7.52,1.81-14.39,3.35-20.58,.4,2.82,3.3,4.25,8.63,4.25h67.58c12.27,0,14.84-6.51,14.84-11.97V13.61c0-4.5-2.43-9.87-13.99-9.87h-82.03c-5.48,0-8.26,1.67-8.26,4.96,0,5.43,6.21,5.43,8.26,5.43h6.5c-10.43,13.76-16.3,37.64-17.95,72.87,0,57.41-5.47,99.61-16.25,125.43l-.11,.27v.29c0,2.08,1.18,3.33,3.16,3.33,1.33,0,2.77-.7,3.84-1.88l.21-.29c13.7-25.66,20.56-68.69,21-131.58,0-4.35,.17-8.81,.49-13.28,.27,.01,.54,.01,.82,.01h45.67c-.15,4.59-.16,10.18-.16,16.53-7.87,.26-14.71,.72-21.31,1.44-.82-5.38-2.14-7.8-4.22-7.8-5.49,0-6.13,9.1-6.13,15.95v63.11c0,37.26,12.5,56.15,37.16,56.15s37.37-18.03,37.37-53.58v-63.86c-.49-13.78-2.27-19.4-6.13-19.4-2.7,0-4.32,3.02-4.94,9.22-7.55-.66-14.17-1-20.6-1.04-.01-3.47-.07-6.74-.12-9.79-.04-2.45-.08-4.76-.09-6.93h41.26c3.68,0,5.71-1.93,5.71-5.43,0-1.95-1.14-4.44-6.57-5.18Zm-20.14,38.75v63.2c0,28.35-8.81,42.72-26.17,42.72s-25.53-14.82-25.53-45.29v-60.63c7.07-.72,16.11-1.49,25.53-1.49s18.93,.77,26.17,1.5ZM383.82,14.13h65.77c.76,0,3.22,.11,3.22,1.58v13.56c0,1.55-.49,2.99-4.07,2.99h-66.09c-4.67,0-7.1,1.09-8.29,2.49,2.36-8.19,5.52-15.08,9.46-20.62Z" fill="#fff"/>
      <path d="M180.97,170.44c-2.3,13.15-3.88,25.92-4.8,38.92,0,4.82-1.84,5.56-2.94,5.56-2.26,0-2.57-3.42-2.72-5.06,0-36.04,3.52-66.68,10.46-91.22,7.8-24.07,18.39-43.81,32.38-60.38,8.64-10.67,19.18-20.43,31.3-29,5.5-3.48,10.76-6.54,15.98-9.28h-71.88c-4.63,0-6.98-1.75-6.98-5.2,0-4.33,5.28-4.97,7.02-5.18h38.46v-1.36c0-4.88,1.84-7.65,5.48-8.22l.23-.02c1.76,0,4.81,1.05,5.49,8.1v1.49h46.35c.64-.21,1.28-.46,1.92-.71,.78-.31,1.56-.61,2.34-.86l.44-.07c2.34,0,3.79,1.36,3.79,3.56v.92l-.83,.39c-34.97,16.58-62.94,40.94-83.13,72.4-11.77,21.35-20.54,46.11-26.04,73.5l-2.3,11.72Z" fill="#fff"/>
      <path d="M183.47,177.3c-.91,.48,.11-.06,.25-.13,.41-.2,.83-.4,1.24-.6,.84-.39,1.69-.76,2.54-1.12,.86-.36,1.73-.68,2.6-1.02,1.37-.52,.46-.16,.16-.06,.67-.22,1.34-.43,2.02-.64,1.71-.51,3.43-.95,5.17-1.33,.17-.04,1.63-.34,.8-.18s.64-.11,.81-.14c1.07-.18,2.14-.34,3.21-.48,4.39-.56,6.85-.68,11.27-.53,3.89,.13,7,.46,10.69,1.15,7.59,1.44,14.86,4.04,21.48,8.06,7.61,4.61,13.66,11.32,21.11,16.17,9.59,6.24,22.08,8.11,32.62,3.03,1.82-.88,5.86-3.36,3.7-5.83-2-2.29-7.04-1.35-9.33-.24-.46,.22-.93,.46-1.42,.64,.97-.36-.21,.05-.37,.07,1.4-.2-1.91,.1-.89,.08-2.06,.03-4.16-.41-6.16-1.11-3.95-1.38-7.55-3.79-10.81-6.36-6.95-5.47-13.29-11.57-21.25-15.61-15.04-7.64-32.91-9.81-49.52-7.5-10.09,1.4-18.45,3.8-27.45,8.58-2.13,1.13-4.19,5.3-1.39,6.79,3.06,1.63,6.12-.22,8.9-1.7h0Z" fill="#fff"/>
    </g>
  </g>
</svg>