<?xml version="1.0" encoding="UTF-8"?>
<svg id="_圖層_2" data-name="圖層 2" xmlns="http://www.w3.org/2000/svg" viewBox="0 0 145.93 359.88">
  <g id="content">
    <g>
      <g>
        <path d="M110.44,11.97c-.5,.22-.84,.63-1.02,1.23-.18,.6-.27,1.54-.27,2.82v5.1c0,2.52,.75,4.61,2.25,6.27s3.53,2.77,6.09,3.33c.12,0,.17,.11,.15,.33-.02,.22-.09,.33-.21,.33-3.52-.36-6.44-.54-8.76-.54-.32,0-.55-.07-.69-.21s-.21-.37-.21-.69V1.98c0-.08,.12-.12,.36-.12s.36,.04,.36,.12c0,1.44,.1,2.5,.3,3.18,.2,.68,.59,1.14,1.17,1.38,.58,.24,1.47,.36,2.67,.36h27.78c1.2,0,2.08-.12,2.64-.36,.56-.24,.95-.7,1.17-1.38,.22-.68,.33-1.74,.33-3.18,0-.08,.12-.12,.36-.12s.36,.04,.36,.12l-.06,3c-.08,1.76-.12,3.18-.12,4.26s.04,2.5,.12,4.26l.06,3c0,.08-.12,.12-.36,.12s-.36-.04-.36-.12c0-1.44-.11-2.49-.33-3.15-.22-.66-.62-1.11-1.2-1.35-.58-.24-1.47-.36-2.67-.36h-27.48c-1.12,0-1.93,.11-2.43,.33Z" fill="#aeffe0"/>
        <path d="M108.13,77.76c-.24,0-.36-.1-.36-.3,0-.76,.04-1.94,.12-3.54,.08-1.68,.12-2.88,.12-3.6,0-.92-.04-2.06-.12-3.42-.08-1.36-.12-2.38-.12-3.06,0-.16,.12-.24,.36-.24s.36,.08,.36,.24c0,1.36,.13,2.34,.39,2.94,.26,.6,.73,.9,1.41,.9s1.62-.3,2.82-.9l26.82-12.9,2.88,1.92-27.12-11.7c-1.36-.56-2.48-.84-3.36-.84-1.28,0-2.24,.5-2.88,1.5-.64,1-.96,2.44-.96,4.32,0,.2-.12,.3-.36,.3s-.36-.1-.36-.3c0-.72,.04-1.76,.12-3.12,.08-1.52,.12-2.84,.12-3.96,0-1.04-.04-2.28-.12-3.72-.08-1.28-.12-2.32-.12-3.12,0-.16,.12-.24,.36-.24s.36,.08,.36,.24c0,1.12,.22,2.07,.66,2.85,.44,.78,1.2,1.53,2.28,2.25s2.68,1.54,4.8,2.46l29.46,12.78c.12,.04,.19,.18,.21,.42,.02,.24-.05,.38-.21,.42l-29.7,14.4c-2.92,1.4-4.9,2.57-5.94,3.51-1.04,.94-1.56,2.01-1.56,3.21,0,.2-.12,.3-.36,.3Zm16.62-30.6v16.32l-1.32,.42v-17.46l1.32,.72Z" fill="#aeffe0"/>
        <path d="M106.81,117.99c-.04-.18-.02-.31,.06-.39l33.48-28.26c1.56-1.32,2.65-2.5,3.27-3.54,.62-1.04,.93-2.08,.93-3.12,0-.08,.12-.12,.36-.12s.36,.04,.36,.12l-.06,2.34c-.04,.48-.06,1.16-.06,2.04l.06,3.06c.04,.4,.06,.86,.06,1.38,0,.32-.08,.56-.24,.72-.16,.16-.48,.4-.96,.72l-1.92,1.44-28.2,23.4-6.96,.48c-.08,0-.14-.09-.18-.27Zm.18,.27l1.86-1.5h29.52c2.08,0,3.63-.38,4.65-1.14,1.02-.76,1.53-1.94,1.53-3.54,0-.08,.12-.12,.36-.12s.36,.04,.36,.12l-.06,2.4c-.08,1.2-.12,2.22-.12,3.06,0,.72,.04,1.76,.12,3.12l.06,2.52c0,.08-.12,.12-.36,.12s-.36-.04-.36-.12c0-3.28-2.06-4.92-6.18-4.92h-31.38Zm36.9-30.36l-.12,1.56h-29.16c-2.08,0-3.62,.39-4.62,1.17-1,.78-1.5,1.97-1.5,3.57,0,.08-.12,.12-.36,.12s-.36-.04-.36-.12c0-1.04,.02-1.84,.06-2.4l.06-3.06-.06-3.24c-.04-.6-.06-1.48-.06-2.64,0-.08,.12-.12,.36-.12s.36,.04,.36,.12c0,1.72,.5,2.99,1.5,3.81,1,.82,2.54,1.23,4.62,1.23h29.28Z" fill="#aeffe0"/>
        <path d="M107.71,141.78c.04-.6,.08-1.33,.12-2.19,.04-.86,.06-1.83,.06-2.91l-.06-4.2c-.04-.76-.06-1.8-.06-3.12,0-.08,.12-.12,.36-.12s.36,.04,.36,.12c0,1.44,.1,2.5,.3,3.18,.2,.68,.59,1.15,1.17,1.41,.58,.26,1.47,.39,2.67,.39h27.78c1.2,0,2.08-.12,2.64-.36,.56-.24,.95-.69,1.17-1.35,.22-.66,.33-1.71,.33-3.15,0-.12,.12-.18,.36-.18s.36,.06,.36,.18l-.06,3c-.08,1.76-.12,3.16-.12,4.2,0,1.48,.06,3,.18,4.56,.08,1.92,.12,3.22,.12,3.9,0,4.12-.8,7.78-2.4,10.98-1.6,3.2-3.78,5.68-6.54,7.44-2.76,1.76-5.86,2.64-9.3,2.64-3.88,0-7.31-.91-10.29-2.73-2.98-1.82-5.28-4.28-6.9-7.38-1.62-3.1-2.43-6.47-2.43-10.11,0-1.24,.06-2.64,.18-4.2Zm2.91,11.58c1.34,2.32,3.3,4.13,5.88,5.43,2.58,1.3,5.69,1.95,9.33,1.95s6.63-.62,9.45-1.86c2.82-1.24,5.04-2.99,6.66-5.25,1.62-2.26,2.43-4.89,2.43-7.89,0-1.72-.1-3.04-.3-3.96-.2-.92-.59-1.6-1.17-2.04-.58-.44-1.45-.66-2.61-.66h-27c-1.16,0-2.07,.17-2.73,.51s-1.15,.96-1.47,1.86c-.32,.9-.48,2.21-.48,3.93,0,3,.67,5.66,2.01,7.98Z" fill="#aeffe0"/>
        <path d="M134.56,182.52c-1.14,.76-2.12,1.68-2.94,2.76-.82,1.08-1.81,2.58-2.97,4.5-1.24,2-2.31,3.59-3.21,4.77-.9,1.18-2.01,2.19-3.33,3.03-1.32,.84-2.88,1.26-4.68,1.26-1.96,0-3.73-.51-5.31-1.53-1.58-1.02-2.82-2.48-3.72-4.38-.9-1.9-1.35-4.11-1.35-6.63,0-1.6,.19-3.18,.57-4.74,.38-1.56,.93-2.92,1.65-4.08,.12-.2,.26-.34,.42-.42,.16-.08,.4-.12,.72-.12l8.58-.6c.16-.04,.26,.05,.3,.27,.04,.22-.02,.35-.18,.39-3.04,.96-5.62,2.3-7.74,4.02-2.12,1.72-3.18,3.96-3.18,6.72,0,1.88,.51,3.46,1.53,4.74s2.69,1.92,5.01,1.92c1.76,0,3.3-.4,4.62-1.2,1.32-.8,2.43-1.78,3.33-2.94,.9-1.16,1.93-2.7,3.09-4.62,1.2-1.88,2.23-3.37,3.09-4.47,.86-1.1,1.92-2.03,3.18-2.79,1.26-.76,2.73-1.14,4.41-1.14,2.04,0,3.78,.55,5.22,1.65,1.44,1.1,2.51,2.54,3.21,4.32,.7,1.78,1.05,3.65,1.05,5.61,0,2.64-.46,5.06-1.38,7.26-.28,.6-.64,.9-1.08,.9l-7.5,.3c-.16,0-.25-.11-.27-.33-.02-.22,.05-.35,.21-.39,2.16-.44,4.2-1.37,6.12-2.79,1.92-1.42,2.88-3.45,2.88-6.09,0-2-.6-3.55-1.8-4.65-1.2-1.1-2.72-1.65-4.56-1.65-1.52,0-2.85,.38-3.99,1.14Z" fill="#aeffe0"/>
        <path d="M145.42,236.19c-.34,1.78-.89,3.45-1.65,5.01-.12,.28-.25,.46-.39,.54-.14,.08-.45,.14-.93,.18l-7.5,.78c-.12,0-.2-.11-.24-.33-.04-.22,.02-.35,.18-.39,6.68-2.04,10.02-6.16,10.02-12.36,0-3.16-.74-5.96-2.22-8.4-1.48-2.44-3.58-4.33-6.3-5.67-2.72-1.34-5.9-2.01-9.54-2.01s-6.77,.73-9.63,2.19c-2.86,1.46-5.1,3.44-6.72,5.94s-2.43,5.25-2.43,8.25,.79,5.68,2.37,7.68c1.58,2,4.03,3.62,7.35,4.86,.08,.04,.12,.14,.12,.3,0,.08-.03,.17-.09,.27-.06,.1-.11,.15-.15,.15l-6.84-.66c-.48-.04-.78-.1-.9-.18-.12-.08-.26-.28-.42-.6-.92-2-1.57-3.92-1.95-5.76-.38-1.84-.57-3.86-.57-6.06,0-4.24,.83-8.02,2.49-11.34,1.66-3.32,3.97-5.91,6.93-7.77,2.96-1.86,6.36-2.79,10.2-2.79s7.11,.95,10.05,2.85c2.94,1.9,5.22,4.53,6.84,7.89,1.62,3.36,2.43,7.12,2.43,11.28,0,2.32-.17,4.37-.51,6.15Z" fill="#aeffe0"/>
        <path d="M108.13,291.66c-.24,0-.36-.1-.36-.3,0-.76,.04-1.94,.12-3.54,.08-1.68,.12-2.88,.12-3.6,0-.92-.04-2.06-.12-3.42-.08-1.36-.12-2.38-.12-3.06,0-.16,.12-.24,.36-.24s.36,.08,.36,.24c0,1.36,.13,2.34,.39,2.94,.26,.6,.73,.9,1.41,.9s1.62-.3,2.82-.9l26.82-12.9,2.88,1.92-27.12-11.7c-1.36-.56-2.48-.84-3.36-.84-1.28,0-2.24,.5-2.88,1.5-.64,1-.96,2.44-.96,4.32,0,.2-.12,.3-.36,.3s-.36-.1-.36-.3c0-.72,.04-1.76,.12-3.12,.08-1.52,.12-2.84,.12-3.96,0-1.04-.04-2.28-.12-3.72-.08-1.28-.12-2.32-.12-3.12,0-.16,.12-.24,.36-.24s.36,.08,.36,.24c0,1.12,.22,2.07,.66,2.85,.44,.78,1.2,1.53,2.28,2.25s2.68,1.54,4.8,2.46l29.46,12.78c.12,.04,.19,.18,.21,.42,.02,.24-.05,.38-.21,.42l-29.7,14.4c-2.92,1.4-4.9,2.57-5.94,3.51-1.04,.94-1.56,2.01-1.56,3.21,0,.2-.12,.3-.36,.3Zm16.62-30.6v16.32l-1.32,.42v-17.46l1.32,.72Z" fill="#aeffe0"/>
        <path d="M110.08,306.96c-.58,.32-.99,.93-1.23,1.83-.24,.9-.36,2.35-.36,4.35,0,.12-.12,.18-.36,.18s-.36-.06-.36-.18c0-1.64,.02-2.92,.06-3.84l.06-5.22-.06-4.14c-.04-.76-.06-1.78-.06-3.06,0-.12,.12-.18,.36-.18s.36,.06,.36,.18c0,1.44,.1,2.48,.3,3.12,.2,.64,.59,1.08,1.17,1.32,.58,.24,1.47,.36,2.67,.36h27.78c1.2,0,2.08-.12,2.64-.36,.56-.24,.95-.69,1.17-1.35,.22-.66,.33-1.69,.33-3.09,0-.12,.12-.18,.36-.18s.36,.06,.36,.18l-.06,3c-.08,1.76-.12,3.14-.12,4.14s.06,2.1,.18,3.42c0,.48,.03,1.23,.09,2.25,.06,1.02,.09,1.91,.09,2.67,0,3.76-.83,6.78-2.49,9.06-1.66,2.28-4.17,3.42-7.53,3.42-2.6,0-4.8-.65-6.6-1.95-1.8-1.3-3.14-2.96-4.02-4.98-.88-2.02-1.32-4.11-1.32-6.27,0-1.16,.1-2.12,.3-2.88,0-.12,.1-.18,.3-.18,.12,0,.24,.03,.36,.09,.12,.06,.16,.13,.12,.21-.16,.64-.24,1.34-.24,2.1,0,2.4,.86,4.42,2.58,6.06,1.72,1.64,4.2,2.46,7.44,2.46s5.63-.8,7.41-2.4c1.78-1.6,2.67-3.72,2.67-6.36,0-1.24-.09-2.14-.27-2.7-.18-.56-.56-.96-1.14-1.2-.58-.24-1.49-.36-2.73-.36h-27.42c-1.28,0-2.21,.16-2.79,.48Z" fill="#aeffe0"/>
        <path d="M108.13,332.64c.24,0,.36,.06,.36,.18,0,1.44,.1,2.49,.3,3.15,.2,.66,.59,1.11,1.17,1.35,.58,.24,1.47,.36,2.67,.36h27.78c1.2,0,2.08-.12,2.64-.36,.56-.24,.95-.69,1.17-1.35,.22-.66,.33-1.71,.33-3.15,0-.12,.12-.18,.36-.18s.36,.06,.36,.18v24.48c0,.4-.18,.6-.54,.6l-7.56,.12c-.12,0-.19-.11-.21-.33-.02-.22,.03-.35,.15-.39,2.2-.28,3.88-1.06,5.04-2.34,1.16-1.28,1.74-2.96,1.74-5.04v-3.06c0-1.76-.26-2.94-.78-3.54-.52-.6-1.5-.9-2.94-.9h-27.3c-1.44,0-2.42,.27-2.94,.81-.52,.54-.78,1.63-.78,3.27v3.96c0,2.24,.67,4.11,2.01,5.61,1.34,1.5,3.25,2.53,5.73,3.09,.08,0,.12,.08,.12,.24,0,.12-.03,.23-.09,.33-.06,.1-.11,.15-.15,.15-2.88-.4-5.58-.6-8.1-.6-.32,0-.55-.06-.69-.18-.14-.12-.21-.36-.21-.72v-25.56c0-.12,.12-.18,.36-.18Zm17.25,20.91c.82-.98,1.23-2.53,1.23-4.65v-8.76h1.38v8.88c0,2.04,.35,3.54,1.05,4.5,.7,.96,1.79,1.44,3.27,1.44,.08,0,.12,.11,.12,.33s-.04,.33-.12,.33l-5.04-.06-2.7,.06c-1.28,.08-2.28,.12-3,.12-.08,0-.12-.12-.12-.36s.04-.36,.12-.36c1.72,0,2.99-.49,3.81-1.47Z" fill="#aeffe0"/>
        <path d="M16.71,14.4c.04-.6,.08-1.33,.12-2.19,.04-.86,.06-1.83,.06-2.91l-.06-4.2c-.04-.76-.06-1.8-.06-3.12,0-.08,.12-.12,.36-.12s.36,.04,.36,.12c0,1.44,.1,2.5,.3,3.18,.2,.68,.59,1.15,1.17,1.41,.58,.26,1.47,.39,2.67,.39h27.78c1.2,0,2.08-.12,2.64-.36,.56-.24,.95-.69,1.17-1.35,.22-.66,.33-1.71,.33-3.15,0-.12,.12-.18,.36-.18s.36,.06,.36,.18l-.06,3c-.08,1.76-.12,3.16-.12,4.2,0,1.48,.06,3,.18,4.56,.08,1.92,.12,3.22,.12,3.9,0,4.12-.8,7.78-2.4,10.98-1.6,3.2-3.78,5.68-6.54,7.44-2.76,1.76-5.86,2.64-9.3,2.64-3.88,0-7.31-.91-10.29-2.73-2.98-1.82-5.28-4.28-6.9-7.38-1.62-3.1-2.43-6.47-2.43-10.11,0-1.24,.06-2.64,.18-4.2Zm2.91,11.58c1.34,2.32,3.3,4.13,5.88,5.43,2.58,1.3,5.69,1.95,9.33,1.95s6.63-.62,9.45-1.86c2.82-1.24,5.04-2.99,6.66-5.25,1.62-2.26,2.43-4.89,2.43-7.89,0-1.72-.1-3.04-.3-3.96-.2-.92-.59-1.6-1.17-2.04-.58-.44-1.45-.66-2.61-.66H22.29c-1.16,0-2.07,.17-2.73,.51s-1.15,.96-1.47,1.86c-.32,.9-.48,2.21-.48,3.93,0,3,.67,5.66,2.01,7.98Z" fill="#aeffe0"/>
        <path d="M17.13,47.16c.24,0,.36,.06,.36,.18,0,1.44,.1,2.49,.3,3.15,.2,.66,.59,1.11,1.17,1.35,.58,.24,1.47,.36,2.67,.36h27.78c1.2,0,2.08-.12,2.64-.36,.56-.24,.95-.69,1.17-1.35,.22-.66,.33-1.71,.33-3.15,0-.12,.12-.18,.36-.18s.36,.06,.36,.18v24.48c0,.4-.18,.6-.54,.6l-7.56,.12c-.12,0-.19-.11-.21-.33-.02-.22,.03-.35,.15-.39,2.2-.28,3.88-1.06,5.04-2.34,1.16-1.28,1.74-2.96,1.74-5.04v-3.06c0-1.76-.26-2.94-.78-3.54-.52-.6-1.5-.9-2.94-.9H21.87c-1.44,0-2.42,.27-2.94,.81-.52,.54-.78,1.63-.78,3.27v3.96c0,2.24,.67,4.11,2.01,5.61,1.34,1.5,3.25,2.53,5.73,3.09,.08,0,.12,.08,.12,.24,0,.12-.03,.23-.09,.33-.06,.1-.11,.15-.15,.15-2.88-.4-5.58-.6-8.1-.6-.32,0-.55-.06-.69-.18-.14-.12-.21-.36-.21-.72v-25.56c0-.12,.12-.18,.36-.18Zm17.25,20.91c.82-.98,1.23-2.53,1.23-4.65v-8.76h1.38v8.88c0,2.04,.35,3.54,1.05,4.5,.7,.96,1.79,1.44,3.27,1.44,.08,0,.12,.11,.12,.33s-.04,.33-.12,.33l-5.04-.06-2.7,.06c-1.28,.08-2.28,.12-3,.12-.08,0-.12-.12-.12-.36s.04-.36,.12-.36c1.72,0,2.99-.49,3.81-1.47Z" fill="#aeffe0"/>
        <path d="M43.56,90.66c-1.14,.76-2.12,1.68-2.94,2.76-.82,1.08-1.81,2.58-2.97,4.5-1.24,2-2.31,3.59-3.21,4.77-.9,1.18-2.01,2.19-3.33,3.03-1.32,.84-2.88,1.26-4.68,1.26-1.96,0-3.73-.51-5.31-1.53-1.58-1.02-2.82-2.48-3.72-4.38-.9-1.9-1.35-4.11-1.35-6.63,0-1.6,.19-3.18,.57-4.74,.38-1.56,.93-2.92,1.65-4.08,.12-.2,.26-.34,.42-.42,.16-.08,.4-.12,.72-.12l8.58-.6c.16-.04,.26,.05,.3,.27,.04,.22-.02,.35-.18,.39-3.04,.96-5.62,2.3-7.74,4.02-2.12,1.72-3.18,3.96-3.18,6.72,0,1.88,.51,3.46,1.53,4.74s2.69,1.92,5.01,1.92c1.76,0,3.3-.4,4.62-1.2,1.32-.8,2.43-1.78,3.33-2.94,.9-1.16,1.93-2.7,3.09-4.62,1.2-1.88,2.23-3.37,3.09-4.47,.86-1.1,1.92-2.03,3.18-2.79,1.26-.76,2.73-1.14,4.41-1.14,2.04,0,3.78,.55,5.22,1.65,1.44,1.1,2.51,2.54,3.21,4.32,.7,1.78,1.05,3.65,1.05,5.61,0,2.64-.46,5.06-1.38,7.26-.28,.6-.64,.9-1.08,.9l-7.5,.3c-.16,0-.25-.11-.27-.33-.02-.22,.05-.35,.21-.39,2.16-.44,4.2-1.37,6.12-2.79,1.92-1.42,2.88-3.45,2.88-6.09,0-2-.6-3.55-1.8-4.65-1.2-1.1-2.72-1.65-4.56-1.65-1.52,0-2.85,.38-3.99,1.14Z" fill="#aeffe0"/>
        <path d="M18.93,126.03c-.56,.22-.94,.66-1.14,1.32-.2,.66-.3,1.73-.3,3.21,0,.08-.12,.12-.36,.12s-.36-.04-.36-.12c0-1.28,.02-2.28,.06-3l.06-4.32-.06-4.2c-.04-.76-.06-1.8-.06-3.12,0-.08,.12-.12,.36-.12s.36,.04,.36,.12c0,1.44,.1,2.5,.3,3.18,.2,.68,.59,1.15,1.17,1.41,.58,.26,1.47,.39,2.67,.39h27.78c1.2,0,2.08-.13,2.64-.39,.56-.26,.95-.73,1.17-1.41,.22-.68,.33-1.74,.33-3.18,0-.08,.12-.12,.36-.12s.36,.04,.36,.12l-.06,3.12c-.08,1.76-.12,3.16-.12,4.2,0,1.16,.04,2.62,.12,4.38l.06,2.94c0,.08-.12,.12-.36,.12s-.36-.04-.36-.12c0-1.44-.12-2.49-.36-3.15-.24-.66-.65-1.11-1.23-1.35-.58-.24-1.47-.36-2.67-.36H21.63c-1.24,0-2.14,.11-2.7,.33Z" fill="#aeffe0"/>
        <path d="M18.66,149.43c1.74-3.3,4.1-5.82,7.08-7.56,2.98-1.74,6.27-2.61,9.87-2.61,3.84,0,7.22,.99,10.14,2.97,2.92,1.98,5.18,4.7,6.78,8.16,1.6,3.46,2.4,7.35,2.4,11.67,0,2.04-.19,4-.57,5.88-.38,1.88-.89,3.44-1.53,4.68-.16,.32-.3,.51-.42,.57-.12,.06-.44,.11-.96,.15l-7.44,.78c-.12,0-.2-.11-.24-.33-.04-.22,.02-.35,.18-.39,2.8-.84,5.15-2.33,7.05-4.47,1.9-2.14,2.85-4.93,2.85-8.37,0-3-.7-5.7-2.1-8.1-1.4-2.4-3.41-4.29-6.03-5.67-2.62-1.38-5.67-2.07-9.15-2.07s-6.77,.7-9.75,2.1c-2.98,1.4-5.37,3.45-7.17,6.15-1.8,2.7-2.7,5.91-2.7,9.63,0,2.72,.53,4.62,1.59,5.7,1.06,1.08,2.97,1.62,5.73,1.62,2.08,0,3.53-.13,4.35-.39,.82-.26,1.37-.82,1.65-1.68,.28-.86,.42-2.37,.42-4.53,0-.24,.16-.36,.48-.36,.12,0,.23,.03,.33,.09,.1,.06,.15,.13,.15,.21-.2,3.2-.3,5.8-.3,7.8s.06,3.98,.18,6.06c0,.08-.05,.15-.15,.21-.1,.06-.19,.09-.27,.09-.28,0-.42-.1-.42-.3,.04-.92-.09-1.56-.39-1.92-.3-.36-.91-.59-1.83-.69-.92-.1-2.52-.15-4.8-.15-1.8,0-3.08,.07-3.84,.21-.76,.14-1.24,.21-1.44,.21-.24,0-.4-.04-.48-.12-.08-.08-.16-.26-.24-.54-1.08-5.04-1.62-9.4-1.62-13.08,0-4.44,.87-8.31,2.61-11.61Z" fill="#aeffe0"/>
        <path d="M15.81,219.87c-.04-.18-.02-.31,.06-.39l33.48-28.26c1.56-1.32,2.65-2.5,3.27-3.54,.62-1.04,.93-2.08,.93-3.12,0-.08,.12-.12,.36-.12s.36,.04,.36,.12l-.06,2.34c-.04,.48-.06,1.16-.06,2.04l.06,3.06c.04,.4,.06,.86,.06,1.38,0,.32-.08,.56-.24,.72-.16,.16-.48,.4-.96,.72l-1.92,1.44-28.2,23.4-6.96,.48c-.08,0-.14-.09-.18-.27Zm.18,.27l1.86-1.5h29.52c2.08,0,3.63-.38,4.65-1.14,1.02-.76,1.53-1.94,1.53-3.54,0-.08,.12-.12,.36-.12s.36,.04,.36,.12l-.06,2.4c-.08,1.2-.12,2.22-.12,3.06,0,.72,.04,1.76,.12,3.12l.06,2.52c0,.08-.12,.12-.36,.12s-.36-.04-.36-.12c0-3.28-2.06-4.92-6.18-4.92H15.99Zm36.9-30.36l-.12,1.56H23.61c-2.08,0-3.62,.39-4.62,1.17-1,.78-1.5,1.97-1.5,3.57,0,.08-.12,.12-.36,.12s-.36-.04-.36-.12c0-1.04,.02-1.84,.06-2.4l.06-3.06-.06-3.24c-.04-.6-.06-1.48-.06-2.64,0-.08,.12-.12,.36-.12s.36,.04,.36,.12c0,1.72,.5,2.99,1.5,3.81,1,.82,2.54,1.23,4.62,1.23h29.28Z" fill="#aeffe0"/>
      </g>
      <line x1=".5" x2=".5" y2="222.22" fill="none" stroke="#aeffe0" stroke-miterlimit="10"/>
      <line x1="90.95" x2="90.95" y2="358.67" fill="none" stroke="#aeffe0" stroke-miterlimit="10"/>
    </g>
  </g>
</svg>