<?xml version="1.0" encoding="UTF-8"?>
<svg id="_圖層_2" data-name="圖層 2" xmlns="http://www.w3.org/2000/svg" xmlns:xlink="http://www.w3.org/1999/xlink" viewBox="0 0 318.55 175.6">
  <defs>
    <filter id="drop-shadow-1" filterUnits="userSpaceOnUse">
      <feOffset dx="0" dy="0"/>
      <feGaussianBlur result="blur" stdDeviation="3"/>
      <feFlood flood-color="#244441" flood-opacity=".5"/>
      <feComposite in2="blur" operator="in"/>
      <feComposite in="SourceGraphic"/>
    </filter>
    <filter id="drop-shadow-2" filterUnits="userSpaceOnUse">
      <feOffset dx="0" dy="0"/>
      <feGaussianBlur result="blur-2" stdDeviation="3.21"/>
      <feFlood flood-color="#244441" flood-opacity=".5"/>
      <feComposite in2="blur-2" operator="in"/>
      <feComposite in="SourceGraphic"/>
    </filter>
  </defs>
  <g id="content">
    <g>
      <g filter="url(#drop-shadow-1)">
        <path d="M.26,29.72c.22-.22,.84-.2,1.88,.08,.65,.17,2.12-.08,4.41-.75,2.12-.67,4.76-1.68,7.92-3.02,2.99-1.23,6.01-2.32,9.06-3.27,2.99-.84,5.09-1.29,6.29-1.34,1.03,0,1.6,.25,1.71,.75,0,.56-.03,1.09-.08,1.59-.16,.39-.82,.75-1.96,1.09-1.47,.34-2.48,.84-3.02,1.51-.49,.67-.95,.78-1.39,.34-.38-.39-1.85-.25-4.41,.42-2.45,.73-5.17,1.79-8.17,3.19-2.94,1.34-5.31,2.26-7.1,2.77s-3.02,.67-3.67,.5c-.87-.17-1.42-.81-1.63-1.93-.16-1.01-.11-1.65,.16-1.93Zm10.78,9.73c-.33-1.23,.08-1.93,1.23-2.1,.65-.06,2.61-.92,5.88-2.6,3.27-1.68,5.99-2.65,8.17-2.93,.87-.17,1.31,.06,1.31,.67,0,.56,.14,1.09,.41,1.59,.22,.39,.03,.84-.57,1.34-.65,.5-1.55,1.34-2.69,2.52-1.03,1.17-3.27,3.19-6.7,6.04-3.32,2.74-4.98,4.28-4.98,4.61,.05,.22,1.55-.64,4.49-2.6,2.83-1.9,5.31-3.27,7.43-4.11,2.61-.84,3.54,.22,2.78,3.19-.65,2.68-3.35,5.09-8.08,7.21-.98,.39-1.61,.39-1.88,0-.22-.39-.08-.78,.41-1.17,3.1-2.01,4.46-3.32,4.08-3.94-.38-.56-2.48,.28-6.29,2.52-3.65,2.18-6.12,3.49-7.43,3.94-1.36,.34-2.23,.28-2.61-.17-.33-.5-.22-1.06,.33-1.68,1.2-1.34,2.2-2.35,3.02-3.02,.71-.56,3.02-2.65,6.94-6.29,3.81-3.52,5.69-5.39,5.63-5.62-.16-.22-1.28,.17-3.35,1.17-2.01,1.06-3.24,1.71-3.67,1.93-.33,.06-.63,.17-.9,.34-1.52,.67-2.5,.39-2.94-.84Zm.98,28.42c-1.96-1.84-3.81-4.44-5.55-7.8-.38-1.17-.46-1.93-.25-2.26,.33-.34,.84-.39,1.55-.17,.71,.22,1.25,.73,1.63,1.51,.16,.39,.41,.81,.73,1.26,4.08-2.35,8.6-4.41,13.55-6.2,1.63-.56,3.29-.36,4.98,.59,1.52,1.01,1.85,2.8,.98,5.37-.49,1.17-1.25,2.29-2.29,3.35-.98,1.01-1.44,1.57-1.39,1.68,.05,.06,.92-.28,2.61-1.01,1.63-.73,2.67-1.48,3.1-2.26,.54-1.23,1.03-1.76,1.47-1.59,.33,.17,.33,.78,0,1.84-.49,1.51-1.66,2.93-3.51,4.28-1.8,1.17-4.52,2.54-8.17,4.11-.98,.34-1.8,.03-2.45-.92-.05-.17-.14-.31-.24-.42-.49,.67-1.17,1.06-2.04,1.17-1.03,.17-2.61-.67-4.74-2.52Zm2.2-2.26c1.31,1.01,2.12,1.34,2.45,1.01,.71-.73,1.12-.81,1.22-.25,.05,.67,.35,1.15,.9,1.43l.08,.08c.16-.22,.57-.56,1.22-1.01,.82-.5,1.88-1.45,3.18-2.85,1.2-1.34,2.2-2.74,3.02-4.19,.22-.84,.03-1.51-.57-2.01-.49-.34-2.64,.31-6.45,1.93-3.1,1.34-5.5,2.57-7.19,3.69,.71,.89,1.42,1.62,2.12,2.18ZM24.26,13.46c-1.52-1.17-4.25-2.26-8.17-3.27-.82-.17-1.03-.84-.65-2.01,.33-1.06,.84-1.51,1.55-1.34,4.14,1.17,7.13,2.49,8.98,3.94,1.8,1.34,2.91,2.66,3.35,3.94,.33,1.17,.33,2.15,0,2.93-.33,1.01-.79,1.54-1.39,1.59-.49,0-.82-.53-.98-1.59-.16-1.51-1.06-2.91-2.69-4.19Zm26.54,19.03c-3.92,3.52-8.87,7.35-14.86,11.49-.71,.39-1.2,.39-1.47,0-.16-.39-.05-.75,.33-1.09,5.06-3.86,9.83-8.27,14.29-13.25,.49-.67,1.01-1.26,1.55-1.76-.05-.67-.14-1.09-.25-1.26-.65-.84-.9-1.65-.73-2.43,0-.5,.19-.92,.57-1.26-.87,.34-1.91,.75-3.1,1.26-5.28,2.01-8.49,3.13-9.63,3.35-1.14,.06-1.88-.31-2.21-1.09-.33-.84-.27-1.54,.16-2.1,3.92-4.58,6.01-8.19,6.29-10.82,.33-2.52-.38-4.53-2.12-6.04-.38-.34-.22-.87,.49-1.59,.65-.67,1.58-.64,2.78,.08,1.8,1.23,2.67,3.13,2.61,5.7-.06,2.52-.87,4.92-2.45,7.21-1.52,2.35-2.2,3.63-2.04,3.86,.16,.17,2.69-.75,7.59-2.77,4.74-2.01,8.93-3.16,12.57-3.44,2.45-.34,3.7,.06,3.76,1.17,0,1.06-.3,1.73-.9,2.01-1.2,.39-3.97,3.05-8.33,7.96-.49,.5-1.06,1.09-1.71,1.76,.16,2.85,.19,6.79,.08,11.82,1.47-.34,2.88-.56,4.25-.67,3.16-.34,5.28-.47,6.37-.42,.98,0,1.96-.08,2.94-.25,1.8-.22,2.99-.2,3.59,.08,.49,.34,.76,.67,.82,1.01,0,.34-.27,.73-.82,1.17-.49,.5-.79,1.01-.9,1.51,0,.5-.65,.87-1.96,1.09-.22,0-.44-.06-.65-.17-.16-.17-2.01-.22-5.55-.17-3.27,0-5.96,.22-8.08,.67-.38,12.8-.52,21.21-.41,25.24,.05,3.86-.05,6.82-.33,8.89-.38,1.9-.76,2.77-1.14,2.6-.33-.17-.71-.06-1.14,.34-.33,.39-.76-.06-1.31-1.34-.38-1.34-.54-2.54-.49-3.61,.16-1.06,.11-1.9-.16-2.52-.22-.5-.27-1.03-.16-1.59,.16-.5,.46-.78,.9-.84,.33,0,.65-7.43,.98-22.3v-3.86c-1.69,.5-3.65,1.23-5.88,2.18-3.43,1.34-5.88,2.18-7.35,2.52-1.36,.22-2.56,.2-3.59-.08-1.03-.34-1.58-.89-1.63-1.68,0-.73,.19-1.26,.57-1.59,.33-.34,.95-.39,1.88-.17,.98,.17,1.9,.2,2.78,.08,.87-.17,3.76-1.26,8.66-3.27,1.63-.73,3.18-1.37,4.65-1.93,0-4.02-.03-7.27-.08-9.73Zm4.49-10.98c-.16-.17-1.44,.17-3.84,1.01,.38,.06,.9,.39,1.55,1.01,.05,.06,.19,.39,.41,1.01,1.47-1.73,2.09-2.74,1.88-3.02Z" fill="#fff"/>
        <path d="M89.41,26.18c.16-2.91,1.06-6.18,2.69-9.81,.65-1.06,1.2-1.59,1.63-1.59,.49,0,.84,.39,1.06,1.17,.22,.73,.16,1.48-.16,2.26-.16,.34-.33,.73-.49,1.17,1.31,.17,6.42-1.26,15.35-4.28,2.5-.89,5.01-1.68,7.51-2.35-.33-.17-.6-.42-.82-.75-.54-.84-.46-1.34,.25-1.51,1.31-.17,2.88-.7,4.74-1.59,.33-.17,.54-.5,.65-1.01,0-.39-.16-.78-.49-1.17-1.31-.84-2.72-1.54-4.25-2.1-1.47-.5-2.8-.84-4-1.01-.16-.06-.49,.03-.98,.25-.49,.22-.95-.39-1.39-1.84-.49-1.51,0-2.18,1.47-2.01,2.45,.17,4.82,.78,7.1,1.84,2.29,1.01,4.11,2.1,5.47,3.27,1.14,1.51,1.22,2.99,.25,4.44-.98,.73-2.01,1.4-3.1,2.01,3.65-.84,7.05-1.31,10.21-1.43,4.74-.22,8.49,.31,11.27,1.59,2.67,1.23,4.41,2.74,5.23,4.53,.87,2.74,.41,4.67-1.39,5.78-2.29,.67-5.69,.73-10.21,.17-1.52,0-2.34-.28-2.45-.84,0-.5,.68-.87,2.04-1.09,5.06-.5,7.76-1.23,8.08-2.18,.16-.89-.71-1.9-2.61-3.02-1.85-1.01-5.12-1.51-9.8-1.51-5.72,0-13.23,1.62-22.54,4.86-9.31,3.07-14.89,4.61-16.74,4.61h-.08c-.33,1.4-.49,2.6-.49,3.61,0,1.73,.27,2.68,.82,2.85,.98,.06,1.28,.34,.9,.84-.38,.5-.54,1.03-.49,1.59,.05,.5-.33,.78-1.14,.84-.82,0-1.52-.31-2.12-.92-.82-.84-1.14-2.74-.98-5.7Zm19.27,27.75c5.39-1.84,10.56-2.88,15.51-3.1,4.25-.17,7.54-.08,9.88,.25,2.29,.34,4,1.09,5.14,2.26,1.36,2.01,2.04,4.14,2.04,6.37,0,1.23-.87,3.69-2.61,7.38-1.63,3.58-3.46,6.65-5.47,9.22-.82,1.06-1.88,1.82-3.18,2.26-1.14,.34-1.77-.25-1.88-1.76-.65,.17-1.42,.28-2.29,.34-1.47,0-3.97,.34-7.51,1.01-3.43,.67-6.21,1.12-8.33,1.34-2.01,.17-3.54,.08-4.57-.25-.16,0-.3-.08-.41-.25-.49,.34-.76,.06-.82-.84,0-.5-.16-.87-.49-1.09-.16-.17-.87-2.04-2.12-5.62-1.14-3.52-1.99-6.4-2.53-8.64-.16-.84-.35-1.59-.57-2.26-.49-.17-.84-.7-1.06-1.59-.33-1.34-.14-2.01,.57-2.01,0-.67,.22-1.14,.65-1.43,.49-.17,1.01-.11,1.55,.17,.16,.06,.35,.28,.57,.67,1.85-.5,4.49-1.31,7.92-2.43Zm-3.02-16.94c5.55-2.18,10.45-3.74,14.7-4.7,4.25-1.01,7.4-1.45,9.47-1.34,2.12,0,3.48,.5,4.08,1.51,1.14,1.34,1.01,2.85-.41,4.53-1.31,1.73-3.35,3.63-6.12,5.7-.16,0-.27,.06-.33,.17,.05,.06,.16,.2,.33,.42,.22,.5-.05,1.17-.82,2.01-.49,.5-1.25,.81-2.29,.92-.98,.06-2.64,.56-4.98,1.51-2.29,.84-4.16,1.43-5.63,1.76-1.36,.34-2.42,.45-3.18,.34-.16,.06-.38,.11-.65,.17-1.14,0-2.69-1.14-4.65-3.44-1.85-2.23-3.48-5.25-4.9-9.05-.22-1.23-.16-2.01,.16-2.35,.33-.22,.84-.2,1.55,.08,.65,.34,1.11,.89,1.39,1.68,1.52,3.86,2.97,6.46,4.33,7.8,1.31,1.23,2.15,1.73,2.53,1.51,.82-.67,1.25-.67,1.31,0v.25c.49,0,1.23-.14,2.2-.42,1.63-.39,3.7-1.09,6.21-2.1,.65-.34,1.42-.64,2.29-.92,1.36-1.01,2.67-1.98,3.92-2.93,1.96-1.68,3.24-2.96,3.84-3.86,.33-.89,.27-1.59-.16-2.1-.16-.22-.9-.36-2.2-.42-1.2,0-3.73,.5-7.59,1.51-3.76,1.01-8.17,2.63-13.23,4.86-.87,.34-1.47-.03-1.8-1.09-.22-1.01,0-1.68,.65-2.01Zm.33,27.16c3.97-1.68,7.59-2.93,10.86-3.77-.05-1.9-.27-3.69-.65-5.37-2.45,.5-4.65,1.15-6.61,1.93-2.83,1.06-5.53,2.01-8.08,2.85,.38,1.9,1.14,4.42,2.29,7.55,1.36,4.25,2.39,6.99,3.1,8.22l.08,.08c3.43-1.73,6.56-3.52,9.39-5.37,.22-2.68,.38-5.06,.49-7.13-2.78,.84-6.02,2.18-9.72,4.02-.87,.34-1.47,0-1.8-1.01-.33-1.01-.11-1.68,.65-2.01Zm-2.45-38.4c.33-1.4,1.01-2.01,2.04-1.84,1.8,.5,5.03-.03,9.72-1.59,4.95-1.84,8.06-2.82,9.31-2.93,.82,0,1.47,.14,1.96,.42,.49,.22,1.5,.5,3.02,.84,1.47,.22,1.09,1.31-1.14,3.27-.71,.56-2.99,2.12-6.86,4.7-3.81,2.52-6.75,3.89-8.82,4.11-1.03,.06-1.66-.17-1.88-.67-.05-.5,.25-.89,.9-1.17,2.12-.67,4.74-2.01,7.84-4.02,2.94-1.9,4.38-2.99,4.33-3.27-.16-.34-2.83,.31-8,1.93-5.39,1.9-9.17,2.8-11.35,2.68-1.03-.06-1.39-.87-1.06-2.43Zm29.07,28.76c-1.85-.34-4.76-.42-8.74-.25-1.36,0-2.67,.08-3.92,.25,.05,1.51,.14,3.19,.25,5.03,2.12-.34,3.84-.5,5.14-.5,1.63,0,2.75,.39,3.35,1.17,1.03,1.51,.76,3.16-.82,4.95-2.01,2.18-4.82,4.42-8.41,6.71v.25c0,.84-.44,1.54-1.31,2.1-.71,.5-1.25,.61-1.63,.34-.16-.17-.3-.36-.41-.59-1.2,.56-2.31,1.14-3.35,1.76,2.12-.17,4.68-.62,7.68-1.34,3.76-.84,6.31-1.2,7.68-1.09,1.03,.17,1.74,.5,2.12,1.01,.16,0,.35-.08,.57-.25,1.03-1.17,2.42-3.69,4.16-7.55,1.69-3.86,2.53-6.46,2.53-7.8,0-.84-.33-1.73-.98-2.68-.65-.67-1.96-1.17-3.92-1.51Zm-12.74,13.33c2.18-1.56,3.73-2.88,4.65-3.94,.33-.84,.3-1.48-.08-1.93-.05-.17-.6-.25-1.63-.25-.49,0-1.36,.14-2.61,.42-.05,1.68-.16,3.58-.33,5.7Z" fill="#fff"/>
        <path d="M173.99,51.6c2.67-5.53,6.78-15.4,12.33-29.6,.22-.84,.87-1.31,1.96-1.43,.98,0,1.55,.28,1.71,.84,.16,.5,.03,1.17-.41,2.01-.16,.17-.57,1.01-1.22,2.52l.25,.08c.65,.39,1.41,.48,2.29,.25,2.29-1.01,4.38-1.82,6.29-2.43,4.9-3.02,8.38-5.67,10.45-7.96,2.29-2.52,3.27-4.25,2.94-5.2-.16-.34-.84-.42-2.04-.25-1.03,.17-3.08,.64-6.12,1.43-2.94,.67-5.66,1.57-8.17,2.68-2.45,1.01-4.98,1.51-7.59,1.51-.71,0-1.14-.36-1.31-1.09,0-.67,.08-1.29,.24-1.84,.16-.5,.65-.73,1.47-.67,1.63,.17,2.91,.11,3.84-.17,.98-.22,2.18-.7,3.59-1.43,1.36-.67,3.89-1.48,7.59-2.43,3.59-1.01,5.91-1.54,6.94-1.59,.98,0,1.69-.06,2.12-.17,.98-.22,1.77-.17,2.37,.17,.54,.34,1.11,1.23,1.71,2.68,.22,1.01,.05,2.1-.49,3.27-.54,1.17-2.5,3.19-5.88,6.04-1.47,1.06-2.99,2.21-4.57,3.44,.65-.17,1.22-.36,1.71-.59,.82-.5,2.07-.5,3.76,0,.71,.17,.93,.89,.65,2.18-.33,1.17-.98,1.79-1.96,1.84-1.96-.17-4.38,.08-7.27,.75-2.78,.67-6.21,1.82-10.29,3.44-1.03,.34-1.88,.34-2.53,0-.49-.34-.79-.92-.9-1.76-.71,1.9-1.63,4.3-2.78,7.21-.98,2.24-1.93,4.47-2.86,6.71l.08,.08c.82,.5,1.77,.73,2.86,.67,1.31-.17,4.93-1.2,10.86-3.1,3.59-1.17,6.91-2.18,9.96-3.02,0-.5-.06-.87-.16-1.09-.38-1.56-1.06-2.63-2.04-3.19-.98-.5-1.5-1.15-1.55-1.93,0-.73,.41-1.31,1.23-1.76,.82-.39,1.58-.28,2.29,.34,1.2,.73,2.15,2.24,2.86,4.53,.16,.67,.27,1.48,.33,2.43,.65-.17,1.36-.31,2.12-.42,4.08-.84,7.32-1.29,9.72-1.34,2.34,0,3.86,.14,4.57,.42,.65,.34,1.31,.48,1.96,.42,1.47,0,2.58,.7,3.35,2.1,.65,1.34,.71,2.35,.16,3.02-.54,.67-1.82,.48-3.84-.59-1.03-.5-2.26-.89-3.67-1.17-1.31-.22-3.21-.25-5.72-.08-1.96,0-4.95,.53-8.98,1.59,0,.5-.11,1.09-.33,1.76-.87,3.19-2.64,6.34-5.31,9.47-2.61,3.07-4.57,4.86-5.88,5.37-.98,.22-1.74,.03-2.29-.59-.49-.67-.87-1.87-1.14-3.61-.16-1.68,.08-2.6,.73-2.77,.65-.17,1.14,.42,1.47,1.76s.73,1.93,1.22,1.76c.49-.17,1.74-1.37,3.76-3.61,1.96-2.18,3.4-4.67,4.33-7.46,0-.34,.08-.73,.25-1.17h-.08c-5.72,1.4-10.21,2.71-13.47,3.94-3.27,1.17-5.5,1.79-6.7,1.84-1.85,0-3.27-.36-4.25-1.09-.05,0-.11-.03-.16-.08-1.36,3.24-2.83,6.37-4.41,9.39-2.94,5.59-5.58,9.78-7.92,12.58-2.29,2.68-4.11,4.44-5.47,5.28-1.2,.67-2.15,.95-2.86,.84-.98-.34-1.58-1.01-1.8-2.01-.22-1.01-.16-1.62,.16-1.84,.33-.22,.62-.14,.9,.25,.16,.34,.38,.59,.65,.75,.16,0,.46-.11,.9-.34,.49-.17,1.25-.7,2.29-1.59,.98-.84,2.42-2.52,4.33-5.03,1.8-2.52,4.08-6.57,6.86-12.16Zm23.68,6.87c3.92-2.57,7.57-4.44,10.94-5.62,3.43-1.17,6.26-1.54,8.49-1.09,2.34,.5,3.86,1.79,4.57,3.86,.49,2.35,.03,4.78-1.39,7.29-1.14,2.07-3.51,4.67-7.1,7.8,1.36,0,2.45-.17,3.27-.5,.87-.34,2.18-.14,3.92,.59,.71,.34,.84,1.09,.41,2.26-.49,1.06-1.23,1.56-2.2,1.51-2.01-.39-4.63-.45-7.84-.17-3.1,.22-6.94,.95-11.51,2.18-1.14,.17-1.99,.03-2.53-.42-.22-.17-.35-.39-.41-.67-.16,.17-.3,.42-.41,.75-.49,.73-.87,.59-1.14-.42-.16-.5-.38-.87-.65-1.09-.33-.17-1.36-1.96-3.1-5.37-1.8-3.35-3.13-6.12-4-8.3-.82-2.01-1.47-3.83-1.96-5.45-.16-.84-.06-1.43,.33-1.76,.49-.34,1.01-.39,1.55-.17,.49,.22,.9,.81,1.22,1.76,.49,1.68,1.47,4.02,2.94,7.04,.49,0,2.69-1.34,6.61-4.02Zm7.35,.08c-2.99,1.57-7.02,3.94-12.08,7.13h-.16c1.63,3.02,2.91,5.2,3.84,6.54,.16-.17,.44-.11,.82,.17,.65,.5,1.42,.7,2.29,.59,3.65-1.01,6.61-1.68,8.9-2.01,4.79-4.58,7.62-7.77,8.49-9.56,.82-1.84,1.03-3.49,.65-4.95-.33-.84-1.8-1.14-4.41-.92-2.45,.34-5.23,1.34-8.33,3.02Z" fill="#fff"/>
      </g>
      <rect x="8.98" y="122.12" width="162.27" height="52.94" rx="9.72" ry="9.72" fill="none" stroke="#829995" stroke-miterlimit="10" stroke-width="1.07"/>
      <g>
        <path d="M51.83,147.88H26.32v-2.17h11.43c-.19-.5-.44-1.04-.76-1.61h-7.92v-8.35h20.1v8.35h-9.36c.21,.38,.44,.92,.7,1.61h11.31v2.17Zm-16.81,9.29c-1.61,1.35-3.91,2.72-6.92,4.12l-1.34-2.09c2.47-1.05,4.64-2.28,6.49-3.66l1.77,1.64Zm14.12-2.36h-8.59v4.26c0,.71-.25,1.3-.75,1.76-.5,.46-2.15,.7-4.96,.72l-.9-2.39c.71,.05,1.34,.07,1.88,.07,.71,0,1.24-.02,1.58-.07,.34-.04,.51-.22,.51-.52v-3.84h-8.85v-5.46h20.07v5.46Zm-2.64-15.88v-1.1h-14.75v1.1h14.75Zm0,3.09v-1.2h-14.75v1.2h14.75Zm-.06,10.74v-1.41h-14.67v1.41h14.67Zm4.91,6.43l-1.48,1.98c-2.04-1.43-4.23-2.67-6.55-3.72l1.5-1.98c2.52,1.17,4.7,2.41,6.53,3.72Z" fill="#aeffe0"/>
        <path d="M73.33,150.35h-3.65v1.35h3.28v1.95h-3.28v1.41h3.28v1.98h-3.28v1.63h3.51v2.17h-9.03v.69h-2.43v-9.01c-.4,.45-.82,.85-1.26,1.2l-1-2.37c1.5-1.54,2.64-3.24,3.42-5.1l2.28,.63c-.15,.43-.36,.89-.61,1.38h2.37c-.16-.39-.37-.79-.61-1.19l2.15-.73c.36,.57,.68,1.21,.97,1.92h3.88v2.11Zm-7.5-10.21h-2.4v-1.13h-3.45v-2.05h3.45v-1.64h2.4v4.82Zm.53,5.8h-5.82v-5.1h5.82v5.1Zm-2.08-1.77v-1.46h-1.66v1.46h1.66Zm3.04,7.53v-1.35h-3.15v1.35h3.15Zm0,3.35v-1.41h-3.15v1.41h3.15Zm0,3.6v-1.63h-3.15v1.63h3.15Zm5.93-12.71h-5.75v-5.1h5.75v5.1Zm.53-6.93h-3.31v1.13h-2.45v-4.82h2.45v1.64h3.31v2.05Zm-2.6,5.16v-1.46h-1.61v1.46h1.61Zm14.45,11.88c-.02,1.43-.12,2.54-.31,3.35s-.47,1.35-.83,1.6c-.36,.26-.94,.39-1.74,.39-1.05,0-1.77-.14-2.18-.43-.4-.29-.61-.75-.61-1.4v-6.61h-1.08c-.11,3.97-1.28,6.92-3.5,8.85l-1.94-1.49c2.01-1.88,3.06-4.33,3.17-7.35h-1.97v-16.89h9.73v16.89h-2.1v5.61c0,.3,.16,.45,.47,.45,.34,0,.56-.27,.65-.81s.14-1.47,.14-2.79l2.1,.63Zm-3.65-15.28v-2.3h-4.91v2.3h4.91Zm0,4.89v-2.55h-4.91v2.55h4.91Zm0,4.8v-2.52h-4.91v2.52h4.91Z" fill="#aeffe0"/>
        <path d="M103.75,140.53h-10.23v-2.43h3.92c-.29-.79-.63-1.54-1-2.26l2.6-.66c.43,.76,.83,1.73,1.2,2.92h3.51v2.43Zm-.7,4.35h-8.75v-2.4h8.75v2.4Zm0,4.29h-8.75v-2.37h8.75v2.37Zm.03,11.63h-2.54v-1.2h-3.68v1.92h-2.48v-10.37h8.7v9.65Zm-2.54-3.63v-3.56h-3.68v3.56h3.68Zm18.85,2.08l-1.23,2.43c-2.45-.8-4.68-1.97-6.69-3.52-1.83,1.43-3.94,2.63-6.35,3.6l-1.48-2.29c2.39-.76,4.38-1.79,5.96-3.09-1.58-1.82-2.81-3.88-3.68-6.18h-1.33v-2.46h12.74v2.46c-1.23,2.61-2.54,4.66-3.94,6.15,1.6,1.25,3.6,2.21,5.99,2.89Zm-.33-13.26h-3.79c-.49,0-.92-.21-1.31-.64-.39-.42-.58-.91-.58-1.44v-5.33h-4.01v1.8c0,1.32-.32,2.59-.96,3.82-.64,1.23-1.52,2.17-2.63,2.83l-1.81-1.83c1.91-1.04,2.87-2.89,2.87-5.55v-3.53h9.09v6.68c0,.2,.09,.37,.27,.53,.18,.16,.35,.23,.51,.23h2.37v2.43Zm-4.52,4.22h-5.82c.85,1.88,1.78,3.36,2.81,4.44,1.06-1.05,2.07-2.53,3.01-4.44Z" fill="#aeffe0"/>
        <path d="M139.31,140.41h-12.15v-2.37h4.82c-.31-.84-.68-1.65-1.08-2.43l2.72-.51c.45,.81,.88,1.79,1.28,2.94h4.41v2.37Zm-1.37,4.47h-9.73v-2.4h9.73v2.4Zm0,4.32h-9.73v-2.37h9.73v2.37Zm.06,11.91h-2.54v-1.51h-4.54v1.89h-2.57v-10.31h9.64v9.93Zm-2.54-3.9v-3.57h-4.54v3.57h4.54Zm17.21-10.99h-5.32v15.26h-2.65v-15.26h-5.21v-2.64h5.21v-8.25h2.65v8.25h5.32v2.64Z" fill="#aeffe0"/>
      </g>
      <g filter="url(#drop-shadow-2)">
        <path d="M217.66,160.78h-25.37v-1.55h10.9v-23.92h1.56v9.4h11.63v1.58h-11.63v12.93h12.91v1.55Z" fill="#fff"/>
        <path d="M233.84,155.62c-2.98,1.45-5.53,2.52-7.65,3.24l-.47-1.41,3.3-1.26v-11.46h-3.07v-1.45h3.07v-7.59h1.44v7.59h2.28v1.45h-2.28v10.83c1.1-.45,2.14-.93,3.12-1.44l.26,1.49Zm17.5,.89c-.09,1.51-.2,2.53-.35,3.05s-.44,.93-.86,1.22c-.43,.29-1.23,.43-2.41,.43-1.51,0-2.51-.14-3-.41-.49-.27-.73-.82-.73-1.64v-4.89h-3.32c-.14,1.59-.94,3.13-2.38,4.61-1.45,1.48-3.43,2.39-5.95,2.71l-.64-1.36c4.4-.63,6.89-2.62,7.45-5.96h-3.65v-8.61h14.17v8.61h-4.21v4.76c0,.4,.19,.6,.58,.6l2.01,.06c.68,0,1.11-.06,1.29-.18,.19-.12,.34-.45,.45-.98,.11-.53,.17-1.38,.17-2.54l1.4,.53Zm0-12.98h-17.5v-1.42h4.77c-.25-1.06-.58-2.06-.98-2.99h-3.04v-1.45h7.25c-.21-.62-.49-1.32-.83-2.09l1.37-.42c.47,.92,.79,1.76,.97,2.52h7.36v1.45h-3.1c-.31,.89-.73,1.88-1.26,2.99h4.99v1.42Zm-3.18,5.73v-2.17h-11.18v2.17h11.18Zm0,3.6v-2.17h-11.18v2.17h11.18Zm-2.25-13.74h-6.66c.39,1.06,.7,2.06,.94,2.99h4.52c.5-.95,.9-1.94,1.2-2.99Z" fill="#fff"/>
        <path d="M269.78,139.87h-10.34v-1.57h4.57c-.26-.87-.65-1.75-1.17-2.64l1.34-.63c.58,.97,1.06,2.06,1.43,3.27h4.18v1.57Zm-.81,8.76h-8.97v-1.51h8.97v1.51Zm.03-4.41h-8.97v-1.51h8.97v1.51Zm-.44,16.67h-1.51v-1.64h-5.29v2.21h-1.51v-9.99h8.32v9.42Zm-1.51-3.18v-4.64h-5.29v4.64h5.29Zm17.82,2.62l-.87,1.29c-2.96-1.01-5.24-2.16-6.85-3.46-1.87,1.37-4.21,2.47-7,3.3l-.91-1.29c2.94-.89,5.15-1.91,6.63-3.06-2.02-1.9-3.49-4.45-4.41-7.65h-1v-1.52h12.24v1.52c-1.26,3.51-2.72,6.06-4.38,7.68,1.65,1.22,3.84,2.29,6.55,3.19Zm-.11-14.17h-2.84c-1.4,0-2.1-.69-2.1-2.07v-6.46h-5.15c-.05,2.76-.41,4.82-1.08,6.16-.67,1.34-1.6,2.4-2.77,3.17l-1.14-1.08c1.16-.75,2.05-1.78,2.67-3.1,.62-1.31,.91-3.53,.86-6.64h8.06v7.5c0,.67,.32,1.01,.97,1.01h2.51v1.51Zm-3.71,3.3h-8.03c1.01,2.95,2.38,5.17,4.11,6.67,1.74-1.65,3.05-3.87,3.92-6.67Z" fill="#fff"/>
        <path d="M305.17,140.44h-12.1v-1.57h5.52c-.43-1.02-1.01-2.08-1.74-3.21l1.46-.6c.65,.92,1.31,2.19,1.98,3.81h4.88v1.57Zm-1.48,4.29h-9.26v-1.51h9.26v1.51Zm0,4.22h-9.26v-1.46h9.26v1.46Zm0,12.3h-1.5v-1.46h-6.25v1.7h-1.51v-9.65h9.26v9.42Zm-1.5-3.06v-4.86h-6.25v4.86h6.25Zm16.36-12.71h-5.83v16.07h-1.58v-16.07h-5.82v-1.6h5.82v-8.54h1.58v8.54h5.83v1.6Z" fill="#fff"/>
      </g>
    </g>
  </g>
</svg>