<?xml version="1.0" encoding="UTF-8"?>
<svg id="_圖層_2" data-name="圖層 2" xmlns="http://www.w3.org/2000/svg" viewBox="0 0 54.68 24.02">
  <g id="_圖層_1-2" data-name="圖層 1">
    <g>
      <g>
        <path d="M12.01,6.01c-3.32,0-6.01,2.69-6.01,6.01s2.69,6,6.01,6,6.01-2.69,6.01-6-2.69-6.01-6.01-6.01h0Zm0,11.21c-2.87,0-5.2-2.33-5.2-5.2s2.33-5.21,5.2-5.21,5.2,2.34,5.2,5.21-2.33,5.2-5.2,5.2Z" fill="#fff"/>
        <path d="M11.61,0h.8V4.81h-.8V0h0Z" fill="#fff"/>
        <path d="M11.61,19.22h.8v4.8h-.8v-4.8h0Z" fill="#fff"/>
        <path d="M0,11.61H4.8v.8H0v-.8h0Z" fill="#fff"/>
        <path d="M19.22,11.61h4.8v.8h-4.8v-.8h0Z" fill="#fff"/>
        <path d="M20.22,3.21l.57,.57-3.35,3.35-.57-.57,3.35-3.35h0Z" fill="#fff"/>
        <path d="M3.8,20.76l-.57-.57,3.35-3.35,.57,.57-3.35,3.35h0Z" fill="#fff"/>
        <path d="M3.81,3.21l3.35,3.35-.57,.57L3.24,3.78l.57-.57h0Z" fill="#fff"/>
        <path d="M20.22,20.76l-3.35-3.35,.57-.57,3.35,3.35-.57,.57Z" fill="#fff"/>
      </g>
      <path d="M45.1,22.52c-5.78,0-10.47-4.68-10.47-10.46,0-5.27,3.91-9.72,9.14-10.38l1.37-.17-.9,1.05c-3.19,3.7-2.77,9.29,.93,12.48,2.25,1.94,5.31,2.62,8.17,1.81l1.34-.37-.74,1.17c-1.91,3.04-5.25,4.88-8.84,4.87Zm-2.51-19.52c-5,1.39-7.93,6.56-6.55,11.56,1.39,5,6.56,7.93,11.56,6.55,1.8-.5,3.41-1.52,4.63-2.95-.42,.06-.84,.08-1.26,.08-5.48,0-9.93-4.44-9.93-9.92,0-1.89,.53-3.74,1.55-5.33Z" fill="#fff"/>
    </g>
  </g>
</svg>