<?xml version="1.0" encoding="UTF-8"?>
<svg id="_圖層_2" data-name="圖層 2" xmlns="http://www.w3.org/2000/svg" viewBox="0 0 24.85 35.91">
  <g id="_圖層_1-2" data-name="圖層 1">
    <g>
      <g>
        <path d="M12.44,35.91c-3.32-5.67-7.07-11.03-10.07-16.82-.87-1.69-1.71-3.4-2.15-5.26-.42-1.72-.18-3.43,.37-5.06C2.2,3.98,5.52,1.05,10.49,.18c6.68-1.16,13.02,3.45,14.22,10.13,.42,2.33-.11,4.45-1.04,6.55-1.43,3.23-3.26,6.24-5.1,9.24-1.98,3.23-4.1,6.37-6,9.65-.02,.04-.06,.08-.12,.16Z" fill="#da4d3c"/>
        <path d="M18,11.97c0,3.06-2.48,5.55-5.54,5.56-3.08,0-5.57-2.49-5.57-5.57,0-3.05,2.5-5.54,5.56-5.54,3.06,0,5.55,2.49,5.55,5.55Z" fill="#fff"/>
      </g>
      <circle cx="12.49" cy="11.9" r="5.63" fill="#fff"/>
    </g>
  </g>
</svg>