<?xml version="1.0" encoding="UTF-8"?>
<svg id="_圖層_2" data-name="圖層 2" xmlns="http://www.w3.org/2000/svg" viewBox="0 0 145.93 329.04">
  <g id="content">
    <g>
      <g>
        <path d="M110.08,12.49c-.58,.32-.99,.93-1.23,1.83-.24,.9-.36,2.35-.36,4.35,0,.12-.12,.18-.36,.18s-.36-.06-.36-.18c0-1.64,.02-2.92,.06-3.84l.06-5.22-.06-4.14c-.04-.76-.06-1.78-.06-3.06,0-.12,.12-.18,.36-.18s.36,.06,.36,.18c0,1.44,.1,2.48,.3,3.12,.2,.64,.59,1.08,1.17,1.32,.58,.24,1.47,.36,2.67,.36h27.78c1.2,0,2.08-.12,2.64-.36,.56-.24,.95-.69,1.17-1.35,.22-.66,.33-1.69,.33-3.09,0-.12,.12-.18,.36-.18s.36,.06,.36,.18l-.06,3c-.08,1.76-.12,3.14-.12,4.14s.06,2.1,.18,3.42c0,.48,.03,1.23,.09,2.25,.06,1.02,.09,1.91,.09,2.67,0,3.76-.83,6.78-2.49,9.06-1.66,2.28-4.17,3.42-7.53,3.42-2.6,0-4.8-.65-6.6-1.95-1.8-1.3-3.14-2.96-4.02-4.98-.88-2.02-1.32-4.11-1.32-6.27,0-1.16,.1-2.12,.3-2.88,0-.12,.1-.18,.3-.18,.12,0,.24,.03,.36,.09,.12,.06,.16,.13,.12,.21-.16,.64-.24,1.34-.24,2.1,0,2.4,.86,4.42,2.58,6.06,1.72,1.64,4.2,2.46,7.44,2.46s5.63-.8,7.41-2.4c1.78-1.6,2.67-3.72,2.67-6.36,0-1.24-.09-2.14-.27-2.7-.18-.56-.56-.96-1.14-1.2-.58-.24-1.49-.36-2.73-.36h-27.42c-1.28,0-2.21,.16-2.79,.48Z" fill="#aeffe0"/>
        <path d="M142.96,68.71c1.06-.92,1.59-2.24,1.59-3.96,0-.12,.12-.18,.36-.18s.36,.06,.36,.18l-.06,2.7c-.08,1.44-.12,2.58-.12,3.42,0,.72,.04,1.76,.12,3.12l.06,2.58c0,.08-.12,.12-.36,.12s-.36-.04-.36-.12c0-1.6-.52-2.81-1.56-3.63-1.04-.82-2.58-1.23-4.62-1.23h-16.98c-4.48,0-8-1.31-10.56-3.93-2.56-2.62-3.84-6.11-3.84-10.47,0-2.96,.57-5.56,1.71-7.8,1.14-2.24,2.78-3.98,4.92-5.22,2.14-1.24,4.65-1.86,7.53-1.86h19.26c1.2,0,2.08-.12,2.64-.36,.56-.24,.95-.69,1.17-1.35,.22-.66,.33-1.71,.33-3.15,0-.12,.12-.18,.36-.18s.36,.06,.36,.18l-.06,3c-.08,1.76-.12,3.16-.12,4.2,0,1.16,.04,2.58,.12,4.26l.06,2.94c0,.12-.12,.18-.36,.18s-.36-.06-.36-.18c0-1.4-.12-2.43-.36-3.09-.24-.66-.65-1.11-1.23-1.35-.58-.24-1.47-.36-2.67-.36h-17.04c-4.72,0-8.29,1.03-10.71,3.09-2.42,2.06-3.63,4.95-3.63,8.67,0,3.48,1.09,6.21,3.27,8.19,2.18,1.98,5.23,2.97,9.15,2.97h17.04c2,0,3.53-.46,4.59-1.38Z" fill="#aeffe0"/>
        <path d="M127.63,106.02c-.88,1.88-2.09,3.33-3.63,4.35-1.54,1.02-3.29,1.53-5.25,1.53-2.12,0-4.03-.55-5.73-1.65-1.7-1.1-3.04-2.6-4.02-4.5-.98-1.9-1.47-4.03-1.47-6.39,0-1.28,.06-2.68,.18-4.2,.04-.56,.08-1.22,.12-1.98,.04-.76,.06-1.62,.06-2.58l-.06-4.2c-.04-.76-.06-1.78-.06-3.06,0-.12,.12-.18,.36-.18s.36,.06,.36,.18c0,1.4,.11,2.44,.33,3.12,.22,.68,.61,1.15,1.17,1.41,.56,.26,1.44,.39,2.64,.39h27.78c1.2,0,2.08-.13,2.64-.39,.56-.26,.95-.72,1.17-1.38,.22-.66,.33-1.69,.33-3.09,0-.08,.12-.12,.36-.12s.36,.04,.36,.12l-.06,3c-.08,1.76-.12,3.16-.12,4.2,0,1.12,.06,2.3,.18,3.54,.04,.44,.08,.97,.12,1.59,.04,.62,.06,1.29,.06,2.01,0,3.44-.71,6.05-2.13,7.83-1.42,1.78-3.33,2.67-5.73,2.67-2.24,0-4.2-.84-5.88-2.52s-2.86-3.96-3.54-6.84l.78,.66c0,2.44-.44,4.6-1.32,6.48Zm-16.68-1.29c1.48,1.38,3.6,2.07,6.36,2.07,3.04,0,5.48-.84,7.32-2.52,1.84-1.68,2.78-4.06,2.82-7.14,.08-2-.02-3.98-.3-5.94l.66,1.8h-15.18c-1,0-1.77,.14-2.31,.42-.54,.28-.94,.8-1.2,1.56-.26,.76-.39,1.9-.39,3.42,0,2.84,.74,4.95,2.22,6.33Zm33.18-10.32c-.2-.5-.59-.86-1.17-1.08-.58-.22-1.47-.33-2.67-.33h-11.76l.48-1.98c-.12,1.72-.18,3.26-.18,4.62,0,2.64,.76,4.62,2.28,5.94,1.52,1.32,3.52,1.98,6,1.98,2.28,0,4.07-.57,5.37-1.71,1.3-1.14,1.95-2.89,1.95-5.25,0-.96-.1-1.69-.3-2.19Z" fill="#aeffe0"/>
        <path d="M110.44,129.93c-.5,.22-.84,.63-1.02,1.23-.18,.6-.27,1.54-.27,2.82v5.1c0,2.52,.75,4.61,2.25,6.27s3.53,2.77,6.09,3.33c.12,0,.17,.11,.15,.33-.02,.22-.09,.33-.21,.33-3.52-.36-6.44-.54-8.76-.54-.32,0-.55-.07-.69-.21s-.21-.37-.21-.69v-27.96c0-.08,.12-.12,.36-.12s.36,.04,.36,.12c0,1.44,.1,2.5,.3,3.18,.2,.68,.59,1.14,1.17,1.38,.58,.24,1.47,.36,2.67,.36h27.78c1.2,0,2.08-.12,2.64-.36,.56-.24,.95-.7,1.17-1.38,.22-.68,.33-1.74,.33-3.18,0-.08,.12-.12,.36-.12s.36,.04,.36,.12l-.06,3c-.08,1.76-.12,3.18-.12,4.26s.04,2.5,.12,4.26l.06,3c0,.08-.12,.12-.36,.12s-.36-.04-.36-.12c0-1.44-.11-2.49-.33-3.15-.22-.66-.62-1.11-1.2-1.35-.58-.24-1.47-.36-2.67-.36h-27.48c-1.12,0-1.93,.11-2.43,.33Z" fill="#aeffe0"/>
        <path d="M109.93,165.99c-.56,.22-.94,.66-1.14,1.32-.2,.66-.3,1.73-.3,3.21,0,.08-.12,.12-.36,.12s-.36-.04-.36-.12c0-1.28,.02-2.28,.06-3l.06-4.32-.06-4.2c-.04-.76-.06-1.8-.06-3.12,0-.08,.12-.12,.36-.12s.36,.04,.36,.12c0,1.44,.1,2.5,.3,3.18,.2,.68,.59,1.15,1.17,1.41,.58,.26,1.47,.39,2.67,.39h27.78c1.2,0,2.08-.13,2.64-.39,.56-.26,.95-.73,1.17-1.41,.22-.68,.33-1.74,.33-3.18,0-.08,.12-.12,.36-.12s.36,.04,.36,.12l-.06,3.12c-.08,1.76-.12,3.16-.12,4.2,0,1.16,.04,2.62,.12,4.38l.06,2.94c0,.08-.12,.12-.36,.12s-.36-.04-.36-.12c0-1.44-.12-2.49-.36-3.15-.24-.66-.65-1.11-1.23-1.35-.58-.24-1.47-.36-2.67-.36h-27.66c-1.24,0-2.14,.11-2.7,.33Z" fill="#aeffe0"/>
        <path d="M145.42,207.39c-.34,1.78-.89,3.45-1.65,5.01-.12,.28-.25,.46-.39,.54-.14,.08-.45,.14-.93,.18l-7.5,.78c-.12,0-.2-.11-.24-.33-.04-.22,.02-.35,.18-.39,6.68-2.04,10.02-6.16,10.02-12.36,0-3.16-.74-5.96-2.22-8.4-1.48-2.44-3.58-4.33-6.3-5.67-2.72-1.34-5.9-2.01-9.54-2.01s-6.77,.73-9.63,2.19c-2.86,1.46-5.1,3.44-6.72,5.94s-2.43,5.25-2.43,8.25,.79,5.68,2.37,7.68c1.58,2,4.03,3.62,7.35,4.86,.08,.04,.12,.14,.12,.3,0,.08-.03,.17-.09,.27-.06,.1-.11,.15-.15,.15l-6.84-.66c-.48-.04-.78-.1-.9-.18-.12-.08-.26-.28-.42-.6-.92-2-1.57-3.92-1.95-5.76-.38-1.84-.57-3.86-.57-6.06,0-4.24,.83-8.02,2.49-11.34,1.66-3.32,3.97-5.91,6.93-7.77,2.96-1.86,6.36-2.79,10.2-2.79s7.11,.95,10.05,2.85c2.94,1.9,5.22,4.53,6.84,7.89,1.62,3.36,2.43,7.12,2.43,11.28,0,2.32-.17,4.37-.51,6.15Z" fill="#aeffe0"/>
        <path d="M17.13,2.23c.24,0,.36,.06,.36,.18,0,1.48,.1,2.56,.3,3.24,.2,.68,.59,1.15,1.17,1.41,.58,.26,1.47,.39,2.67,.39h27.78c1.2,0,2.08-.12,2.64-.36,.56-.24,.95-.69,1.17-1.35,.22-.66,.33-1.71,.33-3.15,0-.12,.12-.18,.36-.18s.36,.06,.36,.18V27.07c0,.4-.18,.6-.54,.6l-7.56,.12c-.12,0-.19-.11-.21-.33-.02-.22,.03-.35,.15-.39,2.2-.28,3.88-1.06,5.04-2.34,1.16-1.28,1.74-2.96,1.74-5.04v-3.06c0-1.72-.25-2.89-.75-3.51-.5-.62-1.43-.93-2.79-.93H21.87c-1.28,0-2.21,.17-2.79,.51-.58,.34-.99,.99-1.23,1.95-.24,.96-.36,2.48-.36,4.56,0,.08-.12,.12-.36,.12s-.36-.04-.36-.12c0-1.64,.02-2.92,.06-3.84l.06-5.64-.06-4.2c-.04-.76-.06-1.8-.06-3.12,0-.12,.12-.18,.36-.18Zm16.53,20.28c.82-1.04,1.23-2.7,1.23-4.98v-7.62h1.38v7.8c0,2.16,.36,3.75,1.08,4.77,.72,1.02,1.8,1.53,3.24,1.53,.08,0,.12,.12,.12,.36s-.04,.36-.12,.36l-5.04-.06c-1.2,0-2.1,.02-2.7,.06l-3,.06c-.08,0-.12-.12-.12-.36s.04-.36,.12-.36c1.72,0,2.99-.52,3.81-1.56Z" fill="#aeffe0"/>
        <path d="M17.13,74.95c-.24,0-.36-.1-.36-.3,0-.76,.04-1.94,.12-3.54,.08-1.68,.12-2.88,.12-3.6,0-.92-.04-2.06-.12-3.42-.08-1.36-.12-2.38-.12-3.06,0-.16,.12-.24,.36-.24s.36,.08,.36,.24c0,1.36,.13,2.34,.39,2.94,.26,.6,.73,.9,1.41,.9s1.62-.3,2.82-.9l26.82-12.9,2.88,1.92-27.12-11.7c-1.36-.56-2.48-.84-3.36-.84-1.28,0-2.24,.5-2.88,1.5-.64,1-.96,2.44-.96,4.32,0,.2-.12,.3-.36,.3s-.36-.1-.36-.3c0-.72,.04-1.76,.12-3.12,.08-1.52,.12-2.84,.12-3.96,0-1.04-.04-2.28-.12-3.72-.08-1.28-.12-2.32-.12-3.12,0-.16,.12-.24,.36-.24s.36,.08,.36,.24c0,1.12,.22,2.07,.66,2.85,.44,.78,1.2,1.53,2.28,2.25s2.68,1.54,4.8,2.46l29.46,12.78c.12,.04,.19,.18,.21,.42,.02,.24-.05,.38-.21,.42l-29.7,14.4c-2.92,1.4-4.9,2.57-5.94,3.51-1.04,.94-1.56,2.01-1.56,3.21,0,.2-.12,.3-.36,.3Zm16.62-30.6v16.32l-1.32,.42v-17.46l1.32,.72Z" fill="#aeffe0"/>
        <path d="M54.42,108.16c-.34,1.78-.89,3.45-1.65,5.01-.12,.28-.25,.46-.39,.54-.14,.08-.45,.14-.93,.18l-7.5,.78c-.12,0-.2-.11-.24-.33-.04-.22,.02-.35,.18-.39,6.68-2.04,10.02-6.16,10.02-12.36,0-3.16-.74-5.96-2.22-8.4-1.48-2.44-3.58-4.33-6.3-5.67-2.72-1.34-5.9-2.01-9.54-2.01s-6.77,.73-9.63,2.19c-2.86,1.46-5.1,3.44-6.72,5.94s-2.43,5.25-2.43,8.25,.79,5.68,2.37,7.68c1.58,2,4.03,3.62,7.35,4.86,.08,.04,.12,.14,.12,.3,0,.08-.03,.17-.09,.27-.06,.1-.11,.15-.15,.15l-6.84-.66c-.48-.04-.78-.1-.9-.18-.12-.08-.26-.28-.42-.6-.92-2-1.57-3.92-1.95-5.76-.38-1.84-.57-3.86-.57-6.06,0-4.24,.83-8.02,2.49-11.34,1.66-3.32,3.97-5.91,6.93-7.77,2.96-1.86,6.36-2.79,10.2-2.79s7.11,.95,10.05,2.85c2.94,1.9,5.22,4.53,6.84,7.89,1.62,3.36,2.43,7.12,2.43,11.28,0,2.32-.17,4.37-.51,6.15Z" fill="#aeffe0"/>
        <path d="M18.93,133.89c-.56,.22-.94,.66-1.14,1.32-.2,.66-.3,1.73-.3,3.21,0,.08-.12,.12-.36,.12s-.36-.04-.36-.12c0-1.28,.02-2.28,.06-3l.06-4.32-.06-4.2c-.04-.76-.06-1.8-.06-3.12,0-.08,.12-.12,.36-.12s.36,.04,.36,.12c0,1.44,.1,2.5,.3,3.18,.2,.68,.59,1.15,1.17,1.41,.58,.26,1.47,.39,2.67,.39h27.78c1.2,0,2.08-.13,2.64-.39,.56-.26,.95-.73,1.17-1.41,.22-.68,.33-1.74,.33-3.18,0-.08,.12-.12,.36-.12s.36,.04,.36,.12l-.06,3.12c-.08,1.76-.12,3.16-.12,4.2,0,1.16,.04,2.62,.12,4.38l.06,2.94c0,.08-.12,.12-.36,.12s-.36-.04-.36-.12c0-1.44-.12-2.49-.36-3.15-.24-.66-.65-1.11-1.23-1.35-.58-.24-1.47-.36-2.67-.36H21.63c-1.24,0-2.14,.11-2.7,.33Z" fill="#aeffe0"/>
        <path d="M19.44,156.15c-.5,.22-.84,.63-1.02,1.23-.18,.6-.27,1.54-.27,2.82v5.1c0,2.52,.75,4.61,2.25,6.27s3.53,2.77,6.09,3.33c.12,0,.17,.11,.15,.33-.02,.22-.09,.33-.21,.33-3.52-.36-6.44-.54-8.76-.54-.32,0-.55-.07-.69-.21s-.21-.37-.21-.69v-27.96c0-.08,.12-.12,.36-.12s.36,.04,.36,.12c0,1.44,.1,2.5,.3,3.18,.2,.68,.59,1.14,1.17,1.38,.58,.24,1.47,.36,2.67,.36h27.78c1.2,0,2.08-.12,2.64-.36,.56-.24,.95-.7,1.17-1.38,.22-.68,.33-1.74,.33-3.18,0-.08,.12-.12,.36-.12s.36,.04,.36,.12l-.06,3c-.08,1.76-.12,3.18-.12,4.26s.04,2.5,.12,4.26l.06,3c0,.08-.12,.12-.36,.12s-.36-.04-.36-.12c0-1.44-.11-2.49-.33-3.15-.22-.66-.62-1.11-1.2-1.35-.58-.24-1.47-.36-2.67-.36H21.87c-1.12,0-1.93,.11-2.43,.33Z" fill="#aeffe0"/>
        <path d="M18.93,192.21c-.56,.22-.94,.66-1.14,1.32-.2,.66-.3,1.73-.3,3.21,0,.08-.12,.12-.36,.12s-.36-.04-.36-.12c0-1.28,.02-2.28,.06-3l.06-4.32-.06-4.2c-.04-.76-.06-1.8-.06-3.12,0-.08,.12-.12,.36-.12s.36,.04,.36,.12c0,1.44,.1,2.5,.3,3.18,.2,.68,.59,1.15,1.17,1.41,.58,.26,1.47,.39,2.67,.39h27.78c1.2,0,2.08-.13,2.64-.39,.56-.26,.95-.73,1.17-1.41,.22-.68,.33-1.74,.33-3.18,0-.08,.12-.12,.36-.12s.36,.04,.36,.12l-.06,3.12c-.08,1.76-.12,3.16-.12,4.2,0,1.16,.04,2.62,.12,4.38l.06,2.94c0,.08-.12,.12-.36,.12s-.36-.04-.36-.12c0-1.44-.12-2.49-.36-3.15-.24-.66-.65-1.11-1.23-1.35-.58-.24-1.47-.36-2.67-.36H21.63c-1.24,0-2.14,.11-2.7,.33Z" fill="#aeffe0"/>
        <path d="M51,208.62c-1.38-1.4-3.59-2.44-6.63-3.12-.08-.04-.12-.17-.12-.39s.06-.33,.18-.33c1.12,.16,2.94,.34,5.46,.54,2.52,.2,4.42,.3,5.7,.3,.2,0,.3,.12,.3,.36s-.1,.36-.3,.36c-.88,0-1.32,1.1-1.32,3.3-.12,3.44-.18,7.46-.18,12.06,0,2.36,.04,4.86,.12,7.5l.06,4.08c0,1.48,.1,2.56,.3,3.24,.2,.68,.6,1.12,1.2,1.32,.16,.04,.24,.17,.24,.39s-.08,.33-.24,.33c-1.12-.12-2.92-.25-5.4-.39-2.48-.14-4.46-.21-5.94-.21-.12,0-.18-.11-.18-.33s.06-.33,.18-.33c3.08-.28,5.29-1.08,6.63-2.4,1.34-1.32,2.01-3.28,2.01-5.88,0-1.48-.09-2.54-.27-3.18-.18-.64-.52-1.08-1.02-1.32-.5-.24-1.33-.36-2.49-.36H21.63c-1.24,0-2.14,.13-2.7,.39-.56,.26-.94,.77-1.14,1.53-.2,.76-.3,1.98-.3,3.66,0,.08-.12,.12-.36,.12s-.36-.04-.36-.12c0-1.4,.02-2.5,.06-3.3l.06-4.74-.06-4.62c-.04-.8-.06-1.92-.06-3.36,0-.12,.12-.18,.36-.18s.36,.06,.36,.18c0,1.64,.1,2.85,.3,3.63,.2,.78,.59,1.31,1.17,1.59,.58,.28,1.47,.42,2.67,.42h27.78c1.12,0,1.93-.12,2.43-.36,.5-.24,.83-.69,.99-1.35,.16-.66,.24-1.73,.24-3.21,0-2.48-.69-4.42-2.07-5.82Z" fill="#aeffe0"/>
        <path d="M18.93,256.53c-.56,.22-.94,.66-1.14,1.32-.2,.66-.3,1.73-.3,3.21,0,.08-.12,.12-.36,.12s-.36-.04-.36-.12c0-1.28,.02-2.28,.06-3l.06-4.32-.06-4.2c-.04-.76-.06-1.8-.06-3.12,0-.08,.12-.12,.36-.12s.36,.04,.36,.12c0,1.44,.1,2.5,.3,3.18,.2,.68,.59,1.15,1.17,1.41,.58,.26,1.47,.39,2.67,.39h27.78c1.2,0,2.08-.13,2.64-.39,.56-.26,.95-.73,1.17-1.41,.22-.68,.33-1.74,.33-3.18,0-.08,.12-.12,.36-.12s.36,.04,.36,.12l-.06,3.12c-.08,1.76-.12,3.16-.12,4.2,0,1.16,.04,2.62,.12,4.38l.06,2.94c0,.08-.12,.12-.36,.12s-.36-.04-.36-.12c0-1.44-.12-2.49-.36-3.15-.24-.66-.65-1.11-1.23-1.35-.58-.24-1.47-.36-2.67-.36H21.63c-1.24,0-2.14,.11-2.7,.33Z" fill="#aeffe0"/>
        <path d="M17.13,269.22c.24,0,.36,.06,.36,.18,0,1.44,.1,2.49,.3,3.15,.2,.66,.59,1.11,1.17,1.35,.58,.24,1.47,.36,2.67,.36h27.78c1.2,0,2.08-.12,2.64-.36,.56-.24,.95-.69,1.17-1.35,.22-.66,.33-1.71,.33-3.15,0-.12,.12-.18,.36-.18s.36,.06,.36,.18v24.48c0,.4-.18,.6-.54,.6l-7.56,.12c-.12,0-.19-.11-.21-.33-.02-.22,.03-.35,.15-.39,2.2-.28,3.88-1.06,5.04-2.34,1.16-1.28,1.74-2.96,1.74-5.04v-3.06c0-1.76-.26-2.94-.78-3.54-.52-.6-1.5-.9-2.94-.9H21.87c-1.44,0-2.42,.27-2.94,.81-.52,.54-.78,1.63-.78,3.27v3.96c0,2.24,.67,4.11,2.01,5.61,1.34,1.5,3.25,2.53,5.73,3.09,.08,0,.12,.08,.12,.24,0,.12-.03,.23-.09,.33-.06,.1-.11,.15-.15,.15-2.88-.4-5.58-.6-8.1-.6-.32,0-.55-.06-.69-.18-.14-.12-.21-.36-.21-.72v-25.56c0-.12,.12-.18,.36-.18Zm17.25,20.91c.82-.98,1.23-2.53,1.23-4.65v-8.76h1.38v8.88c0,2.04,.35,3.54,1.05,4.5,.7,.96,1.79,1.44,3.27,1.44,.08,0,.12,.11,.12,.33s-.04,.33-.12,.33l-5.04-.06-2.7,.06c-1.28,.08-2.28,.12-3,.12-.08,0-.12-.12-.12-.36s.04-.36,.12-.36c1.72,0,2.99-.49,3.81-1.47Z" fill="#aeffe0"/>
        <path d="M43.56,312.72c-1.14,.76-2.12,1.68-2.94,2.76-.82,1.08-1.81,2.58-2.97,4.5-1.24,2-2.31,3.59-3.21,4.77-.9,1.18-2.01,2.19-3.33,3.03-1.32,.84-2.88,1.26-4.68,1.26-1.96,0-3.73-.51-5.31-1.53-1.58-1.02-2.82-2.48-3.72-4.38-.9-1.9-1.35-4.11-1.35-6.63,0-1.6,.19-3.18,.57-4.74,.38-1.56,.93-2.92,1.65-4.08,.12-.2,.26-.34,.42-.42,.16-.08,.4-.12,.72-.12l8.58-.6c.16-.04,.26,.05,.3,.27,.04,.22-.02,.35-.18,.39-3.04,.96-5.62,2.3-7.74,4.02-2.12,1.72-3.18,3.96-3.18,6.72,0,1.88,.51,3.46,1.53,4.74s2.69,1.92,5.01,1.92c1.76,0,3.3-.4,4.62-1.2,1.32-.8,2.43-1.78,3.33-2.94,.9-1.16,1.93-2.7,3.09-4.62,1.2-1.88,2.23-3.37,3.09-4.47,.86-1.1,1.92-2.03,3.18-2.79,1.26-.76,2.73-1.14,4.41-1.14,2.04,0,3.78,.55,5.22,1.65,1.44,1.1,2.51,2.54,3.21,4.32,.7,1.78,1.05,3.65,1.05,5.61,0,2.64-.46,5.06-1.38,7.26-.28,.6-.64,.9-1.08,.9l-7.5,.3c-.16,0-.25-.11-.27-.33-.02-.22,.05-.35,.21-.39,2.16-.44,4.2-1.37,6.12-2.79,1.92-1.42,2.88-3.45,2.88-6.09,0-2-.6-3.55-1.8-4.65-1.2-1.1-2.72-1.65-4.56-1.65-1.52,0-2.85,.38-3.99,1.14Z" fill="#aeffe0"/>
      </g>
      <line x1=".5" x2=".5" y2="328.85" fill="none" stroke="#aeffe0" stroke-miterlimit="10"/>
      <line x1="90.95" x2="90.95" y2="214.14" fill="none" stroke="#aeffe0" stroke-miterlimit="10"/>
    </g>
  </g>
</svg>