<?xml version="1.0" encoding="UTF-8"?>
<svg id="_圖層_2" data-name="圖層 2" xmlns="http://www.w3.org/2000/svg" xmlns:xlink="http://www.w3.org/1999/xlink" viewBox="0 0 304.49 170.03">
  <defs>
    <filter id="drop-shadow-1" filterUnits="userSpaceOnUse">
      <feOffset dx="0" dy="0"/>
      <feGaussianBlur result="blur" stdDeviation="3"/>
      <feFlood flood-color="#244441" flood-opacity=".5"/>
      <feComposite in2="blur" operator="in"/>
      <feComposite in="SourceGraphic"/>
    </filter>
    <filter id="drop-shadow-2" filterUnits="userSpaceOnUse">
      <feOffset dx="0" dy="0"/>
      <feGaussianBlur result="blur-2" stdDeviation="3"/>
      <feFlood flood-color="#244441" flood-opacity=".5"/>
      <feComposite in2="blur-2" operator="in"/>
      <feComposite in="SourceGraphic"/>
    </filter>
  </defs>
  <g id="content">
    <g>
      <g filter="url(#drop-shadow-1)">
        <path d="M11.98,32.67c8.19-6.31,12.71-10,13.55-11.08,.79-1.02,1.1-1.91,.95-2.67-.32-.97-.21-1.59,.31-1.86,.47-.32,.92-.46,1.34-.4,.31,0,.66,.38,1.02,1.13,.31,.65,.39,1.43,.24,2.35-.05,.38-.26,.89-.63,1.54,1.73-.49,3.39-.73,4.96-.73,1.31,0,2.26,.27,2.84,.81,.52,.38,.55,1.16,.08,2.35-.79,1.67-3.05,5.07-6.77,10.19-3.78,5.01-7.88,9.46-12.29,13.34-4.31,3.88-8.53,6.9-12.68,9.06-1.42,.7-2.57,.84-3.47,.4-.79-.38-1.26-.97-1.42-1.78-.05-.65,.21-.97,.79-.97,.52,0,1.15-.11,1.89-.32,4.73-2.59,8.98-5.63,12.76-9.14,.94-.97,1.92-1.97,2.91-2.99-2.21-.16-3.62-.3-4.25-.4-.79-.16-1.37-.4-1.73-.73-1.89-1.67-2.81-2.8-2.76-3.4,0-.49,.79-1.02,2.36-1.62,.63-.21,1-.08,1.1,.4,0,.54,.31,1.08,.94,1.62,.21,.16,.66,.38,1.34,.65,.52,.16,2.28,.51,5.28,1.05,1.94-2.1,3.94-4.47,5.99-7.12,3.62-4.85,5.09-7.55,4.41-8.09-.31-.16-.92-.3-1.81-.4-.31,0-1.81,.86-4.49,2.59h-.08c-.37,.32-.79,.67-1.26,1.05-.63,.32-1.34,.84-2.13,1.54,.68,.32,1.29,.67,1.81,1.05,.79,.65,1.26,1.24,1.42,1.78,.16,.54,.16,.97,0,1.29-.31,.97-.74,1.51-1.26,1.62-.47,.05-.81-.43-1.02-1.46-.16-.49-.5-.89-1.02-1.21-.53-.21-1.44-.4-2.76-.57-.05,0-.13-.03-.24-.08-.95,.81-1.97,1.7-3.07,2.67-.47,.32-.92,.49-1.34,.49-.31,0-.71,.03-1.18,.08-.32,.05-.63,0-.95-.16-.16-.16-.26-.43-.31-.81,0-.21,.21-.57,.63-1.05ZM27.26,3.88c1.15,.7,2.18,1.97,3.07,3.8,.05,.22,.18,.51,.39,.89,.21-.05,.5,0,.87,.16,.37,.22,.52,.73,.47,1.54-.05,.32-.24,.62-.55,.89,.16,.81,.34,1.78,.55,2.91,.16,1.13,.05,2.13-.31,2.99-.37,.81-.84,1.08-1.42,.81-.53-.32-.87-1.02-1.02-2.1-.16-1.13-.39-2.16-.71-3.07-3.2,1.46-5.41,2.4-6.62,2.83-1.42,.49-2.23,.73-2.44,.73-.16,0-.37,.11-.63,.32-.47,.49-1.02,.59-1.65,.32-.63-.21-1.26-.92-1.89-2.1-.53-1.13-.58-1.89-.16-2.26,.47-.32,.89-.32,1.26,0,.21,.16,1.08,.14,2.6-.08,1.42-.21,3.52-.78,6.3-1.7,.79-.21,1.55-.49,2.28-.81-.68-1.46-1.6-2.53-2.76-3.23-.63-.38-.92-.97-.87-1.78,0-.81,.39-1.29,1.18-1.46,.68-.16,1.36-.03,2.05,.4Zm-5.36,50.38c3.67-1.13,8.14-3.42,13.39-6.87,5.2-3.29,7.67-5.15,7.4-5.58-.16-.32-2.39,.19-6.69,1.54-4.78,1.62-8.11,2.35-10,2.18-1-.05-1.34-.81-1.02-2.26,.31-1.35,.97-1.94,1.97-1.78,1.58,.49,4.38,.08,8.43-1.21,4.3-1.62,7.01-2.45,8.11-2.51,.79,0,1.42,.14,1.89,.4,.37,.32,1.34,.62,2.91,.89,1.42,.32,1.02,1.37-1.18,3.15-1.1,.97-4.67,3.45-10.71,7.44-2.68,1.67-5.07,3.05-7.17,4.12,1.42-.32,3.15-.7,5.2-1.13q.05,0,0,0c.16,0,.42-.05,.79-.16q-.16,0,0,0c3.31-.81,6.62-1.43,9.92-1.86,3.31-.38,5.59-.51,6.85-.4,1,.05,1.5,.4,1.5,1.05,0,.54-.11,1.02-.31,1.46-.16,.32-.84,.57-2.05,.73-1.58,.05-2.71,.4-3.39,1.05-.63,.65-1.16,.7-1.58,.16-.31-.54-1.89-.65-4.73-.32-.63,0-1.26,.05-1.89,.16,.16,.32,.31,.81,.47,1.46,.16,1.19,.24,3.42,.24,6.71s.16,7.44,.47,12.62c.16,1.35,.03,2.43-.39,3.23-.37,.65-.76,.89-1.18,.73-.31-.16-.71-.16-1.18,0-.32,.16-.79-.27-1.42-1.29-.16-.32-.76-.65-1.81-.97-.94-.22-2.44-1.19-4.49-2.91-1.26-1.02-2.42-2.18-3.47-3.48-1.31,1.02-2.91,2.18-4.8,3.48-.95,.97-1.76,1.4-2.44,1.29-.63,0-1.02-.76-1.18-2.26-.16-1.13-.05-2.78,.31-4.93,.37-2.1,1.02-4.02,1.97-5.74,.32-.54,.68-.92,1.1-1.13,.31-.16,.68,0,1.1,.49,.31,.49,.34,1.11,.08,1.86-.47,1.19-.84,2.48-1.1,3.88-.16,1.29-.18,1.97-.08,2.02,.94-.16,2.1-.54,3.47-1.13-.37-.49-.39-.97-.08-1.46,.31-.38,.79-.32,1.42,.16l.24,.24c1.26-.81,2.7-1.97,4.33-3.48,.79-.49,1.05-.13,.79,1.05-.53,1.19-1.65,2.62-3.39,4.29,1.58,1.46,3.12,2.59,4.65,3.4,2.05,1.02,3.28,1.48,3.7,1.37,.05,0,.08-1.11,.08-3.32v-6.39c0-1.99-.05-4.5-.16-7.52,0-.49-.55-.92-1.65-1.29-.95,.22-1.89,.51-2.84,.89-3.36,.86-6.04,1.43-8.03,1.7-1.89,.22-3.2,.19-3.94-.08-.79-.32-1.21-1.02-1.26-2.1,0-.97,.16-1.59,.47-1.86,.21-.16,.79-.03,1.73,.4h.08c.05,0,.24-.05,.55-.16ZM41.36,22.24c4.15-1.35,7.09-2.18,8.82-2.51,1.63-.21,2.7-.3,3.23-.24,1.63,.32,2.36,1.7,2.21,4.12-.16,.7-1.18,2.13-3.07,4.29-1,.97-2.63,2.24-4.88,3.8,.31,.05,.6,.22,.87,.49,1.31,.97,3.23,2.48,5.75,4.53,2.41,1.94,4.7,3.51,6.85,4.69,2.05,1.13,4.44,1.83,7.17,2.1,2.57,.16,4.38,.54,5.43,1.13,.84,.65,1.42,1.43,1.73,2.35,.16,.86-.05,1.48-.63,1.86-.63,.32-1.1,.27-1.42-.16-.31-.49-.66-.92-1.02-1.29-.63-.38-2.42-.67-5.36-.89-2.84-.05-5.72-1.02-8.66-2.91-2.89-1.78-5.09-3.37-6.62-4.77-1.42-1.29-3.23-2.7-5.43-4.21-.63-.38-1.18-.75-1.65-1.13-1.58,.97-3.36,2-5.36,3.07-1.89,1.13-3.02,1.4-3.39,.81-.31-.54,.31-1.35,1.89-2.43,1.42-1.02,2.81-1.99,4.17-2.91-.79-.32-1.6-.65-2.44-.97-.95-.05-1.65-.49-2.13-1.29-.32-.65-.16-1.19,.47-1.62,.63-.32,1.55-.3,2.76,.08,1.47,.65,2.84,1.27,4.1,1.86,2.83-1.99,4.62-3.42,5.36-4.29,1.1-1.46,1.6-2.29,1.5-2.51-.16-.21-.87-.3-2.13-.24-1.16,.16-3.62,.86-7.4,2.1-1,.32-1.65,0-1.97-.97s.1-1.62,1.26-1.94Zm4.1-9.22c-1.63,2.48-3.12,4.42-4.49,5.82-.79,.97-1.55,1.43-2.28,1.37-.63-.05-1-.3-1.1-.73-.05-.32,.29-.94,1.02-1.86,.95-1.13,2.05-2.64,3.31-4.53-.47,0-.79-.03-.95-.08-1.47-.65-2.1-1.43-1.89-2.35,.21-.81,.47-1.46,.79-1.94,.21-.49,.68-.49,1.42,0,.31,.16,.76,.35,1.34,.57h1.58c.95-1.62,1.52-2.8,1.73-3.56,.31-1.13,.21-1.86-.31-2.18-1.79-1.13-2.52-2.07-2.21-2.83,.32-.65,1.21-.86,2.68-.65,1.31,.22,2.44,1.11,3.39,2.67l.16,.4c.16,.16,.34,.4,.55,.73,1.15,1.13,2.49,1.86,4.02,2.18,1.42,.32,2.39,.73,2.91,1.21,.68,.49,1.05,1.21,1.1,2.18,0,.86-.5,1.51-1.5,1.94-.47,.05-1.71,.27-3.7,.65-1.94,.32-4.28,.65-7.01,.97h-.55Zm4.17-7.36c-.21,.7-.79,1.83-1.73,3.4h.71c3.31-.32,4.99-.59,5.04-.81l-1.58-.89c-.95-.38-1.73-1.08-2.36-2.1,0,.16-.03,.3-.08,.4Zm-.79,52.81c.05-.65,.63-.75,1.73-.32,2.36,.81,4.15,1.94,5.36,3.4,1.15,1.35,2.1,3.86,2.84,7.52,.21,2.1-.11,3.32-.95,3.64-.94,.32-1.63,.19-2.05-.4-.16-.32-1.13-.94-2.91-1.86-.79-.32-1.29-.92-1.5-1.78-.16-.81,.16-1.05,.94-.73,1.1,.49,1.78,.67,2.05,.57,.31-.21,.13-1.4-.55-3.56-.79-1.99-2.13-3.64-4.02-4.93-.63-.38-.95-.89-.95-1.54Z" fill="#fff"/>
        <path d="M89.61,43.4c8.68-8.74,14.16-15.06,16.43-18.96,2.17-3.73,3.34-6.21,3.5-7.43,.05-1.17-.11-2.12-.49-2.84-.38-.67-1.09-1.2-2.12-1.59-.98-.33-1.55-.78-1.71-1.34-.05-.39,0-.89,.16-1.5,.22-.5,.57-.84,1.06-1,.49-.17,1.06-.05,1.71,.33,.65,.33,1.41,.81,2.28,1.42,.81,.56,1.52,1.37,2.12,2.42,.54,1,.62,2.59,.24,4.76-.38,2.06-2.09,5.37-5.13,9.94-.87,1.23-1.9,2.59-3.09,4.09,.16,.06,.33,.22,.49,.5,.33,.5,.43,1.17,.33,2-1.03,7.91-1.68,15.09-1.95,21.55-.16,6.35-.11,9.63,.16,9.86,.54,.17,.9,.11,1.06-.17,.38-1.34,.6-2.2,.65-2.59,0-.5,.16-.75,.49-.75s.54,.17,.65,.5c.22,1-.38,4.37-1.79,10.11-.16,1.17-.87,1.5-2.12,1-1.19-.5-1.79-1.14-1.79-1.92,0-.67-.08-1.36-.24-2.09-.49-1.34-.54-6.24-.16-14.7,.38-8.35,.92-14.81,1.63-19.38v-.75c-2.44,2.84-5.4,5.96-8.87,9.36-.81,.72-1.57,1.17-2.28,1.34-.65,.06-1.19-.11-1.63-.5-.38-.5-.24-1.06,.41-1.67Zm40.35,23.22c.33-5.01,.65-10.94,.98-17.79-1.14,.67-2.09,1.34-2.85,2-1.63,1.34-3.09,2.34-4.39,3.01-.22,0-.43,.06-.65,.17-1.3,1.84-2.17,3.2-2.6,4.09-.54,1.17-1.06,1.59-1.55,1.25-.38-.39-1.03-.67-1.95-.84-.87-.05-.9-.47-.08-1.25,.38-.33,.6-.72,.65-1.17,0-.33,.98-1.81,2.93-4.43,.05-.5,.38-.86,.98-1.09,2.49-3.34,4.58-5.96,6.26-7.85,1.14-1.34,2.28-2.56,3.42-3.68,0-3.01-.16-5.07-.49-6.18-3.58,1.39-6.16,2.12-7.73,2.17-1.03,0-1.46-.75-1.3-2.26,.22-1.5,.87-2.17,1.95-2,1.63,.33,4.47-.36,8.54-2.09,4.28-2,7-3.12,8.13-3.34,.7-.17,1.33-.17,1.87,0,.49,.22,1.49,.33,3.01,.33s1.27,1.09-.57,3.26c-.54,.84-2.39,3.01-5.53,6.52-1.68,1.84-3.2,3.31-4.56,4.43-.05,.17-.19,.36-.41,.58v3.09c.16,0,.35-.05,.57-.17,3.42-1.34,5.61-1.89,6.59-1.67,1.03,.5,2.22,2.03,3.58,4.59,0-1.56,.03-3.29,.08-5.18,.16-5.18,.54-9.83,1.14-13.95,.49-4.06,.76-6.85,.81-8.35v-3.42c0-.84-.16-1.39-.49-1.67-.22-.17-.81-.22-1.79-.17-.87,.06-3.39,.97-7.57,2.76-4.12,1.67-7.08,2.67-8.87,3.01-1.68,.22-3.39,.72-5.12,1.5-.81,.33-1.52,.58-2.12,.75-.16,1.73-.33,4.37-.49,7.94-.33,6.35-.98,12.17-1.95,17.46-.87,5.18-1.9,9.13-3.09,11.86-1.14,2.67-2.11,4.51-2.93,5.51-.81,.89-1.49,1.37-2.03,1.42-.98,0-1.76-.45-2.36-1.34-.54-.84-.68-1.42-.41-1.75,.33-.33,.62-.33,.89,0,.33,.33,.62,.5,.9,.5,.05,0,.27-.17,.65-.5,.22-.33,.65-.95,1.3-1.84,.54-.84,1.22-2.51,2.03-5.01,.7-2.39,1.46-6.13,2.28-11.19,.54-4.51,1.14-12.03,1.79-22.55-.65-.05-1.09-.28-1.3-.67-.38-.67-.46-1.36-.24-2.09,.22-.67,.65-.86,1.3-.58,.05,0,.22,.03,.49,.08v-.17c0-.89,.46-1.53,1.38-1.92,.87-.33,1.52-.28,1.95,.17,.16,.17,.24,.45,.24,.84,2.93-1.06,5.29-1.81,7.08-2.26,2.01-.5,5.15-1.56,9.44-3.17,4.23-1.67,7.35-2.51,9.36-2.51,4.07,.33,5.61,2.14,4.64,5.43-.38,1-.65,2.51-.81,4.51-.16,1.84-.54,4.29-1.14,7.35-.54,2.9-1.03,6.74-1.46,11.53-.33,4.68-.27,8.47,.16,11.36,.49,2.84,1.63,5.68,3.42,8.52s3.99,5.15,6.59,6.93c.65,.5,1.41,.95,2.28,1.34,.81,.33,1.74,.61,2.77,.84,1.03,.17,1.6,.2,1.71,.08,.22-.17,.41-1.2,.57-3.09,.05-1.84-.68-4.48-2.2-7.94-.33-.67-.22-1.17,.33-1.5,.49-.17,.95,.08,1.38,.75,1.84,3.34,2.98,5.88,3.42,7.6,.33,1.67,.76,2.84,1.3,3.51,.49,.39,.54,.86,.16,1.42-.33,.39-.46,.78-.41,1.17,0,.33-.41,.67-1.22,1-.22,.17-1.3,.25-3.25,.25-1.84,0-3.34-.14-4.47-.42-1.03-.22-2.2-.67-3.5-1.34-3.15-2-5.75-4.51-7.81-7.52-1.95-2.89-3.28-5.73-3.99-8.52-.22-.89-.41-1.86-.57-2.92-.16,.56-.35,1.14-.57,1.75-.87,2-1.98,3.62-3.34,4.84-1.46,1.5-3.15,2.09-5.04,1.75-.49-.17-1.3-.61-2.44-1.34-.05,3.17-.22,5.57-.49,7.18-.33,3.01-.24,6.66,.24,10.94,.16,1.67,0,2.53-.49,2.59-.49,0-.9,.25-1.22,.75-.22,.5-.57,.72-1.06,.67-.38,0-.68-.53-.9-1.59-.33-1.67-.24-5.37,.24-11.11Zm1.14-23.05c-.65,.67-1.3,1.42-1.95,2.26,.54-.33,1.19-.64,1.95-.92v-1.34Zm2.85,3.68c-.05,2.73-.14,5.26-.24,7.6,.49,0,1.03,.14,1.63,.42,.81,.17,1.38,.25,1.71,.25,.16,0,.79-.42,1.87-1.25,.98-.84,1.79-1.81,2.44-2.92,.54-1.06,.76-2.06,.65-3.01-.87-1.73-1.57-2.7-2.12-2.92-.49-.17-2.2,.36-5.12,1.59-.33,.06-.6,.14-.81,.25Zm6.35-17.62c-.22-.33-2.39,.28-6.51,1.84,.16,.67,.24,2.48,.24,5.43,.81-.84,1.74-1.75,2.77-2.76,2.44-2.84,3.61-4.34,3.5-4.51Z" fill="#fff"/>
        <path d="M198.85,59.22c3.14-4.41,5.92-9.22,8.34-14.42-3.36,1.07-5.34,1.73-5.95,1.95-.83,.17-1.98,.06-3.47-.34-.99-.23-1.57-.88-1.73-1.95-.06-1.02,.14-1.72,.58-2.12,.5-.23,.99-.23,1.49,0,.72,.4,1.71,.54,2.97,.42,.99-.17,3.77-1.1,8.34-2.8,0-.17,.08-.34,.25-.51,1.65-4.41,3.06-8.08,4.21-11.03-2.15,.74-4.38,1.58-6.69,2.54-4.79,1.87-8.78,3.28-11.98,4.24-.88,.17-1.65,.03-2.31-.42-.5-.51-.69-1.13-.58-1.87,.05-.56,.58-1.02,1.57-1.36,2.86-.73,7.52-2.23,13.96-4.5,2.53-.9,5.01-1.75,7.43-2.54,.33-1.24,.6-2.23,.83-2.97,.33-2.37,.05-4.18-.83-5.43-.06-.06-.11-.14-.17-.25-2.37,.85-5.07,1.87-8.09,3.05-.99,.51-1.85,.25-2.56-.76-.66-1.02-.41-1.67,.74-1.95,4.3-1.58,8.12-3.02,11.48-4.33,3.3-1.19,5.86-2.04,7.68-2.54,1.82-.39,3.58-.62,5.29-.68,1.65,0,3.17,.37,4.54,1.1,1.38,.17,2.34,1.05,2.89,2.63,.88,1.41,.94,4.04,.17,7.89,3.63-.34,6.5-.2,8.59,.42,1.54,.34,2.5,.91,2.89,1.7,.22,.68,.11,1.44-.33,2.29-.5,.85-1.32,.99-2.48,.42-1.05-.51-2.34-.88-3.88-1.1-1.49-.17-3.39-.2-5.7-.08-1.05,3.56-2.56,7.1-4.54,10.6,.17,0,.33,.03,.5,.08,.99,.17,1.57,.48,1.73,.93,.17,.4,.03,.82-.41,1.27-.39,.34-.63,.88-.74,1.61-.06,.68-.28,1.1-.66,1.27-.33,0-.74-.14-1.24-.42-.33-.34-.99-.54-1.98-.59-.88,0-2.53,.23-4.96,.68-2.2,.4-6.09,1.61-11.65,3.65-1.16,2.37-2.4,4.69-3.72,6.95,.5,.34,.8,.99,.91,1.95,0,1.19,.22,2.71,.66,4.58,3.96-1.7,7.57-3.19,10.82-4.5,3.3-1.24,5.84-2.15,7.6-2.71,1.71-.51,3.44-.79,5.2-.85,1.65,0,3.19,.34,4.63,1.02,1.54,.68,2.42,2.01,2.64,3.99,.33,1.87-.85,4.58-3.55,8.14-1.82,2.37-3.96,4.64-6.44,6.78h.58c3.52-.17,5.75-.11,6.69,.17,.83,.34,1.49,.14,1.98-.59,.5-.9,1.24-.76,2.23,.42,.88,1.19,.88,2.21,0,3.05-.88,.85-1.85,1.19-2.89,1.02-2.64-.51-5.59-.62-8.84-.34-3.14,.23-6.83,.85-11.07,1.87-1.54,.34-2.31-.08-2.31-1.27s.52-1.89,1.57-2.12c2.31-.68,4.54-1.19,6.69-1.53,3.63-2.54,6.41-5.2,8.34-7.97,1.98-2.77,2.86-4.78,2.64-6.02-.06-1.24-.3-2.09-.74-2.54-.5-.51-1.6-.76-3.3-.76s-4.13,.68-7.43,2.04c-3.3,1.19-7.82,3.03-13.55,5.51-.33,.06-.61,.11-.83,.17,.17,1.02,.47,2.21,.91,3.56,1.32,4.81,2.31,7.94,2.97,9.41,.55,1.24,.55,1.92,0,2.04-.55,0-1.19,.39-1.9,1.19-.55,.68-.88,.42-.99-.76,0-.51-.17-.9-.5-1.19-.17-.23-.83-2.37-1.98-6.45-.99-3.96-1.73-7.18-2.23-9.67-.22-1.36-.44-2.63-.66-3.82-1.54,2.54-3.25,5-5.12,7.38-4.52,5.77-8.12,9.16-10.82,10.18-.99,.34-1.62,.2-1.9-.42-.22-.68,.03-1.16,.74-1.44,1.87-.73,5.01-4.16,9.42-10.26Zm34.28-34.94c-3.63,.34-7.65,1.07-12.06,2.21-.88,.17-1.82,.4-2.81,.68-.99,2.77-2.34,6.47-4.05,11.11,4.51-1.53,8.07-2.6,10.66-3.22,1.32-.34,2.56-.54,3.72-.59,2.15-3.73,3.66-7.12,4.54-10.18Zm-8.67-2.04c3.36-.73,6.53-1.3,9.5-1.7,.33-2.37,.25-4.01-.25-4.92-.33-1.53-.8-2.52-1.4-2.97-.5-.51-1.6-.79-3.3-.85-1.71,0-4.3,.62-7.76,1.87-.66,.17-1.4,.4-2.23,.68,1.05,1.53,1.38,3.73,.99,6.62-.06,.51-.25,1.3-.58,2.37,1.71-.4,3.39-.76,5.04-1.1Z" fill="#fff"/>
      </g>
      <rect x="12.99" y="119.98" width="151.87" height="49.55" rx="9.1" ry="9.1" fill="none" stroke="#829995" stroke-miterlimit="10"/>
      <g>
        <path d="M39.56,133.12c-1.78,4.93-4.69,9.07-8.75,12.43l-1.56-2.13c3.65-2.82,6.28-6.53,7.88-11.14l2.42,.85Zm12.16,22.37l-2.17,1.54c-.51-1.22-1.02-2.27-1.53-3.14-4.2,1.01-9.33,1.94-15.41,2.78l-.71-2.13c2.33-1.73,5.07-6.48,8.2-14.25l2.48,.75c-2.21,5.31-4.48,9.55-6.82,12.71,4.09-.48,7.77-1.14,11.03-1.98-.55-.98-1.5-2.39-2.84-4.24l2.01-1.34c2.26,2.92,4.18,6.02,5.75,9.3Zm1.78-11.95l-1.45,2.2c-3.37-2.45-5.89-6.02-7.55-10.72h-2.21v-2.38h3.96c1.39,4.78,3.81,8.41,7.26,10.9Z" fill="#aeffe0"/>
        <path d="M70.3,137.26h-9.55v-2.27h3.66c-.28-.74-.59-1.44-.93-2.11l2.42-.62c.4,.71,.77,1.62,1.12,2.72h3.28v2.27Zm-.65,4.06h-8.16v-2.24h8.16v2.24Zm0,4.01h-8.16v-2.21h8.16v2.21Zm.03,10.86h-2.37v-1.12h-3.44v1.79h-2.32v-9.68h8.12v9.01Zm-2.37-3.39v-3.32h-3.44v3.32h3.44Zm17.59,1.94l-1.14,2.27c-2.29-.75-4.37-1.84-6.25-3.28-1.7,1.33-3.68,2.45-5.93,3.36l-1.38-2.13c2.23-.71,4.08-1.67,5.57-2.88-1.47-1.7-2.62-3.62-3.44-5.77h-1.24v-2.3h11.89v2.3c-1.15,2.43-2.37,4.35-3.67,5.74,1.49,1.17,3.36,2.06,5.59,2.69Zm-.31-12.37h-3.54c-.45,0-.86-.2-1.23-.59-.36-.4-.55-.85-.55-1.35v-4.98h-3.74v1.68c0,1.23-.3,2.42-.9,3.57-.6,1.15-1.42,2.03-2.46,2.64l-1.69-1.71c1.78-.97,2.68-2.69,2.68-5.18v-3.29h8.48v6.23c0,.18,.08,.35,.25,.49,.17,.15,.33,.22,.48,.22h2.21v2.27Zm-4.22,3.94h-5.43c.79,1.76,1.67,3.14,2.62,4.14,.99-.98,1.93-2.37,2.81-4.14Z" fill="#aeffe0"/>
        <path d="M101.66,137.26h-9.55v-2.27h3.66c-.27-.74-.58-1.44-.93-2.11l2.42-.62c.4,.71,.77,1.62,1.12,2.72h3.28v2.27Zm-.65,4.06h-8.16v-2.24h8.16v2.24Zm0,4.01h-8.16v-2.21h8.16v2.21Zm.03,10.86h-2.37v-1.12h-3.44v1.79h-2.32v-9.68h8.12v9.01Zm-2.37-3.39v-3.32h-3.44v3.32h3.44Zm17.59,1.94l-1.15,2.27c-2.29-.75-4.37-1.84-6.25-3.28-1.7,1.33-3.68,2.45-5.92,3.36l-1.38-2.13c2.23-.71,4.08-1.67,5.57-2.88-1.47-1.7-2.62-3.62-3.43-5.77h-1.24v-2.3h11.89v2.3c-1.14,2.43-2.37,4.35-3.67,5.74,1.49,1.17,3.36,2.06,5.59,2.69Zm-.31-12.37h-3.54c-.45,0-.86-.2-1.22-.59-.36-.4-.55-.85-.55-1.35v-4.98h-3.74v1.68c0,1.23-.3,2.42-.9,3.57-.6,1.15-1.42,2.03-2.46,2.64l-1.69-1.71c1.78-.97,2.68-2.69,2.68-5.18v-3.29h8.48v6.23c0,.18,.08,.35,.25,.49,.17,.15,.33,.22,.48,.22h2.21v2.27Zm-4.22,3.94h-5.43c.79,1.76,1.66,3.14,2.62,4.14,.99-.98,1.93-2.37,2.81-4.14Z" fill="#aeffe0"/>
        <path d="M134.84,137.15h-11.34v-2.21h4.5c-.29-.78-.63-1.54-1.01-2.27l2.54-.48c.42,.76,.82,1.67,1.2,2.75h4.12v2.21Zm-1.28,4.17h-9.08v-2.24h9.08v2.24Zm0,4.03h-9.08v-2.21h9.08v2.21Zm.05,11.12h-2.37v-1.41h-4.23v1.76h-2.4v-9.62h9v9.27Zm-2.37-3.64v-3.34h-4.23v3.34h4.23Zm16.06-10.25h-4.97v14.25h-2.48v-14.25h-4.86v-2.46h4.86v-7.7h2.48v7.7h4.97v2.46Z" fill="#aeffe0"/>
      </g>
      <g filter="url(#drop-shadow-2)">
        <path d="M210.33,143.36h-13.2c-.78,1.39-1.69,2.71-2.73,3.95h13.2v9.52h-1.44v-1.85h-11.89v1.85h-1.42v-8c-2.47,1.8-4.27,3-5.39,3.58l-.99-1.12c4.55-2.54,7.54-5.19,8.97-7.93h-8.79v-1.34h9.52c.35-.67,.85-1.82,1.48-3.47l1.38,.29c-.24,.78-.66,1.85-1.25,3.19h12.54v1.34Zm-12.41-6.47h-3.46v2.8h-1.41v-2.8h-6.45v-1.39h6.45v-3.2h1.41v3.2h3.46v1.39Zm8.24,16.69v-4.84h-11.89v4.84h11.89Zm4.17-16.69h-6.46v2.83h-1.42v-2.83h-3.38v-1.39h3.38v-3.17h1.42v3.17h6.46v1.39Z" fill="#fff"/>
        <path d="M227.51,138.66c-.92,6.71-3.8,11.99-8.64,15.85l-1.01-1.18c4.3-3.46,6.95-7.86,7.94-13.18h-6.9v-1.49h8.62Zm14.34,14.4l-.97,1.31c-4.4-2.88-7.73-6.63-9.99-11.25v11.68c0,.63-.11,1.09-.34,1.39-.23,.3-.51,.49-.85,.56-.34,.07-1.07,.11-2.18,.11-.91,0-1.59-.02-2.06-.05l-.48-1.5c1.84,.05,3.09,.08,3.75,.08,.47,0,.71-.24,.71-.72v-22.38h1.45v6.06c0,1.36,.45,2.79,1.36,4.31,3.04-2.4,5.38-4.68,7.02-6.86l1.17,.98c-1.9,2.42-4.39,4.82-7.47,7.19,1.62,3.29,4.58,6.33,8.88,9.11Z" fill="#fff"/>
        <path d="M258.98,136.65h-9.65v-1.46h4.26c-.24-.81-.6-1.63-1.09-2.46l1.25-.59c.54,.9,.99,1.92,1.33,3.05h3.9v1.46Zm-.76,8.18h-8.38v-1.41h8.38v1.41Zm.03-4.12h-8.38v-1.41h8.38v1.41Zm-.41,15.56h-1.41v-1.53h-4.94v2.06h-1.41v-9.32h7.76v8.79Zm-1.41-2.97v-4.33h-4.94v4.33h4.94Zm16.63,2.45l-.81,1.2c-2.76-.94-4.89-2.01-6.39-3.23-1.75,1.28-3.93,2.3-6.54,3.08l-.85-1.2c2.74-.83,4.81-1.78,6.19-2.86-1.88-1.78-3.25-4.16-4.11-7.14h-.93v-1.42h11.42v1.42c-1.17,3.27-2.53,5.66-4.09,7.16,1.54,1.14,3.58,2.13,6.11,2.98Zm-.11-13.22h-2.65c-1.3,0-1.96-.64-1.96-1.93v-6.03h-4.81c-.04,2.58-.38,4.5-1.01,5.75-.63,1.25-1.49,2.24-2.59,2.96l-1.06-1.01c1.08-.7,1.92-1.67,2.5-2.89,.58-1.23,.85-3.29,.81-6.2h7.52v7c0,.63,.3,.94,.91,.94h2.34v1.41Zm-3.46,3.08h-7.5c.94,2.75,2.22,4.83,3.83,6.22,1.62-1.54,2.84-3.61,3.66-6.22Z" fill="#fff"/>
        <path d="M292,137.18h-11.29v-1.46h5.15c-.4-.95-.94-1.95-1.62-2.99l1.36-.56c.6,.86,1.22,2.04,1.85,3.55h4.55v1.46Zm-1.39,4.01h-8.64v-1.41h8.64v1.41Zm0,3.94h-8.64v-1.37h8.64v1.37Zm0,11.48h-1.4v-1.37h-5.83v1.59h-1.41v-9.01h8.64v8.79Zm-1.4-2.86v-4.54h-5.83v4.54h5.83Zm15.27-11.87h-5.45v15h-1.48v-15h-5.43v-1.49h5.43v-7.97h1.48v7.97h5.45v1.49Z" fill="#fff"/>
      </g>
    </g>
  </g>
</svg>