<?xml version="1.0" encoding="UTF-8"?>
<svg id="_圖層_2" data-name="圖層 2" xmlns="http://www.w3.org/2000/svg" xmlns:xlink="http://www.w3.org/1999/xlink" viewBox="0 0 240.86 107.58">
  <defs>
    <filter id="drop-shadow-1" filterUnits="userSpaceOnUse">
      <feOffset dx="0" dy="0"/>
      <feGaussianBlur result="blur" stdDeviation="3"/>
      <feFlood flood-color="#244441" flood-opacity=".5"/>
      <feComposite in2="blur" operator="in"/>
      <feComposite in="SourceGraphic"/>
    </filter>
    <filter id="drop-shadow-2" filterUnits="userSpaceOnUse">
      <feOffset dx="0" dy="0"/>
      <feGaussianBlur result="blur-2" stdDeviation="3"/>
      <feFlood flood-color="#244441" flood-opacity=".5"/>
      <feComposite in2="blur-2" operator="in"/>
      <feComposite in="SourceGraphic"/>
    </filter>
    <filter id="drop-shadow-3" filterUnits="userSpaceOnUse">
      <feOffset dx="0" dy="0"/>
      <feGaussianBlur result="blur-3" stdDeviation="3"/>
      <feFlood flood-color="#244441" flood-opacity=".5"/>
      <feComposite in2="blur-3" operator="in"/>
      <feComposite in="SourceGraphic"/>
    </filter>
  </defs>
  <g id="content">
    <g>
      <g filter="url(#drop-shadow-1)">
        <path d="M37.76,58.81c.12,.21,.34,.36,.67,.45,.33,.09,.86,.13,1.59,.13,.04,0,.07,.04,.07,.13s-.02,.13-.07,.13c-.6,0-1.07,0-1.41-.02l-1.91-.02-1.52,.02c-.28,.02-.65,.02-1.12,.02-.04,0-.07-.04-.07-.13s.02-.13,.07-.13c.53,0,.91-.04,1.14-.11,.23-.07,.4-.22,.48-.43,.09-.21,.13-.54,.13-.98v-10.19c0-.44-.04-.76-.13-.97-.09-.21-.25-.35-.49-.43-.24-.08-.62-.12-1.13-.12-.04,0-.07-.04-.07-.13s.02-.13,.07-.13l1.1,.02c.65,.03,1.15,.04,1.52,.04s.77-.02,1.25-.07c.18,0,.45-.01,.83-.03,.37-.02,.7-.03,.98-.03,1.38,0,2.49,.3,3.32,.91,.84,.61,1.25,1.53,1.25,2.76,0,.95-.24,1.76-.71,2.42s-1.09,1.15-1.83,1.47c-.74,.32-1.51,.48-2.3,.48-.43,0-.78-.04-1.06-.11-.04,0-.07-.04-.07-.11,0-.04,.01-.09,.03-.13s.05-.06,.08-.04c.23,.06,.49,.09,.77,.09,.88,0,1.62-.32,2.22-.95,.6-.63,.9-1.54,.9-2.73s-.29-2.06-.88-2.72c-.59-.65-1.36-.98-2.33-.98-.45,0-.78,.03-.99,.1-.21,.07-.35,.21-.44,.42-.09,.21-.13,.55-.13,1v10.05c0,.47,.06,.81,.18,1.02Z" fill="#aeffe0"/>
        <path d="M58.37,46.75c-.34-.39-.82-.58-1.45-.58-.04,0-.07-.04-.07-.13s.02-.13,.07-.13l.99,.02c.53,.03,.95,.04,1.25,.04,.26,0,.65-.01,1.14-.04l.95-.02s.04,.04,.04,.13-.01,.13-.04,.13c-.59,0-1.03,.19-1.33,.57-.3,.38-.45,.95-.45,1.69v6.23c0,1.64-.48,2.93-1.44,3.87s-2.24,1.41-3.84,1.41c-1.09,0-2.04-.21-2.86-.63-.82-.42-1.46-1.02-1.91-1.8-.45-.79-.68-1.71-.68-2.76v-7.06c0-.44-.04-.76-.13-.97-.09-.21-.25-.35-.5-.43-.24-.08-.63-.12-1.15-.12-.04,0-.07-.04-.07-.13s.02-.13,.07-.13l1.1,.02c.65,.03,1.16,.04,1.54,.04,.43,0,.95-.01,1.56-.04l1.08-.02s.07,.04,.07,.13-.02,.13-.07,.13c-.51,0-.89,.04-1.13,.13-.24,.09-.41,.24-.5,.45-.09,.21-.13,.54-.13,.98v6.25c0,1.73,.38,3.04,1.13,3.93,.76,.89,1.81,1.33,3.18,1.33,1.28,0,2.28-.4,3-1.2,.73-.8,1.09-1.92,1.09-3.35v-6.25c0-.73-.17-1.29-.51-1.68Z" fill="#aeffe0"/>
        <path d="M72.06,52.37c.69,.32,1.22,.77,1.59,1.33,.37,.57,.56,1.21,.56,1.92,0,.78-.2,1.48-.6,2.1s-.95,1.11-1.65,1.47c-.7,.36-1.48,.54-2.34,.54-.47,0-.98-.02-1.54-.07-.21-.02-.45-.03-.73-.04-.28-.01-.59-.02-.95-.02l-1.54,.02c-.28,.02-.65,.02-1.12,.02-.04,0-.07-.04-.07-.13s.02-.13,.07-.13c.51,0,.89-.04,1.14-.12,.25-.08,.42-.22,.52-.43,.1-.21,.14-.53,.14-.97v-10.19c0-.44-.05-.76-.14-.97-.1-.21-.26-.35-.51-.43-.24-.08-.62-.12-1.13-.12-.03,0-.04-.04-.04-.13s.01-.13,.04-.13l1.1,.02c.65,.03,1.16,.04,1.54,.04,.41,0,.84-.02,1.3-.07,.16-.01,.36-.03,.58-.04s.47-.02,.74-.02c1.26,0,2.22,.26,2.87,.78,.65,.52,.98,1.22,.98,2.1,0,.82-.31,1.54-.92,2.16-.62,.62-1.45,1.05-2.51,1.3l.24-.29c.89,0,1.69,.16,2.38,.48Zm-4.26-6.05c-.18,.07-.32,.22-.4,.43-.08,.21-.12,.54-.12,.98v4.31l-.73-.18c.63,.04,1.19,.07,1.69,.07,.97,0,1.69-.28,2.18-.84,.48-.56,.73-1.29,.73-2.2,0-.84-.21-1.49-.63-1.97s-1.06-.72-1.92-.72c-.35,0-.62,.04-.8,.11Zm3.78,12.17c.51-.54,.76-1.32,.76-2.33,0-1.11-.31-2.01-.92-2.68s-1.49-1.02-2.62-1.03c-.73-.03-1.46,0-2.18,.11l.66-.24v5.57c0,.37,.05,.65,.15,.85,.1,.2,.29,.34,.57,.44,.28,.1,.7,.14,1.25,.14,1.04,0,1.82-.27,2.32-.81Z" fill="#aeffe0"/>
        <path d="M80.82,58.68c.08,.18,.23,.31,.45,.37,.22,.07,.56,.1,1.03,.1h1.87c.92,0,1.69-.28,2.3-.83,.61-.55,1.02-1.29,1.22-2.23,0-.04,.04-.06,.12-.05,.08,0,.12,.03,.12,.08-.13,1.29-.2,2.36-.2,3.21,0,.12-.03,.2-.08,.25-.05,.05-.14,.08-.25,.08h-10.25s-.04-.04-.04-.13,.01-.13,.04-.13c.53,0,.92-.04,1.17-.11,.25-.07,.42-.22,.51-.43s.13-.54,.13-.98v-10.19c0-.44-.04-.76-.13-.97-.09-.21-.26-.35-.51-.43-.25-.08-.64-.12-1.17-.12-.03,0-.04-.04-.04-.13s.01-.13,.04-.13l1.1,.02c.65,.03,1.17,.04,1.56,.04s.92-.01,1.56-.04l1.1-.02s.04,.04,.04,.13-.02,.13-.04,.13c-.53,0-.91,.04-1.15,.12-.24,.08-.41,.23-.5,.44s-.13,.54-.13,.98v10.08c0,.41,.04,.71,.12,.89Z" fill="#aeffe0"/>
        <path d="M94.04,58.86c.08,.21,.24,.34,.48,.42,.24,.07,.63,.11,1.18,.11,.03,0,.04,.04,.04,.13s-.01,.13-.04,.13c-.47,0-.84,0-1.1-.02l-1.58-.02-1.54,.02c-.28,.02-.66,.02-1.14,.02-.03,0-.04-.04-.04-.13s.01-.13,.04-.13c.53,0,.92-.04,1.17-.11s.42-.22,.52-.43,.14-.54,.14-.98v-10.19c0-.44-.05-.76-.14-.97-.1-.21-.27-.35-.52-.43-.25-.08-.64-.12-1.17-.12-.03,0-.04-.04-.04-.13s.01-.13,.04-.13l1.14,.02c.65,.03,1.16,.04,1.54,.04,.43,0,.96-.01,1.61-.04l1.08-.02s.04,.04,.04,.13-.01,.13-.04,.13c-.53,0-.91,.04-1.15,.13-.24,.09-.41,.24-.5,.45-.09,.21-.13,.54-.13,.98v10.14c0,.46,.04,.79,.12,.99Z" fill="#aeffe0"/>
        <path d="M109.22,45.85c.65,.12,1.26,.33,1.84,.6,.1,.04,.17,.09,.2,.14,.03,.05,.05,.17,.07,.34l.29,2.75s-.04,.07-.12,.09-.13,0-.14-.07c-.75-2.45-2.26-3.67-4.53-3.67-1.16,0-2.19,.27-3.08,.81s-1.59,1.31-2.08,2.31c-.49,1-.74,2.16-.74,3.5s.27,2.48,.8,3.53c.54,1.05,1.26,1.87,2.18,2.46,.92,.59,1.92,.89,3.02,.89s2.08-.29,2.82-.87c.73-.58,1.33-1.48,1.78-2.7,.01-.03,.05-.04,.11-.04,.03,0,.06,.01,.1,.03,.04,.02,.06,.04,.06,.05l-.24,2.51c-.01,.18-.04,.29-.07,.33-.03,.04-.1,.1-.22,.15-.73,.34-1.44,.58-2.11,.71-.67,.14-1.42,.21-2.22,.21-1.55,0-2.94-.3-4.16-.91-1.22-.61-2.17-1.46-2.85-2.54-.68-1.08-1.02-2.33-1.02-3.74s.35-2.61,1.04-3.68c.7-1.08,1.66-1.91,2.89-2.51,1.23-.59,2.61-.89,4.14-.89,.85,0,1.6,.06,2.26,.19Z" fill="#aeffe0"/>
        <path d="M121.03,59.52c0-.09,.02-.13,.07-.13,.54,0,.94-.04,1.19-.11s.42-.22,.52-.43c.1-.21,.14-.54,.14-.98v-10.19c0-.44-.04-.76-.13-.97-.09-.21-.25-.35-.5-.43-.24-.08-.63-.12-1.16-.12-.04,0-.07-.04-.07-.13s.02-.13,.07-.13h8.98c.15,0,.22,.07,.22,.2l.04,2.77s-.04,.07-.12,.08c-.08,0-.13-.01-.14-.05-.1-.81-.39-1.42-.86-1.85-.47-.42-1.09-.64-1.85-.64h-1.12c-.63,0-1.06,.09-1.29,.28-.23,.18-.34,.52-.34,1.02v10.08c0,.47,.06,.81,.19,1.02s.36,.36,.72,.45c.35,.09,.91,.13,1.67,.13,.03,0,.04,.04,.04,.13s-.01,.13-.04,.13c-.6,0-1.07,0-1.41-.02l-2.07-.02-1.54,.02c-.28,.02-.66,.02-1.14,.02-.04,0-.07-.04-.07-.13Zm7.44-6.06c-.38-.3-.99-.45-1.83-.45h-2.79v-.51h2.86c.79,0,1.38-.13,1.75-.4,.37-.26,.56-.66,.56-1.19,0-.03,.04-.04,.13-.04s.13,.01,.13,.04l-.02,1.85c0,.44,0,.77,.02,.99l.02,1.1s-.04,.04-.13,.04-.13-.01-.13-.04c0-.63-.19-1.1-.57-1.4Z" fill="#aeffe0"/>
        <path d="M147.69,59.52c0,.09-.04,.13-.11,.13-.28,0-.71-.01-1.3-.04-.62-.03-1.06-.04-1.32-.04-.34,0-.76,.01-1.25,.04-.5,.03-.87,.04-1.12,.04-.06,0-.09-.04-.09-.13s.03-.13,.09-.13c.5,0,.86-.05,1.08-.14,.22-.09,.33-.27,.33-.52s-.11-.59-.33-1.03l-4.73-9.83,.7-1.06-4.29,9.94c-.21,.5-.31,.91-.31,1.23,0,.47,.18,.82,.55,1.06,.37,.24,.89,.35,1.58,.35,.07,0,.11,.04,.11,.13s-.04,.13-.11,.13c-.26,0-.65-.01-1.14-.04-.56-.03-1.04-.04-1.45-.04-.38,0-.84,.01-1.36,.04-.47,.03-.85,.04-1.14,.04-.06,0-.09-.04-.09-.13s.03-.13,.09-.13c.41,0,.76-.08,1.04-.24s.56-.44,.83-.84c.26-.4,.56-.98,.9-1.76l4.69-10.8s.07-.07,.15-.08c.09,0,.14,.02,.15,.08l5.28,10.89c.51,1.07,.94,1.8,1.29,2.18,.34,.38,.74,.57,1.18,.57,.07,0,.11,.04,.11,.13Zm-11.22-6.09h5.98l.15,.48h-6.4l.26-.48Z" fill="#aeffe0"/>
        <path d="M159.87,45.85c.65,.12,1.26,.33,1.84,.6,.1,.04,.17,.09,.2,.14,.03,.05,.05,.17,.07,.34l.29,2.75s-.04,.07-.12,.09-.13,0-.14-.07c-.75-2.45-2.26-3.67-4.53-3.67-1.16,0-2.19,.27-3.08,.81s-1.59,1.31-2.08,2.31c-.49,1-.74,2.16-.74,3.5s.27,2.48,.8,3.53c.54,1.05,1.26,1.87,2.18,2.46,.92,.59,1.92,.89,3.02,.89s2.08-.29,2.82-.87c.73-.58,1.33-1.48,1.78-2.7,.01-.03,.05-.04,.11-.04,.03,0,.06,.01,.1,.03,.04,.02,.06,.04,.06,.05l-.24,2.51c-.01,.18-.04,.29-.07,.33-.03,.04-.1,.1-.22,.15-.73,.34-1.44,.58-2.11,.71-.67,.14-1.42,.21-2.22,.21-1.55,0-2.94-.3-4.16-.91-1.22-.61-2.17-1.46-2.85-2.54-.68-1.08-1.02-2.33-1.02-3.74s.35-2.61,1.04-3.68c.7-1.08,1.66-1.91,2.89-2.51,1.23-.59,2.61-.89,4.14-.89,.85,0,1.6,.06,2.26,.19Z" fill="#aeffe0"/>
        <path d="M169.3,58.86c.08,.21,.24,.34,.48,.42,.24,.07,.63,.11,1.18,.11,.03,0,.04,.04,.04,.13s-.01,.13-.04,.13c-.47,0-.84,0-1.1-.02l-1.58-.02-1.54,.02c-.28,.02-.66,.02-1.14,.02-.03,0-.04-.04-.04-.13s.01-.13,.04-.13c.53,0,.92-.04,1.17-.11s.42-.22,.52-.43,.14-.54,.14-.98v-10.19c0-.44-.05-.76-.14-.97-.1-.21-.27-.35-.52-.43-.25-.08-.64-.12-1.17-.12-.03,0-.04-.04-.04-.13s.01-.13,.04-.13l1.14,.02c.65,.03,1.16,.04,1.54,.04,.43,0,.96-.01,1.61-.04l1.08-.02s.04,.04,.04,.13-.01,.13-.04,.13c-.53,0-.91,.04-1.15,.13-.24,.09-.41,.24-.5,.45-.09,.21-.13,.54-.13,.98v10.14c0,.46,.04,.79,.12,.99Z" fill="#aeffe0"/>
        <path d="M177.47,58.68c.08,.18,.23,.31,.45,.37,.22,.07,.56,.1,1.03,.1h1.87c.92,0,1.69-.28,2.3-.83,.61-.55,1.02-1.29,1.22-2.23,0-.04,.04-.06,.12-.05,.08,0,.12,.03,.12,.08-.13,1.29-.2,2.36-.2,3.21,0,.12-.03,.2-.08,.25-.05,.05-.14,.08-.25,.08h-10.25s-.04-.04-.04-.13,.01-.13,.04-.13c.53,0,.92-.04,1.17-.11,.25-.07,.42-.22,.51-.43s.13-.54,.13-.98v-10.19c0-.44-.04-.76-.13-.97-.09-.21-.26-.35-.51-.43-.25-.08-.64-.12-1.17-.12-.03,0-.04-.04-.04-.13s.01-.13,.04-.13l1.1,.02c.65,.03,1.17,.04,1.56,.04s.92-.01,1.56-.04l1.1-.02s.04,.04,.04,.13-.02,.13-.04,.13c-.53,0-.91,.04-1.15,.12-.24,.08-.41,.23-.5,.44s-.13,.54-.13,.98v10.08c0,.41,.04,.71,.12,.89Z" fill="#aeffe0"/>
        <path d="M190.69,58.86c.08,.21,.24,.34,.48,.42,.24,.07,.63,.11,1.18,.11,.03,0,.04,.04,.04,.13s-.01,.13-.04,.13c-.47,0-.84,0-1.1-.02l-1.58-.02-1.54,.02c-.28,.02-.66,.02-1.14,.02-.03,0-.04-.04-.04-.13s.01-.13,.04-.13c.53,0,.92-.04,1.17-.11s.42-.22,.52-.43,.14-.54,.14-.98v-10.19c0-.44-.05-.76-.14-.97-.1-.21-.27-.35-.52-.43-.25-.08-.64-.12-1.17-.12-.03,0-.04-.04-.04-.13s.01-.13,.04-.13l1.14,.02c.65,.03,1.16,.04,1.54,.04,.43,0,.96-.01,1.61-.04l1.08-.02s.04,.04,.04,.13-.01,.13-.04,.13c-.53,0-.91,.04-1.15,.13-.24,.09-.41,.24-.5,.45-.09,.21-.13,.54-.13,.98v10.14c0,.46,.04,.79,.12,.99Z" fill="#aeffe0"/>
        <path d="M196.71,47.11c-.51,.51-.9,1.32-1.14,2.43-.01,.03-.06,.04-.14,.04s-.12-.02-.12-.07c.06-.41,.12-1.08,.2-2,.07-.92,.11-1.62,.11-2.09,0-.07,.04-.11,.13-.11s.13,.04,.13,.11c0,.32,.4,.48,1.21,.48,1.26,.04,2.73,.07,4.42,.07,.87,0,1.78-.01,2.75-.04l1.5-.02c.54,0,.94-.04,1.19-.11,.25-.07,.41-.22,.48-.44,.01-.06,.06-.09,.14-.09s.12,.03,.12,.09c-.04,.41-.09,1.07-.14,1.98-.05,.91-.08,1.64-.08,2.18,0,.04-.04,.07-.12,.07s-.12-.02-.12-.07c-.1-1.13-.4-1.94-.88-2.43-.48-.49-1.2-.74-2.16-.74-.54,0-.93,.03-1.17,.1-.23,.07-.4,.19-.48,.37-.09,.18-.13,.49-.13,.91v10.14c0,.46,.05,.79,.14,.99,.1,.21,.28,.34,.56,.42,.28,.07,.73,.11,1.34,.11,.03,0,.04,.04,.04,.13s-.02,.13-.04,.13c-.51,0-.92,0-1.21-.02l-1.74-.02-1.69,.02c-.29,.02-.7,.02-1.23,.02-.04,0-.07-.04-.07-.13s.02-.13,.07-.13c.6,0,1.05-.04,1.33-.11,.29-.07,.48-.22,.58-.43s.15-.54,.15-.98v-10.19c0-.41-.04-.71-.13-.89-.09-.18-.25-.3-.49-.36-.24-.06-.63-.09-1.18-.09-.91,0-1.62,.25-2.13,.76Z" fill="#aeffe0"/>
        <path d="M214.27,58.86c.08,.21,.24,.34,.48,.42,.24,.07,.63,.11,1.18,.11,.03,0,.04,.04,.04,.13s-.01,.13-.04,.13c-.47,0-.84,0-1.1-.02l-1.58-.02-1.54,.02c-.28,.02-.66,.02-1.14,.02-.03,0-.04-.04-.04-.13s.01-.13,.04-.13c.53,0,.92-.04,1.17-.11s.42-.22,.52-.43,.14-.54,.14-.98v-10.19c0-.44-.05-.76-.14-.97-.1-.21-.27-.35-.52-.43-.25-.08-.64-.12-1.17-.12-.03,0-.04-.04-.04-.13s.01-.13,.04-.13l1.14,.02c.65,.03,1.16,.04,1.54,.04,.43,0,.96-.01,1.61-.04l1.08-.02s.04,.04,.04,.13-.01,.13-.04,.13c-.53,0-.91,.04-1.15,.13-.24,.09-.41,.24-.5,.45-.09,.21-.13,.54-.13,.98v10.14c0,.46,.04,.79,.12,.99Z" fill="#aeffe0"/>
        <path d="M218.92,59.52c0-.09,.02-.13,.07-.13,.53,0,.91-.04,1.16-.11,.24-.07,.41-.22,.5-.43,.09-.21,.13-.54,.13-.98v-10.19c0-.44-.04-.76-.13-.97-.09-.21-.25-.35-.5-.43-.24-.08-.63-.12-1.16-.12-.04,0-.07-.04-.07-.13s.02-.13,.07-.13h8.98c.15,0,.22,.07,.22,.2l.04,2.77s-.04,.07-.12,.08c-.08,0-.13-.01-.14-.05-.1-.81-.39-1.42-.86-1.85-.47-.42-1.09-.64-1.85-.64h-1.12c-.65,0-1.08,.1-1.3,.29-.22,.19-.33,.55-.33,1.08v10.01c0,.53,.1,.89,.3,1.08,.2,.19,.6,.29,1.2,.29h1.45c.82,0,1.51-.25,2.06-.74,.55-.49,.93-1.19,1.13-2.1,0-.03,.03-.04,.09-.04,.04,0,.08,.01,.12,.03,.04,.02,.06,.04,.06,.06-.15,1.06-.22,2.05-.22,2.97,0,.12-.02,.2-.07,.25-.04,.05-.13,.08-.26,.08h-9.37s-.07-.04-.07-.13Zm7.67-6.33c-.36-.3-.93-.45-1.71-.45h-3.21v-.51h3.26c.75,0,1.3-.13,1.65-.38s.53-.66,.53-1.2c0-.03,.04-.04,.12-.04s.12,.01,.12,.04l-.02,1.85,.02,.99c.03,.47,.04,.84,.04,1.1,0,.03-.04,.04-.13,.04s-.13-.01-.13-.04c0-.63-.18-1.1-.54-1.4Z" fill="#aeffe0"/>
        <path d="M234.88,49.83c.28,.42,.62,.78,1.01,1.08s.95,.66,1.65,1.09c.73,.46,1.32,.85,1.75,1.18,.43,.33,.8,.74,1.11,1.22,.31,.48,.46,1.06,.46,1.72,0,.72-.19,1.37-.56,1.95s-.91,1.03-1.61,1.36c-.7,.33-1.51,.5-2.43,.5-.59,0-1.17-.07-1.74-.21-.57-.14-1.07-.34-1.5-.6-.07-.04-.12-.1-.15-.15-.03-.06-.04-.15-.04-.26l-.22-3.15c-.01-.06,.02-.09,.1-.11,.08-.01,.13,0,.14,.07,.35,1.12,.84,2.06,1.47,2.84,.63,.78,1.45,1.17,2.46,1.17,.69,0,1.27-.19,1.74-.56,.47-.37,.7-.99,.7-1.84,0-.65-.15-1.21-.44-1.69-.29-.48-.65-.89-1.08-1.22-.43-.33-.99-.71-1.69-1.13-.69-.44-1.24-.82-1.64-1.13-.4-.31-.74-.7-1.02-1.17-.28-.46-.42-1-.42-1.62,0-.75,.2-1.39,.6-1.91,.4-.53,.93-.92,1.58-1.18,.65-.26,1.34-.38,2.06-.38,.97,0,1.85,.17,2.66,.51,.22,.1,.33,.24,.33,.4l.11,2.75c0,.06-.04,.09-.12,.1-.08,0-.13-.02-.14-.08-.16-.79-.5-1.54-1.02-2.24-.52-.7-1.27-1.06-2.23-1.06-.73,0-1.3,.22-1.71,.66-.4,.44-.6,1-.6,1.67,0,.56,.14,1.04,.42,1.46Z" fill="#aeffe0"/>
      </g>
      <g filter="url(#drop-shadow-2)">
        <path d="M45.15,1.22c-1.78,4.93-4.69,9.07-8.75,12.43l-1.56-2.13c3.65-2.82,6.28-6.53,7.88-11.14l2.42,.85Zm12.16,22.37l-2.17,1.54c-.51-1.22-1.02-2.27-1.53-3.14-4.2,1.01-9.33,1.94-15.41,2.78l-.71-2.13c2.33-1.73,5.07-6.48,8.2-14.25l2.48,.75c-2.21,5.31-4.48,9.55-6.82,12.71,4.09-.48,7.77-1.14,11.03-1.98-.55-.98-1.5-2.39-2.84-4.24l2.01-1.34c2.26,2.92,4.18,6.02,5.75,9.3Zm1.78-11.95l-1.45,2.2c-3.37-2.45-5.89-6.02-7.55-10.72h-2.21V.74h3.95c1.39,4.78,3.81,8.41,7.26,10.9Z" fill="#fff"/>
        <path d="M75.89,5.36h-9.55V3.09h3.66c-.27-.74-.59-1.44-.93-2.11l2.42-.62c.4,.71,.77,1.62,1.12,2.72h3.28v2.27Zm-.65,4.06h-8.16v-2.24h8.16v2.24Zm0,4.01h-8.16v-2.21h8.16v2.21Zm.03,10.86h-2.37v-1.12h-3.44v1.79h-2.32V15.27h8.12v9.01Zm-2.37-3.39v-3.32h-3.44v3.32h3.44Zm17.59,1.94l-1.15,2.27c-2.29-.75-4.37-1.84-6.25-3.28-1.7,1.33-3.68,2.45-5.93,3.36l-1.38-2.13c2.23-.71,4.08-1.67,5.57-2.88-1.47-1.7-2.62-3.62-3.44-5.77h-1.24v-2.3h11.89v2.3c-1.15,2.43-2.37,4.35-3.67,5.74,1.49,1.17,3.36,2.06,5.59,2.69Zm-.31-12.37h-3.54c-.45,0-.86-.2-1.23-.59s-.55-.85-.55-1.35V3.54h-3.74v1.68c0,1.23-.3,2.42-.9,3.57s-1.42,2.03-2.46,2.64l-1.69-1.71c1.78-.97,2.68-2.69,2.68-5.18V1.24h8.48V7.48c0,.18,.08,.35,.25,.49,.17,.15,.33,.22,.48,.22h2.21v2.27Zm-4.22,3.94h-5.43c.79,1.76,1.66,3.14,2.62,4.14,.99-.98,1.93-2.37,2.81-4.14Z" fill="#fff"/>
        <path d="M107.25,5.36h-9.55V3.09h3.66c-.27-.74-.59-1.44-.93-2.11l2.42-.62c.4,.71,.77,1.62,1.12,2.72h3.28v2.27Zm-.65,4.06h-8.16v-2.24h8.16v2.24Zm0,4.01h-8.16v-2.21h8.16v2.21Zm.03,10.86h-2.37v-1.12h-3.44v1.79h-2.32V15.27h8.12v9.01Zm-2.37-3.39v-3.32h-3.44v3.32h3.44Zm17.59,1.94l-1.15,2.27c-2.29-.75-4.37-1.84-6.25-3.28-1.7,1.33-3.68,2.45-5.93,3.36l-1.38-2.13c2.23-.71,4.08-1.67,5.57-2.88-1.47-1.7-2.62-3.62-3.44-5.77h-1.24v-2.3h11.89v2.3c-1.15,2.43-2.37,4.35-3.67,5.74,1.49,1.17,3.36,2.06,5.59,2.69Zm-.31-12.37h-3.54c-.45,0-.86-.2-1.23-.59s-.55-.85-.55-1.35V3.54h-3.74v1.68c0,1.23-.3,2.42-.9,3.57s-1.42,2.03-2.46,2.64l-1.69-1.71c1.78-.97,2.68-2.69,2.68-5.18V1.24h8.48V7.48c0,.18,.08,.35,.25,.49,.17,.15,.33,.22,.48,.22h2.21v2.27Zm-4.22,3.94h-5.43c.79,1.76,1.66,3.14,2.62,4.14,.99-.98,1.93-2.37,2.81-4.14Z" fill="#fff"/>
        <path d="M140.43,5.25h-11.34V3.04h4.5c-.29-.78-.63-1.54-1.01-2.27l2.54-.48c.42,.76,.82,1.67,1.2,2.75h4.11v2.21Zm-1.28,4.17h-9.08v-2.24h9.08v2.24Zm0,4.03h-9.08v-2.21h9.08v2.21Zm.05,11.12h-2.37v-1.41h-4.23v1.76h-2.4V15.3h9v9.27Zm-2.37-3.64v-3.34h-4.23v3.34h4.23Zm16.06-10.25h-4.97v14.25h-2.48V10.68h-4.86v-2.46h4.86V.52h2.48v7.7h4.97v2.46Z" fill="#fff"/>
      </g>
      <g filter="url(#drop-shadow-3)">
        <path d="M59.76,93.99h-13.2c-.78,1.39-1.69,2.71-2.73,3.95h13.2v9.52h-1.44v-1.85h-11.89v1.85h-1.42v-8c-2.47,1.8-4.27,3-5.39,3.58l-.99-1.12c4.55-2.54,7.54-5.19,8.97-7.93h-8.79v-1.34h9.52c.35-.67,.85-1.82,1.48-3.47l1.38,.29c-.24,.78-.66,1.85-1.25,3.19h12.54v1.34Zm-12.41-6.47h-3.46v2.8h-1.41v-2.8h-6.44v-1.39h6.44v-3.2h1.41v3.2h3.46v1.39Zm8.24,16.69v-4.84h-11.89v4.84h11.89Zm4.17-16.69h-6.46v2.83h-1.42v-2.83h-3.38v-1.39h3.38v-3.17h1.42v3.17h6.46v1.39Z" fill="#fff"/>
        <path d="M76.94,89.29c-.92,6.71-3.8,11.99-8.64,15.85l-1.01-1.18c4.31-3.46,6.95-7.86,7.94-13.18h-6.9v-1.49h8.62Zm14.34,14.4l-.97,1.31c-4.4-2.88-7.73-6.63-9.99-11.25v11.68c0,.63-.11,1.09-.34,1.39-.23,.3-.51,.49-.85,.56-.34,.07-1.06,.11-2.18,.11-.91,0-1.59-.02-2.06-.05l-.48-1.5c1.84,.05,3.09,.08,3.75,.08,.47,0,.71-.24,.71-.72v-22.38h1.45v6.06c0,1.36,.45,2.79,1.36,4.31,3.04-2.4,5.38-4.68,7.02-6.86l1.17,.98c-1.9,2.42-4.39,4.82-7.47,7.19,1.62,3.29,4.58,6.33,8.88,9.11Z" fill="#fff"/>
        <path d="M108.41,87.28h-9.65v-1.46h4.26c-.24-.81-.6-1.63-1.09-2.46l1.25-.59c.54,.9,.99,1.92,1.33,3.05h3.9v1.46Zm-.76,8.18h-8.38v-1.41h8.38v1.41Zm.03-4.12h-8.38v-1.41h8.38v1.41Zm-.41,15.56h-1.41v-1.53h-4.94v2.06h-1.41v-9.32h7.76v8.79Zm-1.41-2.97v-4.33h-4.94v4.33h4.94Zm16.63,2.45l-.81,1.2c-2.76-.94-4.89-2.01-6.39-3.23-1.75,1.28-3.93,2.3-6.54,3.08l-.85-1.2c2.74-.83,4.81-1.78,6.19-2.86-1.88-1.78-3.25-4.16-4.11-7.14h-.93v-1.42h11.42v1.42c-1.17,3.27-2.53,5.66-4.09,7.16,1.54,1.14,3.58,2.13,6.11,2.98Zm-.11-13.22h-2.65c-1.31,0-1.96-.64-1.96-1.93v-6.03h-4.81c-.04,2.58-.38,4.5-1.01,5.75-.63,1.25-1.49,2.24-2.59,2.96l-1.06-1.01c1.08-.7,1.92-1.67,2.5-2.89,.58-1.23,.85-3.29,.81-6.2h7.52v7c0,.63,.3,.94,.91,.94h2.34v1.41Zm-3.46,3.08h-7.5c.94,2.75,2.22,4.83,3.83,6.22,1.62-1.54,2.85-3.61,3.66-6.22Z" fill="#fff"/>
        <path d="M141.43,87.81h-11.29v-1.46h5.15c-.4-.95-.94-1.95-1.62-2.99l1.36-.56c.6,.86,1.22,2.04,1.85,3.55h4.55v1.46Zm-1.39,4.01h-8.64v-1.41h8.64v1.41Zm0,3.94h-8.64v-1.37h8.64v1.37Zm0,11.48h-1.4v-1.37h-5.83v1.59h-1.41v-9.01h8.64v8.79Zm-1.4-2.86v-4.54h-5.83v4.54h5.83Zm15.27-11.87h-5.45v15h-1.48v-15h-5.43v-1.49h5.43v-7.97h1.48v7.97h5.45v1.49Z" fill="#fff"/>
      </g>
      <line x1="1" x2="1" y2="106.71" fill="none" stroke="#aeffe0" stroke-miterlimit="10" stroke-width="2"/>
    </g>
  </g>
</svg>