<?xml version="1.0" encoding="UTF-8"?>
<svg id="_圖層_2" data-name="圖層 2" xmlns="http://www.w3.org/2000/svg" xmlns:xlink="http://www.w3.org/1999/xlink" viewBox="0 0 256.11 107.58">
  <defs>
    <filter id="drop-shadow-1" filterUnits="userSpaceOnUse">
      <feOffset dx="0" dy="0"/>
      <feGaussianBlur result="blur" stdDeviation="3"/>
      <feFlood flood-color="#244441" flood-opacity=".5"/>
      <feComposite in2="blur" operator="in"/>
      <feComposite in="SourceGraphic"/>
    </filter>
    <filter id="drop-shadow-2" filterUnits="userSpaceOnUse">
      <feOffset dx="0" dy="0"/>
      <feGaussianBlur result="blur-2" stdDeviation="3"/>
      <feFlood flood-color="#244441" flood-opacity=".5"/>
      <feComposite in2="blur-2" operator="in"/>
      <feComposite in="SourceGraphic"/>
    </filter>
    <filter id="drop-shadow-3" filterUnits="userSpaceOnUse">
      <feOffset dx="0" dy="0"/>
      <feGaussianBlur result="blur-3" stdDeviation="3"/>
      <feFlood flood-color="#244441" flood-opacity=".5"/>
      <feComposite in2="blur-3" operator="in"/>
      <feComposite in="SourceGraphic"/>
    </filter>
  </defs>
  <g id="content">
    <g>
      <g filter="url(#drop-shadow-1)">
        <path d="M37.57,58.68c.08,.18,.23,.31,.45,.37,.22,.07,.56,.1,1.03,.1h1.87c.92,0,1.69-.28,2.3-.83,.61-.55,1.02-1.29,1.22-2.23,0-.04,.04-.06,.12-.05,.08,0,.12,.03,.12,.08-.13,1.29-.2,2.36-.2,3.21,0,.12-.03,.2-.08,.25-.05,.05-.14,.08-.25,.08h-10.25s-.04-.04-.04-.13,.01-.13,.04-.13c.53,0,.92-.04,1.17-.11,.25-.07,.42-.22,.51-.43s.13-.54,.13-.98v-10.19c0-.44-.04-.76-.13-.97-.09-.21-.26-.35-.51-.43-.25-.08-.64-.12-1.17-.12-.03,0-.04-.04-.04-.13s.01-.13,.04-.13l1.1,.02c.65,.03,1.17,.04,1.56,.04s.92-.01,1.56-.04l1.1-.02s.04,.04,.04,.13-.02,.13-.04,.13c-.53,0-.91,.04-1.15,.12-.24,.08-.41,.23-.5,.44s-.13,.54-.13,.98v10.08c0,.41,.04,.71,.12,.89Z" fill="#aeffe0"/>
        <path d="M61.69,59.53c0,.09-.04,.13-.11,.13-.28,0-.71-.01-1.3-.04-.62-.03-1.06-.04-1.32-.04-.34,0-.76,.01-1.25,.04-.5,.03-.87,.04-1.12,.04-.06,0-.09-.04-.09-.13s.03-.13,.09-.13c.5,0,.86-.05,1.08-.14,.22-.09,.33-.27,.33-.52s-.11-.59-.33-1.03l-4.73-9.83,.7-1.06-4.29,9.94c-.21,.5-.31,.91-.31,1.23,0,.47,.18,.82,.55,1.06,.37,.24,.89,.35,1.58,.35,.07,0,.11,.04,.11,.13s-.04,.13-.11,.13c-.26,0-.65-.01-1.14-.04-.56-.03-1.04-.04-1.45-.04-.38,0-.84,.01-1.36,.04-.47,.03-.85,.04-1.14,.04-.06,0-.09-.04-.09-.13s.03-.13,.09-.13c.41,0,.76-.08,1.04-.24s.56-.44,.83-.84c.26-.4,.56-.98,.9-1.76l4.69-10.8s.07-.07,.15-.08c.09,0,.14,.02,.15,.08l5.28,10.89c.51,1.07,.94,1.8,1.29,2.18,.34,.38,.74,.57,1.18,.57,.07,0,.11,.04,.11,.13Zm-11.22-6.09h5.98l.15,.48h-6.4l.26-.48Z" fill="#aeffe0"/>
        <path d="M76.44,60.01c-.07,.01-.11,0-.14-.02l-10.36-12.28c-.48-.57-.92-.97-1.3-1.2-.38-.23-.76-.34-1.14-.34-.03,0-.04-.04-.04-.13s.01-.13,.04-.13l.86,.02c.18,.01,.43,.02,.75,.02l1.12-.02c.15-.01,.31-.02,.51-.02,.12,0,.21,.03,.26,.09,.06,.06,.15,.18,.26,.35l.53,.7,8.58,10.34,.18,2.55s-.03,.05-.1,.07Zm-11.03-13.6l.57,.04v10.69c0,.76,.14,1.33,.43,1.69,.29,.37,.72,.55,1.31,.55,.03,0,.04,.04,.04,.13s-.01,.13-.04,.13c-.38,0-.67,0-.88-.02l-1.12-.02-1.19,.02c-.22,.02-.54,.02-.97,.02-.03,0-.04-.04-.04-.13s.01-.13,.04-.13c.63,0,1.1-.18,1.4-.55,.3-.37,.45-.93,.45-1.69v-10.74Zm11.13,13.53l-.55-.68v-10.82c0-.76-.14-1.33-.42-1.71-.28-.37-.71-.56-1.3-.56-.03,0-.04-.04-.04-.13s.01-.13,.04-.13l.88,.02c.44,.03,.81,.04,1.12,.04,.26,0,.65-.01,1.14-.04l.92-.02s.04,.04,.04,.13-.01,.13-.04,.13c-1.2,0-1.8,.76-1.8,2.27v11.51Z" fill="#aeffe0"/>
        <path d="M85.17,59.68c-.22-.02-.49-.03-.8-.04-.32-.01-.67-.02-1.07-.02l-1.54,.02c-.28,.02-.66,.02-1.14,.02-.03,0-.04-.04-.04-.13s.01-.13,.04-.13c.53,0,.92-.04,1.17-.11,.25-.07,.42-.22,.52-.43,.1-.21,.14-.54,.14-.98v-10.19c0-.44-.04-.76-.13-.97-.09-.21-.25-.35-.5-.43-.24-.08-.63-.12-1.15-.12-.04,0-.07-.04-.07-.13s.02-.13,.07-.13l1.1,.02c.65,.03,1.16,.04,1.54,.04,.54,0,1.1-.02,1.67-.07,.7-.03,1.18-.04,1.43-.04,1.51,0,2.85,.29,4.03,.88,1.17,.59,2.08,1.39,2.73,2.4,.65,1.01,.97,2.15,.97,3.41,0,1.42-.33,2.68-1,3.77s-1.57,1.94-2.71,2.53c-1.14,.59-2.37,.89-3.71,.89-.45,0-.97-.02-1.54-.07Zm4.25-1.07c.85-.49,1.51-1.21,1.99-2.16,.48-.95,.71-2.09,.71-3.42s-.23-2.43-.68-3.46-1.1-1.85-1.92-2.44c-.83-.59-1.79-.89-2.89-.89-.63,0-1.11,.04-1.45,.11s-.59,.22-.75,.43c-.16,.21-.24,.53-.24,.96v9.9c0,.43,.06,.76,.19,1,.12,.24,.35,.42,.68,.54,.33,.12,.81,.18,1.44,.18,1.1,0,2.08-.25,2.93-.74Z" fill="#aeffe0"/>
        <path d="M100.11,49.83c.28,.42,.62,.78,1.01,1.08s.95,.66,1.65,1.09c.73,.46,1.32,.85,1.75,1.18,.43,.33,.8,.74,1.11,1.22,.31,.48,.46,1.06,.46,1.72,0,.72-.19,1.37-.56,1.95s-.91,1.03-1.61,1.36c-.7,.33-1.51,.5-2.43,.5-.59,0-1.17-.07-1.74-.21-.57-.14-1.07-.34-1.5-.6-.07-.04-.12-.1-.15-.15-.03-.06-.04-.15-.04-.26l-.22-3.15c-.01-.06,.02-.09,.1-.11,.08-.01,.13,0,.14,.07,.35,1.12,.84,2.06,1.47,2.84,.63,.78,1.45,1.17,2.46,1.17,.69,0,1.27-.19,1.74-.56,.47-.37,.7-.99,.7-1.84,0-.65-.15-1.21-.44-1.69-.29-.48-.65-.89-1.08-1.22-.43-.33-.99-.71-1.69-1.13-.69-.44-1.24-.82-1.64-1.13-.4-.31-.74-.7-1.02-1.17-.28-.46-.42-1-.42-1.62,0-.75,.2-1.39,.6-1.91,.4-.53,.93-.92,1.58-1.18,.65-.26,1.34-.38,2.06-.38,.97,0,1.85,.17,2.66,.51,.22,.1,.33,.24,.33,.4l.11,2.75c0,.06-.04,.09-.12,.1-.08,0-.13-.02-.14-.08-.16-.79-.5-1.54-1.02-2.24-.52-.7-1.27-1.06-2.23-1.06-.73,0-1.3,.22-1.71,.66-.4,.44-.6,1-.6,1.67,0,.56,.14,1.04,.42,1.46Z" fill="#aeffe0"/>
        <path d="M119.78,45.85c.65,.12,1.26,.33,1.84,.6,.1,.04,.17,.09,.2,.14,.03,.05,.05,.17,.07,.34l.29,2.75s-.04,.07-.12,.09-.13,0-.14-.07c-.75-2.45-2.26-3.67-4.53-3.67-1.16,0-2.19,.27-3.08,.81s-1.59,1.31-2.08,2.31c-.49,1-.74,2.16-.74,3.5s.27,2.48,.8,3.53c.54,1.05,1.26,1.87,2.18,2.46,.92,.59,1.92,.89,3.02,.89s2.08-.29,2.82-.87c.73-.58,1.33-1.48,1.78-2.7,.01-.03,.05-.04,.11-.04,.03,0,.06,.01,.1,.03,.04,.02,.06,.04,.06,.05l-.24,2.51c-.01,.18-.04,.29-.07,.33-.03,.04-.1,.1-.22,.15-.73,.34-1.44,.58-2.11,.71-.67,.14-1.42,.21-2.22,.21-1.55,0-2.94-.3-4.16-.91-1.22-.61-2.17-1.46-2.85-2.54-.68-1.08-1.02-2.33-1.02-3.74s.35-2.61,1.04-3.68c.7-1.08,1.66-1.91,2.89-2.51,1.23-.59,2.61-.89,4.14-.89,.85,0,1.6,.06,2.26,.19Z" fill="#aeffe0"/>
        <path d="M140.12,59.53c0,.09-.04,.13-.11,.13-.28,0-.71-.01-1.3-.04-.62-.03-1.06-.04-1.32-.04-.34,0-.76,.01-1.25,.04-.5,.03-.87,.04-1.12,.04-.06,0-.09-.04-.09-.13s.03-.13,.09-.13c.5,0,.86-.05,1.08-.14,.22-.09,.33-.27,.33-.52s-.11-.59-.33-1.03l-4.73-9.83,.7-1.06-4.29,9.94c-.21,.5-.31,.91-.31,1.23,0,.47,.18,.82,.55,1.06,.37,.24,.89,.35,1.58,.35,.07,0,.11,.04,.11,.13s-.04,.13-.11,.13c-.26,0-.65-.01-1.14-.04-.56-.03-1.04-.04-1.45-.04-.38,0-.84,.01-1.36,.04-.47,.03-.85,.04-1.14,.04-.06,0-.09-.04-.09-.13s.03-.13,.09-.13c.41,0,.76-.08,1.04-.24s.56-.44,.83-.84c.26-.4,.56-.98,.9-1.76l4.69-10.8s.07-.07,.15-.08c.09,0,.14,.02,.15,.08l5.28,10.89c.51,1.07,.94,1.8,1.29,2.18,.34,.38,.74,.57,1.18,.57,.07,0,.11,.04,.11,.13Zm-11.22-6.09h5.98l.15,.48h-6.4l.26-.48Z" fill="#aeffe0"/>
        <path d="M145.73,58.81c.12,.21,.34,.36,.67,.45,.33,.09,.86,.13,1.59,.13,.04,0,.07,.04,.07,.13s-.02,.13-.07,.13c-.6,0-1.07,0-1.41-.02l-1.91-.02-1.52,.02c-.28,.02-.65,.02-1.12,.02-.04,0-.07-.04-.07-.13s.02-.13,.07-.13c.53,0,.91-.04,1.14-.11,.23-.07,.4-.22,.48-.43,.09-.21,.13-.54,.13-.98v-10.19c0-.44-.04-.76-.13-.97-.09-.21-.25-.35-.49-.43-.24-.08-.62-.12-1.13-.12-.04,0-.07-.04-.07-.13s.02-.13,.07-.13l1.1,.02c.65,.03,1.15,.04,1.52,.04s.77-.02,1.25-.07c.18,0,.45-.01,.83-.03,.37-.02,.7-.03,.98-.03,1.38,0,2.49,.3,3.32,.91,.84,.61,1.25,1.53,1.25,2.76,0,.95-.24,1.76-.71,2.42s-1.09,1.15-1.83,1.47c-.74,.32-1.51,.48-2.3,.48-.43,0-.78-.04-1.06-.11-.04,0-.07-.04-.07-.11,0-.04,.01-.09,.03-.13s.05-.06,.08-.04c.23,.06,.49,.09,.77,.09,.88,0,1.62-.32,2.22-.95,.6-.63,.9-1.54,.9-2.73s-.29-2.06-.88-2.72c-.59-.65-1.36-.98-2.33-.98-.45,0-.78,.03-.99,.1-.21,.07-.35,.21-.44,.42-.09,.21-.13,.55-.13,1v10.05c0,.47,.06,.81,.18,1.02Z" fill="#aeffe0"/>
        <path d="M155.15,59.53c0-.09,.02-.13,.07-.13,.53,0,.91-.04,1.16-.11,.24-.07,.41-.22,.5-.43,.09-.21,.13-.54,.13-.98v-10.19c0-.44-.04-.76-.13-.97-.09-.21-.25-.35-.5-.43-.24-.08-.63-.12-1.16-.12-.04,0-.07-.04-.07-.13s.02-.13,.07-.13h8.98c.15,0,.22,.07,.22,.2l.04,2.77s-.04,.07-.12,.08c-.08,0-.13-.01-.14-.05-.1-.81-.39-1.42-.86-1.85-.47-.42-1.09-.64-1.85-.64h-1.12c-.65,0-1.08,.1-1.3,.29-.22,.19-.33,.55-.33,1.08v10.01c0,.53,.1,.89,.3,1.08,.2,.19,.6,.29,1.2,.29h1.45c.82,0,1.51-.25,2.06-.74,.55-.49,.93-1.19,1.13-2.1,0-.03,.03-.04,.09-.04,.04,0,.08,.01,.12,.03,.04,.02,.06,.04,.06,.06-.15,1.06-.22,2.05-.22,2.97,0,.12-.02,.2-.07,.25-.04,.05-.13,.08-.26,.08h-9.37s-.07-.04-.07-.13Zm7.67-6.33c-.36-.3-.93-.45-1.71-.45h-3.21v-.51h3.26c.75,0,1.3-.13,1.65-.38s.53-.66,.53-1.2c0-.03,.04-.04,.12-.04s.12,.01,.12,.04l-.02,1.85,.02,.99c.03,.47,.04,.84,.04,1.1,0,.03-.04,.04-.13,.04s-.13-.01-.13-.04c0-.63-.18-1.1-.54-1.4Z" fill="#aeffe0"/>
        <path d="M178.82,59.68c-.22-.02-.49-.03-.8-.04-.32-.01-.67-.02-1.07-.02l-1.54,.02c-.28,.02-.66,.02-1.14,.02-.03,0-.04-.04-.04-.13s.01-.13,.04-.13c.53,0,.92-.04,1.17-.11,.25-.07,.42-.22,.52-.43,.1-.21,.14-.54,.14-.98v-10.19c0-.44-.04-.76-.13-.97-.09-.21-.25-.35-.5-.43-.24-.08-.63-.12-1.15-.12-.04,0-.07-.04-.07-.13s.02-.13,.07-.13l1.1,.02c.65,.03,1.16,.04,1.54,.04,.54,0,1.1-.02,1.67-.07,.7-.03,1.18-.04,1.43-.04,1.51,0,2.85,.29,4.03,.88,1.17,.59,2.08,1.39,2.73,2.4,.65,1.01,.97,2.15,.97,3.41,0,1.42-.33,2.68-1,3.77s-1.57,1.94-2.71,2.53c-1.14,.59-2.37,.89-3.71,.89-.45,0-.97-.02-1.54-.07Zm4.25-1.07c.85-.49,1.51-1.21,1.99-2.16,.48-.95,.71-2.09,.71-3.42s-.23-2.43-.68-3.46-1.1-1.85-1.92-2.44c-.83-.59-1.79-.89-2.89-.89-.63,0-1.11,.04-1.45,.11s-.59,.22-.75,.43c-.16,.21-.24,.53-.24,.96v9.9c0,.43,.06,.76,.19,1,.12,.24,.35,.42,.68,.54,.33,.12,.81,.18,1.44,.18,1.1,0,2.08-.25,2.93-.74Z" fill="#aeffe0"/>
        <path d="M190.83,59.53c0-.09,.02-.13,.07-.13,.53,0,.91-.04,1.16-.11,.24-.07,.41-.22,.5-.43,.09-.21,.13-.54,.13-.98v-10.19c0-.44-.04-.76-.13-.97-.09-.21-.25-.35-.5-.43-.24-.08-.63-.12-1.16-.12-.04,0-.07-.04-.07-.13s.02-.13,.07-.13h8.98c.15,0,.22,.07,.22,.2l.04,2.77s-.04,.07-.12,.08c-.08,0-.13-.01-.14-.05-.1-.81-.39-1.42-.86-1.85-.47-.42-1.09-.64-1.85-.64h-1.12c-.65,0-1.08,.1-1.3,.29-.22,.19-.33,.55-.33,1.08v10.01c0,.53,.1,.89,.3,1.08,.2,.19,.6,.29,1.2,.29h1.45c.82,0,1.51-.25,2.06-.74,.55-.49,.93-1.19,1.13-2.1,0-.03,.03-.04,.09-.04,.04,0,.08,.01,.12,.03,.04,.02,.06,.04,.06,.06-.15,1.06-.22,2.05-.22,2.97,0,.12-.02,.2-.07,.25-.04,.05-.13,.08-.26,.08h-9.37s-.07-.04-.07-.13Zm7.67-6.33c-.36-.3-.93-.45-1.71-.45h-3.21v-.51h3.26c.75,0,1.3-.13,1.65-.38s.53-.66,.53-1.2c0-.03,.04-.04,.12-.04s.12,.01,.12,.04l-.02,1.85,.02,.99c.03,.47,.04,.84,.04,1.1,0,.03-.04,.04-.13,.04s-.13-.01-.13-.04c0-.63-.18-1.1-.54-1.4Z" fill="#aeffe0"/>
        <path d="M206.78,49.83c.28,.42,.62,.78,1.01,1.08s.95,.66,1.65,1.09c.73,.46,1.32,.85,1.75,1.18,.43,.33,.8,.74,1.11,1.22,.31,.48,.46,1.06,.46,1.72,0,.72-.19,1.37-.56,1.95s-.91,1.03-1.61,1.36c-.7,.33-1.51,.5-2.43,.5-.59,0-1.17-.07-1.74-.21-.57-.14-1.07-.34-1.5-.6-.07-.04-.12-.1-.15-.15-.03-.06-.04-.15-.04-.26l-.22-3.15c-.01-.06,.02-.09,.1-.11,.08-.01,.13,0,.14,.07,.35,1.12,.84,2.06,1.47,2.84,.63,.78,1.45,1.17,2.46,1.17,.69,0,1.27-.19,1.74-.56,.47-.37,.7-.99,.7-1.84,0-.65-.15-1.21-.44-1.69-.29-.48-.65-.89-1.08-1.22-.43-.33-.99-.71-1.69-1.13-.69-.44-1.24-.82-1.64-1.13-.4-.31-.74-.7-1.02-1.17-.28-.46-.42-1-.42-1.62,0-.75,.2-1.39,.6-1.91,.4-.53,.93-.92,1.58-1.18,.65-.26,1.34-.38,2.06-.38,.97,0,1.85,.17,2.66,.51,.22,.1,.33,.24,.33,.4l.11,2.75c0,.06-.04,.09-.12,.1-.08,0-.13-.02-.14-.08-.16-.79-.5-1.54-1.02-2.24-.52-.7-1.27-1.06-2.23-1.06-.73,0-1.3,.22-1.71,.66-.4,.44-.6,1-.6,1.67,0,.56,.14,1.04,.42,1.46Z" fill="#aeffe0"/>
        <path d="M219.75,58.87c.08,.21,.24,.34,.48,.42,.24,.07,.63,.11,1.18,.11,.03,0,.04,.04,.04,.13s-.01,.13-.04,.13c-.47,0-.84,0-1.1-.02l-1.58-.02-1.54,.02c-.28,.02-.66,.02-1.14,.02-.03,0-.04-.04-.04-.13s.01-.13,.04-.13c.53,0,.92-.04,1.17-.11s.42-.22,.52-.43,.14-.54,.14-.98v-10.19c0-.44-.05-.76-.14-.97-.1-.21-.27-.35-.52-.43-.25-.08-.64-.12-1.17-.12-.03,0-.04-.04-.04-.13s.01-.13,.04-.13l1.14,.02c.65,.03,1.16,.04,1.54,.04,.43,0,.96-.01,1.61-.04l1.08-.02s.04,.04,.04,.13-.01,.13-.04,.13c-.53,0-.91,.04-1.15,.13-.24,.09-.41,.24-.5,.45-.09,.21-.13,.54-.13,.98v10.14c0,.46,.04,.79,.12,.99Z" fill="#aeffe0"/>
        <path d="M228.33,58.96c-1.21-.64-2.13-1.5-2.77-2.6-.64-1.09-.96-2.3-.96-3.62,0-1.41,.36-2.65,1.09-3.72s1.72-1.9,2.99-2.49c1.27-.59,2.69-.88,4.28-.88,.75,0,1.47,.07,2.16,.21,.69,.14,1.26,.33,1.72,.56,.12,.06,.19,.11,.21,.15s.04,.16,.06,.35l.29,2.73s-.04,.07-.12,.09c-.08,.02-.13,0-.14-.07-.31-1.03-.85-1.89-1.64-2.58-.78-.7-1.81-1.04-3.07-1.04-1.1,0-2.09,.26-2.97,.77-.88,.51-1.57,1.25-2.08,2.21-.51,.96-.76,2.08-.76,3.36s.26,2.48,.77,3.58c.51,1.09,1.27,1.97,2.25,2.63,.99,.66,2.17,.99,3.53,.99,1,0,1.69-.19,2.09-.58,.4-.39,.59-1.09,.59-2.1,0-.76-.05-1.29-.14-1.59-.1-.3-.3-.5-.62-.61-.32-.1-.87-.15-1.66-.15-.09,0-.13-.06-.13-.18,0-.04,.01-.08,.03-.12,.02-.04,.05-.05,.08-.05,1.17,.07,2.13,.11,2.86,.11s1.46-.02,2.22-.07c.03,0,.06,.02,.08,.05,.02,.04,.03,.07,.03,.1,0,.1-.04,.15-.11,.15-.34-.01-.57,.03-.7,.14-.13,.11-.22,.33-.25,.67-.04,.34-.05,.92-.05,1.76,0,.66,.03,1.13,.08,1.41,.05,.28,.08,.46,.08,.53,0,.09-.01,.15-.04,.18-.03,.03-.1,.06-.2,.09-1.85,.4-3.45,.59-4.8,.59-1.63,0-3.05-.32-4.26-.96Z" fill="#aeffe0"/>
        <path d="M254.16,60.01c-.07,.01-.11,0-.14-.02l-10.36-12.28c-.48-.57-.92-.97-1.3-1.2-.38-.23-.76-.34-1.14-.34-.03,0-.04-.04-.04-.13s.01-.13,.04-.13l.86,.02c.18,.01,.43,.02,.75,.02l1.12-.02c.15-.01,.31-.02,.51-.02,.12,0,.21,.03,.26,.09,.06,.06,.15,.18,.26,.35l.53,.7,8.58,10.34,.18,2.55s-.03,.05-.1,.07Zm-11.03-13.6l.57,.04v10.69c0,.76,.14,1.33,.43,1.69,.29,.37,.72,.55,1.31,.55,.03,0,.04,.04,.04,.13s-.01,.13-.04,.13c-.38,0-.67,0-.88-.02l-1.12-.02-1.19,.02c-.22,.02-.54,.02-.97,.02-.03,0-.04-.04-.04-.13s.01-.13,.04-.13c.63,0,1.1-.18,1.4-.55,.3-.37,.45-.93,.45-1.69v-10.74Zm11.13,13.53l-.55-.68v-10.82c0-.76-.14-1.33-.42-1.71-.28-.37-.71-.56-1.3-.56-.03,0-.04-.04-.04-.13s.01-.13,.04-.13l.88,.02c.44,.03,.81,.04,1.12,.04,.26,0,.65-.01,1.14-.04l.92-.02s.04,.04,.04,.13-.01,.13-.04,.13c-1.2,0-1.8,.76-1.8,2.27v11.51Z" fill="#aeffe0"/>
      </g>
      <g filter="url(#drop-shadow-2)">
        <path d="M58.79,12.22h-23.81v-2.02h10.67c-.18-.46-.41-.97-.71-1.5h-7.39V.9h18.76v7.79h-8.73c.2,.36,.41,.86,.65,1.5h10.56v2.02Zm-15.69,8.67c-1.5,1.26-3.65,2.54-6.46,3.84l-1.25-1.96c2.31-.98,4.33-2.12,6.06-3.42l1.65,1.53Zm13.18-2.2h-8.02v3.98c0,.67-.23,1.21-.7,1.64-.47,.43-2.01,.65-4.63,.67l-.84-2.23c.67,.05,1.25,.07,1.76,.07,.67,0,1.16-.02,1.47-.06s.47-.2,.47-.49v-3.58h-8.26v-5.1h18.73v5.1Zm-2.46-14.82v-1.03h-13.77v1.03h13.77Zm0,2.88v-1.12h-13.77v1.12h13.77Zm-.05,10.02v-1.31h-13.69v1.31h13.69Zm4.58,6l-1.38,1.85c-1.91-1.33-3.95-2.49-6.11-3.47l1.4-1.85c2.35,1.09,4.38,2.25,6.1,3.47Z" fill="#fff"/>
        <path d="M78.86,14.52h-3.41v1.26h3.06v1.82h-3.06v1.31h3.06v1.85h-3.06v1.52h3.28v2.02h-8.43v.64h-2.26v-8.41c-.37,.42-.76,.79-1.17,1.12l-.93-2.21c1.4-1.44,2.47-3.03,3.2-4.76l2.13,.59c-.14,.4-.33,.83-.57,1.29h2.21c-.15-.36-.34-.73-.57-1.11l2.01-.68c.34,.53,.64,1.13,.91,1.79h3.62v1.97Zm-7-9.53h-2.24v-1.05h-3.22v-1.91h3.22V.49h2.24V4.99Zm.49,5.41h-5.43V5.64h5.43v4.76Zm-1.94-1.65v-1.37h-1.54v1.37h1.54Zm2.84,7.03v-1.26h-2.94v1.26h2.94Zm0,3.13v-1.31h-2.94v1.31h2.94Zm0,3.36v-1.52h-2.94v1.52h2.94Zm5.54-11.87h-5.37V5.64h5.37v4.76Zm.49-6.47h-3.09v1.05h-2.29V.49h2.29v1.53h3.09v1.91Zm-2.42,4.81v-1.37h-1.5v1.37h1.5Zm13.49,11.09c-.02,1.33-.12,2.37-.29,3.13s-.44,1.26-.77,1.5c-.34,.24-.88,.36-1.62,.36-.98,0-1.65-.13-2.03-.4-.38-.27-.57-.7-.57-1.31v-6.17h-1.01c-.11,3.71-1.19,6.46-3.26,8.26l-1.81-1.39c1.87-1.75,2.86-4.04,2.96-6.86h-1.84V1.19h9.08v15.76h-1.96v5.24c0,.28,.15,.42,.44,.42,.32,0,.52-.25,.61-.76s.13-1.37,.13-2.6l1.96,.59Zm-3.41-14.26V3.43h-4.58v2.15h4.58Zm0,4.57v-2.38h-4.58v2.38h4.58Zm0,4.48v-2.35h-4.58v2.35h4.58Z" fill="#fff"/>
        <path d="M107.25,5.36h-9.55V3.09h3.66c-.27-.74-.59-1.44-.93-2.11l2.42-.62c.4,.71,.77,1.62,1.12,2.72h3.28v2.27Zm-.65,4.06h-8.16v-2.24h8.16v2.24Zm0,4.01h-8.16v-2.21h8.16v2.21Zm.03,10.86h-2.37v-1.12h-3.44v1.79h-2.32V15.27h8.12v9.01Zm-2.37-3.39v-3.32h-3.44v3.32h3.44Zm17.59,1.94l-1.15,2.27c-2.29-.75-4.37-1.84-6.25-3.28-1.7,1.33-3.68,2.45-5.93,3.36l-1.38-2.13c2.23-.71,4.08-1.67,5.57-2.88-1.47-1.7-2.62-3.62-3.44-5.77h-1.24v-2.3h11.89v2.3c-1.15,2.43-2.37,4.35-3.67,5.74,1.49,1.17,3.36,2.06,5.59,2.69Zm-.31-12.37h-3.54c-.45,0-.86-.2-1.23-.59s-.55-.85-.55-1.35V3.54h-3.74v1.68c0,1.23-.3,2.42-.9,3.57s-1.42,2.03-2.46,2.64l-1.69-1.71c1.78-.97,2.68-2.69,2.68-5.18V1.24h8.48V7.48c0,.18,.08,.35,.25,.49,.17,.15,.33,.22,.48,.22h2.21v2.27Zm-4.22,3.94h-5.43c.79,1.76,1.66,3.14,2.62,4.14,.99-.98,1.93-2.37,2.81-4.14Z" fill="#fff"/>
        <path d="M140.43,5.25h-11.34V3.03h4.5c-.29-.78-.63-1.54-1.01-2.27l2.54-.48c.42,.76,.82,1.67,1.2,2.75h4.11v2.21Zm-1.28,4.17h-9.08v-2.24h9.08v2.24Zm0,4.03h-9.08v-2.21h9.08v2.21Zm.05,11.12h-2.37v-1.41h-4.23v1.76h-2.4V15.3h9v9.27Zm-2.37-3.64v-3.34h-4.23v3.34h4.23Zm16.06-10.25h-4.97v14.25h-2.48V10.68h-4.86v-2.46h4.86V.52h2.48v7.7h4.97v2.46Z" fill="#fff"/>
      </g>
      <g filter="url(#drop-shadow-3)">
        <path d="M58.76,106.79h-23.67v-1.45h10.17v-22.33h1.45v8.78h10.85v1.48h-10.85v12.07h12.05v1.45Z" fill="#fff"/>
        <path d="M73.86,101.98c-2.78,1.35-5.16,2.36-7.14,3.02l-.44-1.31,3.08-1.18v-10.69h-2.86v-1.35h2.86v-7.08h1.34v7.08h2.13v1.35h-2.13v10.1c1.03-.42,2-.87,2.92-1.34l.24,1.39Zm16.34,.83c-.08,1.41-.19,2.36-.33,2.85s-.41,.87-.81,1.13c-.4,.27-1.15,.4-2.25,.4-1.41,0-2.35-.13-2.8-.38-.46-.26-.69-.77-.69-1.53v-4.57h-3.1c-.13,1.49-.87,2.92-2.22,4.31-1.35,1.39-3.2,2.23-5.55,2.53l-.6-1.27c4.11-.59,6.43-2.45,6.95-5.56h-3.41v-8.04h13.22v8.04h-3.93v4.44c0,.37,.18,.56,.55,.56l1.88,.05c.63,0,1.03-.06,1.21-.17,.17-.11,.31-.42,.42-.92,.11-.5,.16-1.29,.16-2.37l1.3,.49Zm0-12.11h-16.34v-1.33h4.45c-.23-.99-.54-1.92-.92-2.79h-2.84v-1.35h6.76c-.2-.58-.45-1.23-.77-1.96l1.28-.4c.43,.86,.74,1.64,.91,2.35h6.87v1.35h-2.89c-.29,.83-.68,1.76-1.17,2.79h4.66v1.33Zm-2.97,5.35v-2.02h-10.44v2.02h10.44Zm0,3.36v-2.02h-10.44v2.02h10.44Zm-2.1-12.82h-6.22c.36,.99,.66,1.92,.88,2.79h4.22c.47-.88,.84-1.81,1.12-2.79Z" fill="#fff"/>
        <path d="M107.41,87.28h-9.65v-1.46h4.26c-.24-.81-.6-1.63-1.09-2.46l1.25-.59c.54,.9,.99,1.92,1.33,3.05h3.9v1.46Zm-.76,8.18h-8.38v-1.41h8.38v1.41Zm.03-4.12h-8.38v-1.41h8.38v1.41Zm-.41,15.56h-1.41v-1.53h-4.94v2.06h-1.41v-9.32h7.76v8.79Zm-1.41-2.97v-4.33h-4.94v4.33h4.94Zm16.63,2.45l-.81,1.2c-2.76-.94-4.89-2.01-6.39-3.23-1.75,1.28-3.93,2.3-6.54,3.08l-.85-1.2c2.74-.83,4.81-1.78,6.19-2.86-1.88-1.78-3.25-4.16-4.11-7.14h-.93v-1.42h11.42v1.42c-1.17,3.27-2.53,5.66-4.09,7.16,1.54,1.14,3.58,2.13,6.11,2.98Zm-.11-13.22h-2.65c-1.31,0-1.96-.64-1.96-1.93v-6.03h-4.81c-.04,2.58-.38,4.5-1.01,5.75-.63,1.25-1.49,2.24-2.59,2.96l-1.06-1.01c1.08-.7,1.92-1.67,2.5-2.89,.58-1.23,.85-3.29,.81-6.2h7.52v7c0,.63,.3,.94,.91,.94h2.34v1.41Zm-3.46,3.08h-7.5c.94,2.75,2.22,4.83,3.83,6.22,1.62-1.54,2.85-3.61,3.66-6.22Z" fill="#fff"/>
        <path d="M140.43,87.81h-11.29v-1.46h5.15c-.4-.95-.94-1.95-1.62-2.99l1.36-.56c.6,.86,1.22,2.04,1.85,3.55h4.55v1.46Zm-1.39,4.01h-8.64v-1.41h8.64v1.41Zm0,3.94h-8.64v-1.37h8.64v1.37Zm0,11.48h-1.4v-1.37h-5.83v1.59h-1.41v-9.01h8.64v8.79Zm-1.4-2.86v-4.54h-5.83v4.54h5.83Zm15.27-11.87h-5.45v15h-1.48v-15h-5.43v-1.49h5.43v-7.97h1.48v7.97h5.45v1.49Z" fill="#fff"/>
      </g>
      <line x1="1" x2="1" y2="106.71" fill="none" stroke="#aeffe0" stroke-miterlimit="10" stroke-width="2"/>
    </g>
  </g>
</svg>