<?xml version="1.0" encoding="UTF-8"?>
<svg id="_圖層_2" data-name="圖層 2" xmlns="http://www.w3.org/2000/svg" xmlns:xlink="http://www.w3.org/1999/xlink" viewBox="0 0 234.19 76.65">
  <defs>
    <filter id="drop-shadow-1" filterUnits="userSpaceOnUse">
      <feOffset dx="0" dy="0"/>
      <feGaussianBlur result="blur" stdDeviation="3"/>
      <feFlood flood-color="#244441" flood-opacity=".5"/>
      <feComposite in2="blur" operator="in"/>
      <feComposite in="SourceGraphic"/>
    </filter>
  </defs>
  <g id="content">
    <g filter="url(#drop-shadow-1)">
      <path d="M11.58,31.58c7.92-6.1,12.28-9.67,13.09-10.71,.76-.99,1.07-1.85,.91-2.58-.3-.94-.2-1.54,.3-1.8,.46-.31,.89-.44,1.29-.39,.3,0,.63,.37,.99,1.09,.3,.63,.38,1.38,.23,2.27-.05,.37-.25,.86-.61,1.49,1.67-.47,3.27-.7,4.8-.7,1.27,0,2.18,.26,2.74,.78,.51,.37,.53,1.12,.08,2.27-.76,1.62-2.94,4.9-6.55,9.85-3.65,4.85-7.61,9.15-11.88,12.9-4.16,3.75-8.25,6.67-12.26,8.75-1.37,.68-2.49,.81-3.35,.39-.76-.36-1.22-.94-1.37-1.72-.05-.63,.2-.94,.76-.94,.51,0,1.12-.1,1.83-.31,4.57-2.5,8.68-5.44,12.33-8.83,.91-.94,1.85-1.9,2.82-2.89-2.13-.16-3.5-.29-4.11-.39-.76-.16-1.32-.39-1.67-.7-1.83-1.61-2.72-2.71-2.66-3.28,0-.47,.76-.99,2.28-1.56,.61-.21,.96-.08,1.07,.39,0,.52,.3,1.04,.91,1.56,.2,.16,.63,.36,1.29,.63,.51,.16,2.21,.5,5.1,1.02,1.88-2.03,3.81-4.32,5.79-6.88,3.5-4.69,4.92-7.3,4.26-7.82-.3-.16-.89-.29-1.75-.39-.3,0-1.75,.83-4.34,2.5h-.08c-.36,.31-.76,.65-1.22,1.02-.61,.31-1.29,.81-2.06,1.49,.66,.31,1.24,.65,1.75,1.02,.76,.63,1.22,1.2,1.37,1.72,.15,.52,.15,.94,0,1.25-.3,.94-.71,1.46-1.22,1.56-.46,.05-.79-.42-.99-1.41-.15-.47-.48-.86-.99-1.17-.51-.21-1.4-.39-2.66-.55-.05,0-.13-.03-.23-.08-.91,.78-1.9,1.64-2.97,2.58-.46,.31-.89,.47-1.29,.47-.3,0-.69,.03-1.14,.08-.3,.05-.61,0-.91-.16-.15-.16-.25-.42-.3-.78,0-.21,.2-.55,.61-1.02ZM26.35,3.75c1.12,.68,2.11,1.9,2.97,3.67,.05,.21,.18,.5,.38,.86,.2-.05,.48,0,.84,.16,.35,.21,.51,.7,.46,1.49-.05,.31-.23,.6-.53,.86,.15,.78,.33,1.72,.53,2.81,.15,1.09,.05,2.06-.3,2.89-.36,.78-.81,1.04-1.37,.78-.51-.31-.84-.99-.99-2.03-.15-1.09-.38-2.08-.69-2.97-3.1,1.41-5.23,2.32-6.4,2.74-1.37,.47-2.16,.7-2.36,.7-.15,0-.36,.1-.61,.31-.46,.47-.99,.57-1.6,.31-.61-.21-1.22-.89-1.83-2.03-.51-1.09-.56-1.82-.15-2.19,.46-.31,.86-.31,1.22,0,.2,.16,1.04,.13,2.51-.08,1.37-.21,3.4-.75,6.09-1.64,.76-.21,1.5-.47,2.21-.78-.66-1.41-1.55-2.45-2.66-3.13-.61-.36-.89-.94-.84-1.72,0-.78,.38-1.25,1.14-1.41,.66-.16,1.32-.03,1.98,.39Zm-5.18,48.7c3.55-1.09,7.87-3.31,12.94-6.64,5.02-3.18,7.41-4.98,7.16-5.39-.15-.31-2.31,.18-6.47,1.49-4.62,1.56-7.84,2.27-9.67,2.11-.96-.05-1.29-.78-.99-2.19,.3-1.3,.94-1.88,1.9-1.72,1.52,.47,4.24,.08,8.15-1.17,4.16-1.56,6.78-2.37,7.84-2.42,.76,0,1.37,.13,1.83,.39,.35,.31,1.29,.6,2.82,.86,1.37,.31,.99,1.33-1.14,3.05-1.07,.94-4.52,3.34-10.35,7.19-2.59,1.62-4.9,2.94-6.93,3.99,1.37-.31,3.05-.68,5.02-1.09q.05,0,0,0c.15,0,.41-.05,.76-.16q-.15,0,0,0c3.2-.78,6.39-1.38,9.59-1.8,3.2-.36,5.41-.49,6.62-.39,.96,.05,1.45,.39,1.45,1.02,0,.52-.1,.99-.3,1.41-.15,.31-.81,.55-1.98,.7-1.52,.05-2.61,.39-3.27,1.02-.61,.63-1.12,.68-1.52,.16-.3-.52-1.83-.63-4.57-.31-.61,0-1.22,.05-1.83,.16,.15,.31,.3,.78,.46,1.41,.15,1.15,.23,3.31,.23,6.49s.15,7.19,.46,12.19c.15,1.3,.03,2.34-.38,3.13-.36,.63-.74,.86-1.14,.7-.3-.16-.69-.16-1.14,0-.3,.16-.76-.26-1.37-1.25-.15-.31-.74-.63-1.75-.94-.91-.21-2.36-1.15-4.34-2.81-1.22-.99-2.33-2.11-3.35-3.36-1.27,.99-2.82,2.11-4.64,3.36-.91,.94-1.7,1.35-2.36,1.25-.61,0-.99-.73-1.14-2.19-.15-1.09-.05-2.68,.3-4.77,.35-2.03,.99-3.88,1.9-5.55,.3-.52,.66-.89,1.07-1.09,.3-.16,.66,0,1.07,.47,.3,.47,.33,1.07,.08,1.8-.46,1.15-.81,2.4-1.07,3.75-.15,1.25-.18,1.9-.08,1.95,.91-.16,2.03-.52,3.35-1.09-.36-.47-.38-.94-.08-1.41,.3-.36,.76-.31,1.37,.16l.23,.23c1.22-.78,2.61-1.9,4.19-3.36,.76-.47,1.01-.13,.76,1.02-.51,1.15-1.6,2.53-3.27,4.14,1.52,1.41,3.02,2.5,4.49,3.28,1.98,.99,3.17,1.43,3.58,1.33,.05,0,.08-1.07,.08-3.2v-6.18c0-1.93-.05-4.35-.15-7.27,0-.47-.53-.89-1.6-1.25-.91,.21-1.83,.5-2.74,.86-3.25,.83-5.84,1.38-7.77,1.64-1.83,.21-3.1,.18-3.81-.08-.76-.31-1.17-.99-1.22-2.03,0-.94,.15-1.54,.46-1.8,.2-.16,.76-.03,1.67,.39h.08s.23-.05,.53-.16Zm18.8-30.95c4.01-1.3,6.85-2.11,8.53-2.42,1.57-.21,2.61-.29,3.12-.23,1.57,.31,2.28,1.64,2.13,3.99-.15,.68-1.14,2.06-2.97,4.14-.96,.94-2.54,2.16-4.72,3.67,.3,.05,.58,.21,.84,.47,1.27,.94,3.12,2.4,5.56,4.38,2.33,1.88,4.54,3.39,6.62,4.53,1.98,1.09,4.29,1.77,6.93,2.03,2.49,.16,4.24,.52,5.25,1.09,.81,.63,1.37,1.38,1.67,2.27,.15,.83-.05,1.43-.61,1.8-.61,.31-1.07,.26-1.37-.16-.3-.47-.64-.89-.99-1.25-.61-.36-2.33-.65-5.18-.86-2.74-.05-5.53-.99-8.37-2.81-2.79-1.72-4.92-3.26-6.4-4.61-1.37-1.25-3.12-2.61-5.25-4.06-.61-.36-1.14-.73-1.6-1.09-1.52,.94-3.25,1.93-5.18,2.97-1.83,1.09-2.92,1.36-3.27,.78-.3-.52,.3-1.3,1.83-2.34,1.37-.99,2.71-1.93,4.03-2.81-.76-.31-1.55-.63-2.36-.94-.91-.05-1.6-.47-2.06-1.25-.3-.63-.15-1.15,.46-1.56,.61-.31,1.5-.29,2.66,.08,1.42,.63,2.74,1.23,3.96,1.8,2.74-1.93,4.47-3.31,5.18-4.14,1.07-1.41,1.55-2.21,1.45-2.42-.15-.21-.84-.29-2.06-.23-1.12,.16-3.5,.83-7.16,2.03-.96,.31-1.6,0-1.9-.94s.1-1.56,1.22-1.88Zm3.96-8.91c-1.57,2.4-3.02,4.27-4.34,5.63-.76,.94-1.5,1.38-2.21,1.33-.61-.05-.96-.29-1.07-.7-.05-.31,.28-.91,.99-1.8,.91-1.09,1.98-2.55,3.2-4.38-.46,0-.76-.03-.91-.08-1.42-.63-2.03-1.38-1.83-2.27,.2-.78,.46-1.41,.76-1.88,.2-.47,.66-.47,1.37,0,.3,.16,.73,.34,1.29,.55h1.52c.91-1.56,1.47-2.71,1.68-3.44,.3-1.09,.2-1.8-.3-2.11-1.73-1.09-2.44-2.01-2.13-2.74,.3-.63,1.17-.83,2.59-.63,1.27,.21,2.36,1.07,3.27,2.58l.15,.39c.15,.16,.33,.39,.53,.7,1.12,1.09,2.41,1.8,3.88,2.11,1.37,.31,2.31,.7,2.82,1.17,.66,.47,1.01,1.17,1.07,2.11,0,.83-.48,1.46-1.45,1.88-.46,.05-1.65,.26-3.58,.63-1.88,.31-4.14,.63-6.78,.94h-.53Zm4.03-7.11c-.2,.68-.76,1.77-1.67,3.28h.69c3.2-.31,4.82-.57,4.87-.78l-1.52-.86c-.91-.36-1.67-1.04-2.28-2.03,0,.16-.03,.29-.08,.39Zm-.76,51.04c.05-.63,.61-.73,1.67-.31,2.28,.78,4.01,1.88,5.18,3.28,1.12,1.3,2.03,3.73,2.74,7.27,.2,2.03-.1,3.2-.91,3.52-.91,.31-1.57,.18-1.98-.39-.15-.31-1.09-.91-2.82-1.8-.76-.31-1.24-.89-1.45-1.72-.15-.78,.15-1.02,.91-.7,1.07,.47,1.73,.65,1.98,.55,.3-.21,.13-1.35-.53-3.44-.76-1.93-2.06-3.52-3.88-4.77-.61-.36-.91-.86-.91-1.49Z" fill="#fff"/>
      <path d="M84.77,38.46c8.12-8.18,13.25-14.1,15.38-17.74,2.03-3.49,3.12-5.81,3.27-6.96,.05-1.09-.1-1.98-.46-2.66-.36-.63-1.02-1.12-1.98-1.49-.91-.31-1.45-.73-1.6-1.25-.05-.36,0-.83,.15-1.41,.2-.47,.53-.78,.99-.94,.46-.16,.99-.05,1.6,.31,.61,.31,1.32,.76,2.13,1.33,.76,.52,1.42,1.28,1.98,2.27,.51,.94,.58,2.42,.23,4.46-.36,1.93-1.95,5.03-4.8,9.3-.81,1.15-1.78,2.42-2.89,3.83,.15,.05,.3,.21,.46,.47,.3,.47,.41,1.09,.3,1.88-.96,7.4-1.57,14.12-1.83,20.17-.15,5.94-.1,9.02,.15,9.22,.51,.16,.84,.1,.99-.16,.35-1.25,.56-2.06,.61-2.42,0-.47,.15-.7,.46-.7s.51,.16,.61,.47c.2,.94-.36,4.09-1.67,9.46-.15,1.09-.81,1.41-1.98,.94-1.12-.47-1.67-1.07-1.67-1.8,0-.63-.08-1.28-.23-1.95-.46-1.25-.51-5.84-.15-13.76,.35-7.82,.86-13.86,1.52-18.13v-.7c-2.28,2.66-5.05,5.58-8.3,8.75-.76,.68-1.47,1.09-2.13,1.25-.61,.05-1.12-.1-1.52-.47-.36-.47-.23-.99,.38-1.56Zm37.76,21.73c.3-4.69,.61-10.24,.91-16.65-1.07,.63-1.95,1.25-2.66,1.88-1.52,1.25-2.89,2.19-4.11,2.81-.2,0-.41,.05-.61,.16-1.22,1.72-2.03,3-2.44,3.83-.51,1.09-.99,1.49-1.45,1.17-.36-.36-.96-.63-1.83-.78-.81-.05-.84-.44-.08-1.17,.35-.31,.56-.68,.61-1.09,0-.31,.91-1.69,2.74-4.14,.05-.47,.35-.81,.91-1.02,2.33-3.13,4.29-5.58,5.86-7.35,1.07-1.25,2.13-2.4,3.2-3.44,0-2.81-.15-4.74-.46-5.78-3.35,1.3-5.76,1.98-7.23,2.03-.96,0-1.37-.7-1.22-2.11,.2-1.41,.81-2.03,1.83-1.88,1.52,.31,4.19-.34,7.99-1.95,4.01-1.88,6.55-2.92,7.61-3.13,.66-.16,1.24-.16,1.75,0,.46,.21,1.4,.31,2.82,.31s1.19,1.02-.53,3.05c-.51,.78-2.23,2.81-5.18,6.1-1.57,1.72-3,3.1-4.26,4.14-.05,.16-.18,.34-.38,.55v2.89c.15,0,.33-.05,.53-.16,3.2-1.25,5.25-1.77,6.17-1.56,.96,.47,2.08,1.9,3.35,4.3,0-1.46,.02-3.07,.08-4.85,.15-4.85,.51-9.2,1.07-13.05,.46-3.8,.71-6.41,.76-7.82v-3.2c0-.78-.15-1.3-.46-1.56-.2-.16-.76-.21-1.67-.16-.81,.05-3.17,.91-7.08,2.58-3.86,1.56-6.62,2.5-8.3,2.81-1.57,.21-3.17,.68-4.8,1.41-.76,.31-1.42,.55-1.98,.7-.15,1.62-.3,4.09-.46,7.43-.3,5.94-.91,11.39-1.83,16.34-.81,4.85-1.78,8.55-2.89,11.1-1.07,2.5-1.98,4.22-2.74,5.16-.76,.83-1.4,1.28-1.9,1.33-.91,0-1.65-.42-2.21-1.25-.51-.78-.64-1.33-.38-1.64,.3-.31,.58-.31,.84,0,.3,.31,.58,.47,.84,.47,.05,0,.25-.16,.61-.47,.2-.31,.61-.89,1.22-1.72,.51-.78,1.14-2.35,1.9-4.69,.66-2.24,1.37-5.73,2.13-10.47,.51-4.22,1.07-11.26,1.67-21.11-.61-.05-1.02-.26-1.22-.63-.36-.63-.43-1.28-.23-1.95,.2-.63,.61-.81,1.22-.55,.05,0,.2,.03,.46,.08v-.16c0-.83,.43-1.43,1.29-1.8,.81-.31,1.42-.26,1.83,.16,.15,.16,.23,.42,.23,.78,2.74-.99,4.95-1.69,6.62-2.11,1.88-.47,4.82-1.46,8.83-2.97,3.96-1.56,6.88-2.35,8.75-2.35,3.81,.31,5.25,2.01,4.34,5.08-.36,.94-.61,2.34-.76,4.22-.15,1.72-.51,4.01-1.07,6.88-.51,2.71-.96,6.31-1.37,10.79-.3,4.38-.25,7.92,.15,10.63,.46,2.66,1.52,5.32,3.2,7.97,1.67,2.66,3.73,4.82,6.17,6.49,.61,.47,1.32,.89,2.13,1.25,.76,.31,1.62,.57,2.59,.78,.96,.16,1.5,.18,1.6,.08,.2-.16,.38-1.12,.53-2.89,.05-1.72-.63-4.19-2.06-7.43-.3-.63-.2-1.09,.3-1.41,.46-.16,.89,.08,1.29,.7,1.72,3.13,2.79,5.5,3.2,7.11,.3,1.56,.71,2.66,1.22,3.28,.46,.37,.51,.81,.15,1.33-.3,.37-.43,.73-.38,1.09,0,.31-.38,.63-1.14,.94-.2,.16-1.22,.23-3.04,.23-1.73,0-3.12-.13-4.19-.39-.96-.21-2.06-.63-3.27-1.25-2.94-1.88-5.38-4.22-7.31-7.04-1.83-2.71-3.07-5.37-3.73-7.97-.2-.83-.38-1.75-.53-2.74-.15,.52-.33,1.07-.53,1.64-.81,1.88-1.85,3.39-3.12,4.53-1.37,1.41-2.94,1.95-4.72,1.64-.46-.16-1.22-.57-2.28-1.25-.05,2.97-.2,5.21-.46,6.72-.3,2.81-.23,6.23,.23,10.24,.15,1.56,0,2.37-.46,2.42-.46,0-.84,.23-1.14,.7-.2,.47-.53,.68-.99,.63-.36,0-.64-.5-.84-1.49-.3-1.56-.23-5.03,.23-10.4Zm1.07-21.57c-.61,.63-1.22,1.33-1.83,2.11,.51-.31,1.12-.6,1.83-.86v-1.25Zm2.66,3.44c-.05,2.55-.13,4.92-.23,7.11,.46,0,.96,.13,1.52,.39,.76,.16,1.29,.23,1.6,.23,.15,0,.73-.39,1.75-1.17,.91-.78,1.67-1.69,2.28-2.74,.51-.99,.71-1.93,.61-2.81-.81-1.61-1.47-2.53-1.98-2.74-.46-.16-2.06,.34-4.8,1.49-.3,.05-.56,.13-.76,.23Zm5.94-16.49c-.2-.31-2.23,.26-6.09,1.72,.15,.63,.23,2.32,.23,5.08,.76-.78,1.62-1.64,2.59-2.58,2.28-2.66,3.37-4.06,3.27-4.22Z" fill="#fff"/>
      <path d="M188.11,54.56c2.89-4.06,5.46-8.49,7.69-13.29-3.1,.99-4.92,1.59-5.48,1.8-.76,.16-1.83,.05-3.2-.31-.91-.21-1.45-.81-1.6-1.8-.05-.94,.13-1.59,.53-1.95,.46-.21,.91-.21,1.37,0,.66,.37,1.57,.5,2.74,.39,.91-.16,3.48-1.02,7.69-2.58,0-.16,.08-.31,.23-.47,1.52-4.06,2.82-7.45,3.88-10.16-1.98,.68-4.04,1.46-6.17,2.35-4.42,1.72-8.1,3.02-11.04,3.91-.81,.16-1.52,.03-2.13-.39-.46-.47-.64-1.04-.53-1.72,.05-.52,.53-.94,1.45-1.25,2.64-.68,6.93-2.06,12.87-4.14,2.33-.83,4.62-1.61,6.85-2.35,.3-1.15,.56-2.06,.76-2.74,.3-2.19,.05-3.86-.76-5-.05-.05-.1-.13-.15-.23-2.18,.78-4.67,1.72-7.46,2.81-.91,.47-1.7,.23-2.36-.7-.61-.94-.38-1.54,.69-1.8,3.96-1.46,7.49-2.79,10.58-3.99,3.04-1.09,5.4-1.88,7.08-2.34,1.68-.36,3.3-.57,4.87-.63,1.52,0,2.92,.34,4.19,1.02,1.27,.16,2.16,.96,2.66,2.42,.81,1.3,.86,3.73,.15,7.27,3.35-.31,5.99-.18,7.92,.39,1.42,.31,2.31,.83,2.66,1.56,.2,.63,.1,1.33-.3,2.11-.46,.78-1.22,.91-2.28,.39-.96-.47-2.16-.81-3.58-1.02-1.37-.16-3.12-.18-5.25-.08-.96,3.28-2.36,6.54-4.19,9.77,.15,0,.3,.03,.46,.08,.91,.16,1.45,.44,1.6,.86,.15,.37,.02,.76-.38,1.17-.36,.31-.58,.81-.69,1.49-.05,.63-.25,1.02-.61,1.17-.3,0-.69-.13-1.14-.39-.3-.31-.91-.49-1.83-.55-.81,0-2.34,.21-4.57,.63-2.03,.37-5.61,1.49-10.73,3.36-1.07,2.19-2.21,4.33-3.43,6.41,.46,.31,.74,.91,.84,1.8,0,1.09,.2,2.5,.61,4.22,3.65-1.56,6.98-2.94,9.97-4.14,3.04-1.15,5.38-1.98,7-2.5,1.57-.47,3.17-.73,4.8-.78,1.52,0,2.94,.31,4.26,.94,1.42,.63,2.23,1.85,2.44,3.67,.3,1.72-.79,4.22-3.27,7.5-1.67,2.19-3.65,4.27-5.94,6.25h.53c3.25-.16,5.3-.1,6.17,.16,.76,.31,1.37,.13,1.83-.55,.46-.83,1.14-.7,2.06,.39,.81,1.09,.81,2.03,0,2.81-.81,.78-1.7,1.09-2.66,.94-2.44-.47-5.15-.57-8.15-.31-2.89,.21-6.29,.78-10.2,1.72-1.42,.31-2.13-.08-2.13-1.17s.48-1.75,1.45-1.95c2.13-.63,4.19-1.09,6.17-1.41,3.35-2.35,5.91-4.79,7.69-7.35,1.83-2.55,2.64-4.4,2.44-5.55-.05-1.15-.28-1.93-.69-2.35-.46-.47-1.47-.7-3.04-.7s-3.81,.63-6.85,1.88c-3.05,1.09-7.21,2.79-12.49,5.08-.3,.05-.56,.11-.76,.16,.15,.94,.43,2.03,.84,3.28,1.22,4.43,2.13,7.32,2.74,8.68,.51,1.15,.51,1.77,0,1.88-.51,0-1.09,.36-1.75,1.09-.51,.63-.81,.39-.91-.7,0-.47-.15-.83-.46-1.09-.15-.21-.76-2.19-1.83-5.94-.91-3.65-1.6-6.62-2.06-8.91-.2-1.25-.41-2.42-.61-3.52-1.42,2.34-3,4.61-4.72,6.8-4.16,5.32-7.49,8.44-9.97,9.38-.91,.31-1.5,.18-1.75-.39-.2-.63,.02-1.07,.69-1.33,1.72-.68,4.62-3.83,8.68-9.46Zm31.59-32.21c-3.35,.31-7.06,.99-11.11,2.03-.81,.16-1.67,.37-2.59,.63-.91,2.55-2.16,5.97-3.73,10.24,4.16-1.41,7.43-2.4,9.82-2.97,1.22-.31,2.36-.49,3.43-.55,1.98-3.44,3.37-6.57,4.19-9.38Zm-7.99-1.88c3.1-.68,6.01-1.2,8.75-1.56,.3-2.19,.23-3.7-.23-4.53-.3-1.41-.74-2.32-1.29-2.74-.46-.47-1.47-.73-3.04-.78-1.57,0-3.96,.57-7.16,1.72-.61,.16-1.29,.37-2.06,.63,.96,1.41,1.27,3.44,.91,6.1-.05,.47-.23,1.2-.53,2.19,1.57-.36,3.12-.7,4.64-1.02Z" fill="#fff"/>
    </g>
  </g>
</svg>