<?xml version="1.0" encoding="UTF-8"?>
<svg id="_圖層_2" data-name="圖層 2" xmlns="http://www.w3.org/2000/svg" xmlns:xlink="http://www.w3.org/1999/xlink" viewBox="0 0 215.17 76.77">
  <defs>
    <filter id="drop-shadow-1" filterUnits="userSpaceOnUse">
      <feOffset dx="0" dy="0"/>
      <feGaussianBlur result="blur" stdDeviation="3"/>
      <feFlood flood-color="#244441" flood-opacity=".5"/>
      <feComposite in2="blur" operator="in"/>
      <feComposite in="SourceGraphic"/>
    </filter>
  </defs>
  <g id="content">
    <g filter="url(#drop-shadow-1)">
      <path d="M.24,27.71c.2-.21,.79-.18,1.75,.08,.61,.16,1.98-.08,4.11-.7,1.98-.63,4.44-1.56,7.38-2.81,2.79-1.15,5.61-2.16,8.45-3.05,2.79-.78,4.75-1.2,5.86-1.25,.96,0,1.5,.23,1.6,.7,0,.52-.03,1.02-.08,1.49-.15,.37-.76,.7-1.83,1.02-1.37,.31-2.31,.78-2.82,1.41-.46,.63-.89,.73-1.29,.31-.36-.36-1.73-.23-4.11,.39-2.28,.68-4.82,1.67-7.61,2.97-2.74,1.25-4.95,2.11-6.62,2.58s-2.82,.63-3.43,.47c-.81-.16-1.32-.75-1.52-1.8-.15-.94-.1-1.54,.15-1.8Zm10.05,9.07c-.3-1.15,.08-1.8,1.14-1.95,.61-.05,2.44-.86,5.48-2.42,3.05-1.56,5.58-2.47,7.61-2.74,.81-.16,1.22,.05,1.22,.63,0,.52,.13,1.02,.38,1.49,.2,.37,.03,.78-.53,1.25-.61,.47-1.45,1.25-2.51,2.34-.96,1.09-3.04,2.97-6.24,5.63-3.1,2.55-4.64,3.99-4.64,4.3,.05,.21,1.45-.6,4.19-2.42,2.64-1.77,4.95-3.05,6.93-3.83,2.44-.78,3.3,.21,2.59,2.97-.61,2.5-3.12,4.74-7.54,6.72-.91,.37-1.5,.37-1.75,0-.2-.36-.08-.73,.38-1.09,2.89-1.88,4.16-3.1,3.81-3.67-.36-.52-2.31,.26-5.86,2.34-3.4,2.03-5.71,3.26-6.93,3.67-1.27,.31-2.08,.26-2.44-.16-.3-.47-.2-.99,.3-1.56,1.12-1.25,2.06-2.19,2.82-2.81,.66-.52,2.82-2.47,6.47-5.86,3.55-3.28,5.3-5.03,5.25-5.24-.15-.21-1.19,.16-3.12,1.09-1.88,.99-3.02,1.59-3.43,1.8-.3,.05-.58,.16-.84,.31-1.42,.63-2.33,.37-2.74-.78Zm.91,26.5c-1.83-1.72-3.55-4.14-5.18-7.27-.36-1.09-.43-1.8-.23-2.11,.3-.31,.79-.36,1.45-.16,.66,.21,1.17,.68,1.52,1.41,.15,.37,.38,.76,.69,1.17,3.81-2.19,8.02-4.12,12.64-5.78,1.52-.52,3.07-.34,4.64,.55,1.42,.94,1.72,2.61,.91,5-.46,1.09-1.17,2.14-2.13,3.13-.91,.94-1.35,1.46-1.29,1.56,.05,.05,.86-.26,2.44-.94,1.52-.68,2.49-1.38,2.89-2.11,.51-1.15,.96-1.64,1.37-1.49,.3,.16,.3,.73,0,1.72-.46,1.41-1.55,2.74-3.27,3.99-1.67,1.09-4.21,2.37-7.61,3.83-.91,.31-1.68,.03-2.28-.86-.05-.16-.13-.29-.23-.39-.46,.63-1.09,.99-1.9,1.09-.96,.16-2.44-.63-4.42-2.34Zm2.06-2.11c1.22,.94,1.98,1.25,2.28,.94,.66-.68,1.04-.75,1.14-.23,.05,.63,.33,1.07,.84,1.33l.08,.08c.15-.21,.53-.52,1.14-.94,.76-.47,1.75-1.35,2.97-2.66,1.12-1.25,2.06-2.55,2.82-3.91,.2-.78,.02-1.41-.53-1.88-.46-.31-2.46,.29-6.01,1.8-2.89,1.25-5.13,2.4-6.7,3.44,.66,.83,1.32,1.51,1.98,2.03ZM22.62,12.55c-1.42-1.09-3.96-2.11-7.61-3.05-.76-.16-.96-.78-.61-1.88,.3-.99,.79-1.41,1.45-1.25,3.86,1.09,6.65,2.32,8.37,3.67,1.67,1.25,2.71,2.48,3.12,3.67,.3,1.09,.3,2.01,0,2.74-.3,.94-.74,1.43-1.29,1.49-.46,0-.76-.49-.91-1.49-.15-1.41-.99-2.71-2.51-3.91Zm24.74,17.74c-3.65,3.28-8.27,6.85-13.86,10.71-.66,.36-1.12,.36-1.37,0-.15-.36-.05-.7,.3-1.02,4.72-3.6,9.16-7.71,13.32-12.35,.46-.63,.94-1.17,1.45-1.64-.05-.63-.13-1.02-.23-1.17-.61-.78-.84-1.54-.69-2.27,0-.47,.18-.86,.53-1.17-.81,.31-1.78,.7-2.89,1.17-4.92,1.88-7.92,2.92-8.98,3.13-1.07,.05-1.75-.29-2.06-1.02-.3-.78-.25-1.43,.15-1.95,3.65-4.27,5.61-7.63,5.86-10.08,.3-2.34-.36-4.22-1.98-5.63-.36-.31-.2-.81,.46-1.49,.61-.63,1.47-.6,2.59,.08,1.67,1.15,2.49,2.92,2.44,5.32-.05,2.34-.81,4.59-2.28,6.72-1.42,2.19-2.06,3.39-1.9,3.6,.15,.16,2.51-.7,7.08-2.58,4.42-1.88,8.32-2.94,11.72-3.2,2.28-.31,3.45,.05,3.5,1.09,0,.99-.28,1.62-.84,1.88-1.12,.37-3.71,2.84-7.77,7.43-.46,.47-.99,1.02-1.6,1.64,.15,2.66,.18,6.33,.08,11.02,1.37-.31,2.69-.52,3.96-.63,2.94-.31,4.92-.44,5.94-.39,.91,0,1.83-.08,2.74-.23,1.67-.21,2.79-.18,3.35,.08,.46,.31,.71,.63,.76,.94,0,.31-.25,.68-.76,1.09-.46,.47-.74,.94-.84,1.41,0,.47-.61,.81-1.83,1.02-.2,0-.41-.05-.61-.16-.15-.16-1.88-.21-5.18-.16-3.05,0-5.56,.21-7.54,.63-.36,11.93-.48,19.78-.38,23.53,.05,3.6-.05,6.36-.3,8.29-.36,1.77-.71,2.58-1.07,2.42-.3-.16-.66-.05-1.07,.31-.3,.36-.71-.05-1.22-1.25-.36-1.25-.51-2.37-.46-3.36,.15-.99,.1-1.77-.15-2.34-.2-.47-.25-.96-.15-1.49,.15-.47,.43-.73,.84-.78,.3,0,.61-6.93,.91-20.79v-3.6c-1.57,.47-3.4,1.15-5.48,2.03-3.2,1.25-5.48,2.03-6.85,2.34-1.27,.21-2.39,.18-3.35-.08-.96-.31-1.47-.83-1.52-1.56,0-.68,.18-1.17,.53-1.49,.3-.31,.89-.36,1.75-.16,.91,.16,1.78,.18,2.59,.08,.81-.16,3.5-1.17,8.07-3.05,1.52-.68,2.97-1.28,4.34-1.8,0-3.75-.03-6.77-.08-9.07Zm4.19-10.24c-.15-.16-1.35,.16-3.58,.94,.35,.05,.84,.36,1.45,.94,.05,.05,.18,.37,.38,.94,1.37-1.61,1.95-2.55,1.75-2.81Z" fill="#fff"/>
      <path d="M83.36,24.41c.15-2.71,.99-5.76,2.51-9.15,.61-.99,1.12-1.49,1.52-1.49,.46,0,.79,.37,.99,1.09,.2,.68,.15,1.38-.15,2.11-.15,.31-.3,.68-.46,1.09,1.22,.16,5.99-1.17,14.31-3.99,2.33-.83,4.67-1.56,7-2.19-.3-.16-.56-.39-.76-.7-.51-.78-.43-1.25,.23-1.41,1.22-.16,2.69-.65,4.42-1.49,.3-.16,.51-.47,.61-.94,0-.36-.15-.73-.46-1.09-1.22-.78-2.54-1.43-3.96-1.95-1.37-.47-2.61-.78-3.73-.94-.15-.05-.46,.03-.91,.23-.46,.21-.89-.36-1.29-1.72-.46-1.41,0-2.03,1.37-1.88,2.28,.16,4.49,.73,6.62,1.72,2.13,.94,3.83,1.95,5.1,3.05,1.07,1.41,1.14,2.79,.23,4.14-.91,.68-1.88,1.3-2.89,1.88,3.4-.78,6.57-1.22,9.52-1.33,4.42-.21,7.92,.29,10.51,1.49,2.49,1.15,4.11,2.55,4.87,4.22,.81,2.55,.38,4.35-1.29,5.39-2.13,.63-5.3,.68-9.52,.16-1.42,0-2.18-.26-2.28-.78,0-.47,.63-.81,1.9-1.02,4.72-.47,7.23-1.15,7.54-2.03,.15-.83-.66-1.77-2.44-2.81-1.73-.94-4.77-1.41-9.14-1.41-5.33,0-12.33,1.51-21.01,4.53-8.68,2.87-13.88,4.3-15.61,4.3h-.08c-.3,1.3-.46,2.42-.46,3.36,0,1.62,.25,2.5,.76,2.66,.91,.05,1.19,.31,.84,.78-.36,.47-.51,.96-.46,1.49,.05,.47-.3,.73-1.07,.78-.76,0-1.42-.29-1.98-.86-.76-.78-1.07-2.55-.91-5.32Zm17.97,25.87c5.02-1.72,9.85-2.68,14.46-2.89,3.96-.16,7.03-.08,9.21,.23,2.13,.31,3.73,1.02,4.8,2.11,1.27,1.88,1.9,3.86,1.9,5.94,0,1.15-.81,3.44-2.44,6.88-1.52,3.34-3.22,6.2-5.1,8.6-.76,.99-1.75,1.69-2.97,2.11-1.07,.31-1.65-.23-1.75-1.64-.61,.16-1.32,.26-2.13,.31-1.37,0-3.71,.31-7,.94-3.2,.63-5.79,1.04-7.77,1.25-1.88,.16-3.3,.08-4.26-.23-.15,0-.28-.08-.38-.23-.46,.31-.71,.05-.76-.78,0-.47-.15-.81-.46-1.02-.15-.16-.81-1.9-1.98-5.24-1.07-3.28-1.85-5.97-2.36-8.05-.15-.78-.33-1.49-.53-2.11-.46-.16-.79-.65-.99-1.49-.3-1.25-.13-1.88,.53-1.88,0-.63,.2-1.07,.61-1.33,.46-.16,.94-.1,1.45,.16,.15,.05,.33,.26,.53,.63,1.72-.47,4.19-1.22,7.38-2.27Zm-2.82-15.79c5.18-2.03,9.74-3.49,13.7-4.38,3.96-.94,6.9-1.35,8.83-1.25,1.98,0,3.25,.47,3.81,1.41,1.07,1.25,.94,2.66-.38,4.22-1.22,1.62-3.12,3.39-5.71,5.32-.15,0-.25,.05-.3,.16,.05,.05,.15,.18,.3,.39,.2,.47-.05,1.09-.76,1.88-.46,.47-1.17,.76-2.13,.86-.91,.05-2.46,.52-4.64,1.41-2.13,.78-3.88,1.33-5.25,1.64-1.27,.31-2.26,.42-2.97,.31-.15,.05-.36,.1-.61,.16-1.07,0-2.51-1.07-4.34-3.2-1.73-2.08-3.25-4.9-4.57-8.44-.2-1.15-.15-1.88,.15-2.19,.3-.21,.79-.18,1.45,.08,.61,.31,1.04,.83,1.29,1.56,1.42,3.6,2.77,6.02,4.03,7.27,1.22,1.15,2,1.62,2.36,1.41,.76-.63,1.17-.63,1.22,0v.23c.46,0,1.14-.13,2.06-.39,1.52-.36,3.45-1.02,5.79-1.95,.61-.31,1.32-.6,2.13-.86,1.27-.94,2.49-1.85,3.65-2.74,1.83-1.56,3.02-2.76,3.58-3.6,.3-.83,.25-1.49-.15-1.95-.15-.21-.84-.34-2.06-.39-1.12,0-3.48,.47-7.08,1.41-3.5,.94-7.61,2.45-12.33,4.53-.81,.31-1.37-.03-1.67-1.02-.2-.94,0-1.56,.61-1.88Zm.3,25.33c3.7-1.56,7.08-2.74,10.12-3.52-.05-1.77-.25-3.44-.61-5-2.28,.47-4.34,1.07-6.17,1.8-2.64,.99-5.15,1.88-7.54,2.66,.35,1.77,1.07,4.12,2.13,7.04,1.27,3.96,2.23,6.51,2.89,7.66l.08,.08c3.2-1.61,6.12-3.28,8.75-5,.2-2.5,.35-4.72,.46-6.64-2.59,.78-5.61,2.03-9.06,3.75-.81,.31-1.37,0-1.67-.94-.3-.94-.1-1.56,.61-1.88Zm-2.28-35.8c.3-1.3,.94-1.88,1.9-1.72,1.67,.47,4.69-.03,9.06-1.49,4.62-1.72,7.51-2.63,8.68-2.74,.76,0,1.37,.13,1.83,.39,.46,.21,1.4,.47,2.82,.78,1.37,.21,1.01,1.23-1.07,3.05-.66,.52-2.79,1.98-6.4,4.38-3.55,2.34-6.29,3.62-8.22,3.83-.96,.05-1.55-.16-1.75-.63-.05-.47,.23-.83,.84-1.09,1.98-.63,4.42-1.88,7.31-3.75,2.74-1.77,4.08-2.79,4.04-3.05-.15-.31-2.64,.29-7.46,1.8-5.02,1.77-8.55,2.61-10.58,2.5-.96-.05-1.29-.81-.99-2.27Zm27.1,26.81c-1.73-.31-4.44-.39-8.15-.23-1.27,0-2.49,.08-3.65,.23,.05,1.41,.13,2.97,.23,4.69,1.98-.31,3.58-.47,4.8-.47,1.52,0,2.56,.37,3.12,1.09,.96,1.41,.71,2.94-.76,4.61-1.88,2.03-4.49,4.12-7.84,6.25v.23c0,.78-.41,1.43-1.22,1.95-.66,.47-1.17,.57-1.52,.31-.15-.16-.28-.34-.38-.55-1.12,.52-2.16,1.07-3.12,1.64,1.98-.16,4.36-.57,7.16-1.25,3.5-.78,5.89-1.12,7.16-1.02,.96,.16,1.62,.47,1.98,.94,.15,0,.33-.08,.53-.23,.96-1.09,2.26-3.44,3.88-7.04,1.57-3.6,2.36-6.02,2.36-7.27,0-.78-.3-1.61-.91-2.5-.61-.63-1.83-1.09-3.65-1.41Zm-11.88,12.43c2.03-1.46,3.48-2.68,4.34-3.67,.3-.78,.28-1.38-.08-1.8-.05-.16-.56-.23-1.52-.23-.46,0-1.27,.13-2.44,.39-.05,1.56-.15,3.34-.3,5.32Z" fill="#fff"/>
      <path d="M162.22,48.11c2.49-5.16,6.32-14.36,11.5-27.59,.2-.78,.81-1.22,1.83-1.33,.91,0,1.45,.26,1.6,.78,.15,.47,.02,1.09-.38,1.88-.15,.16-.53,.94-1.14,2.35l.23,.08c.61,.37,1.32,.44,2.13,.23,2.13-.94,4.08-1.69,5.86-2.27,4.57-2.81,7.82-5.29,9.74-7.43,2.13-2.35,3.05-3.96,2.74-4.85-.15-.31-.79-.39-1.9-.23-.96,.16-2.87,.6-5.71,1.33-2.74,.63-5.28,1.46-7.61,2.5-2.28,.94-4.64,1.41-7.08,1.41-.66,0-1.07-.34-1.22-1.02,0-.63,.08-1.2,.23-1.72,.15-.47,.61-.68,1.37-.63,1.52,.16,2.71,.11,3.58-.16,.91-.21,2.03-.65,3.35-1.33,1.27-.63,3.63-1.38,7.08-2.27,3.35-.94,5.51-1.43,6.47-1.49,.91,0,1.57-.05,1.98-.16,.91-.21,1.65-.16,2.21,.16,.51,.31,1.04,1.15,1.6,2.5,.2,.94,.05,1.95-.46,3.05-.51,1.09-2.33,2.97-5.48,5.63-1.37,.99-2.79,2.06-4.26,3.2,.61-.16,1.14-.34,1.6-.55,.76-.47,1.93-.47,3.5,0,.66,.16,.86,.83,.61,2.03-.3,1.09-.91,1.67-1.83,1.72-1.83-.16-4.09,.08-6.78,.7-2.59,.63-5.79,1.69-9.59,3.2-.96,.31-1.75,.31-2.36,0-.46-.31-.74-.86-.84-1.64-.66,1.77-1.52,4.01-2.59,6.72-.91,2.08-1.8,4.17-2.66,6.25l.08,.08c.76,.47,1.65,.68,2.66,.63,1.22-.16,4.59-1.12,10.12-2.89,3.35-1.09,6.44-2.03,9.29-2.81,0-.47-.05-.81-.15-1.02-.36-1.46-.99-2.45-1.9-2.97-.91-.47-1.4-1.07-1.45-1.8,0-.68,.38-1.22,1.14-1.64,.76-.36,1.47-.26,2.13,.31,1.12,.68,2,2.08,2.66,4.22,.15,.63,.25,1.38,.3,2.27,.61-.16,1.27-.29,1.98-.39,3.81-.78,6.83-1.2,9.06-1.25,2.18,0,3.6,.13,4.26,.39,.61,.31,1.22,.44,1.83,.39,1.37,0,2.41,.65,3.12,1.95,.61,1.25,.66,2.19,.15,2.81-.51,.63-1.7,.44-3.58-.55-.96-.47-2.11-.83-3.43-1.09-1.22-.21-3-.23-5.33-.08-1.83,0-4.62,.5-8.37,1.49,0,.47-.1,1.02-.3,1.64-.81,2.97-2.46,5.92-4.95,8.83-2.44,2.87-4.26,4.53-5.48,5-.91,.21-1.62,.03-2.13-.55-.46-.63-.81-1.75-1.07-3.36-.15-1.56,.08-2.42,.69-2.58,.61-.16,1.07,.39,1.37,1.64,.3,1.25,.69,1.8,1.14,1.64,.46-.16,1.62-1.28,3.5-3.36,1.83-2.03,3.17-4.35,4.03-6.96,0-.31,.08-.68,.23-1.09h-.08c-5.33,1.3-9.52,2.53-12.56,3.67-3.05,1.09-5.13,1.67-6.24,1.72-1.73,0-3.05-.34-3.96-1.02-.05,0-.1-.03-.15-.08-1.27,3.02-2.64,5.94-4.11,8.75-2.74,5.21-5.2,9.12-7.38,11.73-2.13,2.5-3.83,4.14-5.1,4.92-1.12,.63-2.01,.89-2.66,.78-.91-.31-1.47-.94-1.67-1.88-.2-.94-.15-1.51,.15-1.72,.3-.21,.58-.13,.84,.23,.15,.31,.35,.55,.61,.7,.15,0,.43-.1,.84-.31,.46-.16,1.17-.65,2.13-1.49,.91-.78,2.26-2.34,4.03-4.69,1.67-2.34,3.81-6.12,6.39-11.33Zm22.08,6.41c3.65-2.4,7.05-4.14,10.2-5.24,3.2-1.09,5.84-1.43,7.92-1.02,2.18,.47,3.6,1.67,4.26,3.6,.46,2.19,.02,4.46-1.29,6.8-1.07,1.93-3.27,4.35-6.62,7.27,1.27,0,2.28-.16,3.05-.47,.81-.31,2.03-.13,3.65,.55,.66,.31,.79,1.02,.38,2.11-.46,.99-1.14,1.46-2.06,1.41-1.88-.37-4.31-.42-7.31-.16-2.89,.21-6.47,.89-10.73,2.03-1.07,.16-1.85,.03-2.36-.39-.2-.16-.33-.37-.38-.63-.15,.16-.28,.39-.38,.7-.46,.68-.81,.55-1.07-.39-.15-.47-.36-.81-.61-1.02-.3-.16-1.27-1.82-2.89-5-1.67-3.13-2.92-5.71-3.73-7.74-.76-1.88-1.37-3.57-1.83-5.08-.15-.78-.05-1.33,.3-1.64,.46-.31,.94-.36,1.45-.16,.46,.21,.84,.76,1.14,1.64,.46,1.56,1.37,3.75,2.74,6.57,.46,0,2.51-1.25,6.17-3.75Zm6.85,.08c-2.79,1.46-6.55,3.67-11.27,6.64h-.15c1.52,2.81,2.71,4.85,3.58,6.1,.15-.16,.41-.1,.76,.16,.61,.47,1.32,.65,2.13,.55,3.4-.94,6.17-1.56,8.3-1.88,4.47-4.27,7.1-7.24,7.92-8.91,.76-1.72,.96-3.26,.61-4.61-.3-.78-1.67-1.07-4.11-.86-2.28,.31-4.87,1.25-7.77,2.81Z" fill="#fff"/>
    </g>
  </g>
</svg>