<?xml version="1.0" encoding="UTF-8"?>
<svg id="_圖層_2" data-name="圖層 2" xmlns="http://www.w3.org/2000/svg" xmlns:xlink="http://www.w3.org/1999/xlink" viewBox="0 0 235.65 72.93">
  <defs>
    <filter id="drop-shadow-1" filterUnits="userSpaceOnUse">
      <feOffset dx="0" dy="0"/>
      <feGaussianBlur result="blur" stdDeviation="3"/>
      <feFlood flood-color="#244441" flood-opacity=".5"/>
      <feComposite in2="blur" operator="in"/>
      <feComposite in="SourceGraphic"/>
    </filter>
  </defs>
  <g id="content">
    <g filter="url(#drop-shadow-1)">
      <path d="M37.02,58.26c-5.02,.37-11.24,1.3-18.65,2.81-7.36,1.41-11.62,2.01-12.79,1.8-1.73-.36-3.22-1.3-4.49-2.81-1.12-1.41-1.37-2.5-.76-3.28,.76-.78,1.4-.63,1.9,.47,.46,1.09,1.75,1.93,3.88,2.5,1.27,.31,4.72-.16,10.35-1.41,3.2-.78,6.67-1.43,10.43-1.95,0-.16,.08-.29,.23-.39,.76-2.03,1.14-6.49,1.14-13.37,0-1.77-.03-3.44-.08-5-1.67,.47-3.38,.99-5.1,1.56-3.96,.99-6.83,1.33-8.6,1.02-.91-.16-1.5-.75-1.75-1.8-.2-.99-.13-1.77,.23-2.34,.46-.47,.96-.44,1.52,.08,.91,.94,2.74,1.17,5.48,.7,2.03-.36,4.77-1.15,8.22-2.34,0-2.55,.1-4.53,.3-5.94,.15-2.55,.18-4.56,.08-6.02-.15-1.41-.56-2.45-1.22-3.13-.2-.16-.38-.34-.53-.55-.51,.16-1.07,.34-1.67,.55-6.39,1.72-10.05,2.66-10.96,2.81-.81,.05-1.98-.16-3.5-.63-.91-.31-1.4-.94-1.45-1.88,0-.94,.23-1.56,.69-1.88,.46-.21,.91-.18,1.37,.08,.76,.47,1.78,.68,3.05,.63,1.22-.05,4.95-.99,11.19-2.81,6.24-1.72,10.89-2.84,13.93-3.36,3.04-.47,5.63-.44,7.77,.08,.91,.16,1.45,.47,1.6,.94,.05,.47-.1,.86-.46,1.17-.46,.31-.74,.78-.84,1.41-.05,.63-.28,.99-.69,1.09-.3,0-.66-.16-1.07-.47-.36-.31-1.04-.57-2.06-.78-.96-.05-2.69,.08-5.18,.39-1.83,.16-4.62,.76-8.37,1.8,.61,.78,1.04,1.77,1.29,2.97,.15,1.25,.15,3.15,0,5.71-.15,1.3-.25,3.6-.3,6.88l.15-.08c4.77-1.72,8.27-2.76,10.51-3.13,.66,0,1.47,.47,2.44,1.41,.91,.94,1.32,1.98,1.22,3.13-.05,.31-.36,.68-.91,1.09-.51,.31-3,1.54-7.46,3.67-.81,.47-1.6,.68-2.36,.63-.61,0-.99-.23-1.14-.7-.05-.36,.23-.73,.84-1.09,1.22-.47,2.61-1.25,4.19-2.34,1.52-.94,2.23-1.56,2.13-1.88-.2-.36-2.21,.08-6.01,1.33-1.22,.31-2.41,.68-3.58,1.09,0,1.62,.03,3.52,.08,5.71,0,6.57-.3,11.07-.91,13.52,1.27-.16,2.64-.29,4.11-.39,6.39-.63,11.37-.91,14.92-.86,3.5,.05,6.01,.47,7.54,1.25,1.52,.63,3.07,1.51,4.64,2.66,1.67,1.09,2.11,1.82,1.29,2.19-.76,.31-1.29,.7-1.6,1.17-.3,.47-.64,.55-.99,.23-.36-.21-1.04-.31-2.06-.31-.96,.05-1.55-.29-1.75-1.02-.15-.94-.89-1.67-2.21-2.19-1.22-.47-3.15-.75-5.79-.86-2.59,0-6.39,.16-11.42,.47Z" fill="#fff"/>
      <path d="M141.27,20.11c-2.18,5.63-4.59,10.89-7.23,15.79-2.49,4.85-4.97,9.02-7.46,12.51-.15,.16-.28,.34-.38,.55,.46-.16,.99-.39,1.6-.7,3.7-1.77,7.13-3,10.28-3.67,3.1-.63,5.63-.6,7.61,.08,2.13,.78,3.37,2.22,3.73,4.3,.15,2.66-.84,5.26-2.97,7.82-1.57,1.77-4.29,3.88-8.15,6.33,.46,0,.89,.05,1.29,.16,2.28,.31,3.93,.31,4.95,0,1.07-.31,2.44,.05,4.11,1.09,.61,.31,.63,1.02,.08,2.11-.51,.94-1.24,1.33-2.21,1.17-2.03-.63-4.75-.99-8.15-1.09-3.1,0-6.93,.23-11.5,.7-.15,.31-.43,.57-.84,.78-.91,.31-1.55,.31-1.9,0-.3-.31-.61-.86-.91-1.64-.96-2.71-2.16-6.04-3.58-10.01-.51,.63-1.07,1.2-1.67,1.72-3.25,2.97-6.22,5.19-8.91,6.64-2.59,1.41-4.59,2.08-6.01,2.03-1.52-.16-2.44-.68-2.74-1.56-.2-.78-.3-1.72-.3-2.81,0-.47,.02-.81,.08-1.02h-.08c-.3,.16-.58,.31-.84,.47h-.08c-2.33,1.3-4.01,2.16-5.02,2.58-2.28,.78-4.11,1.17-5.48,1.17-2.44-.16-3.78-.47-4.03-.94-.3-.47,0-1.38,.91-2.74,.3-.52,.66-.63,1.07-.31,.3,.37,.86,.57,1.67,.63,.15,0,.41-.03,.76-.08,3.35-2.24,6.39-4.46,9.14-6.64,0-1.3,.08-3.02,.23-5.16v-2.81c-3.2,1.88-6.75,4.33-10.66,7.35-.76,.47-1.37,.29-1.83-.55-.46-.83-.41-1.51,.15-2.03,4.57-3.18,8.7-5.78,12.41-7.82,.05-1.25,.15-2.37,.3-3.36-.96,.47-2.16,1.02-3.58,1.64-3.2,1.3-5.53,2.06-7,2.27-1.67,.05-2.72,.03-3.12-.08-.36-.16-.63-.81-.84-1.95-.2-2.08,.08-2.92,.84-2.5,.46,.21,.91,.39,1.37,.55,.15-.16,.38-.31,.69-.47,3.2-1.56,6.93-4.27,11.19-8.13,.66-.63,1.32-1.28,1.98-1.95,.05-.47,.18-.89,.38-1.25,.15-.78,.51-1.2,1.07-1.25,.3,0,.61,.08,.91,.23,1.12-1.09,1.65-1.75,1.6-1.95-.15-.16-1.6,.29-4.34,1.33-3.4,1.3-5.79,1.95-7.16,1.95-.36,0-.63-.1-.84-.31-3.65,4.27-7.23,8.26-10.73,11.96-.46,.47-1.04,.81-1.75,1.02-.66,.16-1.14,.08-1.45-.23-.2-.21-.2-.63,0-1.25,.2-.52,.94-1.41,2.21-2.66,4.11-4.38,7.66-8.26,10.66-11.65,2.89-3.33,5.35-6.64,7.38-9.93,.91-1.46,1.65-2.79,2.21-3.99,0-.52,.15-.91,.46-1.17,.46-.94,.76-1.8,.91-2.58,.15-1.3,.13-2.24-.08-2.81-.2-.47-.2-1.07,0-1.8,.05-.36,.38-.68,.99-.94,.51-.16,1.09,.05,1.75,.63,.61,.63,.81,1.95,.61,3.99-.15,.99-.46,2.22-.91,3.67,2.13,.37,3.83,.89,5.1,1.56,1.57,.78,2.64,1.64,3.2,2.58,.46,.94,.58,1.75,.38,2.42-.15,.94-.48,1.49-.99,1.64-.46,.16-.84-.26-1.14-1.25-.36-1.15-1.24-2.08-2.66-2.81-1.22-.52-2.94-.91-5.18-1.17-.15,.31-.28,.63-.38,.94-1.37,2.66-3.86,6.07-7.46,10.24,.96-.05,2.36-.39,4.19-1.02,2.79-1.41,4.57-2.19,5.33-2.34,.76-.05,1.37,.03,1.83,.23,.46,.21,1.4,.39,2.82,.55,1.37,.16,1.09,1.17-.84,3.05-.66,.78-2.41,2.48-5.25,5.08-.3,1.15-.56,2.76-.76,4.85,2.13-.99,3.27-1.59,3.43-1.8l.3-1.02c-.05-.47,.05-.86,.3-1.17,.3-.31,.63-.26,.99,.16,1.12,.78,1.93,1.25,2.44,1.41,.66,.31,.76,.81,.3,1.49-.46,.63-.74,1.23-.84,1.8,0,.47-.3,.6-.91,.39-.2,0-2.33,.81-6.39,2.42-.05,.94-.15,2.01-.3,3.2,2.74-1.25,4.95-2.03,6.62-2.34,1.98-.47,3.4-.31,4.26,.47,1.37,1.3,1.34,2.97-.08,5-2.44,3.28-6.09,6.85-10.96,10.71l-.08,.08c0,.05,.03,.16,.08,.31,2.59-1.25,5.73-2.87,9.44-4.85,.61-.47,1.01-.96,1.22-1.49,.15-.47,.38-.73,.69-.78,.3,0,.63,.44,.99,1.33,.3,.78-.1,1.67-1.22,2.66-4.47,2.5-8.12,4.61-10.96,6.33,0,.68-.18,1.02-.53,1.02-.05,0-.1-.03-.15-.08,.05,.16,.2,.6,.46,1.33,.3,1.15,1.04,1.72,2.21,1.72,.61,0,2.36-.96,5.25-2.89,2.79-1.88,5.51-4.04,8.15-6.49,.46-.47,1.01-1.04,1.67-1.72-.61-2.4-.84-4.32-.69-5.78,0-.83,.25-1.41,.76-1.72,.46-.16,1.04-.03,1.75,.39,.76,.37,.99,.99,.69,1.88-.3,.37-.36,1.2-.15,2.5,1.37-1.61,2.84-3.57,4.42-5.86,.96-1.56,2-3.28,3.12-5.16-.15-.21-.25-.47-.3-.78,0-.36-.51-1.2-1.52-2.5-.96-1.25-1.9-2.24-2.82-2.97-.81-.78-1.65-1.33-2.51-1.64-.76-.31-1.35-.73-1.75-1.25-.36-.47-.48-1.07-.38-1.8,.15-.63,.69-.86,1.6-.7,.96,.16,2.06,.6,3.27,1.33,1.12,.63,2.61,1.8,4.49,3.52,.96,.83,1.72,1.59,2.28,2.27,1.07-2.03,2.16-4.3,3.27-6.8,2.79-6.41,4.06-9.85,3.81-10.32-.15-.21-.48-.31-.99-.31-1.07,0-3.3,.91-6.7,2.74-3.35,1.72-5.89,3-7.61,3.83-.61,.21-1.09,.26-1.45,.16-.46,.63-.91,1.28-1.37,1.95-.66,.68-1.32,.76-1.98,.23-.51-.63-.48-1.3,.08-2.03,4.42-6.25,7.18-9.98,8.3-11.18,1.07-1.09,1.95-2.24,2.66-3.44,.76-1.09,1.09-2.11,.99-3.05-.15-.94-.63-1.56-1.45-1.88-.76-.21-.89-.78-.38-1.72,.46-.78,1.29-.96,2.51-.55,1.07,.47,1.85,1.49,2.36,3.05,.35,1.88-.08,3.67-1.29,5.39-1.22,1.62-2.72,3.49-4.49,5.63-.61,.63-1.29,1.43-2.06,2.42,1.22-.47,2.66-1.15,4.34-2.03,3.1-1.61,6.04-2.55,8.83-2.81,1.57,0,2.64,.55,3.2,1.64,.46,1.09,.38,2.5-.23,4.22Zm-41.79,14.46c-2.64,2.24-4.92,4.04-6.85,5.39,.35-.05,.79-.18,1.29-.39,1.98-.78,3.73-1.49,5.25-2.11v-.08c0-.94,.1-1.88,.3-2.81Zm2.13,11.41c-.15,2.66-.23,4.98-.23,6.96,.05-.05,.15-.13,.3-.23,3.81-3.18,6.32-5.71,7.54-7.58,.15-.68,.08-1.2-.23-1.56-.15-.21-.89-.18-2.21,.08-.96,.16-2.69,.89-5.18,2.19v.16Zm30.83,17.43c6.4-4.06,10.23-7.04,11.5-8.91,1.27-1.88,1.83-3.7,1.67-5.47-.2-.78-1.45-1.2-3.73-1.25-2.28,0-4.82,.52-7.61,1.56-2.79,1.09-6.57,2.71-11.34,4.85-.3,.05-.61,.08-.91,.08l.15,.39c.81,2.81,2,5.89,3.58,9.22,.3,.16,.71,.23,1.22,.23,1.98-.31,3.81-.55,5.48-.7Z" fill="#fff"/>
      <path d="M165.43,28.63c.46-.94,1.07-1.28,1.83-1.02,2.59,1.25,4.36,2.79,5.33,4.61,.46,.68,.79,1.67,.99,2.97,.05,.68-.23,2.32-.84,4.92-.61,2.5-1.09,5.34-1.45,8.52-.36,3.13-.38,5.39-.08,6.8,1.88-2.66,3.6-5.58,5.18-8.75,1.52-3.13,2.94-7.01,4.26-11.65,.15-.63,.46-.86,.91-.7,.46,.05,.63,.42,.53,1.09-.66,3.96-1.88,8.21-3.65,12.74-1.67,4.43-3.1,7.58-4.26,9.46-1.07,1.88-1.7,3.05-1.9,3.52-.15,.47-.48,1.02-.99,1.64-.36,.52-.79,.76-1.29,.7-.46-.05-.76-.44-.91-1.17-.46-1.41-.76-3.05-.91-4.92-.15-1.77-.05-4.51,.3-8.21,.46-3.65,.91-6.62,1.37-8.91,.46-2.19,.63-3.75,.53-4.69,0-1.72-1.62-3.41-4.87-5.08-.51-.21-.53-.83-.08-1.88Zm9.06-19.62c.3-1.41,1.04-1.69,2.21-.86,1.52,1.25,2.87,2.74,4.03,4.46,1.07,1.72,1.85,3.26,2.36,4.61,.46,1.56,.08,2.74-1.14,3.52-1.67,.99-3.4,1.64-5.18,1.95-.96,.05-1.7-.34-2.21-1.17-.46-.83-.33-1.28,.38-1.33,.91,0,2.1-.18,3.58-.55,.51-.16,.91-.52,1.22-1.09,.15-.52,.1-1.12-.15-1.8-.46-1.09-1.09-2.11-1.9-3.05-.66-.83-1.35-1.56-2.06-2.19-.15-.16-.48-.26-.99-.31-.46,0-.51-.73-.15-2.19Zm15.38,11.1c2.13-.78,3.76-1.33,4.87-1.64,1.07-.21,1.98-.26,2.74-.16,.91,0,1.47,.23,1.68,.7,.15,.37,.05,.76-.3,1.17-.36,.31-.56,.83-.61,1.56,0,.63-.18,1.02-.53,1.17-.3,0-.69-.1-1.14-.31-.15-.05-.38-.13-.69-.23h-.46c-.66,4.38-1.95,9.51-3.88,15.4,1.83-1.61,4.57-4.22,8.22-7.82,.46-.63,.71-1.2,.76-1.72,0-.47,.15-.78,.46-.94,.3-.05,.74,.26,1.29,.94,.46,.68,.3,1.64-.46,2.89-5.79,6.57-9.44,10.42-10.96,11.57-1.42,1.09-2.64,1.8-3.65,2.11-2.33,.47-3.73,.55-4.19,.23-.3-.31-.25-1.28,.15-2.89,.15-.63,.48-.81,.99-.55,.46,.21,1.04,.23,1.75,.08,.3-.05,.73-.26,1.29-.63,1.52-4.22,2.74-7.92,3.65-11.1,.51-2.34,.89-4.61,1.14-6.8-.66,.21-1.45,.5-2.36,.86-2.13,.78-3.35,1.2-3.65,1.25-.3,0-.69-.05-1.14-.16-.96-.16-1.55-.73-1.75-1.72-.15-.94,0-1.56,.46-1.88,.35-.31,.79-.36,1.29-.16,.3,.16,.69,.21,1.14,.16,.35-.05,1.65-.52,3.88-1.41Zm.46,43.38c-2.74-.31-4.87-1.9-6.4-4.77-.2-.63,.1-1.28,.91-1.95,.91-.63,1.57-.44,1.98,.55,.81,1.72,1.95,2.74,3.43,3.05,.46,0,1.37-.47,2.74-1.41,1.37-.94,2.74-1.35,4.11-1.25,1.37,.05,2.54-.03,3.5-.23,.96-.21,2.13-.08,3.5,.39,1.27,.31,2.54,.13,3.81-.55,3.2-2.19,5.84-3.44,7.92-3.75,1.98-.31,3.48-.18,4.49,.39,1.22,.78,2.26,1.9,3.12,3.36,.76,1.3,.58,2.14-.53,2.5-.61,.16-1.5,.52-2.66,1.09-1.22,.47-3.17,.91-5.86,1.33-1.37,.31-2.16,.21-2.36-.31-.15-.52,.1-.86,.76-1.02,1.12-.16,2.92-.78,5.4-1.88,1.12-.63,1.02-1.38-.3-2.27-.3-.16-1.14-.1-2.51,.16-1.27,.21-3.3,1.41-6.09,3.6-1.98,1.15-4.11,1.41-6.4,.78-.96-.36-1.85-.52-2.66-.47-.76,.16-1.67,.16-2.74,0-1.07-.05-2.26,.39-3.58,1.33-1.22,.94-2.41,1.38-3.58,1.33Zm12.1-16.65c-.15-5.63-.13-10.45,.08-14.46,0-.78,.02-1.28,.08-1.49,.05-1.3,.18-2.55,.38-3.75,.46-4.74,.58-8.02,.38-9.85-.15-1.72-.41-2.76-.76-3.13-.91,.78-1.65,1.09-2.21,.94-.61-.16-.94-.44-.99-.86,0-.31,.43-.86,1.29-1.64,1.12-.83,2.44-2.11,3.96-3.83,1.42-1.61,2.31-2.84,2.66-3.67,.3-.78,.3-1.3,0-1.56-1.52-1.41-2.06-2.45-1.6-3.13,.46-.52,1.34-.55,2.66-.08,1.22,.47,2.13,1.51,2.74,3.13,.2,.63,.13,1.36-.23,2.19-.46,.78-1.6,2.19-3.43,4.22l-.08,.08c2.94-.99,5.25-1.72,6.93-2.19,2.03-.47,4.24-.63,6.62-.47,1.22,.16,2.33,1.02,3.35,2.58,.15,.47-.23,2.92-1.14,7.35-.91,4.38-1.67,7.53-2.28,9.46-.3,1.15-.99,1.95-2.06,2.42h-.3c-.3,.31-.79,.6-1.45,.86-.61,.16-1.07,.39-1.37,.7-.15,.31-.36,.39-.61,.23-.2-.16-.89-.08-2.06,.23-1.12,.37-2.39,.91-3.81,1.64-1.37,.63-2.46,1.09-3.27,1.41h-.3c-.05,1.72-.1,3.44-.15,5.16,.46-.16,1.07-.31,1.83-.47,1.37-.31,3.02-.86,4.95-1.64,1.88-.63,3.78-1.2,5.71-1.72,1.83-.36,3.12-.57,3.88-.63,.96,0,1.5,.26,1.6,.78,0,.52-.05,1.02-.15,1.49-.15,.31-.76,.63-1.83,.94-.91,.16-1.52,.44-1.83,.86-.3,.36-.61,.42-.91,.16-.2-.31-1.12-.26-2.74,.16-1.52,.37-3.22,.94-5.1,1.72-1.83,.78-3.32,1.3-4.49,1.56-.36,0-.69,.05-.99,.16,0,1.62,.15,2.76,.46,3.44,0,.16,.02,.31,.08,.47,4.01-1.41,7.87-2.4,11.57-2.97,5.07-.78,8.93-1.02,11.57-.7,2.59,.31,4.24,.94,4.95,1.88,1.22,1.62,1.75,3.34,1.6,5.16-.3,2.35-1.04,4.77-2.21,7.27-1.12,2.34-2.03,4.48-2.74,6.41-.61,1.88-2.54,4.58-5.79,8.13-.81,.94-2.08,1.3-3.81,1.09-5.23-.94-9.77-3.47-13.63-7.58-.36-.31-.41-.75-.15-1.33,.3-.47,.69-.55,1.14-.23,2.59,2.03,5.33,3.54,8.22,4.53,2.74,.94,4.62,1.35,5.63,1.25,.3,0,1.12-.86,2.44-2.58,1.37-1.61,2.31-3.15,2.82-4.61,.46-1.3,1.32-3.41,2.59-6.33,1.22-2.81,1.85-5,1.9-6.57,0-1.09-.3-1.9-.91-2.42-.76-.63-2.64-.96-5.63-1.02-3.04,0-6.75,.5-11.11,1.49-4.31,.94-8.5,2.4-12.56,4.38-.91,.36-1.47,0-1.67-1.09-.15-1.15-.03-1.82,.38-2.03,.61-.31,1.24-.6,1.9-.86v-1.02Zm11.34-35.49c-2.59,.63-5.15,1.56-7.69,2.81,.05,1.41,.15,2.84,.3,4.3,1.83-.63,3.5-1.15,5.02-1.56,1.98-.47,3.48-.7,4.49-.7,.91,0,1.55,.21,1.9,.63,1.07,1.25,.99,2.71-.23,4.38-1.07,1.3-2.69,2.76-4.87,4.38-2.13,1.56-3.91,2.58-5.33,3.05-.51,.21-.94,.34-1.29,.39-.05,.47-.1,1.02-.15,1.64,.15,0,.33-.05,.53-.16,.96-.31,2.18-.81,3.65-1.49,1.37-.63,2.77-1.15,4.19-1.56,.66-.21,1.27-.42,1.83-.63,.15-.21,.38-.36,.69-.47,.61-.21,.99-.6,1.14-1.17,.35-1.25,.86-3.02,1.52-5.32,.61-2.35,1.04-4.17,1.29-5.47,.2-1.3-.25-2.53-1.37-3.67-.91-.31-2.79-.1-5.63,.63Zm-7.23,10.24c0,1.72-.08,3.52-.23,5.39,1.83-1.15,3.5-2.35,5.02-3.6,1.42-1.25,2.41-2.21,2.97-2.89,.2-.83,.1-1.46-.3-1.88,0-.05-.25-.08-.76-.08-.46,.05-1.4,.39-2.82,1.02-1.12,.47-2.41,1.15-3.88,2.03Z" fill="#fff"/>
    </g>
  </g>
</svg>