<?xml version="1.0" encoding="UTF-8"?>
<svg id="_圖層_2" data-name="圖層 2" xmlns="http://www.w3.org/2000/svg" xmlns:xlink="http://www.w3.org/1999/xlink" viewBox="0 0 309.69 107.58">
  <defs>
    <filter id="drop-shadow-1" filterUnits="userSpaceOnUse">
      <feOffset dx="0" dy="0"/>
      <feGaussianBlur result="blur" stdDeviation="3"/>
      <feFlood flood-color="#244441" flood-opacity=".5"/>
      <feComposite in2="blur" operator="in"/>
      <feComposite in="SourceGraphic"/>
    </filter>
    <filter id="drop-shadow-2" filterUnits="userSpaceOnUse">
      <feOffset dx="0" dy="0"/>
      <feGaussianBlur result="blur-2" stdDeviation="3"/>
      <feFlood flood-color="#244441" flood-opacity=".5"/>
      <feComposite in2="blur-2" operator="in"/>
      <feComposite in="SourceGraphic"/>
    </filter>
    <filter id="drop-shadow-3" filterUnits="userSpaceOnUse">
      <feOffset dx="0" dy="0"/>
      <feGaussianBlur result="blur-3" stdDeviation="3"/>
      <feFlood flood-color="#244441" flood-opacity=".5"/>
      <feComposite in2="blur-3" operator="in"/>
      <feComposite in="SourceGraphic"/>
    </filter>
  </defs>
  <g id="content">
    <g>
      <g filter="url(#drop-shadow-1)">
        <path d="M48.78,59.53c0,.09-.04,.13-.11,.13-.28,0-.71-.01-1.3-.04-.62-.03-1.06-.04-1.32-.04-.34,0-.76,.01-1.25,.04-.5,.03-.87,.04-1.12,.04-.06,0-.09-.04-.09-.13s.03-.13,.09-.13c.5,0,.86-.05,1.08-.14,.22-.09,.33-.27,.33-.52s-.11-.59-.33-1.03l-4.73-9.83,.7-1.06-4.29,9.94c-.21,.5-.31,.91-.31,1.23,0,.47,.18,.82,.55,1.06,.37,.24,.89,.35,1.58,.35,.07,0,.11,.04,.11,.13s-.04,.13-.11,.13c-.26,0-.65-.01-1.14-.04-.56-.03-1.04-.04-1.45-.04-.38,0-.84,.01-1.36,.04-.47,.03-.85,.04-1.14,.04-.06,0-.09-.04-.09-.13s.03-.13,.09-.13c.41,0,.76-.08,1.04-.24s.56-.44,.83-.84c.26-.4,.56-.98,.9-1.76l4.69-10.8s.07-.07,.15-.08c.09,0,.14,.02,.15,.08l5.28,10.89c.51,1.07,.94,1.8,1.29,2.18,.34,.38,.74,.57,1.18,.57,.07,0,.11,.04,.11,.13Zm-11.22-6.09h5.98l.15,.48h-6.4l.26-.48Z" fill="#aeffe0"/>
        <path d="M59.36,46.61c.66,.51,.99,1.21,.99,2.09,0,.79-.23,1.51-.69,2.17-.46,.65-1.07,1.17-1.84,1.54s-1.58,.56-2.44,.56c-.31,0-.67-.01-1.08-.04v4.95c0,.44,.04,.77,.13,.98s.25,.36,.5,.43c.24,.07,.63,.11,1.15,.11,.04,0,.07,.04,.07,.13s-.02,.13-.07,.13c-.45,0-.81,0-1.08-.02l-1.58-.02-1.54,.02c-.28,.02-.65,.02-1.12,.02-.04,0-.07-.04-.07-.13s.02-.13,.07-.13c.53,0,.92-.04,1.17-.11s.42-.22,.51-.43c.09-.21,.13-.54,.13-.98v-10.19c0-.44-.04-.76-.13-.97-.09-.21-.25-.35-.5-.43-.24-.08-.63-.12-1.16-.12-.03,0-.04-.04-.04-.13s.01-.13,.04-.13l1.1,.02c.65,.03,1.16,.04,1.54,.04,.31,0,.6,0,.88-.02s.52-.03,.73-.04c.56-.04,1.06-.07,1.52-.07,1.22,0,2.16,.26,2.82,.77Zm-1.5,.32c-.45-.48-1.12-.72-2-.72-.57,0-.98,.11-1.21,.32-.23,.21-.35,.61-.35,1.2v4.64c.43,.04,.86,.07,1.3,.07,1.06,0,1.81-.25,2.27-.74s.68-1.26,.68-2.3c0-1.17-.23-2-.68-2.47Zm1.95,10.88c-.99-1.23-2.19-2.96-3.6-5.17l1.47-.46c1.25,1.83,2.3,3.26,3.15,4.29,.85,1.03,1.6,1.77,2.25,2.23,.65,.46,1.29,.69,1.9,.69,.04,0,.07,.04,.07,.13s-.02,.13-.07,.13h-3.15c-.37,0-1.05-.62-2.04-1.85Z" fill="#aeffe0"/>
        <path d="M76.27,45.85c.65,.12,1.26,.33,1.84,.6,.1,.04,.17,.09,.2,.14,.03,.05,.05,.17,.07,.34l.29,2.75s-.04,.07-.12,.09-.13,0-.14-.07c-.75-2.45-2.26-3.67-4.53-3.67-1.16,0-2.19,.27-3.08,.81s-1.59,1.31-2.08,2.31c-.49,1-.74,2.16-.74,3.5s.27,2.48,.8,3.53c.54,1.05,1.26,1.87,2.18,2.46,.92,.59,1.92,.89,3.02,.89s2.08-.29,2.82-.87c.73-.58,1.33-1.48,1.78-2.7,.01-.03,.05-.04,.11-.04,.03,0,.06,.01,.1,.03,.04,.02,.06,.04,.06,.05l-.24,2.51c-.01,.18-.04,.29-.07,.33-.03,.04-.1,.1-.22,.15-.73,.34-1.44,.58-2.11,.71-.67,.14-1.42,.21-2.22,.21-1.55,0-2.94-.3-4.16-.91-1.22-.61-2.17-1.46-2.85-2.54-.68-1.08-1.02-2.33-1.02-3.74s.35-2.61,1.04-3.68c.7-1.08,1.66-1.91,2.89-2.51,1.23-.59,2.61-.89,4.14-.89,.85,0,1.6,.06,2.26,.19Z" fill="#aeffe0"/>
        <path d="M83.47,46.72c-.09-.21-.26-.35-.51-.43-.25-.08-.65-.12-1.19-.12-.04,0-.07-.04-.07-.13s.02-.13,.07-.13l1.12,.02c.62,.03,1.13,.04,1.54,.04,.45,0,1.02-.01,1.69-.04l1.12-.02s.04,.04,.04,.13-.01,.13-.04,.13c-.56,0-.97,.04-1.23,.13-.26,.09-.44,.24-.54,.45-.1,.21-.14,.54-.14,.98v10.14c0,.44,.05,.77,.14,.98,.1,.21,.27,.36,.53,.43,.26,.07,.67,.11,1.24,.11,.03,0,.04,.04,.04,.13s-.01,.13-.04,.13c-.48,0-.86,0-1.12-.02l-1.69-.02-1.56,.02c-.28,.02-.66,.02-1.14,.02-.03,0-.04-.04-.04-.13s.01-.13,.04-.13c.54,0,.94-.04,1.2-.11,.26-.07,.43-.22,.53-.43,.1-.21,.14-.54,.14-.98v-10.19c0-.44-.04-.76-.13-.97Zm.95,5.52h9.72v.51h-9.72v-.51Zm8.82-5.49c-.09-.21-.26-.36-.53-.45-.26-.09-.67-.13-1.23-.13-.04,0-.07-.04-.07-.13s.02-.13,.07-.13l1.03,.02c.67,.03,1.25,.04,1.74,.04,.41,0,.94-.01,1.58-.04l1.12-.02s.07,.04,.07,.13-.02,.13-.07,.13c-.54,0-.94,.04-1.2,.12-.26,.08-.43,.22-.52,.43-.09,.21-.13,.53-.13,.97v10.19c0,.44,.04,.77,.13,.98s.26,.36,.52,.43c.26,.07,.66,.11,1.2,.11,.04,0,.07,.04,.07,.13s-.02,.13-.07,.13c-.47,0-.84,0-1.12-.02l-1.58-.02-1.74,.02c-.25,.02-.59,.02-1.03,.02-.04,0-.07-.04-.07-.13s.02-.13,.07-.13c.57,0,.99-.04,1.24-.11s.43-.21,.52-.42,.13-.54,.13-.99v-10.14c0-.44-.04-.77-.13-.98Z" fill="#aeffe0"/>
        <path d="M103.55,58.86c.08,.21,.24,.34,.48,.42,.24,.07,.63,.11,1.18,.11,.03,0,.04,.04,.04,.13s-.01,.13-.04,.13c-.47,0-.84,0-1.1-.02l-1.58-.02-1.54,.02c-.28,.02-.66,.02-1.14,.02-.03,0-.04-.04-.04-.13s.01-.13,.04-.13c.53,0,.92-.04,1.17-.11s.42-.22,.52-.43,.14-.54,.14-.98v-10.19c0-.44-.05-.76-.14-.97-.1-.21-.27-.35-.52-.43-.25-.08-.64-.12-1.17-.12-.03,0-.04-.04-.04-.13s.01-.13,.04-.13l1.14,.02c.65,.03,1.16,.04,1.54,.04,.43,0,.96-.01,1.61-.04l1.08-.02s.04,.04,.04,.13-.01,.13-.04,.13c-.53,0-.91,.04-1.15,.13-.24,.09-.41,.24-.5,.45-.09,.21-.13,.54-.13,.98v10.14c0,.46,.04,.79,.12,.99Z" fill="#aeffe0"/>
        <path d="M109.57,47.11c-.51,.51-.9,1.32-1.14,2.43-.01,.03-.06,.04-.14,.04s-.12-.02-.12-.07c.06-.41,.12-1.08,.2-2,.07-.92,.11-1.62,.11-2.09,0-.07,.04-.11,.13-.11s.13,.04,.13,.11c0,.32,.4,.48,1.21,.48,1.26,.04,2.73,.07,4.42,.07,.87,0,1.78-.01,2.75-.04l1.5-.02c.54,0,.94-.04,1.19-.11,.25-.07,.41-.22,.48-.44,.01-.06,.06-.09,.14-.09s.12,.03,.12,.09c-.04,.41-.09,1.07-.14,1.98-.05,.91-.08,1.64-.08,2.18,0,.04-.04,.07-.12,.07s-.12-.02-.12-.07c-.1-1.13-.4-1.94-.88-2.43-.48-.49-1.2-.74-2.16-.74-.54,0-.93,.03-1.17,.1-.23,.07-.4,.19-.48,.37-.09,.18-.13,.49-.13,.91v10.14c0,.46,.05,.79,.14,.99,.1,.21,.28,.34,.56,.42,.28,.07,.73,.11,1.34,.11,.03,0,.04,.04,.04,.13s-.02,.13-.04,.13c-.51,0-.92,0-1.21-.02l-1.74-.02-1.69,.02c-.29,.02-.7,.02-1.23,.02-.04,0-.07-.04-.07-.13s.02-.13,.07-.13c.6,0,1.05-.04,1.33-.11,.29-.07,.48-.22,.58-.43s.15-.54,.15-.98v-10.19c0-.41-.04-.71-.13-.89-.09-.18-.25-.3-.49-.36-.24-.06-.63-.09-1.18-.09-.91,0-1.62,.25-2.13,.76Z" fill="#aeffe0"/>
        <path d="M123.31,59.53c0-.09,.02-.13,.07-.13,.53,0,.91-.04,1.16-.11,.24-.07,.41-.22,.5-.43,.09-.21,.13-.54,.13-.98v-10.19c0-.44-.04-.76-.13-.97-.09-.21-.25-.35-.5-.43-.24-.08-.63-.12-1.16-.12-.04,0-.07-.04-.07-.13s.02-.13,.07-.13h8.98c.15,0,.22,.07,.22,.2l.04,2.77s-.04,.07-.12,.08c-.08,0-.13-.01-.14-.05-.1-.81-.39-1.42-.86-1.85-.47-.42-1.09-.64-1.85-.64h-1.12c-.65,0-1.08,.1-1.3,.29-.22,.19-.33,.55-.33,1.08v10.01c0,.53,.1,.89,.3,1.08,.2,.19,.6,.29,1.2,.29h1.45c.82,0,1.51-.25,2.06-.74,.55-.49,.93-1.19,1.13-2.1,0-.03,.03-.04,.09-.04,.04,0,.08,.01,.12,.03,.04,.02,.06,.04,.06,.06-.15,1.06-.22,2.05-.22,2.97,0,.12-.02,.2-.07,.25-.04,.05-.13,.08-.26,.08h-9.37s-.07-.04-.07-.13Zm7.67-6.33c-.36-.3-.93-.45-1.71-.45h-3.21v-.51h3.26c.75,0,1.3-.13,1.65-.38s.53-.66,.53-1.2c0-.03,.04-.04,.12-.04s.12,.01,.12,.04l-.02,1.85,.02,.99c.03,.47,.04,.84,.04,1.1,0,.03-.04,.04-.13,.04s-.13-.01-.13-.04c0-.63-.18-1.1-.54-1.4Z" fill="#aeffe0"/>
        <path d="M146.87,45.85c.65,.12,1.26,.33,1.84,.6,.1,.04,.17,.09,.2,.14,.03,.05,.05,.17,.07,.34l.29,2.75s-.04,.07-.12,.09-.13,0-.14-.07c-.75-2.45-2.26-3.67-4.53-3.67-1.16,0-2.19,.27-3.08,.81s-1.59,1.31-2.08,2.31c-.49,1-.74,2.16-.74,3.5s.27,2.48,.8,3.53c.54,1.05,1.26,1.87,2.18,2.46,.92,.59,1.92,.89,3.02,.89s2.08-.29,2.82-.87c.73-.58,1.33-1.48,1.78-2.7,.01-.03,.05-.04,.11-.04,.03,0,.06,.01,.1,.03,.04,.02,.06,.04,.06,.05l-.24,2.51c-.01,.18-.04,.29-.07,.33-.03,.04-.1,.1-.22,.15-.73,.34-1.44,.58-2.11,.71-.67,.14-1.42,.21-2.22,.21-1.55,0-2.94-.3-4.16-.91-1.22-.61-2.17-1.46-2.85-2.54-.68-1.08-1.02-2.33-1.02-3.74s.35-2.61,1.04-3.68c.7-1.08,1.66-1.91,2.89-2.51,1.23-.59,2.61-.89,4.14-.89,.85,0,1.6,.06,2.26,.19Z" fill="#aeffe0"/>
        <path d="M153.85,47.11c-.51,.51-.9,1.32-1.14,2.43-.01,.03-.06,.04-.14,.04s-.12-.02-.12-.07c.06-.41,.12-1.08,.2-2,.07-.92,.11-1.62,.11-2.09,0-.07,.04-.11,.13-.11s.13,.04,.13,.11c0,.32,.4,.48,1.21,.48,1.26,.04,2.73,.07,4.42,.07,.87,0,1.78-.01,2.75-.04l1.5-.02c.54,0,.94-.04,1.19-.11,.25-.07,.41-.22,.48-.44,.01-.06,.06-.09,.14-.09s.12,.03,.12,.09c-.04,.41-.09,1.07-.14,1.98-.05,.91-.08,1.64-.08,2.18,0,.04-.04,.07-.12,.07s-.12-.02-.12-.07c-.1-1.13-.4-1.94-.88-2.43-.48-.49-1.2-.74-2.16-.74-.54,0-.93,.03-1.17,.1-.23,.07-.4,.19-.48,.37-.09,.18-.13,.49-.13,.91v10.14c0,.46,.05,.79,.14,.99,.1,.21,.28,.34,.56,.42,.28,.07,.73,.11,1.34,.11,.03,0,.04,.04,.04,.13s-.02,.13-.04,.13c-.51,0-.92,0-1.21-.02l-1.74-.02-1.69,.02c-.29,.02-.7,.02-1.23,.02-.04,0-.07-.04-.07-.13s.02-.13,.07-.13c.6,0,1.05-.04,1.33-.11,.29-.07,.48-.22,.58-.43s.15-.54,.15-.98v-10.19c0-.41-.04-.71-.13-.89-.09-.18-.25-.3-.49-.36-.24-.06-.63-.09-1.18-.09-.91,0-1.62,.25-2.13,.76Z" fill="#aeffe0"/>
        <path d="M178.8,46.75c-.34-.39-.82-.58-1.45-.58-.04,0-.07-.04-.07-.13s.02-.13,.07-.13l.99,.02c.53,.03,.95,.04,1.25,.04,.26,0,.65-.01,1.14-.04l.95-.02s.04,.04,.04,.13-.01,.13-.04,.13c-.59,0-1.03,.19-1.33,.57-.3,.38-.45,.95-.45,1.69v6.23c0,1.64-.48,2.93-1.44,3.87s-2.24,1.41-3.84,1.41c-1.09,0-2.04-.21-2.86-.63-.82-.42-1.46-1.02-1.91-1.8-.45-.79-.68-1.71-.68-2.76v-7.06c0-.44-.04-.76-.13-.97-.09-.21-.25-.35-.5-.43-.24-.08-.63-.12-1.15-.12-.04,0-.07-.04-.07-.13s.02-.13,.07-.13l1.1,.02c.65,.03,1.16,.04,1.54,.04,.43,0,.95-.01,1.56-.04l1.08-.02s.07,.04,.07,.13-.02,.13-.07,.13c-.51,0-.89,.04-1.13,.13-.24,.09-.41,.24-.5,.45-.09,.21-.13,.54-.13,.98v6.25c0,1.73,.38,3.04,1.13,3.93,.76,.89,1.81,1.33,3.18,1.33,1.28,0,2.28-.4,3-1.2,.73-.8,1.09-1.92,1.09-3.35v-6.25c0-.73-.17-1.29-.51-1.68Z" fill="#aeffe0"/>
        <path d="M192.77,46.61c.66,.51,.99,1.21,.99,2.09,0,.79-.23,1.51-.69,2.17-.46,.65-1.07,1.17-1.84,1.54s-1.58,.56-2.44,.56c-.31,0-.67-.01-1.08-.04v4.95c0,.44,.04,.77,.13,.98s.25,.36,.5,.43c.24,.07,.63,.11,1.15,.11,.04,0,.07,.04,.07,.13s-.02,.13-.07,.13c-.45,0-.81,0-1.08-.02l-1.58-.02-1.54,.02c-.28,.02-.65,.02-1.12,.02-.04,0-.07-.04-.07-.13s.02-.13,.07-.13c.53,0,.92-.04,1.17-.11s.42-.22,.51-.43c.09-.21,.13-.54,.13-.98v-10.19c0-.44-.04-.76-.13-.97-.09-.21-.25-.35-.5-.43-.24-.08-.63-.12-1.16-.12-.03,0-.04-.04-.04-.13s.01-.13,.04-.13l1.1,.02c.65,.03,1.16,.04,1.54,.04,.31,0,.6,0,.88-.02s.52-.03,.73-.04c.56-.04,1.06-.07,1.52-.07,1.22,0,2.16,.26,2.82,.77Zm-1.5,.32c-.45-.48-1.12-.72-2-.72-.57,0-.98,.11-1.21,.32-.23,.21-.35,.61-.35,1.2v4.64c.43,.04,.86,.07,1.3,.07,1.06,0,1.81-.25,2.27-.74s.68-1.26,.68-2.3c0-1.17-.23-2-.68-2.47Zm1.95,10.88c-.99-1.23-2.19-2.96-3.6-5.17l1.47-.46c1.25,1.83,2.3,3.26,3.15,4.29,.85,1.03,1.6,1.77,2.25,2.23,.65,.46,1.29,.69,1.9,.69,.04,0,.07,.04,.07,.13s-.02,.13-.07,.13h-3.15c-.37,0-1.05-.62-2.04-1.85Z" fill="#aeffe0"/>
        <path d="M200.18,59.53c0-.09,.02-.13,.07-.13,.53,0,.91-.04,1.16-.11,.24-.07,.41-.22,.5-.43,.09-.21,.13-.54,.13-.98v-10.19c0-.44-.04-.76-.13-.97-.09-.21-.25-.35-.5-.43-.24-.08-.63-.12-1.16-.12-.04,0-.07-.04-.07-.13s.02-.13,.07-.13h8.98c.15,0,.22,.07,.22,.2l.04,2.77s-.04,.07-.12,.08c-.08,0-.13-.01-.14-.05-.1-.81-.39-1.42-.86-1.85-.47-.42-1.09-.64-1.85-.64h-1.12c-.65,0-1.08,.1-1.3,.29-.22,.19-.33,.55-.33,1.08v10.01c0,.53,.1,.89,.3,1.08,.2,.19,.6,.29,1.2,.29h1.45c.82,0,1.51-.25,2.06-.74,.55-.49,.93-1.19,1.13-2.1,0-.03,.03-.04,.09-.04,.04,0,.08,.01,.12,.03,.04,.02,.06,.04,.06,.06-.15,1.06-.22,2.05-.22,2.97,0,.12-.02,.2-.07,.25-.04,.05-.13,.08-.26,.08h-9.37s-.07-.04-.07-.13Zm7.67-6.33c-.36-.3-.93-.45-1.71-.45h-3.21v-.51h3.26c.75,0,1.3-.13,1.65-.38s.53-.66,.53-1.2c0-.03,.04-.04,.12-.04s.12,.01,.12,.04l-.02,1.85,.02,.99c.03,.47,.04,.84,.04,1.1,0,.03-.04,.04-.13,.04s-.13-.01-.13-.04c0-.63-.18-1.1-.54-1.4Z" fill="#aeffe0"/>
      </g>
      <g filter="url(#drop-shadow-2)">
        <path d="M59.04,22.24l-.69,2.35c-.84,.05-1.91,.08-3.21,.08-5.66,0-9.3-.21-10.92-.64s-3.09-1.26-4.43-2.52c-1.16,1.56-2.21,2.73-3.14,3.5l-1.88-1.8c1.42-1.08,2.54-2.27,3.36-3.55-1.05-1.51-1.89-3.35-2.52-5.51l2.21-.75c.38,1.38,.87,2.62,1.45,3.75,.52-1.65,.79-3.39,.79-5.21h-4.5v-2.35c1.78-2.14,3.12-4.16,4.01-6.04h-4.42V1.16h7.1V3.54c-.76,1.75-1.96,3.76-3.6,6.02h3.89c0,4.23-.58,7.56-1.74,9.99,1.65,1.56,3.66,2.41,6.04,2.55,2.37,.14,5.02,.21,7.93,.21,1.48,0,2.91-.02,4.29-.07Zm-.39-2.94h-7.36v2.24h-2.32v-2.24h-6.47v-2.08h6.47v-1.76h-5.49v-1.98h5.49v-1.65h-4.91v-1.93h4.91v-1.91h-6.47v-1.96h6.47v-1.79h-4.91v-1.96h4.91V.55h2.32v1.74h5.75v3.75h1.56v1.96h-1.56v3.84h-5.75v1.65h6.27v1.98h-6.27v1.76h7.36v2.08Zm-4.01-13.28v-1.79h-3.36v1.79h3.36Zm0,3.87v-1.91h-3.36v1.91h3.36Z" fill="#fff"/>
        <path d="M77.99,4.1h-7.34c-1.04,1.18-2.06,2.15-3.06,2.91l-1.6-1.79c2.11-1.53,3.62-3.2,4.53-5.02l2.22,.72c-.15,.42-.33,.77-.55,1.07h5.79v2.11Zm-1.81,5.48h-3.57v2.69c1.43-.27,2.54-.53,3.33-.77l.05,2.16c-3.21,.71-6.29,1.28-9.24,1.71l-.47-2.04c1.86-.23,3.19-.44,4.01-.63v-3.13h-3.33v-2.04h9.21v2.04Zm-.84,11.35c-2.49,1.66-5.05,2.93-7.7,3.8l-1.36-2.16c2.39-.61,4.84-1.75,7.36-3.4l1.69,1.76Zm14.81-2.47h-10.69v6.47h-2.37v-6.47h-10.67v-2.12h10.67v-.9h2.37v.9h10.69v2.12Zm-14.37-12.03l-2.46,.62c-.41-.75-.83-1.36-1.25-1.85l2.44-.71c.45,.47,.88,1.12,1.28,1.94Zm14.62,5.03c-.09,1.4-.32,2.31-.7,2.73-.38,.42-1.18,.62-2.42,.62-.96,0-1.62-.18-1.97-.53s-.53-.9-.53-1.64v-3.05h-2.65c-.13,.7-.31,1.34-.52,1.93,.83,.49,1.54,.98,2.13,1.46l-1.25,1.74c-.68-.56-1.35-1.03-2-1.41-.95,.92-1.82,1.53-2.62,1.83l-1.33-1.71c.58-.17,1.25-.54,2.02-1.09-.42-.26-.95-.51-1.58-.75l1.15-1.68c.43,.15,.92,.35,1.46,.62,.14-.3,.24-.61,.31-.93h-2.92v-2.04h10.04v4.87c0,.25,.11,.37,.32,.37,.39,0,.65-.11,.77-.32,.12-.21,.19-.8,.19-1.76l2.1,.75Zm-.28-7.36h-8.64c-.81,1.09-1.66,2.06-2.57,2.88l-1.82-1.49c1.95-1.72,3.3-3.48,4.03-5.26l2.32,.59c-.12,.35-.31,.74-.57,1.18h7.26v2.11Zm.44,18.84l-1.42,1.87c-2.7-1.7-5.26-2.94-7.68-3.75l1.54-1.94c2.75,1.02,5.27,2.29,7.56,3.81Zm-3.79-16.57l-2.58,.52c-.42-.76-.86-1.38-1.32-1.87l2.6-.59c.57,.72,1,1.37,1.31,1.94Z" fill="#fff"/>
        <path d="M107.25,5.36h-9.55V3.09h3.66c-.27-.74-.59-1.44-.93-2.11l2.42-.62c.4,.71,.77,1.62,1.12,2.72h3.28v2.27Zm-.65,4.06h-8.16v-2.24h8.16v2.24Zm0,4.01h-8.16v-2.21h8.16v2.21Zm.03,10.86h-2.37v-1.12h-3.44v1.79h-2.32V15.27h8.12v9.01Zm-2.37-3.39v-3.32h-3.44v3.32h3.44Zm17.59,1.94l-1.15,2.27c-2.29-.75-4.37-1.84-6.25-3.28-1.7,1.33-3.68,2.45-5.93,3.36l-1.38-2.13c2.23-.71,4.08-1.67,5.57-2.88-1.47-1.7-2.62-3.62-3.44-5.77h-1.24v-2.3h11.89v2.3c-1.15,2.43-2.37,4.35-3.67,5.74,1.49,1.17,3.36,2.06,5.59,2.69Zm-.31-12.37h-3.54c-.45,0-.86-.2-1.23-.59s-.55-.85-.55-1.35V3.54h-3.74v1.68c0,1.23-.3,2.42-.9,3.57s-1.42,2.03-2.46,2.64l-1.69-1.71c1.78-.97,2.68-2.69,2.68-5.18V1.24h8.48V7.48c0,.18,.08,.35,.25,.49,.17,.15,.33,.22,.48,.22h2.21v2.27Zm-4.22,3.94h-5.43c.79,1.76,1.66,3.14,2.62,4.14,.99-.98,1.93-2.37,2.81-4.14Z" fill="#fff"/>
        <path d="M140.43,5.25h-11.34V3.03h4.5c-.29-.78-.63-1.54-1.01-2.27l2.54-.48c.42,.76,.82,1.67,1.2,2.75h4.11v2.21Zm-1.28,4.17h-9.08v-2.24h9.08v2.24Zm0,4.03h-9.08v-2.21h9.08v2.21Zm.05,11.12h-2.37v-1.41h-4.23v1.76h-2.4V15.3h9v9.27Zm-2.37-3.64v-3.34h-4.23v3.34h4.23Zm16.06-10.25h-4.97v14.25h-2.48V10.68h-4.86v-2.46h4.86V.52h2.48v7.7h4.97v2.46Z" fill="#fff"/>
      </g>
      <g filter="url(#drop-shadow-3)">
        <path d="M58.81,106.84h-23.78v-1.48h11.13v-9.97h-9.57v-1.46h9.57v-8.79h-10.17v-1.48h21.81v1.48h-10.17v8.79h9.63v1.46h-9.63v9.97h11.19v1.48Z" fill="#fff"/>
        <path d="M77.76,88.32l-1,1c-.99-1.13-2.4-2.48-4.21-4.06-1.19,1.72-2.5,3.23-3.93,4.51h7.42v1.37h-2.94v3.09h4.06v1.39h-4.06v8.65c1.49-.26,2.81-.53,3.95-.81l.11,1.42c-2.86,.64-6.33,1.28-10.41,1.93l-.33-1.39c1.62-.17,3.38-.46,5.3-.88v-8.93h-4.73v-1.39h4.73v-3.09h-3.41v-1.03c-.55,.48-.98,.83-1.29,1.03l-.79-1.15c2.83-2.36,4.83-4.71,6.01-7.05l1.33,.45c-.08,.22-.18,.45-.31,.7,2.02,1.78,3.52,3.19,4.5,4.24Zm-7.6,14.7l-1.28,.41c-.18-1.27-.61-3.13-1.29-5.59l1.32-.4c.52,1.71,.93,3.57,1.25,5.58Zm6.68-5.29c-.28,1.69-.67,3.35-1.2,4.98l-1.29-.48c.39-1.1,.78-2.73,1.17-4.89l1.32,.4Zm12.21,9.73h-1.44v-1.85h-6.14v1.85h-1.45v-9.71c-.79,.45-1.39,.77-1.8,.97l-.81-1.2c2.32-1.21,4.23-2.57,5.75-4.06-.91-1.05-2.01-2.13-3.3-3.24l-1.72,2.01-1.06-.97c2.18-2.23,3.96-5.03,5.34-8.38l1.37,.45c-.22,.56-.57,1.35-1.04,2.38h6.19v1.41c-1.42,3.78-3.73,6.87-6.92,9.26h7.03v11.09Zm-1.69-20.34h-5.34c-.61,.96-1.05,1.63-1.32,2.01,1.23,1.01,2.4,2.1,3.5,3.25,1.38-1.59,2.43-3.35,3.16-5.26Zm.25,17.1v-6.44h-6.14v6.44h6.14Z" fill="#fff"/>
        <path d="M102.98,93.49l-.89,1.24c-1.1-1.18-2.57-2.37-4.39-3.57l.93-1.11c1.65,.98,3.1,2.13,4.35,3.43Zm.25,5.18c-1.47,3.71-2.96,6.65-4.45,8.82l-1.09-1.03c1.59-2.31,3.04-5.22,4.34-8.71l1.2,.92Zm-.21-12.26l-.91,1.15c-1.18-1.43-2.51-2.61-3.98-3.53l.96-1.12c1.62,1.11,2.92,2.28,3.93,3.5Zm6.56,13.22c-2.1,1.43-4.25,2.75-6.46,3.95l-.65-1.26c.86-.45,2-1.11,3.41-2v-12.69h-2.13v-1.34h5.59v1.34h-2.16v11.85c.92-.57,1.6-1.03,2.04-1.35l.36,1.49Zm1.66,1.57c-.12,1.6-.51,3.35-1.17,5.26l-1.3-.29c.65-1.68,1.06-3.42,1.25-5.24l1.23,.26Zm10.17-4.96h-9.52v2.13h9.19c0,1.34-.09,2.95-.27,4.82-.18,1.87-.42,2.98-.74,3.31-.32,.33-.63,.59-.94,.78-.31,.19-.87,.28-1.68,.28h-1.12l-.41-1.52c.8,.05,1.45,.08,1.94,.08,.69,0,1.13-.32,1.31-.96,.18-.64,.33-2.47,.46-5.48h-9.05v-14.56h2.78c.17-.47,.38-1.19,.63-2.16l1.39,.21c-.14,.7-.36,1.35-.65,1.96h5.1v7.78h-7.94v2.05h9.52v1.29Zm-7.86,9.88l-1.28,.26c.06-1.97-.08-3.65-.41-5.04l1.23-.16c.31,1.36,.47,3.01,.47,4.95Zm4.94-17.8v-1.89h-6.6v1.89h6.6Zm0,3.29v-1.93h-6.6v1.93h6.6Zm-2.26,13.33l-1.23,.4c-.2-1.52-.5-2.91-.91-4.17l1.17-.26c.36,1.23,.68,2.58,.96,4.03Zm2.53-.86l-1.15,.44c-.25-1.08-.71-2.31-1.38-3.69l1.17-.27c.59,1.15,1.05,2.32,1.36,3.53Z" fill="#fff"/>
        <path d="M152.87,105.67l-.33,1.49c-1.64,.05-3.2,.07-4.69,.07-3.2,0-5.49-.08-6.85-.25-1.36-.17-2.71-.49-4.03-.97-1.33-.48-2.51-1.26-3.54-2.34-1.3,1.68-2.53,2.98-3.69,3.92l-.97-1.15c1.36-1.09,2.57-2.38,3.62-3.87-1.01-1.4-1.86-3.24-2.56-5.51l1.28-.53c.51,1.98,1.19,3.54,2.04,4.68,.96-2.04,1.5-4.43,1.61-7.18h-5.05v-1.31c1.69-2.18,3.37-4.69,5.05-7.53h-5.59v-1.39h7.12v1.39c-1.66,2.87-3.25,5.35-4.78,7.42h4.73c-.18,4.12-.88,7.39-2.1,9.8,.86,.9,1.83,1.61,2.91,2.12,1.08,.51,2.23,.85,3.46,1,1.23,.16,3.64,.24,7.24,.24,1.79,0,3.5-.03,5.13-.1Zm-.21-15.18h-1.94v3.98h-6.22v2.32h6.76v1.37h-6.76v2.3h7.7v1.38h-7.7v2.78h-1.36v-2.78h-6.76v-1.38h6.76v-2.3h-5.73v-1.37h5.73v-2.32h-5.21v-1.39h5.21v-2.58h-6.74v-1.42h6.74v-2.43h-5.18v-1.38h5.18v-2.09h1.36v2.09h6.22v3.81h1.94v1.42Zm-3.33-1.42v-2.38h-4.83v2.38h4.83Zm0,4.01v-2.58h-4.83v2.58h4.83Z" fill="#fff"/>
        <path d="M172.28,86.27h-7.66c-.8,1.08-1.78,2.12-2.96,3.13l-1.23-.86c1.94-1.57,3.55-3.49,4.81-5.77l1.36,.51c-.32,.57-.67,1.13-1.04,1.65h6.71v1.34Zm11.86,14.16h-11.13v7.03h-1.46v-7.03h-11.1v-1.31h11.1v-1.29h1.46v1.29h11.13v1.31Zm-14.81,2.3c-2,1.44-4.62,2.81-7.88,4.12l-.99-1.26c3.14-1.12,5.77-2.41,7.88-3.86l.99,1Zm1.58-11.36h-3.93v4.09c.93-.15,2.23-.46,3.9-.9v1.38c-3.39,.81-6.56,1.46-9.49,1.96l-.39-1.29,4.53-.85v-4.39h-3.98v-1.35h9.36v1.35Zm-1.42-2.49l-1.23,.64c-.62-.97-1.2-1.71-1.74-2.24l1.25-.62c.81,.85,1.38,1.59,1.72,2.21Zm14.75,5.11c0,1.06-.21,1.86-.62,2.41-.41,.55-1.15,.82-2.22,.82-1.47,0-2.21-.53-2.21-1.6v-4.2h-2.64c-.12,1.19-.36,2.13-.72,2.83,.7,.43,1.48,1.04,2.34,1.85l-.95,.86c-.68-.61-1.39-1.17-2.13-1.67-.82,.88-1.74,1.54-2.78,1.98l-1.15-1.04c1.24-.48,2.18-1.04,2.81-1.68-.88-.56-1.61-.98-2.18-1.26l.93-.98c.61,.31,1.27,.69,1.96,1.15,.28-.6,.44-1.28,.47-2.04h-2.97v-1.31h8.4v5.26c0,.31,.31,.46,.93,.46,.56,0,.92-.21,1.08-.64,.16-.43,.25-.99,.25-1.68l1.38,.48Zm-.05-7.72h-8.35c-1.09,1.32-2.14,2.36-3.13,3.1l-1.25-.86c2.05-1.55,3.73-3.43,5.03-5.63l1.32,.56c-.33,.57-.66,1.06-.99,1.49h7.36v1.34Zm.11,19.61l-.95,1.09c-2.15-1.46-4.75-2.8-7.8-4.03l.99-1.15c3.06,1.31,5.65,2.68,7.76,4.09Zm-3.85-16.75l-1.25,.59c-.49-1.02-.99-1.83-1.52-2.43l1.3-.51c.67,.76,1.16,1.54,1.46,2.35Z" fill="#fff"/>
        <path d="M201.38,105.79h-7v1.76h-1.42v-21.29h2.78c.66-1.21,1.15-2.31,1.48-3.31l1.36,.42c-.29,.87-.74,1.83-1.33,2.88h3.49v7.53h-6.35v3.64h7v8.35Zm-2.1-13.33v-4.8h-4.9v4.8h4.9Zm.67,11.92v-5.56h-5.57v5.56h5.57Zm15.73-19.21h-5.83v3.95h4.69v14.42c0,1.5-1.04,2.17-3.13,1.98l-.44-1.45c.44,.03,.79,.04,1.05,.04,.75,0,1.13-.26,1.13-.78v-12.85h-3.3v17.06h-1.4v-17.06h-3.37v15.04h-1.42v-16.41h4.79v-3.95h-6.02v-1.45h13.25v1.45Z" fill="#fff"/>
        <path d="M246.92,99.6h-2.24v3.58h-9v2.3c0,.74-.22,1.24-.67,1.52s-1.41,.41-2.9,.41c-.49,0-.99-.02-1.5-.05l-.45-1.34,3.44-.03c.47,0,.71-.25,.71-.75v-2.05h-9.68v-1.26h9.68v-2.32h-11.16v-1.34h11.16v-2.08h-9.68v-1.34h9.68v-2.08h-8.81v-4.73h8.81v-1.87h-10.96v-1.29h10.96v-1.97h1.38v1.97h10.91v1.29h-10.91v1.87h8.84v4.73h-8.84v2.08h9v3.42h2.24v1.34Zm-12.62-8.18v-2.08h-7.36v2.08h7.36Zm8.77,0v-2.08h-7.39v2.08h7.39Zm.17,6.84v-2.08h-7.56v2.08h7.56Zm0,3.66v-2.32h-7.56v2.32h7.56Z" fill="#fff"/>
        <path d="M264.95,92.07c-.12,2.39-.83,4.53-2.13,6.44l-1.04-1.01c.78-1.21,1.33-2.56,1.64-4.03h-2.54v12.29c0,.36-.14,.75-.43,1.14s-1.02,.59-2.2,.59c-.45,0-.87-.03-1.25-.08l-.8-1.5c1.15,.09,2.05,.14,2.7,.14,.13,0,.28-.07,.43-.21s.23-.27,.23-.41v-10.1c-1.32,3.43-2.7,6.1-4.14,8.03l-.93-1.12c1.6-2.13,3.04-5.05,4.34-8.76h-4.23v-1.39h6.03c-1.14-1.34-2.53-2.6-4.19-3.77l1-.93c.65,.46,1.47,1.11,2.46,1.96,1.26-1.48,2.26-2.88,3-4.22h-7.34v-1.39h8.89v1.39c-.9,1.7-2.06,3.41-3.5,5.15l.93,1.07-.84,.75h3.93Zm11.72,6.41c-.05,1.91-.2,3.62-.44,5.15s-.48,2.46-.73,2.78c-.24,.32-.55,.59-.92,.83-.37,.23-1.54,.32-3.51,.25l-.65-1.5c.56,.05,1.17,.07,1.82,.07,.99,0,1.59-.05,1.78-.15,.19-.1,.34-.25,.45-.44,.11-.2,.23-.81,.37-1.85s.27-2.28,.39-3.73h-4.55c-.76,3.6-3.02,6.17-6.76,7.71l-1.04-1.15c1.5-.47,2.86-1.32,4.07-2.55,1.22-1.23,1.99-2.56,2.33-4.01h-4.33v-1.39h4.66c.13-.74,.21-1.67,.24-2.8l1.37,.05c0,.68-.08,1.6-.23,2.75h5.67Zm1.61-3.39l-.79,1.26c-2.1-.64-4.05-1.64-5.87-2.99-1.7,1.29-3.45,2.27-5.23,2.94l-.96-1.2c1.71-.53,3.4-1.41,5.07-2.65-1.12-1.15-1.94-2.19-2.45-3.12l1.2-.7c.62,1.1,1.39,2.07,2.32,2.91,1.24-1.09,2.21-2.6,2.89-4.51h-5.83c-1.16,1.51-2.23,2.66-3.2,3.45l-1.05-1c2.02-1.64,3.73-3.84,5.13-6.59l1.36,.53c-.33,.69-.75,1.43-1.28,2.21h8.28v1.39h-1.93c-.71,2.17-1.78,3.96-3.22,5.39,1.68,1.21,3.53,2.11,5.57,2.68Z" fill="#fff"/>
        <path d="M297.18,84.29c-2.59,1.12-5.29,1.84-8.1,2.15v3.34h7.14v8.15h-7.16c-.24,4.02-.96,7.15-2.16,9.38l-1.2-.86c1.32-2.65,1.98-5.8,1.98-9.45v-11.7c3.69-.42,6.65-1.18,8.87-2.27l.63,1.27Zm-2.34,12.21v-5.36h-5.75v5.36h5.75Zm14.86-3.25h-3.1v14.34h-1.34v-14.34h-4.9c0,3.84-.3,6.68-.93,8.53-.63,1.85-1.59,3.79-2.9,5.81l-1.15-.96c1.54-2.24,2.53-4.25,2.94-6.02,.42-1.77,.63-4.12,.63-7.05v-8.54c3.7-.18,6.93-.85,9.68-2l.75,1.27c-2.42,1.02-5.43,1.69-9.03,2.01v5.58h9.35v1.37Z" fill="#fff"/>
      </g>
      <line x1="1" x2="1" y2="106.71" fill="none" stroke="#aeffe0" stroke-miterlimit="10" stroke-width="2"/>
    </g>
  </g>
</svg>