<?xml version="1.0" encoding="UTF-8"?>
<svg id="_圖層_2" data-name="圖層 2" xmlns="http://www.w3.org/2000/svg" viewBox="0 0 399.87 19.98">
  <g id="_圖層_1-2" data-name="圖層 1">
    <g>
      <g>
        <path d="M123.57,18.29c.11,.25,.31,.42,.61,.51,.3,.09,.77,.14,1.41,.14h2.55c1.26,0,2.31-.38,3.14-1.12,.83-.75,1.38-1.77,1.67-3.04,0-.06,.05-.08,.17-.08,.11,.01,.17,.04,.17,.1-.18,1.76-.27,3.22-.27,4.38,0,.16-.04,.28-.1,.35-.07,.07-.19,.1-.35,.1h-13.98s-.06-.06-.06-.18,.02-.18,.06-.18c.72,0,1.25-.05,1.59-.15,.34-.1,.57-.29,.69-.59,.12-.29,.18-.73,.18-1.33V3.3c0-.6-.06-1.04-.18-1.32-.12-.28-.35-.47-.69-.58-.34-.11-.87-.17-1.59-.17-.04,0-.06-.06-.06-.18s.02-.18,.06-.18l1.5,.03c.88,.04,1.59,.06,2.13,.06s1.25-.02,2.13-.06l1.5-.03s.06,.06,.06,.18-.02,.18-.06,.18c-.72,0-1.25,.06-1.58,.17-.33,.11-.55,.31-.67,.6-.12,.29-.18,.73-.18,1.33v13.74c0,.56,.05,.96,.17,1.21Z" fill="#b3dccc"/>
        <path d="M141.6,18.54c.11,.28,.33,.47,.66,.57,.33,.1,.86,.15,1.6,.15,.04,0,.06,.06,.06,.18s-.02,.18-.06,.18c-.64,0-1.14,0-1.5-.03l-2.16-.03-2.1,.03c-.38,.02-.9,.03-1.56,.03-.04,0-.06-.06-.06-.18s.02-.18,.06-.18c.72,0,1.25-.05,1.59-.15,.34-.1,.57-.29,.7-.59,.13-.29,.2-.73,.2-1.33V3.3c0-.6-.07-1.04-.2-1.32-.13-.28-.36-.47-.7-.58-.34-.11-.87-.17-1.59-.17-.04,0-.06-.06-.06-.18s.02-.18,.06-.18l1.56,.03c.88,.04,1.58,.06,2.1,.06,.58,0,1.31-.02,2.19-.06l1.47-.03s.06,.06,.06,.18-.02,.18-.06,.18c-.72,0-1.25,.06-1.58,.18s-.55,.33-.67,.61c-.12,.29-.18,.74-.18,1.34v13.83c0,.62,.05,1.07,.17,1.35Z" fill="#b3dccc"/>
        <path d="M147.86,19.44c0-.12,.03-.18,.09-.18,.74,0,1.28-.05,1.62-.15,.34-.1,.57-.29,.71-.59,.13-.29,.19-.73,.19-1.33V3.3c0-.6-.06-1.04-.18-1.32-.12-.28-.34-.47-.67-.58-.33-.11-.86-.17-1.58-.17-.06,0-.09-.06-.09-.18s.03-.18,.09-.18h12.24c.2,0,.3,.09,.3,.27l.06,3.78c0,.06-.05,.1-.17,.1-.11,.01-.17-.01-.19-.07-.14-1.1-.53-1.94-1.17-2.52-.64-.58-1.48-.87-2.52-.87h-1.53c-.86,0-1.44,.12-1.75,.38-.31,.25-.46,.72-.46,1.4v13.74c0,.64,.08,1.1,.25,1.4s.5,.49,.98,.61c.48,.12,1.24,.18,2.28,.18,.04,0,.06,.06,.06,.18s-.02,.18-.06,.18c-.82,0-1.46,0-1.92-.03l-2.82-.03-2.1,.03c-.38,.02-.9,.03-1.56,.03-.06,0-.09-.06-.09-.18Zm10.14-8.26c-.52-.41-1.35-.62-2.49-.62h-3.81v-.69h3.9c1.08,0,1.88-.18,2.39-.54,.51-.36,.76-.9,.76-1.62,0-.04,.06-.06,.18-.06s.18,.02,.18,.06l-.03,2.52c0,.6,0,1.05,.03,1.35l.03,1.5s-.06,.06-.18,.06-.18-.02-.18-.06c0-.86-.26-1.49-.78-1.9Z" fill="#b3dccc"/>
        <path d="M164.84,19.44c0-.12,.03-.18,.09-.18,.72,0,1.25-.05,1.58-.15s.55-.29,.67-.59c.12-.29,.18-.73,.18-1.33V3.3c0-.6-.06-1.04-.18-1.32-.12-.28-.34-.47-.67-.58-.33-.11-.86-.17-1.58-.17-.06,0-.09-.06-.09-.18s.03-.18,.09-.18h12.24c.2,0,.3,.09,.3,.27l.06,3.78c0,.06-.05,.1-.17,.1-.11,.01-.17-.01-.19-.07-.14-1.1-.53-1.94-1.17-2.52-.64-.58-1.48-.87-2.52-.87h-1.53c-.88,0-1.47,.13-1.77,.39-.3,.26-.45,.75-.45,1.47v13.65c0,.72,.13,1.21,.41,1.47,.27,.26,.81,.39,1.63,.39h1.98c1.12,0,2.05-.33,2.8-1s1.26-1.62,1.54-2.87c0-.04,.04-.06,.12-.06,.06,0,.12,.02,.17,.04,.05,.03,.08,.06,.08,.08-.2,1.44-.3,2.79-.3,4.05,0,.16-.03,.28-.09,.35-.06,.07-.18,.1-.36,.1h-12.78c-.06,0-.09-.06-.09-.18Zm10.46-8.62c-.49-.41-1.27-.61-2.33-.61h-4.38v-.69h4.44c1.02,0,1.77-.17,2.25-.52,.48-.35,.72-.9,.72-1.64,0-.04,.05-.06,.17-.06s.17,.02,.17,.06l-.03,2.52,.03,1.35c.04,.64,.06,1.14,.06,1.5,0,.04-.06,.06-.18,.06s-.18-.02-.18-.06c0-.86-.25-1.5-.73-1.91Z" fill="#b3dccc"/>
        <path d="M195.08,6.23c.38,.57,.84,1.06,1.38,1.47,.54,.41,1.29,.9,2.25,1.48,1,.62,1.79,1.15,2.38,1.6s1.09,1,1.51,1.67,.63,1.44,.63,2.34c0,.98-.25,1.87-.76,2.66s-1.24,1.41-2.19,1.86c-.95,.45-2.05,.67-3.31,.67-.8,0-1.59-.1-2.37-.28-.78-.19-1.46-.47-2.04-.83-.1-.06-.17-.13-.21-.21-.04-.08-.06-.2-.06-.36l-.3-4.29c-.02-.08,.03-.13,.14-.15,.11-.02,.17,.01,.19,.09,.48,1.52,1.15,2.81,2.01,3.87,.86,1.06,1.98,1.59,3.36,1.59,.94,0,1.73-.25,2.37-.77,.64-.51,.96-1.34,.96-2.5,0-.88-.2-1.65-.6-2.31-.4-.66-.89-1.21-1.47-1.67-.58-.45-1.35-.96-2.31-1.54-.94-.6-1.69-1.11-2.24-1.54-.55-.43-1.01-.96-1.39-1.59-.38-.63-.57-1.37-.57-2.21,0-1.02,.27-1.89,.83-2.61,.55-.72,1.27-1.25,2.16-1.6,.89-.35,1.82-.52,2.8-.52,1.32,0,2.53,.23,3.63,.69,.3,.14,.45,.32,.45,.54l.15,3.75c0,.08-.06,.13-.17,.14-.11,.01-.18-.02-.2-.1-.22-1.08-.69-2.1-1.39-3.06-.71-.96-1.73-1.44-3.05-1.44-1,0-1.77,.3-2.32,.9-.55,.6-.83,1.36-.83,2.28,0,.76,.19,1.43,.57,2Z" fill="#b3dccc"/>
        <path d="M209.39,2.5c-.7,.69-1.22,1.8-1.56,3.32-.02,.04-.08,.06-.2,.06s-.17-.03-.17-.09c.08-.56,.17-1.47,.27-2.73,.1-1.26,.15-2.21,.15-2.85,0-.1,.06-.15,.18-.15s.18,.05,.18,.15c0,.44,.55,.66,1.65,.66,1.72,.06,3.73,.09,6.03,.09,1.18,0,2.43-.02,3.75-.06l2.04-.03c.74,0,1.28-.05,1.62-.15s.56-.3,.66-.6c.02-.08,.08-.12,.2-.12s.17,.04,.17,.12c-.06,.56-.12,1.46-.2,2.7s-.1,2.23-.1,2.97c0,.06-.06,.09-.17,.09s-.17-.03-.17-.09c-.14-1.54-.54-2.64-1.2-3.31-.66-.67-1.64-1-2.94-1-.74,0-1.27,.04-1.59,.13-.32,.09-.54,.26-.66,.51s-.18,.67-.18,1.25v13.83c0,.62,.06,1.07,.2,1.35,.13,.28,.38,.47,.76,.57s.99,.15,1.83,.15c.04,0,.06,.06,.06,.18s-.02,.18-.06,.18c-.7,0-1.25,0-1.65-.03l-2.37-.03-2.31,.03c-.4,.02-.96,.03-1.68,.03-.06,0-.09-.06-.09-.18s.03-.18,.09-.18c.82,0,1.42-.05,1.81-.15,.39-.1,.66-.29,.79-.59,.14-.29,.21-.73,.21-1.33V3.3c0-.56-.06-.96-.18-1.22-.12-.25-.34-.41-.67-.49s-.87-.12-1.61-.12c-1.24,0-2.21,.34-2.91,1.03Z" fill="#b3dccc"/>
        <path d="M228.54,1.79c-.49-.37-1.02-.56-1.58-.56-.06,0-.09-.06-.09-.18s.03-.18,.09-.18c.22,0,.57,.02,1.05,.06l.99,.03c.66,0,1.57-.02,2.73-.06l1.74-.03s.06,.06,.06,.18-.02,.18-.06,.18c-.96,0-1.44,.24-1.44,.72,0,.22,.12,.5,.36,.84l4.86,7.29-1.89,1.38-5.13-7.68c-.64-.96-1.21-1.62-1.69-2Zm8.86,8.27v7.14c0,.62,.05,1.07,.17,1.35,.11,.28,.33,.47,.66,.57s.86,.15,1.58,.15c.06,0,.09,.06,.09,.18s-.03,.18-.09,.18c-.62,0-1.11,0-1.47-.03l-2.16-.03-2.1,.03c-.36,.02-.87,.03-1.53,.03-.04,0-.06-.06-.06-.18s.02-.18,.06-.18c.72,0,1.25-.05,1.59-.15,.34-.1,.57-.29,.69-.59,.12-.29,.18-.73,.18-1.33v-6.87l2.4-.27Zm3.69-7.62c0-.8-.55-1.2-1.65-1.2-.04,0-.06-.06-.06-.18s.02-.18,.06-.18l1.47,.03c.8,.04,1.53,.06,2.19,.06,.34,0,.75-.02,1.23-.06l1.11-.03s.06,.06,.06,.18-.02,.18-.06,.18c-.7,0-1.44,.3-2.22,.9-.78,.6-1.48,1.4-2.1,2.4l-4.44,7.02-.57-.48,4.26-6.69c.48-.78,.72-1.43,.72-1.95Z" fill="#b3dccc"/>
        <path d="M252.78,18.29c.11,.25,.31,.42,.61,.51,.3,.09,.77,.14,1.41,.14h2.55c1.26,0,2.31-.38,3.14-1.12,.83-.75,1.38-1.77,1.67-3.04,0-.06,.05-.08,.17-.08,.11,.01,.17,.04,.17,.1-.18,1.76-.27,3.22-.27,4.38,0,.16-.04,.28-.1,.35-.07,.07-.19,.1-.35,.1h-13.98s-.06-.06-.06-.18,.02-.18,.06-.18c.72,0,1.25-.05,1.59-.15,.34-.1,.57-.29,.69-.59,.12-.29,.18-.73,.18-1.33V3.3c0-.6-.06-1.04-.18-1.32-.12-.28-.35-.47-.69-.58-.34-.11-.87-.17-1.59-.17-.04,0-.06-.06-.06-.18s.02-.18,.06-.18l1.5,.03c.88,.04,1.59,.06,2.13,.06s1.25-.02,2.13-.06l1.5-.03s.06,.06,.06,.18-.02,.18-.06,.18c-.72,0-1.25,.06-1.58,.17-.33,.11-.55,.31-.67,.6-.12,.29-.18,.73-.18,1.33v13.74c0,.56,.05,.96,.17,1.21Z" fill="#b3dccc"/>
        <path d="M265.61,19.44c0-.12,.03-.18,.09-.18,.72,0,1.25-.05,1.58-.15s.55-.29,.67-.59c.12-.29,.18-.73,.18-1.33V3.3c0-.6-.06-1.04-.18-1.32-.12-.28-.34-.47-.67-.58-.33-.11-.86-.17-1.58-.17-.06,0-.09-.06-.09-.18s.03-.18,.09-.18h12.24c.2,0,.3,.09,.3,.27l.06,3.78c0,.06-.05,.1-.17,.1-.11,.01-.17-.01-.19-.07-.14-1.1-.53-1.94-1.17-2.52-.64-.58-1.48-.87-2.52-.87h-1.53c-.88,0-1.47,.13-1.77,.39-.3,.26-.45,.75-.45,1.47v13.65c0,.72,.13,1.21,.41,1.47,.27,.26,.81,.39,1.63,.39h1.98c1.12,0,2.05-.33,2.8-1s1.26-1.62,1.54-2.87c0-.04,.04-.06,.12-.06,.06,0,.12,.02,.17,.04,.05,.03,.08,.06,.08,.08-.2,1.44-.3,2.79-.3,4.05,0,.16-.03,.28-.09,.35-.06,.07-.18,.1-.36,.1h-12.78c-.06,0-.09-.06-.09-.18Zm10.46-8.62c-.49-.41-1.27-.61-2.33-.61h-4.38v-.69h4.44c1.02,0,1.77-.17,2.25-.52,.48-.35,.72-.9,.72-1.64,0-.04,.05-.06,.17-.06s.17,.02,.17,.06l-.03,2.52,.03,1.35c.04,.64,.06,1.14,.06,1.5,0,.04-.06,.06-.18,.06s-.18-.02-.18-.06c0-.86-.25-1.5-.73-1.91Z" fill="#b3dccc"/>
      </g>
      <line y1="10.06" x2="92.52" y2="10.06" fill="none" stroke="#b3dccc" stroke-miterlimit="10"/>
      <line x1="92.52" y1=".25" x2="92.52" y2="19.87" fill="none" stroke="#b3dccc" stroke-miterlimit="10"/>
      <line x1="399.87" y1="10.06" x2="307.35" y2="10.06" fill="none" stroke="#b3dccc" stroke-miterlimit="10"/>
      <line x1="307.35" y1="19.87" x2="307.35" y2=".25" fill="none" stroke="#b3dccc" stroke-miterlimit="10"/>
    </g>
  </g>
</svg>