<?xml version="1.0" encoding="UTF-8"?>
<svg id="_圖層_2" data-name="圖層 2" xmlns="http://www.w3.org/2000/svg" viewBox="0 0 458.9 19.86">
  <g id="text">
    <g>
      <g>
        <path d="M125.14,18.42c-1.65-.87-2.91-2.05-3.78-3.54-.87-1.49-1.31-3.14-1.31-4.94,0-1.92,.5-3.61,1.49-5.07,.99-1.46,2.35-2.59,4.08-3.39,1.73-.8,3.67-1.2,5.83-1.2,1.02,0,2,.1,2.94,.29,.94,.19,1.72,.45,2.34,.77,.16,.08,.25,.15,.28,.21,.03,.06,.06,.22,.08,.48l.39,3.72c0,.06-.06,.1-.17,.12-.11,.02-.18,0-.2-.09-.42-1.4-1.17-2.58-2.24-3.53-1.07-.95-2.46-1.42-4.18-1.42-1.5,0-2.85,.35-4.05,1.05-1.2,.7-2.15,1.71-2.83,3.02-.69,1.31-1.04,2.83-1.04,4.58s.35,3.38,1.05,4.88,1.72,2.68,3.08,3.58c1.35,.9,2.96,1.35,4.81,1.35,1.36,0,2.31-.26,2.85-.79,.54-.53,.81-1.49,.81-2.87,0-1.04-.07-1.76-.19-2.17-.13-.41-.41-.68-.84-.83-.43-.14-1.18-.21-2.26-.21-.12,0-.18-.08-.18-.24,0-.06,.01-.11,.04-.17,.03-.05,.06-.07,.1-.07,1.6,.1,2.9,.15,3.9,.15s1.99-.03,3.03-.09c.04,0,.07,.03,.1,.08s.04,.09,.04,.13c0,.14-.05,.21-.15,.21-.46-.02-.78,.04-.96,.2-.18,.15-.3,.46-.35,.92s-.08,1.26-.08,2.4c0,.9,.04,1.54,.11,1.92s.11,.62,.11,.72c0,.12-.02,.2-.06,.24s-.13,.08-.27,.12c-2.52,.54-4.7,.81-6.54,.81-2.22,0-4.16-.44-5.81-1.3Z" fill="#aeffe0"/>
        <path d="M147.67,18.42c-1.45-.87-2.57-2.05-3.36-3.54-.79-1.49-1.19-3.12-1.19-4.88,0-2.06,.52-3.83,1.56-5.29,1.04-1.47,2.37-2.58,4-3.32,1.63-.74,3.29-1.11,5-1.11,1.9,0,3.57,.45,5.01,1.33,1.44,.89,2.54,2.07,3.32,3.53,.77,1.46,1.15,3.01,1.15,4.65,0,1.82-.48,3.49-1.44,5.01s-2.25,2.72-3.86,3.6c-1.61,.88-3.36,1.32-5.23,1.32s-3.52-.44-4.97-1.3Zm9.47-.35c1.02-.66,1.82-1.62,2.41-2.89s.89-2.79,.89-4.54c0-1.86-.33-3.52-.98-4.98-.65-1.46-1.58-2.6-2.79-3.42-1.21-.82-2.62-1.23-4.21-1.23-2.08,0-3.7,.71-4.86,2.11-1.16,1.41-1.74,3.36-1.74,5.83,0,1.9,.33,3.62,.99,5.16,.66,1.54,1.58,2.75,2.77,3.63,1.19,.88,2.54,1.32,4.07,1.32,1.28,0,2.43-.33,3.45-.99Z" fill="#aeffe0"/>
        <path d="M172.12,18.03c.11,.25,.31,.42,.61,.51,.3,.09,.77,.14,1.41,.14h2.55c1.26,0,2.31-.38,3.14-1.12,.83-.75,1.38-1.77,1.67-3.04,0-.06,.05-.08,.17-.08,.11,0,.17,.04,.17,.1-.18,1.76-.27,3.22-.27,4.38,0,.16-.04,.28-.1,.35-.07,.07-.19,.1-.35,.1h-13.98s-.06-.06-.06-.18,.02-.18,.06-.18c.72,0,1.25-.05,1.59-.15,.34-.1,.57-.29,.69-.58,.12-.29,.18-.74,.18-1.33V3.05c0-.6-.06-1.04-.18-1.32-.12-.28-.35-.47-.69-.58-.34-.11-.87-.17-1.59-.17-.04,0-.06-.06-.06-.18s.02-.18,.06-.18l1.5,.03c.88,.04,1.59,.06,2.13,.06s1.25-.02,2.13-.06l1.5-.03s.06,.06,.06,.18-.02,.18-.06,.18c-.72,0-1.25,.06-1.58,.17-.33,.11-.55,.31-.67,.6-.12,.29-.18,.74-.18,1.33v13.74c0,.56,.05,.96,.17,1.21Z" fill="#aeffe0"/>
        <path d="M190.95,19.4c-.3-.02-.67-.04-1.09-.06-.43-.02-.92-.03-1.46-.03l-2.1,.03c-.38,.02-.9,.03-1.56,.03-.04,0-.06-.06-.06-.18s.02-.18,.06-.18c.72,0,1.25-.05,1.59-.15,.34-.1,.57-.29,.71-.58,.13-.29,.2-.74,.2-1.33V3.05c0-.6-.06-1.04-.18-1.32s-.34-.47-.67-.58c-.33-.11-.86-.17-1.58-.17-.06,0-.09-.06-.09-.18s.03-.18,.09-.18l1.5,.03c.88,.04,1.58,.06,2.1,.06,.74,0,1.5-.03,2.28-.09,.96-.04,1.61-.06,1.95-.06,2.06,0,3.89,.4,5.49,1.2,1.6,.8,2.84,1.89,3.72,3.27s1.32,2.93,1.32,4.65c0,1.94-.46,3.66-1.37,5.14-.91,1.49-2.14,2.64-3.69,3.45-1.55,.81-3.24,1.21-5.06,1.21-.62,0-1.32-.03-2.1-.09Zm5.79-1.46c1.16-.67,2.06-1.65,2.71-2.94,.65-1.29,.97-2.84,.97-4.66s-.31-3.32-.93-4.73-1.5-2.52-2.62-3.33c-1.13-.81-2.45-1.21-3.95-1.21-.86,0-1.52,.05-1.98,.15-.46,.1-.8,.29-1.02,.58s-.33,.72-.33,1.3v13.5c0,.58,.08,1.04,.26,1.37,.17,.33,.48,.58,.93,.73,.45,.16,1.1,.24,1.96,.24,1.5,0,2.83-.33,3.99-1Z" fill="#aeffe0"/>
        <path d="M207.33,19.19c0-.12,.03-.18,.09-.18,.72,0,1.25-.05,1.58-.15,.33-.1,.55-.29,.67-.58s.18-.74,.18-1.33V3.05c0-.6-.06-1.04-.18-1.32s-.34-.47-.67-.58c-.33-.11-.86-.17-1.58-.17-.06,0-.09-.06-.09-.18s.03-.18,.09-.18h12.24c.2,0,.3,.09,.3,.27l.06,3.78c0,.06-.05,.1-.17,.11-.11,.01-.17-.01-.19-.08-.14-1.1-.53-1.94-1.17-2.52-.64-.58-1.48-.87-2.52-.87h-1.53c-.88,0-1.47,.13-1.77,.39-.3,.26-.45,.75-.45,1.47v13.65c0,.72,.13,1.21,.41,1.47,.27,.26,.81,.39,1.63,.39h1.98c1.12,0,2.05-.33,2.8-1s1.26-1.62,1.54-2.87c0-.04,.04-.06,.12-.06,.06,0,.12,.02,.17,.04,.05,.03,.08,.06,.08,.08-.2,1.44-.3,2.79-.3,4.05,0,.16-.03,.28-.09,.35-.06,.07-.18,.1-.36,.1h-12.78c-.06,0-.09-.06-.09-.18Zm10.46-8.62c-.49-.41-1.27-.62-2.33-.62h-4.38v-.69h4.44c1.02,0,1.77-.17,2.25-.53,.48-.35,.72-.89,.72-1.63,0-.04,.05-.06,.17-.06s.17,.02,.17,.06l-.03,2.52,.03,1.35c.04,.64,.06,1.14,.06,1.5,0,.04-.06,.06-.18,.06s-.18-.02-.18-.06c0-.86-.25-1.5-.73-1.91Z" fill="#aeffe0"/>
        <path d="M242.59,19.85c-.09,.02-.16,0-.2-.03l-14.13-16.74c-.66-.78-1.25-1.32-1.77-1.63-.52-.31-1.04-.46-1.56-.46-.04,0-.06-.06-.06-.18s.02-.18,.06-.18l1.17,.03c.24,.02,.58,.03,1.02,.03l1.53-.03c.2-.02,.43-.03,.69-.03,.16,0,.28,.04,.36,.12,.08,.08,.2,.24,.36,.48l.72,.96,11.7,14.1,.24,3.48s-.04,.07-.13,.09ZM227.55,1.31l.78,.06V15.95c0,1.04,.19,1.81,.58,2.31,.39,.5,.98,.75,1.78,.75,.04,0,.06,.06,.06,.18s-.02,.18-.06,.18c-.52,0-.92,0-1.2-.03l-1.53-.03-1.62,.03c-.3,.02-.74,.03-1.32,.03-.04,0-.06-.06-.06-.18s.02-.18,.06-.18c.86,0,1.5-.25,1.91-.75s.62-1.27,.62-2.31V1.31Zm15.18,18.45l-.75-.93V4.07c0-1.04-.19-1.82-.57-2.33s-.97-.76-1.77-.76c-.04,0-.06-.06-.06-.18s.02-.18,.06-.18l1.2,.03c.6,.04,1.11,.06,1.53,.06,.36,0,.88-.02,1.56-.06l1.26-.03s.06,.06,.06,.18-.02,.18-.06,.18c-1.64,0-2.46,1.03-2.46,3.09v15.69Z" fill="#aeffe0"/>
        <path d="M277.08,19.19c0,.12-.05,.18-.15,.18-.38,0-.97-.02-1.77-.06-.84-.04-1.44-.06-1.8-.06-.46,0-1.03,.02-1.71,.06s-1.19,.06-1.53,.06c-.08,0-.12-.06-.12-.18s.04-.18,.12-.18c.68,0,1.17-.07,1.47-.2s.45-.37,.45-.71-.15-.81-.45-1.41l-6.45-13.41,.96-1.44-5.85,13.56c-.28,.68-.42,1.24-.42,1.68,0,.64,.25,1.12,.75,1.44,.5,.32,1.22,.48,2.16,.48,.1,0,.15,.06,.15,.18s-.05,.18-.15,.18c-.36,0-.88-.02-1.56-.06-.76-.04-1.42-.06-1.98-.06-.52,0-1.14,.02-1.86,.06-.64,.04-1.16,.06-1.56,.06-.08,0-.12-.06-.12-.18s.04-.18,.12-.18c.56,0,1.04-.11,1.42-.33,.39-.22,.77-.6,1.12-1.14,.36-.54,.77-1.34,1.23-2.4l6.39-14.73c.02-.06,.09-.09,.21-.1,.12,0,.19,.03,.21,.1l7.2,14.85c.7,1.46,1.29,2.45,1.75,2.97,.47,.52,1,.78,1.61,.78,.1,0,.15,.06,.15,.18Zm-15.3-8.31h8.16l.21,.66h-8.73l.36-.66Z" fill="#aeffe0"/>
        <path d="M291.51,1.58c.9,.7,1.35,1.65,1.35,2.85,0,1.08-.32,2.07-.95,2.96s-1.46,1.59-2.5,2.1-2.15,.76-3.33,.76c-.42,0-.91-.02-1.47-.06v6.75c0,.6,.06,1.04,.18,1.33s.34,.49,.67,.58c.33,.1,.86,.15,1.58,.15,.06,0,.09,.06,.09,.18s-.03,.18-.09,.18c-.62,0-1.11,0-1.47-.03l-2.16-.03-2.1,.03c-.38,.02-.89,.03-1.53,.03-.06,0-.09-.06-.09-.18s.03-.18,.09-.18c.72,0,1.25-.05,1.59-.15,.34-.1,.57-.29,.69-.58s.18-.74,.18-1.33V3.05c0-.6-.06-1.04-.18-1.32s-.35-.47-.68-.58c-.33-.11-.85-.17-1.57-.17-.04,0-.06-.06-.06-.18s.02-.18,.06-.18l1.5,.03c.88,.04,1.58,.06,2.1,.06,.42,0,.82,0,1.2-.03s.71-.04,.99-.06c.76-.06,1.45-.09,2.07-.09,1.66,0,2.94,.35,3.84,1.05Zm-2.04,.44c-.62-.65-1.53-.98-2.73-.98-.78,0-1.33,.15-1.65,.44-.32,.29-.48,.83-.48,1.63v6.33c.58,.06,1.17,.09,1.77,.09,1.44,0,2.47-.33,3.09-1,.62-.67,.93-1.71,.93-3.13,0-1.6-.31-2.73-.93-3.38Zm2.65,14.83c-1.35-1.68-2.98-4.03-4.9-7.05l2.01-.63c1.7,2.5,3.13,4.45,4.29,5.85,1.16,1.4,2.18,2.42,3.08,3.04,.89,.63,1.75,.95,2.59,.95,.06,0,.09,.06,.09,.18s-.03,.18-.09,.18h-4.29c-.5,0-1.42-.84-2.78-2.52Z" fill="#aeffe0"/>
        <path d="M301.62,19.19c0-.12,.03-.18,.09-.18,.72,0,1.25-.05,1.58-.15,.33-.1,.55-.29,.67-.58s.18-.74,.18-1.33V3.05c0-.6-.06-1.04-.18-1.32s-.34-.47-.67-.58c-.33-.11-.86-.17-1.58-.17-.06,0-.09-.06-.09-.18s.03-.18,.09-.18h12.24c.2,0,.3,.09,.3,.27l.06,3.78c0,.06-.05,.1-.17,.11-.11,.01-.17-.01-.19-.08-.14-1.1-.53-1.94-1.17-2.52-.64-.58-1.48-.87-2.52-.87h-1.53c-.88,0-1.47,.13-1.77,.39-.3,.26-.45,.75-.45,1.47v13.65c0,.72,.13,1.21,.41,1.47,.27,.26,.81,.39,1.63,.39h1.98c1.12,0,2.05-.33,2.8-1s1.26-1.62,1.54-2.87c0-.04,.04-.06,.12-.06,.06,0,.12,.02,.17,.04,.05,.03,.08,.06,.08,.08-.2,1.44-.3,2.79-.3,4.05,0,.16-.03,.28-.09,.35-.06,.07-.18,.1-.36,.1h-12.78c-.06,0-.09-.06-.09-.18Zm10.46-8.62c-.49-.41-1.27-.62-2.33-.62h-4.38v-.69h4.44c1.02,0,1.77-.17,2.25-.53,.48-.35,.72-.89,.72-1.63,0-.04,.05-.06,.17-.06s.17,.02,.17,.06l-.03,2.52,.03,1.35c.04,.64,.06,1.14,.06,1.5,0,.04-.06,.06-.18,.06s-.18-.02-.18-.06c0-.86-.25-1.5-.73-1.91Z" fill="#aeffe0"/>
        <path d="M339.45,19.19c0,.12-.05,.18-.15,.18-.38,0-.97-.02-1.77-.06-.84-.04-1.44-.06-1.8-.06-.46,0-1.03,.02-1.71,.06s-1.19,.06-1.53,.06c-.08,0-.12-.06-.12-.18s.04-.18,.12-.18c.68,0,1.17-.07,1.47-.2s.45-.37,.45-.71-.15-.81-.45-1.41l-6.45-13.41,.96-1.44-5.85,13.56c-.28,.68-.42,1.24-.42,1.68,0,.64,.25,1.12,.75,1.44,.5,.32,1.22,.48,2.16,.48,.1,0,.15,.06,.15,.18s-.05,.18-.15,.18c-.36,0-.88-.02-1.56-.06-.76-.04-1.42-.06-1.98-.06-.52,0-1.14,.02-1.86,.06-.64,.04-1.16,.06-1.56,.06-.08,0-.12-.06-.12-.18s.04-.18,.12-.18c.56,0,1.04-.11,1.42-.33,.39-.22,.77-.6,1.12-1.14,.36-.54,.77-1.34,1.23-2.4l6.39-14.73c.02-.06,.09-.09,.21-.1,.12,0,.19,.03,.21,.1l7.2,14.85c.7,1.46,1.29,2.45,1.75,2.97,.47,.52,1,.78,1.61,.78,.1,0,.15,.06,.15,.18Zm-15.3-8.31h8.16l.21,.66h-8.73l.36-.66Z" fill="#aeffe0"/>
      </g>
      <g>
        <line y1="9.81" x2="92.52" y2="9.81" fill="none" stroke="#aeffe0" stroke-miterlimit="10"/>
        <line x1="92.52" x2="92.52" y2="19.62" fill="none" stroke="#aeffe0" stroke-miterlimit="10"/>
      </g>
      <g>
        <line x1="458.9" y1="9.81" x2="366.39" y2="9.81" fill="none" stroke="#aeffe0" stroke-miterlimit="10"/>
        <line x1="366.39" y1="19.62" x2="366.39" fill="none" stroke="#aeffe0" stroke-miterlimit="10"/>
      </g>
    </g>
  </g>
</svg>