<?xml version="1.0" encoding="UTF-8"?>
<svg id="_圖層_2" data-name="圖層 2" xmlns="http://www.w3.org/2000/svg" viewBox="0 0 24.7 35.55">
  <g id="contant">
    <path d="M16.55,17.9c.77-.83,1.42-1.66,1.98-2.48,.55-.82,.97-1.65,1.25-2.5,.28-.85,.42-1.74,.42-2.67,0-.77-.15-1.52-.45-2.25-.3-.73-.74-1.4-1.33-2-.58-.6-1.29-1.08-2.12-1.45-.83-.37-1.78-.55-2.85-.55-1.5,0-2.79,.34-3.88,1.02-1.08,.68-1.91,1.67-2.48,2.95-.57,1.28-.85,2.81-.85,4.58H2c0-2.5,.45-4.69,1.35-6.58,.9-1.88,2.21-3.35,3.93-4.4,1.72-1.05,3.77-1.57,6.17-1.57,1.93,0,3.6,.32,5,.97,1.4,.65,2.55,1.48,3.45,2.5,.9,1.02,1.57,2.11,2,3.28,.43,1.17,.65,2.28,.65,3.35,0,1.8-.43,3.58-1.3,5.35-.87,1.77-1.98,3.35-3.35,4.75l-11.15,11.35h15.95v4H0L16.55,17.9Z" fill="#fff"/>
  </g>
</svg>