<?xml version="1.0" encoding="UTF-8"?>
<svg id="_圖層_2" data-name="圖層 2" xmlns="http://www.w3.org/2000/svg" viewBox="0 0 22.05 36">
  <g id="contant">
    <path d="M6.55,35.25c-1.37-.5-2.53-1.19-3.5-2.08-.97-.88-1.72-1.92-2.25-3.1-.53-1.18-.8-2.46-.8-3.83H4.3c0,1.1,.29,2.08,.88,2.95,.58,.87,1.39,1.55,2.42,2.05s2.22,.75,3.55,.75,2.49-.26,3.47-.77c.98-.52,1.74-1.24,2.28-2.18,.53-.93,.8-2.03,.8-3.3,0-1.07-.21-2.01-.62-2.83-.42-.82-.99-1.5-1.73-2.05s-1.58-.96-2.55-1.23c-.97-.27-2.02-.4-3.15-.4v-2.75c1.7,0,3.29,.18,4.77,.55,1.48,.37,2.8,.94,3.95,1.73,1.15,.78,2.05,1.79,2.7,3.02,.65,1.23,.97,2.72,.97,4.45,0,1.97-.47,3.68-1.42,5.15-.95,1.47-2.24,2.6-3.88,3.4-1.63,.8-3.5,1.2-5.6,1.2-1.7,0-3.23-.25-4.6-.75Zm3.1-19.75c1.13,0,2.13-.16,3-.48,.87-.32,1.6-.75,2.2-1.3,.6-.55,1.06-1.19,1.38-1.93,.32-.73,.48-1.52,.48-2.35,0-1.1-.2-2.08-.6-2.93-.4-.85-.99-1.51-1.77-1.98-.78-.47-1.76-.7-2.92-.7-1.63,0-3.02,.51-4.15,1.52-1.13,1.02-1.7,2.29-1.7,3.83H1.5c0-1.83,.42-3.43,1.28-4.8,.85-1.37,2.02-2.44,3.5-3.23,1.48-.78,3.17-1.17,5.07-1.17,2,0,3.73,.43,5.18,1.3,1.45,.87,2.57,2,3.35,3.4,.78,1.4,1.17,2.93,1.17,4.6s-.48,3.13-1.45,4.5c-.97,1.37-2.3,2.45-4,3.25-1.7,.8-3.68,1.2-5.95,1.2v-2.75Z" fill="#fff"/>
  </g>
</svg>