<?xml version="1.0" encoding="UTF-8"?>
<svg id="_圖層_2" data-name="圖層 2" xmlns="http://www.w3.org/2000/svg" viewBox="0 0 24.7 35.5">
  <g id="contant">
    <path d="M23.75,28.75c-.63,1.5-1.52,2.75-2.65,3.75s-2.43,1.75-3.9,2.25c-1.47,.5-3.05,.75-4.75,.75-2.13,0-3.99-.33-5.58-1-1.58-.67-2.93-1.56-4.05-2.67-1.12-1.12-2.06-2.34-2.83-3.68l3.6-2.45c.53,1,1.24,1.94,2.12,2.82,.88,.88,1.91,1.6,3.08,2.15,1.17,.55,2.38,.83,3.65,.83,1.67,0,3.08-.33,4.25-1,1.17-.67,2.06-1.6,2.67-2.8,.62-1.2,.92-2.6,.92-4.2s-.34-3-1.02-4.2c-.68-1.2-1.62-2.13-2.8-2.8-1.18-.67-2.52-1-4.02-1-1.1,0-2.11,.09-3.03,.27-.92,.18-1.83,.5-2.75,.95-.92,.45-1.97,1.09-3.17,1.92L8.1,0H24.6V3.75H11.4l-2.35,9.25c.83-.43,1.69-.76,2.58-.98,.88-.22,1.76-.32,2.62-.32,2,0,3.79,.5,5.38,1.5,1.58,1,2.83,2.38,3.72,4.15,.9,1.77,1.35,3.82,1.35,6.15,0,2-.32,3.75-.95,5.25Z" fill="#fff"/>
  </g>
</svg>