<?xml version="1.0" encoding="UTF-8"?>
<svg id="_圖層_2" data-name="圖層 2" xmlns="http://www.w3.org/2000/svg" viewBox="0 0 23.8 35.5">
  <g id="contant">
    <path d="M4.45,35.5l10.95-14.45,.3,.25c-.67,.83-1.44,1.38-2.33,1.65-.88,.27-1.89,.4-3.03,.4-1.43,0-2.77-.28-4.02-.85-1.25-.57-2.35-1.37-3.3-2.4-.95-1.03-1.69-2.24-2.23-3.62-.53-1.38-.8-2.88-.8-4.47,0-2.4,.53-4.5,1.58-6.3,1.05-1.8,2.47-3.2,4.27-4.2,1.8-1,3.82-1.5,6.05-1.5s4.29,.5,6.07,1.5,3.2,2.4,4.25,4.2c1.05,1.8,1.58,3.9,1.58,6.3,0,1.43-.2,2.77-.6,4-.4,1.23-.93,2.32-1.6,3.25l-11.8,16.25H4.45ZM18.72,7.77c-.68-1.22-1.62-2.17-2.8-2.88-1.18-.7-2.52-1.05-4.02-1.05s-2.84,.35-4.03,1.05c-1.18,.7-2.12,1.66-2.8,2.88-.68,1.22-1.03,2.62-1.03,4.23s.34,3.02,1.03,4.25c.68,1.23,1.62,2.21,2.8,2.92,1.18,.72,2.53,1.08,4.03,1.08s2.84-.36,4.02-1.08c1.18-.72,2.12-1.69,2.8-2.92s1.03-2.65,1.03-4.25-.34-3.01-1.03-4.23Z" fill="#fff"/>
  </g>
</svg>