<?xml version="1.0" encoding="UTF-8"?>
<svg id="_圖層_2" data-name="圖層 2" xmlns="http://www.w3.org/2000/svg" xmlns:xlink="http://www.w3.org/1999/xlink" viewBox="0 0 51.72 22.79">
  <defs>
    <filter id="drop-shadow-1" filterUnits="userSpaceOnUse">
      <feOffset dx="0" dy="0"/>
      <feGaussianBlur result="blur" stdDeviation="3"/>
      <feFlood flood-color="#2b63af" flood-opacity=".3"/>
      <feComposite in2="blur" operator="in"/>
      <feComposite in="SourceGraphic"/>
    </filter>
  </defs>
  <g id="contant">
    <g filter="url(#drop-shadow-1)">
      <path d="M12.26,13.77c-.3,1.62-.92,3.1-2.02,4.37,3.32,1.6,7.82,2.22,12.74,2.38v.3c-.88,.25-1.42,.9-1.6,1.85-4.97-.5-9.07-1.5-12.06-3.62-1.85,1.6-4.75,2.87-9.14,3.75l-.17-.4c4-1.25,6.54-2.62,8.12-4.32-.92-.85-1.75-1.85-2.4-3.05l.35-.3c.7,1.02,1.62,1.87,2.7,2.57,.77-1.03,1.22-2.2,1.47-3.52H5.47v.8c0,.2-.82,.65-1.65,.65h-.33V4.42l2.12,.9h4.9V2.42H.6l-.23-.7H18.66l1.4-1.72s1.6,1.2,2.55,2.02c-.03,.28-.3,.4-.65,.4H12.54v2.9h4.95l1.02-1.12,2.25,1.7c-.15,.2-.52,.42-1.02,.52V14.5c-.02,.15-1.02,.57-1.7,.57h-.33v-1.3h-5.45ZM5.47,6.05v3.1h5.05v-3.1H5.47Zm4.9,7c.1-.8,.15-1.67,.15-2.6v-.6H5.47v3.2h4.9Zm7.34,0v-3.2h-5.17v.52c0,.93-.05,1.82-.15,2.67h5.32Zm-5.17-7v3.1h5.17v-3.1h-5.17Z" fill="#fff"/>
      <path d="M49.08,18.92s1.67,1.22,2.65,2.12c-.08,.27-.3,.4-.65,.4H28.87l-.2-.72h3.77V7.92l3.02,.3c-.07,.35-.3,.6-.92,.7v11.8h4.82V2.7h-9.44l-.2-.7h17.04l1.45-1.8s1.62,1.25,2.62,2.1c-.08,.27-.32,.4-.67,.4h-8.67v8h4.3l1.37-1.75s1.57,1.2,2.55,2.07c-.07,.28-.35,.4-.7,.4h-7.52v9.3h6.17l1.42-1.8Z" fill="#fff"/>
    </g>
  </g>
</svg>