<?xml version="1.0" encoding="UTF-8"?>
<svg id="_圖層_2" data-name="圖層 2" xmlns="http://www.w3.org/2000/svg" viewBox="0 0 434.85 19.98">
  <g id="contant">
    <g>
      <g>
        <path d="M114.28,6.23c.38,.57,.84,1.06,1.38,1.47,.54,.41,1.29,.91,2.25,1.49,1,.62,1.79,1.15,2.38,1.6s1.09,1,1.51,1.67,.63,1.44,.63,2.34c0,.98-.25,1.87-.76,2.66s-1.24,1.41-2.19,1.86c-.95,.45-2.05,.67-3.31,.67-.8,0-1.59-.1-2.37-.29s-1.46-.46-2.04-.83c-.1-.06-.17-.13-.21-.21-.04-.08-.06-.2-.06-.36l-.3-4.29c-.02-.08,.03-.13,.14-.15,.11-.02,.17,.01,.19,.09,.48,1.52,1.15,2.81,2.01,3.87,.86,1.06,1.98,1.59,3.36,1.59,.94,0,1.73-.25,2.37-.76,.64-.51,.96-1.34,.96-2.5,0-.88-.2-1.65-.6-2.31-.4-.66-.89-1.21-1.47-1.67-.58-.45-1.35-.96-2.31-1.54-.94-.6-1.69-1.11-2.24-1.54-.55-.43-1.01-.96-1.39-1.59s-.57-1.37-.57-2.21c0-1.02,.27-1.89,.83-2.61,.55-.72,1.27-1.25,2.16-1.6,.89-.35,1.82-.53,2.8-.53,1.32,0,2.53,.23,3.63,.69,.3,.14,.45,.32,.45,.54l.15,3.75c0,.08-.06,.12-.17,.13-.11,.01-.18-.02-.2-.1-.22-1.08-.69-2.1-1.39-3.06-.71-.96-1.73-1.44-3.05-1.44-1,0-1.77,.3-2.32,.9-.55,.6-.83,1.36-.83,2.28,0,.76,.19,1.42,.57,2Z" fill="#b3dccd"/>
        <path d="M131.8,18.47c.16,.29,.46,.49,.92,.61s1.17,.18,2.17,.18c.06,0,.09,.06,.09,.18s-.03,.18-.09,.18c-.82,0-1.46,0-1.92-.03l-2.61-.03-2.07,.03c-.38,.02-.89,.03-1.53,.03-.06,0-.09-.06-.09-.18s.03-.18,.09-.18c.72,0,1.24-.05,1.56-.15,.32-.1,.54-.29,.66-.58s.18-.74,.18-1.33V3.3c0-.6-.06-1.04-.18-1.32s-.34-.47-.67-.58c-.33-.11-.85-.17-1.54-.17-.06,0-.09-.06-.09-.18s.03-.18,.09-.18l1.5,.03c.88,.04,1.57,.06,2.07,.06s1.05-.03,1.71-.09c.24,0,.61-.01,1.12-.04,.51-.03,.95-.04,1.33-.04,1.88,0,3.39,.42,4.53,1.25,1.14,.83,1.71,2.08,1.71,3.76,0,1.3-.33,2.4-.97,3.3-.65,.9-1.48,1.57-2.49,2.01s-2.05,.66-3.13,.66c-.58,0-1.06-.05-1.44-.15-.06,0-.09-.05-.09-.15,0-.06,.02-.12,.04-.18,.03-.06,.07-.08,.11-.06,.32,.08,.67,.12,1.05,.12,1.2,0,2.21-.43,3.03-1.29,.82-.86,1.23-2.1,1.23-3.72s-.4-2.81-1.2-3.71c-.8-.89-1.86-1.33-3.18-1.33-.62,0-1.07,.04-1.35,.14-.28,.09-.48,.28-.6,.57-.12,.29-.18,.75-.18,1.37v13.71c0,.64,.08,1.11,.24,1.4Z" fill="#b3dccd"/>
        <path d="M156.46,1.83c.9,.7,1.35,1.65,1.35,2.85,0,1.08-.32,2.07-.95,2.96s-1.46,1.59-2.5,2.1-2.15,.76-3.33,.76c-.42,0-.91-.02-1.47-.06v6.75c0,.6,.06,1.04,.18,1.33s.34,.49,.67,.58c.33,.1,.86,.15,1.58,.15,.06,0,.09,.06,.09,.18s-.03,.18-.09,.18c-.62,0-1.11,0-1.47-.03l-2.16-.03-2.1,.03c-.38,.02-.89,.03-1.53,.03-.06,0-.09-.06-.09-.18s.03-.18,.09-.18c.72,0,1.25-.05,1.59-.15,.34-.1,.57-.29,.69-.58s.18-.74,.18-1.33V3.3c0-.6-.06-1.04-.18-1.32s-.35-.47-.68-.58c-.33-.11-.85-.17-1.57-.17-.04,0-.06-.06-.06-.18s.02-.18,.06-.18l1.5,.03c.88,.04,1.58,.06,2.1,.06,.42,0,.82,0,1.2-.03s.71-.04,.99-.06c.76-.06,1.45-.09,2.07-.09,1.66,0,2.94,.35,3.84,1.05Zm-2.04,.44c-.62-.65-1.53-.98-2.73-.98-.78,0-1.33,.15-1.65,.44-.32,.29-.48,.83-.48,1.63v6.33c.58,.06,1.17,.09,1.77,.09,1.44,0,2.47-.33,3.09-1,.62-.67,.93-1.71,.93-3.13,0-1.6-.31-2.73-.93-3.38Zm2.65,14.83c-1.35-1.68-2.98-4.03-4.9-7.05l2.01-.63c1.7,2.5,3.13,4.45,4.29,5.85,1.16,1.4,2.18,2.42,3.08,3.04,.89,.63,1.75,.95,2.59,.95,.06,0,.09,.06,.09,.18s-.03,.18-.09,.18h-4.29c-.5,0-1.42-.84-2.78-2.52Z" fill="#b3dccd"/>
        <path d="M166.57,19.44c0-.12,.03-.18,.09-.18,.72,0,1.25-.05,1.58-.15,.33-.1,.55-.29,.67-.58s.18-.74,.18-1.33V3.3c0-.6-.06-1.04-.18-1.32s-.34-.47-.67-.58c-.33-.11-.86-.17-1.58-.17-.06,0-.09-.06-.09-.18s.03-.18,.09-.18h12.24c.2,0,.3,.09,.3,.27l.06,3.78c0,.06-.05,.1-.17,.11-.11,.01-.17-.01-.19-.08-.14-1.1-.53-1.94-1.17-2.52-.64-.58-1.48-.87-2.52-.87h-1.53c-.88,0-1.47,.13-1.77,.39-.3,.26-.45,.75-.45,1.47v13.65c0,.72,.13,1.21,.41,1.47,.27,.26,.81,.39,1.63,.39h1.98c1.12,0,2.05-.33,2.8-1s1.26-1.62,1.54-2.87c0-.04,.04-.06,.12-.06,.06,0,.12,.02,.17,.04,.05,.03,.08,.06,.08,.08-.2,1.44-.3,2.79-.3,4.05,0,.16-.03,.28-.09,.35-.06,.07-.18,.1-.36,.1h-12.78c-.06,0-.09-.06-.09-.18Zm10.46-8.62c-.49-.41-1.27-.62-2.33-.62h-4.38v-.69h4.44c1.02,0,1.77-.17,2.25-.53,.48-.35,.72-.89,.72-1.63,0-.04,.05-.06,.17-.06s.17,.02,.17,.06l-.03,2.52,.03,1.35c.04,.64,.06,1.14,.06,1.5,0,.04-.06,.06-.18,.06s-.18-.02-.18-.06c0-.86-.25-1.5-.73-1.91Z" fill="#b3dccd"/>
        <path d="M204.4,19.44c0,.12-.05,.18-.15,.18-.38,0-.97-.02-1.77-.06-.84-.04-1.44-.06-1.8-.06-.46,0-1.03,.02-1.71,.06s-1.19,.06-1.53,.06c-.08,0-.12-.06-.12-.18s.04-.18,.12-.18c.68,0,1.17-.07,1.47-.2s.45-.37,.45-.71-.15-.81-.45-1.41l-6.45-13.41,.96-1.44-5.85,13.56c-.28,.68-.42,1.24-.42,1.68,0,.64,.25,1.12,.75,1.44,.5,.32,1.22,.48,2.16,.48,.1,0,.15,.06,.15,.18s-.05,.18-.15,.18c-.36,0-.88-.02-1.56-.06-.76-.04-1.42-.06-1.98-.06-.52,0-1.14,.02-1.86,.06-.64,.04-1.16,.06-1.56,.06-.08,0-.12-.06-.12-.18s.04-.18,.12-.18c.56,0,1.04-.11,1.42-.33,.39-.22,.77-.6,1.12-1.14,.36-.54,.77-1.34,1.23-2.4l6.39-14.73c.02-.06,.09-.09,.21-.1,.12,0,.19,.03,.21,.1l7.2,14.85c.7,1.46,1.29,2.45,1.75,2.97,.47,.52,1,.78,1.61,.78,.1,0,.15,.06,.15,.18Zm-15.3-8.31h8.16l.21,.66h-8.73l.36-.66Z" fill="#b3dccd"/>
        <path d="M213.01,19.65c-.3-.02-.67-.04-1.09-.06-.43-.02-.92-.03-1.46-.03l-2.1,.03c-.38,.02-.9,.03-1.56,.03-.04,0-.06-.06-.06-.18s.02-.18,.06-.18c.72,0,1.25-.05,1.59-.15,.34-.1,.57-.29,.71-.58,.13-.29,.2-.74,.2-1.33V3.3c0-.6-.06-1.04-.18-1.32s-.34-.47-.67-.58c-.33-.11-.86-.17-1.58-.17-.06,0-.09-.06-.09-.18s.03-.18,.09-.18l1.5,.03c.88,.04,1.58,.06,2.1,.06,.74,0,1.5-.03,2.28-.09,.96-.04,1.61-.06,1.95-.06,2.06,0,3.89,.4,5.49,1.2,1.6,.8,2.84,1.89,3.72,3.27s1.32,2.93,1.32,4.65c0,1.94-.46,3.66-1.37,5.14-.91,1.49-2.14,2.64-3.69,3.45-1.55,.81-3.24,1.21-5.06,1.21-.62,0-1.32-.03-2.1-.09Zm5.79-1.46c1.16-.67,2.06-1.65,2.71-2.94,.65-1.29,.97-2.84,.97-4.66s-.31-3.32-.93-4.73-1.5-2.52-2.62-3.33c-1.13-.81-2.45-1.21-3.95-1.21-.86,0-1.52,.05-1.98,.15-.46,.1-.8,.29-1.02,.58s-.33,.72-.33,1.3v13.5c0,.58,.08,1.04,.26,1.37,.17,.33,.48,.58,.93,.73,.45,.16,1.1,.24,1.96,.24,1.5,0,2.83-.33,3.99-1Z" fill="#b3dccd"/>
        <path d="M233.38,6.23c.38,.57,.84,1.06,1.38,1.47,.54,.41,1.29,.91,2.25,1.49,1,.62,1.79,1.15,2.38,1.6s1.09,1,1.51,1.67,.63,1.44,.63,2.34c0,.98-.25,1.87-.76,2.66s-1.24,1.41-2.19,1.86c-.95,.45-2.05,.67-3.31,.67-.8,0-1.59-.1-2.37-.29s-1.46-.46-2.04-.83c-.1-.06-.17-.13-.21-.21-.04-.08-.06-.2-.06-.36l-.3-4.29c-.02-.08,.03-.13,.14-.15,.11-.02,.17,.01,.19,.09,.48,1.52,1.15,2.81,2.01,3.87,.86,1.06,1.98,1.59,3.36,1.59,.94,0,1.73-.25,2.37-.76,.64-.51,.96-1.34,.96-2.5,0-.88-.2-1.65-.6-2.31-.4-.66-.89-1.21-1.47-1.67-.58-.45-1.35-.96-2.31-1.54-.94-.6-1.69-1.11-2.24-1.54-.55-.43-1.01-.96-1.39-1.59s-.57-1.37-.57-2.21c0-1.02,.27-1.89,.83-2.61,.55-.72,1.27-1.25,2.16-1.6,.89-.35,1.82-.53,2.8-.53,1.32,0,2.53,.23,3.63,.69,.3,.14,.45,.32,.45,.54l.15,3.75c0,.08-.06,.12-.17,.13-.11,.01-.18-.02-.2-.1-.22-1.08-.69-2.1-1.39-3.06-.71-.96-1.73-1.44-3.05-1.44-1,0-1.77,.3-2.32,.9-.55,.6-.83,1.36-.83,2.28,0,.76,.19,1.42,.57,2Z" fill="#b3dccd"/>
        <path d="M248.02,1.98c-.12-.28-.35-.47-.69-.58-.34-.11-.88-.17-1.62-.17-.06,0-.09-.06-.09-.18s.03-.18,.09-.18l1.53,.03c.84,.04,1.54,.06,2.1,.06,.62,0,1.39-.02,2.31-.06l1.53-.03s.06,.06,.06,.18-.02,.18-.06,.18c-.76,0-1.32,.06-1.68,.18-.36,.12-.61,.33-.73,.62-.13,.29-.2,.74-.2,1.33v13.83c0,.6,.06,1.04,.2,1.33,.13,.29,.37,.49,.72,.58,.35,.1,.92,.15,1.69,.15,.04,0,.06,.06,.06,.18s-.02,.18-.06,.18c-.66,0-1.17,0-1.53-.03l-2.31-.03-2.13,.03c-.38,.02-.9,.03-1.56,.03-.04,0-.06-.06-.06-.18s.02-.18,.06-.18c.74,0,1.28-.05,1.63-.15,.35-.1,.59-.29,.72-.58s.2-.74,.2-1.33V3.3c0-.6-.06-1.04-.18-1.32Zm1.29,7.53h13.26v.69h-13.26v-.69Zm12.03-7.49c-.12-.29-.36-.5-.72-.62s-.92-.18-1.68-.18c-.06,0-.09-.06-.09-.18s.03-.18,.09-.18l1.41,.03c.92,.04,1.71,.06,2.37,.06,.56,0,1.28-.02,2.16-.06l1.53-.03c.06,0,.09,.06,.09,.18s-.03,.18-.09,.18c-.74,0-1.29,.06-1.63,.17-.35,.11-.58,.3-.71,.58s-.18,.72-.18,1.32v13.89c0,.6,.06,1.04,.18,1.33s.35,.49,.71,.58c.35,.1,.89,.15,1.63,.15,.06,0,.09,.06,.09,.18s-.03,.18-.09,.18c-.64,0-1.15,0-1.53-.03l-2.16-.03-2.37,.03c-.34,.02-.81,.03-1.41,.03-.06,0-.09-.06-.09-.18s.03-.18,.09-.18c.78,0,1.34-.05,1.69-.15,.35-.1,.58-.29,.71-.57,.12-.28,.18-.73,.18-1.35V3.36c0-.6-.06-1.04-.18-1.33Z" fill="#b3dccd"/>
        <path d="M270.19,19.44c0-.12,.03-.18,.09-.18,.72,0,1.25-.05,1.58-.15,.33-.1,.55-.29,.67-.58s.18-.74,.18-1.33V3.3c0-.6-.06-1.04-.18-1.32s-.34-.47-.67-.58c-.33-.11-.86-.17-1.58-.17-.06,0-.09-.06-.09-.18s.03-.18,.09-.18h12.24c.2,0,.3,.09,.3,.27l.06,3.78c0,.06-.05,.1-.17,.11-.11,.01-.17-.01-.19-.08-.14-1.1-.53-1.94-1.17-2.52-.64-.58-1.48-.87-2.52-.87h-1.53c-.88,0-1.47,.13-1.77,.39-.3,.26-.45,.75-.45,1.47v13.65c0,.72,.13,1.21,.41,1.47,.27,.26,.81,.39,1.63,.39h1.98c1.12,0,2.05-.33,2.8-1s1.26-1.62,1.54-2.87c0-.04,.04-.06,.12-.06,.06,0,.12,.02,.17,.04,.05,.03,.08,.06,.08,.08-.2,1.44-.3,2.79-.3,4.05,0,.16-.03,.28-.09,.35-.06,.07-.18,.1-.36,.1h-12.78c-.06,0-.09-.06-.09-.18Zm10.46-8.62c-.49-.41-1.27-.62-2.33-.62h-4.38v-.69h4.44c1.02,0,1.77-.17,2.25-.53,.48-.35,.72-.89,.72-1.63,0-.04,.05-.06,.17-.06s.17,.02,.17,.06l-.03,2.52,.03,1.35c.04,.64,.06,1.14,.06,1.5,0,.04-.06,.06-.18,.06s-.18-.02-.18-.06c0-.86-.25-1.5-.73-1.91Z" fill="#b3dccd"/>
        <path d="M287.95,19.44c0-.12,.03-.18,.09-.18,.72,0,1.25-.05,1.58-.15,.33-.1,.55-.29,.67-.58s.18-.74,.18-1.33V3.3c0-.6-.06-1.04-.18-1.32s-.34-.47-.67-.58c-.33-.11-.86-.17-1.58-.17-.06,0-.09-.06-.09-.18s.03-.18,.09-.18h12.24c.2,0,.3,.09,.3,.27l.06,3.78c0,.06-.05,.1-.17,.11-.11,.01-.17-.01-.19-.08-.14-1.1-.53-1.94-1.17-2.52-.64-.58-1.48-.87-2.52-.87h-1.53c-.88,0-1.47,.13-1.77,.39-.3,.26-.45,.75-.45,1.47v13.65c0,.72,.13,1.21,.41,1.47,.27,.26,.81,.39,1.63,.39h1.98c1.12,0,2.05-.33,2.8-1s1.26-1.62,1.54-2.87c0-.04,.04-.06,.12-.06,.06,0,.12,.02,.17,.04,.05,.03,.08,.06,.08,.08-.2,1.44-.3,2.79-.3,4.05,0,.16-.03,.28-.09,.35-.06,.07-.18,.1-.36,.1h-12.78c-.06,0-.09-.06-.09-.18Zm10.46-8.62c-.49-.41-1.27-.62-2.33-.62h-4.38v-.69h4.44c1.02,0,1.77-.17,2.25-.53,.48-.35,.72-.89,.72-1.63,0-.04,.05-.06,.17-.06s.17,.02,.17,.06l-.03,2.52,.03,1.35c.04,.64,.06,1.14,.06,1.5,0,.04-.06,.06-.18,.06s-.18-.02-.18-.06c0-.86-.25-1.5-.73-1.91Z" fill="#b3dccd"/>
        <path d="M307.57,2.5c-.7,.69-1.22,1.8-1.56,3.32-.02,.04-.08,.06-.2,.06s-.17-.03-.17-.09c.08-.56,.17-1.47,.27-2.73,.1-1.26,.15-2.21,.15-2.85,0-.1,.06-.15,.18-.15s.18,.05,.18,.15c0,.44,.55,.66,1.65,.66,1.72,.06,3.73,.09,6.03,.09,1.18,0,2.43-.02,3.75-.06l2.04-.03c.74,0,1.28-.05,1.62-.15,.34-.1,.56-.3,.66-.6,.02-.08,.08-.12,.2-.12s.17,.04,.17,.12c-.06,.56-.12,1.46-.2,2.7s-.1,2.23-.1,2.97c0,.06-.06,.09-.17,.09s-.17-.03-.17-.09c-.14-1.54-.54-2.64-1.2-3.31s-1.64-1-2.94-1c-.74,0-1.27,.04-1.59,.13-.32,.09-.54,.26-.66,.51s-.18,.67-.18,1.25v13.83c0,.62,.06,1.07,.2,1.35,.13,.28,.38,.47,.76,.57,.38,.1,.99,.15,1.83,.15,.04,0,.06,.06,.06,.18s-.02,.18-.06,.18c-.7,0-1.25,0-1.65-.03l-2.37-.03-2.31,.03c-.4,.02-.96,.03-1.68,.03-.06,0-.09-.06-.09-.18s.03-.18,.09-.18c.82,0,1.42-.05,1.81-.15,.39-.1,.66-.29,.79-.58s.21-.74,.21-1.33V3.3c0-.56-.06-.96-.18-1.22-.12-.25-.34-.41-.67-.49s-.87-.12-1.61-.12c-1.24,0-2.21,.34-2.91,1.03Z" fill="#b3dccd"/>
      </g>
      <g>
        <line y1="10.07" x2="82.52" y2="10.07" fill="none" stroke="#b3dccd" stroke-miterlimit="10"/>
        <line x1="82.52" y1=".26" x2="82.52" y2="19.88" fill="none" stroke="#b3dccd" stroke-miterlimit="10"/>
      </g>
      <g>
        <line x1="434.85" y1="10.07" x2="352.34" y2="10.07" fill="none" stroke="#b3dccd" stroke-miterlimit="10"/>
        <line x1="352.34" y1="19.88" x2="352.34" y2=".26" fill="none" stroke="#b3dccd" stroke-miterlimit="10"/>
      </g>
    </g>
  </g>
</svg>