<?xml version="1.0" encoding="UTF-8"?>
<svg id="_圖層_2" data-name="圖層 2" xmlns="http://www.w3.org/2000/svg" viewBox="0 0 522.39 20.11">
  <g id="text">
    <g>
      <g>
        <path d="M121.65,2.5c-.7,.69-1.22,1.8-1.56,3.32-.02,.04-.08,.06-.2,.06s-.17-.03-.17-.09c.08-.56,.17-1.47,.27-2.73,.1-1.26,.15-2.21,.15-2.85,0-.1,.06-.15,.18-.15s.18,.05,.18,.15c0,.44,.55,.66,1.65,.66,1.72,.06,3.73,.09,6.03,.09,1.18,0,2.43-.02,3.75-.06l2.04-.03c.74,0,1.28-.05,1.62-.15s.56-.3,.66-.6c.02-.08,.08-.12,.2-.12s.17,.04,.17,.12c-.06,.56-.12,1.46-.2,2.7s-.1,2.23-.1,2.97c0,.06-.06,.09-.17,.09s-.17-.03-.17-.09c-.14-1.54-.54-2.64-1.2-3.31-.66-.67-1.64-1-2.94-1-.74,0-1.27,.04-1.59,.13-.32,.09-.54,.26-.66,.51s-.18,.67-.18,1.25v13.83c0,.62,.06,1.07,.2,1.35,.13,.28,.38,.47,.76,.57s.99,.15,1.83,.15c.04,0,.06,.06,.06,.18s-.02,.18-.06,.18c-.7,0-1.25,0-1.65-.03l-2.37-.03-2.31,.03c-.4,.02-.96,.03-1.68,.03-.06,0-.09-.06-.09-.18s.03-.18,.09-.18c.82,0,1.42-.05,1.81-.15,.39-.1,.66-.29,.79-.59,.14-.29,.21-.73,.21-1.33V3.3c0-.56-.06-.96-.18-1.22-.12-.25-.34-.41-.67-.49s-.87-.12-1.61-.12c-1.24,0-2.21,.34-2.91,1.03Z" fill="#aeffe0"/>
        <path d="M152.22,1.83c.9,.7,1.35,1.65,1.35,2.85,0,1.08-.32,2.07-.95,2.96-.63,.89-1.46,1.59-2.5,2.1-1.04,.51-2.15,.76-3.33,.76-.42,0-.91-.02-1.47-.06v6.75c0,.6,.06,1.05,.18,1.33,.12,.29,.34,.49,.67,.59s.86,.15,1.58,.15c.06,0,.09,.06,.09,.18s-.03,.18-.09,.18c-.62,0-1.11,0-1.47-.03l-2.16-.03-2.1,.03c-.38,.02-.89,.03-1.53,.03-.06,0-.09-.06-.09-.18s.03-.18,.09-.18c.72,0,1.25-.05,1.59-.15s.57-.29,.69-.59c.12-.29,.18-.73,.18-1.33V3.3c0-.6-.06-1.04-.18-1.32-.12-.28-.35-.47-.68-.58-.33-.11-.85-.17-1.57-.17-.04,0-.06-.06-.06-.18s.02-.18,.06-.18l1.5,.03c.88,.04,1.58,.06,2.1,.06,.42,0,.82,0,1.2-.03,.38-.02,.71-.04,.99-.06,.76-.06,1.45-.09,2.07-.09,1.66,0,2.94,.35,3.84,1.05Zm-2.04,.44c-.62-.65-1.53-.98-2.73-.98-.78,0-1.33,.15-1.65,.44-.32,.29-.48,.84-.48,1.64v6.33c.58,.06,1.17,.09,1.77,.09,1.44,0,2.47-.33,3.09-1.01,.62-.67,.93-1.71,.93-3.13,0-1.6-.31-2.73-.93-3.38Zm2.65,14.83c-1.35-1.68-2.98-4.03-4.9-7.05l2.01-.63c1.7,2.5,3.13,4.45,4.29,5.85,1.16,1.4,2.18,2.42,3.08,3.04,.89,.63,1.75,.95,2.59,.95,.06,0,.09,.06,.09,.18s-.03,.18-.09,.18h-4.29c-.5,0-1.42-.84-2.78-2.52Z" fill="#aeffe0"/>
        <path d="M182.4,19.44c0,.12-.05,.18-.15,.18-.38,0-.97-.02-1.77-.06-.84-.04-1.44-.06-1.8-.06-.46,0-1.03,.02-1.71,.06-.68,.04-1.19,.06-1.53,.06-.08,0-.12-.06-.12-.18s.04-.18,.12-.18c.68,0,1.17-.06,1.47-.2,.3-.13,.45-.36,.45-.7s-.15-.81-.45-1.41l-6.45-13.41,.96-1.44-5.85,13.56c-.28,.68-.42,1.24-.42,1.68,0,.64,.25,1.12,.75,1.44s1.22,.48,2.16,.48c.1,0,.15,.06,.15,.18s-.05,.18-.15,.18c-.36,0-.88-.02-1.56-.06-.76-.04-1.42-.06-1.98-.06-.52,0-1.14,.02-1.86,.06-.64,.04-1.16,.06-1.56,.06-.08,0-.12-.06-.12-.18s.04-.18,.12-.18c.56,0,1.04-.11,1.42-.33,.39-.22,.77-.6,1.12-1.14,.36-.54,.77-1.34,1.23-2.4l6.39-14.73c.02-.06,.09-.09,.21-.1,.12,0,.19,.03,.21,.1l7.2,14.85c.7,1.46,1.29,2.45,1.75,2.97,.47,.52,1,.78,1.61,.78,.1,0,.15,.06,.15,.18Zm-15.3-8.31h8.16l.21,.66h-8.73l.36-.66Z" fill="#aeffe0"/>
        <path d="M202.51,20.1c-.09,.02-.16,0-.2-.03l-14.13-16.74c-.66-.78-1.25-1.32-1.77-1.63-.52-.31-1.04-.47-1.56-.47-.04,0-.06-.06-.06-.18s.02-.18,.06-.18l1.17,.03c.24,.02,.58,.03,1.02,.03l1.53-.03c.2-.02,.43-.03,.69-.03,.16,0,.28,.04,.36,.12,.08,.08,.2,.24,.36,.48l.72,.96,11.7,14.1,.24,3.48s-.04,.07-.13,.09ZM187.47,1.56l.78,.06v14.58c0,1.04,.19,1.81,.58,2.31,.39,.5,.98,.75,1.78,.75,.04,0,.06,.06,.06,.18s-.02,.18-.06,.18c-.52,0-.92,0-1.2-.03l-1.53-.03-1.62,.03c-.3,.02-.74,.03-1.32,.03-.04,0-.06-.06-.06-.18s.02-.18,.06-.18c.86,0,1.5-.25,1.91-.75s.62-1.27,.62-2.31V1.56Zm15.18,18.45l-.75-.93V4.32c0-1.04-.19-1.82-.57-2.33s-.97-.77-1.77-.77c-.04,0-.06-.06-.06-.18s.02-.18,.06-.18l1.2,.03c.6,.04,1.11,.06,1.53,.06,.36,0,.88-.02,1.56-.06l1.26-.03s.06,.06,.06,.18-.02,.18-.06,.18c-1.64,0-2.46,1.03-2.46,3.09v15.69Z" fill="#aeffe0"/>
        <path d="M212.4,6.23c.38,.57,.84,1.06,1.38,1.47,.54,.41,1.29,.9,2.25,1.48,1,.62,1.79,1.15,2.38,1.6s1.09,1,1.51,1.67,.63,1.44,.63,2.34c0,.98-.25,1.87-.76,2.66s-1.24,1.41-2.19,1.86c-.95,.45-2.05,.67-3.31,.67-.8,0-1.59-.1-2.37-.28-.78-.19-1.46-.47-2.04-.83-.1-.06-.17-.13-.21-.21-.04-.08-.06-.2-.06-.36l-.3-4.29c-.02-.08,.03-.13,.14-.15,.11-.02,.17,.01,.19,.09,.48,1.52,1.15,2.81,2.01,3.87,.86,1.06,1.98,1.59,3.36,1.59,.94,0,1.73-.25,2.37-.77,.64-.51,.96-1.34,.96-2.5,0-.88-.2-1.65-.6-2.31-.4-.66-.89-1.21-1.47-1.67-.58-.45-1.35-.96-2.31-1.54-.94-.6-1.69-1.11-2.24-1.54-.55-.43-1.01-.96-1.39-1.59-.38-.63-.57-1.37-.57-2.21,0-1.02,.27-1.89,.83-2.61,.55-.72,1.27-1.25,2.16-1.6,.89-.35,1.82-.52,2.8-.52,1.32,0,2.53,.23,3.63,.69,.3,.14,.45,.32,.45,.54l.15,3.75c0,.08-.06,.13-.17,.14-.11,.01-.18-.02-.2-.1-.22-1.08-.69-2.1-1.39-3.06-.71-.96-1.73-1.44-3.05-1.44-1,0-1.77,.3-2.32,.9-.55,.6-.83,1.36-.83,2.28,0,.76,.19,1.43,.57,2Z" fill="#aeffe0"/>
        <path d="M229.92,18.47c.16,.29,.46,.49,.92,.61s1.17,.18,2.17,.18c.06,0,.09,.06,.09,.18s-.03,.18-.09,.18c-.82,0-1.46,0-1.92-.03l-2.61-.03-2.07,.03c-.38,.02-.89,.03-1.53,.03-.06,0-.09-.06-.09-.18s.03-.18,.09-.18c.72,0,1.24-.05,1.56-.15s.54-.29,.66-.59c.12-.29,.18-.73,.18-1.33V3.3c0-.6-.06-1.04-.18-1.32-.12-.28-.34-.47-.67-.58-.33-.11-.85-.17-1.54-.17-.06,0-.09-.06-.09-.18s.03-.18,.09-.18l1.5,.03c.88,.04,1.57,.06,2.07,.06s1.05-.03,1.71-.09c.24,0,.61-.02,1.12-.04,.51-.03,.95-.04,1.33-.04,1.88,0,3.39,.42,4.53,1.24,1.14,.83,1.71,2.09,1.71,3.77,0,1.3-.33,2.4-.97,3.3-.65,.9-1.48,1.57-2.49,2.01-1.01,.44-2.05,.66-3.13,.66-.58,0-1.06-.05-1.44-.15-.06,0-.09-.05-.09-.15,0-.06,.02-.12,.04-.18,.03-.06,.07-.08,.11-.06,.32,.08,.67,.12,1.05,.12,1.2,0,2.21-.43,3.03-1.29,.82-.86,1.23-2.1,1.23-3.72s-.4-2.81-1.2-3.71c-.8-.89-1.86-1.33-3.18-1.33-.62,0-1.07,.04-1.35,.14-.28,.09-.48,.28-.6,.57-.12,.29-.18,.75-.18,1.37v13.71c0,.64,.08,1.1,.24,1.4Z" fill="#aeffe0"/>
        <path d="M247.57,18.68c-1.45-.87-2.57-2.05-3.36-3.54-.79-1.49-1.19-3.11-1.19-4.88,0-2.06,.52-3.83,1.56-5.29,1.04-1.47,2.37-2.58,4-3.32,1.63-.74,3.29-1.11,5-1.11,1.9,0,3.57,.45,5.01,1.33,1.44,.89,2.54,2.07,3.32,3.52,.77,1.46,1.15,3.01,1.15,4.65,0,1.82-.48,3.49-1.44,5.01-.96,1.52-2.25,2.72-3.86,3.6-1.61,.88-3.36,1.32-5.23,1.32s-3.52-.44-4.97-1.3Zm9.47-.35c1.02-.66,1.82-1.62,2.41-2.9,.59-1.27,.89-2.78,.89-4.54,0-1.86-.33-3.52-.98-4.98-.65-1.46-1.58-2.6-2.79-3.42-1.21-.82-2.62-1.23-4.21-1.23-2.08,0-3.7,.71-4.86,2.11-1.16,1.41-1.74,3.36-1.74,5.83,0,1.9,.33,3.62,.99,5.16,.66,1.54,1.58,2.75,2.77,3.63,1.19,.88,2.54,1.32,4.07,1.32,1.28,0,2.43-.33,3.45-.99Z" fill="#aeffe0"/>
        <path d="M279.06,1.83c.9,.7,1.35,1.65,1.35,2.85,0,1.08-.32,2.07-.95,2.96-.63,.89-1.46,1.59-2.5,2.1-1.04,.51-2.15,.76-3.33,.76-.42,0-.91-.02-1.47-.06v6.75c0,.6,.06,1.05,.18,1.33,.12,.29,.34,.49,.67,.59s.86,.15,1.58,.15c.06,0,.09,.06,.09,.18s-.03,.18-.09,.18c-.62,0-1.11,0-1.47-.03l-2.16-.03-2.1,.03c-.38,.02-.89,.03-1.53,.03-.06,0-.09-.06-.09-.18s.03-.18,.09-.18c.72,0,1.25-.05,1.59-.15s.57-.29,.69-.59c.12-.29,.18-.73,.18-1.33V3.3c0-.6-.06-1.04-.18-1.32-.12-.28-.35-.47-.68-.58-.33-.11-.85-.17-1.57-.17-.04,0-.06-.06-.06-.18s.02-.18,.06-.18l1.5,.03c.88,.04,1.58,.06,2.1,.06,.42,0,.82,0,1.2-.03,.38-.02,.71-.04,.99-.06,.76-.06,1.45-.09,2.07-.09,1.66,0,2.94,.35,3.84,1.05Zm-2.04,.44c-.62-.65-1.53-.98-2.73-.98-.78,0-1.33,.15-1.65,.44-.32,.29-.48,.84-.48,1.64v6.33c.58,.06,1.17,.09,1.77,.09,1.44,0,2.47-.33,3.09-1.01,.62-.67,.93-1.71,.93-3.13,0-1.6-.31-2.73-.93-3.38Zm2.65,14.83c-1.35-1.68-2.98-4.03-4.9-7.05l2.01-.63c1.7,2.5,3.13,4.45,4.29,5.85,1.16,1.4,2.18,2.42,3.08,3.04,.89,.63,1.75,.95,2.59,.95,.06,0,.09,.06,.09,.18s-.03,.18-.09,.18h-4.29c-.5,0-1.42-.84-2.78-2.52Z" fill="#aeffe0"/>
        <path d="M288.57,2.5c-.7,.69-1.22,1.8-1.56,3.32-.02,.04-.08,.06-.2,.06s-.17-.03-.17-.09c.08-.56,.17-1.47,.27-2.73,.1-1.26,.15-2.21,.15-2.85,0-.1,.06-.15,.18-.15s.18,.05,.18,.15c0,.44,.55,.66,1.65,.66,1.72,.06,3.73,.09,6.03,.09,1.18,0,2.43-.02,3.75-.06l2.04-.03c.74,0,1.28-.05,1.62-.15s.56-.3,.66-.6c.02-.08,.08-.12,.2-.12s.17,.04,.17,.12c-.06,.56-.12,1.46-.2,2.7s-.1,2.23-.1,2.97c0,.06-.06,.09-.17,.09s-.17-.03-.17-.09c-.14-1.54-.54-2.64-1.2-3.31-.66-.67-1.64-1-2.94-1-.74,0-1.27,.04-1.59,.13-.32,.09-.54,.26-.66,.51s-.18,.67-.18,1.25v13.83c0,.62,.06,1.07,.2,1.35,.13,.28,.38,.47,.76,.57s.99,.15,1.83,.15c.04,0,.06,.06,.06,.18s-.02,.18-.06,.18c-.7,0-1.25,0-1.65-.03l-2.37-.03-2.31,.03c-.4,.02-.96,.03-1.68,.03-.06,0-.09-.06-.09-.18s.03-.18,.09-.18c.82,0,1.42-.05,1.81-.15,.39-.1,.66-.29,.79-.59,.14-.29,.21-.73,.21-1.33V3.3c0-.56-.06-.96-.18-1.22-.12-.25-.34-.41-.67-.49s-.87-.12-1.61-.12c-1.24,0-2.21,.34-2.91,1.03Z" fill="#aeffe0"/>
        <path d="M325.29,19.44c0,.12-.05,.18-.15,.18-.38,0-.97-.02-1.77-.06-.84-.04-1.44-.06-1.8-.06-.46,0-1.03,.02-1.71,.06-.68,.04-1.19,.06-1.53,.06-.08,0-.12-.06-.12-.18s.04-.18,.12-.18c.68,0,1.17-.06,1.47-.2,.3-.13,.45-.36,.45-.7s-.15-.81-.45-1.41l-6.45-13.41,.96-1.44-5.85,13.56c-.28,.68-.42,1.24-.42,1.68,0,.64,.25,1.12,.75,1.44s1.22,.48,2.16,.48c.1,0,.15,.06,.15,.18s-.05,.18-.15,.18c-.36,0-.88-.02-1.56-.06-.76-.04-1.42-.06-1.98-.06-.52,0-1.14,.02-1.86,.06-.64,.04-1.16,.06-1.56,.06-.08,0-.12-.06-.12-.18s.04-.18,.12-.18c.56,0,1.04-.11,1.42-.33,.39-.22,.77-.6,1.12-1.14,.36-.54,.77-1.34,1.23-2.4l6.39-14.73c.02-.06,.09-.09,.21-.1,.12,0,.19,.03,.21,.1l7.2,14.85c.7,1.46,1.29,2.45,1.75,2.97,.47,.52,1,.78,1.61,.78,.1,0,.15,.06,.15,.18Zm-15.3-8.31h8.16l.21,.66h-8.73l.36-.66Z" fill="#aeffe0"/>
        <path d="M327.66,2.5c-.7,.69-1.22,1.8-1.56,3.32-.02,.04-.08,.06-.2,.06s-.17-.03-.17-.09c.08-.56,.17-1.47,.27-2.73,.1-1.26,.15-2.21,.15-2.85,0-.1,.06-.15,.18-.15s.18,.05,.18,.15c0,.44,.55,.66,1.65,.66,1.72,.06,3.73,.09,6.03,.09,1.18,0,2.43-.02,3.75-.06l2.04-.03c.74,0,1.28-.05,1.62-.15s.56-.3,.66-.6c.02-.08,.08-.12,.2-.12s.17,.04,.17,.12c-.06,.56-.12,1.46-.2,2.7s-.1,2.23-.1,2.97c0,.06-.06,.09-.17,.09s-.17-.03-.17-.09c-.14-1.54-.54-2.64-1.2-3.31-.66-.67-1.64-1-2.94-1-.74,0-1.27,.04-1.59,.13-.32,.09-.54,.26-.66,.51s-.18,.67-.18,1.25v13.83c0,.62,.06,1.07,.2,1.35,.13,.28,.38,.47,.76,.57s.99,.15,1.83,.15c.04,0,.06,.06,.06,.18s-.02,.18-.06,.18c-.7,0-1.25,0-1.65-.03l-2.37-.03-2.31,.03c-.4,.02-.96,.03-1.68,.03-.06,0-.09-.06-.09-.18s.03-.18,.09-.18c.82,0,1.42-.05,1.81-.15,.39-.1,.66-.29,.79-.59,.14-.29,.21-.73,.21-1.33V3.3c0-.56-.06-.96-.18-1.22-.12-.25-.34-.41-.67-.49s-.87-.12-1.61-.12c-1.24,0-2.21,.34-2.91,1.03Z" fill="#aeffe0"/>
        <path d="M351.61,18.54c.11,.28,.33,.47,.66,.57,.33,.1,.86,.15,1.6,.15,.04,0,.06,.06,.06,.18s-.02,.18-.06,.18c-.64,0-1.14,0-1.5-.03l-2.16-.03-2.1,.03c-.38,.02-.9,.03-1.56,.03-.04,0-.06-.06-.06-.18s.02-.18,.06-.18c.72,0,1.25-.05,1.59-.15,.34-.1,.57-.29,.7-.59,.13-.29,.2-.73,.2-1.33V3.3c0-.6-.07-1.04-.2-1.32-.13-.28-.36-.47-.7-.58-.34-.11-.87-.17-1.59-.17-.04,0-.06-.06-.06-.18s.02-.18,.06-.18l1.56,.03c.88,.04,1.58,.06,2.1,.06,.58,0,1.31-.02,2.19-.06l1.47-.03s.06,.06,.06,.18-.02,.18-.06,.18c-.72,0-1.25,.06-1.58,.18s-.55,.33-.67,.61c-.12,.29-.18,.74-.18,1.34v13.83c0,.62,.05,1.07,.17,1.35Z" fill="#aeffe0"/>
        <path d="M362.77,18.68c-1.45-.87-2.57-2.05-3.36-3.54-.79-1.49-1.19-3.11-1.19-4.88,0-2.06,.52-3.83,1.56-5.29,1.04-1.47,2.37-2.58,4-3.32,1.63-.74,3.29-1.11,5-1.11,1.9,0,3.57,.45,5.01,1.33,1.44,.89,2.54,2.07,3.32,3.52,.77,1.46,1.15,3.01,1.15,4.65,0,1.82-.48,3.49-1.44,5.01-.96,1.52-2.25,2.72-3.86,3.6-1.61,.88-3.36,1.32-5.23,1.32s-3.52-.44-4.97-1.3Zm9.47-.35c1.02-.66,1.82-1.62,2.41-2.9,.59-1.27,.89-2.78,.89-4.54,0-1.86-.33-3.52-.98-4.98-.65-1.46-1.58-2.6-2.79-3.42-1.21-.82-2.62-1.23-4.21-1.23-2.08,0-3.7,.71-4.86,2.11-1.16,1.41-1.74,3.36-1.74,5.83,0,1.9,.33,3.62,.99,5.16,.66,1.54,1.58,2.75,2.77,3.63,1.19,.88,2.54,1.32,4.07,1.32,1.28,0,2.43-.33,3.45-.99Z" fill="#aeffe0"/>
        <path d="M399.94,20.1c-.09,.02-.16,0-.2-.03l-14.13-16.74c-.66-.78-1.25-1.32-1.77-1.63-.52-.31-1.04-.47-1.56-.47-.04,0-.06-.06-.06-.18s.02-.18,.06-.18l1.17,.03c.24,.02,.58,.03,1.02,.03l1.53-.03c.2-.02,.43-.03,.69-.03,.16,0,.28,.04,.36,.12,.08,.08,.2,.24,.36,.48l.72,.96,11.7,14.1,.24,3.48s-.04,.07-.13,.09Zm-15.04-18.54l.78,.06v14.58c0,1.04,.19,1.81,.58,2.31,.39,.5,.98,.75,1.78,.75,.04,0,.06,.06,.06,.18s-.02,.18-.06,.18c-.52,0-.92,0-1.2-.03l-1.53-.03-1.62,.03c-.3,.02-.74,.03-1.32,.03-.04,0-.06-.06-.06-.18s.02-.18,.06-.18c.86,0,1.5-.25,1.91-.75s.62-1.27,.62-2.31V1.56Zm15.18,18.45l-.75-.93V4.32c0-1.04-.19-1.82-.57-2.33s-.97-.77-1.77-.77c-.04,0-.06-.06-.06-.18s.02-.18,.06-.18l1.2,.03c.6,.04,1.11,.06,1.53,.06,.36,0,.88-.02,1.56-.06l1.26-.03s.06,.06,.06,.18-.02,.18-.06,.18c-1.64,0-2.46,1.03-2.46,3.09v15.69Z" fill="#aeffe0"/>
      </g>
      <g>
        <line y1="10.06" x2="92.52" y2="10.06" fill="none" stroke="#aeffe0" stroke-miterlimit="10"/>
        <line x1="92.52" y1=".25" x2="92.52" y2="19.87" fill="none" stroke="#aeffe0" stroke-miterlimit="10"/>
      </g>
      <g>
        <line x1="522.39" y1="10.06" x2="429.87" y2="10.06" fill="none" stroke="#aeffe0" stroke-miterlimit="10"/>
        <line x1="429.87" y1="19.87" x2="429.87" y2=".25" fill="none" stroke="#aeffe0" stroke-miterlimit="10"/>
      </g>
    </g>
  </g>
</svg>