<?xml version="1.0" encoding="UTF-8"?>
<svg id="_圖層_2" data-name="圖層 2" xmlns="http://www.w3.org/2000/svg" viewBox="0 0 195.89 188.58">
  <g id="_圖層_1-2" data-name="圖層 1">
    <g>
      <g>
        <path d="M98.47,0c1.19,1.49,2.62,2.75,3.96,4.09,6.91,6.94,13.85,13.86,20.78,20.79,8.04,8.05,16.09,16.1,24.13,24.15,.11,.11,.2,.24,.3,.36,.09,.5-.34,.69-.6,.95-5.76,5.78-11.54,11.56-17.31,17.33-1.87,1.88-3.75,3.75-5.62,5.62-.28,.27-.52,.62-.97,.62-2.73-2.71-5.46-5.42-8.18-8.14-5.33-5.33-10.66-10.66-15.96-16.01-.48-.48-.75-.44-1.2,.02-7.74,7.77-15.49,15.52-23.25,23.28-.24,.24-.5,.47-.75,.71-.51,.2-.72-.24-.98-.5-2.3-2.28-4.58-4.57-6.87-6.86-5.36-5.37-10.73-10.74-16.09-16.11-.3-.3-.78-.53-.62-1.1,5.34-5.35,10.67-10.7,16.01-16.05C76.06,22.32,86.87,11.5,97.68,.68c.19-.19,.51-.32,.47-.68h.32Z" fill="#9fe932"/>
        <path d="M123.13,73.92c3.72-3.7,7.44-7.41,11.15-11.12,4.28-4.27,8.55-8.55,12.82-12.83,.19-.19,.36-.39,.54-.58,1.59,1.32,2.96,2.85,4.41,4.31,14.46,14.46,28.91,28.93,43.36,43.39,.15,.15,.32,.27,.48,.4v2.39c-.18,.33-.42,.61-.68,.87-15.51,15.52-31.02,31.04-46.52,46.56-.26,.26-.54,.5-.87,.68h-.16c-3.11-3.13-6.2-6.27-9.32-9.39-4.92-4.93-9.84-9.85-14.77-14.76-.4-.39-.36-.58,.02-.96,7.83-7.81,15.65-15.65,23.47-23.48,.81-.82,.89-.57-.02-1.49-7.79-7.81-15.6-15.6-23.39-23.41-.18-.18-.34-.4-.51-.6Z" fill="#236f08"/>
        <path d="M49.24,49.2c.05,.35,.32,.54,.54,.76,7.75,7.76,15.5,15.52,23.26,23.28,.22,.22,.4,.51,.76,.54-5.11,5.13-10.22,10.25-15.33,15.38-2.96,2.97-5.91,5.94-8.9,8.88-.54,.53-.49,.84,.01,1.35,4.07,4.04,8.13,8.1,12.18,12.15,3.74,3.73,7.46,7.47,11.21,11.19,.51,.51,.5,.81-.02,1.32-7.78,7.75-15.54,15.52-23.29,23.3-.48,.49-.76,.51-1.26,.01C32.42,131.35,16.41,115.33,.4,99.32c-.4-.4-.62-.67-.08-1.21,16.32-16.29,32.62-32.6,48.92-48.91Z" fill="#d8f34e"/>
        <path d="M67.03,98.72c10.47-10.47,20.92-20.94,31.41-31.43,5.09,5.1,10.21,10.23,15.33,15.35,5.17,5.18,10.35,10.36,15.54,15.53,.4,.39,.46,.57,.02,1.01-10.16,10.14-20.31,20.29-30.44,30.45-.35,.35-.52,.49-.95,.05-10.22-10.26-20.47-20.5-30.7-30.75-.07-.07-.15-.15-.2-.21Z" fill="#3e3d65"/>
      </g>
      <text transform="translate(45.41 179.43)" fill="#3e3d65" font-family="AcuminConcept-Bold, &apos;Acumin Variable Concept&apos;" font-size="34.93" font-variation-settings="&apos;wght&apos; 700, &apos;wdth&apos; 100, &apos;slnt&apos; 0"><tspan x="0" y="0" letter-spacing=".09em">P</tspan><tspan x="25.95" y="0" letter-spacing=".08em">L</tspan><tspan x="49.35" y="0" letter-spacing=".09em">C</tspan><tspan x="77.29" y="0" letter-spacing=".1em">B</tspan></text>
    </g>
  </g>
</svg>