<?xml version="1.0" encoding="UTF-8"?>
<svg id="_圖層_2" data-name="圖層 2" xmlns="http://www.w3.org/2000/svg" viewBox="0 0 499.89 20.11">
  <g id="text">
    <g>
      <g>
        <path d="M114.57,18.29c.11,.25,.31,.42,.61,.51,.3,.09,.77,.14,1.41,.14h2.55c1.26,0,2.31-.38,3.14-1.12,.83-.75,1.38-1.76,1.67-3.04,0-.06,.05-.08,.17-.08,.11,0,.17,.04,.17,.11-.18,1.76-.27,3.22-.27,4.38,0,.16-.04,.28-.1,.35-.07,.07-.19,.11-.35,.11h-13.98s-.06-.06-.06-.18,.02-.18,.06-.18c.72,0,1.25-.05,1.59-.15,.34-.1,.57-.29,.69-.59,.12-.29,.18-.73,.18-1.33V3.3c0-.6-.06-1.04-.18-1.32-.12-.28-.35-.47-.69-.58-.34-.11-.87-.17-1.59-.17-.04,0-.06-.06-.06-.18s.02-.18,.06-.18l1.5,.03c.88,.04,1.59,.06,2.13,.06s1.25-.02,2.13-.06l1.5-.03s.06,.06,.06,.18-.02,.18-.06,.18c-.72,0-1.25,.06-1.58,.17-.33,.11-.55,.31-.67,.6-.12,.29-.18,.73-.18,1.33v13.74c0,.56,.05,.96,.17,1.21Z" fill="#aeffe0"/>
        <path d="M132.6,18.54c.11,.28,.33,.47,.66,.57,.33,.1,.86,.15,1.6,.15,.04,0,.06,.06,.06,.18s-.02,.18-.06,.18c-.64,0-1.14,0-1.5-.03l-2.16-.03-2.1,.03c-.38,.02-.9,.03-1.56,.03-.04,0-.06-.06-.06-.18s.02-.18,.06-.18c.72,0,1.25-.05,1.59-.15,.34-.1,.57-.29,.7-.59,.13-.29,.2-.73,.2-1.33V3.3c0-.6-.07-1.04-.2-1.32-.13-.28-.36-.47-.7-.58-.34-.11-.87-.17-1.59-.17-.04,0-.06-.06-.06-.18s.02-.18,.06-.18l1.56,.03c.88,.04,1.58,.06,2.1,.06,.58,0,1.31-.02,2.19-.06l1.47-.03s.06,.06,.06,.18-.02,.18-.06,.18c-.72,0-1.25,.06-1.58,.18-.33,.12-.55,.33-.67,.62-.12,.29-.18,.74-.18,1.34v13.83c0,.62,.05,1.07,.17,1.35Z" fill="#aeffe0"/>
        <path d="M138.86,19.44c0-.12,.03-.18,.09-.18,.74,0,1.28-.05,1.62-.15,.34-.1,.57-.29,.71-.59,.13-.29,.19-.73,.19-1.33V3.3c0-.6-.06-1.04-.18-1.32-.12-.28-.34-.47-.67-.58-.33-.11-.86-.17-1.58-.17-.06,0-.09-.06-.09-.18s.03-.18,.09-.18h12.24c.2,0,.3,.09,.3,.27l.06,3.78c0,.06-.05,.1-.17,.11-.11,.01-.17-.01-.19-.07-.14-1.1-.53-1.94-1.17-2.52-.64-.58-1.48-.87-2.52-.87h-1.53c-.86,0-1.44,.12-1.75,.38-.31,.25-.46,.71-.46,1.39v13.74c0,.64,.08,1.11,.25,1.4s.5,.5,.98,.61c.48,.12,1.24,.18,2.28,.18,.04,0,.06,.06,.06,.18s-.02,.18-.06,.18c-.82,0-1.46,0-1.92-.03l-2.82-.03-2.1,.03c-.38,.02-.9,.03-1.56,.03-.06,0-.09-.06-.09-.18Zm10.14-8.26c-.52-.41-1.35-.62-2.49-.62h-3.81v-.69h3.9c1.08,0,1.88-.18,2.39-.54,.51-.36,.76-.9,.76-1.62,0-.04,.06-.06,.18-.06s.18,.02,.18,.06l-.03,2.52c0,.6,0,1.05,.03,1.35l.03,1.5s-.06,.06-.18,.06-.18-.02-.18-.06c0-.86-.26-1.49-.78-1.9Z" fill="#aeffe0"/>
        <path d="M155.84,19.44c0-.12,.03-.18,.09-.18,.72,0,1.25-.05,1.58-.15,.33-.1,.55-.29,.67-.59,.12-.29,.18-.73,.18-1.33V3.3c0-.6-.06-1.04-.18-1.32-.12-.28-.34-.47-.67-.58-.33-.11-.86-.17-1.58-.17-.06,0-.09-.06-.09-.18s.03-.18,.09-.18h12.24c.2,0,.3,.09,.3,.27l.06,3.78c0,.06-.05,.1-.17,.11-.11,.01-.17-.01-.19-.07-.14-1.1-.53-1.94-1.17-2.52-.64-.58-1.48-.87-2.52-.87h-1.53c-.88,0-1.47,.13-1.77,.39s-.45,.75-.45,1.47v13.65c0,.72,.13,1.21,.41,1.47,.27,.26,.81,.39,1.63,.39h1.98c1.12,0,2.05-.33,2.8-1s1.26-1.62,1.54-2.87c0-.04,.04-.06,.12-.06,.06,0,.12,.02,.17,.04,.05,.03,.08,.06,.08,.08-.2,1.44-.3,2.79-.3,4.05,0,.16-.03,.28-.09,.35-.06,.07-.18,.11-.36,.11h-12.78c-.06,0-.09-.06-.09-.18Zm10.46-8.62c-.49-.41-1.27-.61-2.33-.61h-4.38v-.69h4.44c1.02,0,1.77-.17,2.25-.52,.48-.35,.72-.9,.72-1.64,0-.04,.05-.06,.17-.06s.17,.02,.17,.06l-.03,2.52,.03,1.35c.04,.64,.06,1.14,.06,1.5,0,.04-.06,.06-.18,.06s-.18-.02-.18-.06c0-.86-.25-1.5-.73-1.91Z" fill="#aeffe0"/>
        <path d="M182.03,19.44c0-.12,.03-.18,.09-.18,.74,0,1.28-.05,1.62-.15,.34-.1,.57-.29,.71-.59,.13-.29,.19-.73,.19-1.33V3.3c0-.6-.06-1.04-.18-1.32-.12-.28-.34-.47-.67-.58-.33-.11-.86-.17-1.58-.17-.06,0-.09-.06-.09-.18s.03-.18,.09-.18h12.24c.2,0,.3,.09,.3,.27l.06,3.78c0,.06-.05,.1-.17,.11-.11,.01-.17-.01-.19-.07-.14-1.1-.53-1.94-1.17-2.52-.64-.58-1.48-.87-2.52-.87h-1.53c-.86,0-1.44,.12-1.75,.38-.31,.25-.46,.71-.46,1.39v13.74c0,.64,.08,1.11,.25,1.4s.5,.5,.98,.61c.48,.12,1.24,.18,2.28,.18,.04,0,.06,.06,.06,.18s-.02,.18-.06,.18c-.82,0-1.46,0-1.92-.03l-2.82-.03-2.1,.03c-.38,.02-.9,.03-1.56,.03-.06,0-.09-.06-.09-.18Zm10.14-8.26c-.52-.41-1.35-.62-2.49-.62h-3.81v-.69h3.9c1.08,0,1.88-.18,2.39-.54,.51-.36,.76-.9,.76-1.62,0-.04,.06-.06,.18-.06s.18,.02,.18,.06l-.03,2.52c0,.6,0,1.05,.03,1.35l.03,1.5s-.06,.06-.18,.06-.18-.02-.18-.06c0-.86-.26-1.49-.78-1.9Z" fill="#aeffe0"/>
        <path d="M203.82,18.68c-1.45-.87-2.57-2.05-3.36-3.54-.79-1.49-1.19-3.11-1.19-4.88,0-2.06,.52-3.83,1.56-5.29,1.04-1.47,2.37-2.58,4-3.32,1.63-.74,3.29-1.11,5-1.11,1.9,0,3.57,.45,5.01,1.33,1.44,.89,2.54,2.07,3.32,3.53,.77,1.46,1.15,3.01,1.15,4.65,0,1.82-.48,3.49-1.44,5.01s-2.25,2.72-3.86,3.6c-1.61,.88-3.36,1.32-5.23,1.32s-3.52-.44-4.97-1.3Zm9.47-.35c1.02-.66,1.82-1.62,2.41-2.89,.59-1.27,.89-2.79,.89-4.54,0-1.86-.33-3.52-.98-4.98-.65-1.46-1.58-2.6-2.79-3.42-1.21-.82-2.62-1.23-4.21-1.23-2.08,0-3.7,.71-4.86,2.11-1.16,1.41-1.74,3.36-1.74,5.84,0,1.9,.33,3.62,.99,5.16,.66,1.54,1.58,2.75,2.77,3.63,1.19,.88,2.54,1.32,4.07,1.32,1.28,0,2.43-.33,3.45-.99Z" fill="#aeffe0"/>
        <path d="M238.76,2.03c-.46-.53-1.12-.79-1.98-.79-.06,0-.09-.06-.09-.18s.03-.18,.09-.18l1.35,.03c.72,.04,1.29,.06,1.71,.06,.36,0,.88-.02,1.56-.06l1.29-.03s.06,.06,.06,.18-.02,.18-.06,.18c-.8,0-1.41,.26-1.82,.78s-.62,1.29-.62,2.31V12.81c0,2.24-.66,4-1.96,5.28s-3.06,1.92-5.24,1.92c-1.48,0-2.78-.29-3.9-.85-1.12-.57-1.99-1.39-2.61-2.46-.62-1.07-.93-2.32-.93-3.76V3.3c0-.6-.06-1.04-.18-1.32-.12-.28-.35-.47-.68-.58-.33-.11-.85-.17-1.57-.17-.06,0-.09-.06-.09-.18s.03-.18,.09-.18l1.5,.03c.88,.04,1.58,.06,2.1,.06,.58,0,1.29-.02,2.13-.06l1.47-.03c.06,0,.09,.06,.09,.18s-.03,.18-.09,.18c-.7,0-1.21,.06-1.54,.18-.33,.12-.55,.33-.67,.62-.12,.29-.18,.74-.18,1.34V11.88c0,2.36,.51,4.14,1.54,5.36,1.03,1.21,2.47,1.81,4.33,1.81,1.74,0,3.1-.54,4.09-1.63s1.49-2.62,1.49-4.58V4.32c0-1-.23-1.76-.69-2.29Z" fill="#aeffe0"/>
        <path d="M263.49,20.1c-.09,.02-.16,0-.2-.03l-14.13-16.74c-.66-.78-1.25-1.32-1.77-1.63-.52-.31-1.04-.46-1.56-.46-.04,0-.06-.06-.06-.18s.02-.18,.06-.18l1.17,.03c.24,.02,.58,.03,1.02,.03l1.53-.03c.2-.02,.43-.03,.69-.03,.16,0,.28,.04,.36,.12,.08,.08,.2,.24,.36,.48l.72,.96,11.7,14.1,.24,3.48s-.04,.07-.13,.09ZM248.45,1.56l.78,.06v14.58c0,1.04,.19,1.81,.58,2.31,.39,.5,.98,.75,1.78,.75,.04,0,.06,.06,.06,.18s-.02,.18-.06,.18c-.52,0-.92,0-1.2-.03l-1.53-.03-1.62,.03c-.3,.02-.74,.03-1.32,.03-.04,0-.06-.06-.06-.18s.02-.18,.06-.18c.86,0,1.5-.25,1.91-.75s.62-1.27,.62-2.31V1.56Zm15.18,18.45l-.75-.93V4.32c0-1.04-.19-1.81-.57-2.32s-.97-.77-1.77-.77c-.04,0-.06-.06-.06-.18s.02-.18,.06-.18l1.2,.03c.6,.04,1.11,.06,1.53,.06,.36,0,.88-.02,1.56-.06l1.26-.03s.06,.06,.06,.18-.02,.18-.06,.18c-1.64,0-2.46,1.03-2.46,3.09v15.69Z" fill="#aeffe0"/>
        <path d="M275.39,19.65c-.3-.02-.67-.04-1.09-.06-.43-.02-.92-.03-1.46-.03l-2.1,.03c-.38,.02-.9,.03-1.56,.03-.04,0-.06-.06-.06-.18s.02-.18,.06-.18c.72,0,1.25-.05,1.59-.15,.34-.1,.57-.29,.71-.59,.13-.29,.2-.73,.2-1.33V3.3c0-.6-.06-1.04-.18-1.32-.12-.28-.34-.47-.67-.58-.33-.11-.86-.17-1.58-.17-.06,0-.09-.06-.09-.18s.03-.18,.09-.18l1.5,.03c.88,.04,1.58,.06,2.1,.06,.74,0,1.5-.03,2.28-.09,.96-.04,1.61-.06,1.95-.06,2.06,0,3.89,.4,5.49,1.2,1.6,.8,2.84,1.89,3.72,3.27,.88,1.38,1.32,2.93,1.32,4.65,0,1.94-.46,3.66-1.37,5.15s-2.14,2.64-3.69,3.45c-1.55,.81-3.24,1.21-5.06,1.21-.62,0-1.32-.03-2.1-.09Zm5.79-1.46c1.16-.67,2.06-1.65,2.71-2.94,.65-1.29,.97-2.85,.97-4.67s-.31-3.32-.93-4.73-1.5-2.52-2.62-3.33c-1.13-.81-2.45-1.21-3.95-1.21-.86,0-1.52,.05-1.98,.15-.46,.1-.8,.29-1.02,.58s-.33,.73-.33,1.31v13.5c0,.58,.08,1.03,.26,1.36,.17,.33,.48,.58,.93,.74s1.1,.24,1.96,.24c1.5,0,2.83-.34,3.99-1.01Z" fill="#aeffe0"/>
        <path d="M311.48,19.44c0,.12-.05,.18-.15,.18-.38,0-.97-.02-1.77-.06-.84-.04-1.44-.06-1.8-.06-.46,0-1.03,.02-1.71,.06-.68,.04-1.19,.06-1.53,.06-.08,0-.12-.06-.12-.18s.04-.18,.12-.18c.68,0,1.17-.07,1.47-.2s.45-.36,.45-.7-.15-.81-.45-1.41l-6.45-13.41,.96-1.44-5.85,13.56c-.28,.68-.42,1.24-.42,1.68,0,.64,.25,1.12,.75,1.44,.5,.32,1.22,.48,2.16,.48,.1,0,.15,.06,.15,.18s-.05,.18-.15,.18c-.36,0-.88-.02-1.56-.06-.76-.04-1.42-.06-1.98-.06-.52,0-1.14,.02-1.86,.06-.64,.04-1.16,.06-1.56,.06-.08,0-.12-.06-.12-.18s.04-.18,.12-.18c.56,0,1.04-.11,1.42-.33,.39-.22,.77-.6,1.12-1.14,.36-.54,.77-1.34,1.23-2.4l6.39-14.73c.02-.06,.09-.09,.21-.1,.12,0,.19,.03,.21,.1l7.2,14.85c.7,1.46,1.29,2.45,1.75,2.97,.47,.52,1,.78,1.61,.78,.1,0,.15,.06,.15,.18Zm-15.3-8.31h8.16l.21,.66h-8.73l.36-.66Z" fill="#aeffe0"/>
        <path d="M313.85,2.51c-.7,.69-1.22,1.79-1.56,3.31-.02,.04-.08,.06-.2,.06s-.17-.03-.17-.09c.08-.56,.17-1.47,.27-2.73,.1-1.26,.15-2.21,.15-2.85,0-.1,.06-.15,.18-.15s.18,.05,.18,.15c0,.44,.55,.66,1.65,.66,1.72,.06,3.73,.09,6.03,.09,1.18,0,2.43-.02,3.75-.06l2.04-.03c.74,0,1.28-.05,1.62-.15s.56-.3,.66-.6c.02-.08,.08-.12,.2-.12s.17,.04,.17,.12c-.06,.56-.12,1.46-.2,2.7s-.1,2.23-.1,2.97c0,.06-.06,.09-.17,.09s-.17-.03-.17-.09c-.14-1.54-.54-2.64-1.2-3.32-.66-.67-1.64-1-2.94-1-.74,0-1.27,.04-1.59,.13-.32,.09-.54,.26-.66,.51s-.18,.67-.18,1.25v13.83c0,.62,.06,1.07,.2,1.35,.13,.28,.38,.47,.76,.57,.38,.1,.99,.15,1.83,.15,.04,0,.06,.06,.06,.18s-.02,.18-.06,.18c-.7,0-1.25,0-1.65-.03l-2.37-.03-2.31,.03c-.4,.02-.96,.03-1.68,.03-.06,0-.09-.06-.09-.18s.03-.18,.09-.18c.82,0,1.42-.05,1.81-.15,.39-.1,.66-.29,.79-.59,.14-.29,.21-.73,.21-1.33V3.3c0-.56-.06-.96-.18-1.21s-.34-.42-.67-.5-.87-.12-1.61-.12c-1.24,0-2.21,.34-2.91,1.04Z" fill="#aeffe0"/>
        <path d="M337.8,18.54c.11,.28,.33,.47,.66,.57,.33,.1,.86,.15,1.6,.15,.04,0,.06,.06,.06,.18s-.02,.18-.06,.18c-.64,0-1.14,0-1.5-.03l-2.16-.03-2.1,.03c-.38,.02-.9,.03-1.56,.03-.04,0-.06-.06-.06-.18s.02-.18,.06-.18c.72,0,1.25-.05,1.59-.15,.34-.1,.57-.29,.7-.59,.13-.29,.2-.73,.2-1.33V3.3c0-.6-.07-1.04-.2-1.32-.13-.28-.36-.47-.7-.58-.34-.11-.87-.17-1.59-.17-.04,0-.06-.06-.06-.18s.02-.18,.06-.18l1.56,.03c.88,.04,1.58,.06,2.1,.06,.58,0,1.31-.02,2.19-.06l1.47-.03s.06,.06,.06,.18-.02,.18-.06,.18c-.72,0-1.25,.06-1.58,.18-.33,.12-.55,.33-.67,.62-.12,.29-.18,.74-.18,1.34v13.83c0,.62,.05,1.07,.17,1.35Z" fill="#aeffe0"/>
        <path d="M348.96,18.68c-1.45-.87-2.57-2.05-3.36-3.54-.79-1.49-1.19-3.11-1.19-4.88,0-2.06,.52-3.83,1.56-5.29,1.04-1.47,2.37-2.58,4-3.32,1.63-.74,3.29-1.11,5-1.11,1.9,0,3.57,.45,5.01,1.33,1.44,.89,2.54,2.07,3.32,3.53,.77,1.46,1.15,3.01,1.15,4.65,0,1.82-.48,3.49-1.44,5.01s-2.25,2.72-3.86,3.6c-1.61,.88-3.36,1.32-5.23,1.32s-3.52-.44-4.97-1.3Zm9.47-.35c1.02-.66,1.82-1.62,2.41-2.89,.59-1.27,.89-2.79,.89-4.54,0-1.86-.33-3.52-.98-4.98-.65-1.46-1.58-2.6-2.79-3.42-1.21-.82-2.62-1.23-4.21-1.23-2.08,0-3.7,.71-4.86,2.11-1.16,1.41-1.74,3.36-1.74,5.84,0,1.9,.33,3.62,.99,5.16,.66,1.54,1.58,2.75,2.77,3.63,1.19,.88,2.54,1.32,4.07,1.32,1.28,0,2.43-.33,3.45-.99Z" fill="#aeffe0"/>
        <path d="M386.13,20.1c-.09,.02-.16,0-.2-.03l-14.13-16.74c-.66-.78-1.25-1.32-1.77-1.63-.52-.31-1.04-.46-1.56-.46-.04,0-.06-.06-.06-.18s.02-.18,.06-.18l1.17,.03c.24,.02,.58,.03,1.02,.03l1.53-.03c.2-.02,.43-.03,.69-.03,.16,0,.28,.04,.36,.12,.08,.08,.2,.24,.36,.48l.72,.96,11.7,14.1,.24,3.48s-.04,.07-.13,.09Zm-15.04-18.54l.78,.06v14.58c0,1.04,.19,1.81,.58,2.31,.39,.5,.98,.75,1.78,.75,.04,0,.06,.06,.06,.18s-.02,.18-.06,.18c-.52,0-.92,0-1.2-.03l-1.53-.03-1.62,.03c-.3,.02-.74,.03-1.32,.03-.04,0-.06-.06-.06-.18s.02-.18,.06-.18c.86,0,1.5-.25,1.91-.75s.62-1.27,.62-2.31V1.56Zm15.18,18.45l-.75-.93V4.32c0-1.04-.19-1.81-.57-2.32s-.97-.77-1.77-.77c-.04,0-.06-.06-.06-.18s.02-.18,.06-.18l1.2,.03c.6,.04,1.11,.06,1.53,.06,.36,0,.88-.02,1.56-.06l1.26-.03s.06,.06,.06,.18-.02,.18-.06,.18c-1.64,0-2.46,1.03-2.46,3.09v15.69Z" fill="#aeffe0"/>
      </g>
      <g>
        <line y1="10.07" x2="82.52" y2="10.07" fill="none" stroke="#aeffe0" stroke-miterlimit="10"/>
        <line x1="82.52" y1=".26" x2="82.52" y2="19.88" fill="none" stroke="#aeffe0" stroke-miterlimit="10"/>
      </g>
      <g>
        <line x1="499.89" y1="10.07" x2="417.37" y2="10.07" fill="none" stroke="#aeffe0" stroke-miterlimit="10"/>
        <line x1="417.37" y1="19.88" x2="417.37" y2=".26" fill="none" stroke="#aeffe0" stroke-miterlimit="10"/>
      </g>
    </g>
  </g>
</svg>