<?xml version="1.0" encoding="UTF-8"?>
<svg id="_圖層_2" data-name="圖層 2" xmlns="http://www.w3.org/2000/svg" viewBox="0 0 56.55 483">
  <g id="content">
    <g>
      <g>
        <path d="M17.67,42.84c-.24,0-.36-.1-.36-.3,0-.76,.04-1.94,.12-3.54,.08-1.68,.12-2.88,.12-3.6,0-.92-.04-2.06-.12-3.42-.08-1.36-.12-2.38-.12-3.06,0-.16,.12-.24,.36-.24s.36,.08,.36,.24c0,1.36,.13,2.34,.39,2.94,.26,.6,.73,.9,1.41,.9s1.62-.3,2.82-.9l26.82-12.9,2.88,1.92L25.23,9.18c-1.36-.56-2.48-.84-3.36-.84-1.28,0-2.24,.5-2.88,1.5-.64,1-.96,2.44-.96,4.32,0,.2-.12,.3-.36,.3s-.36-.1-.36-.3c0-.72,.04-1.76,.12-3.12,.08-1.52,.12-2.84,.12-3.96,0-1.04-.04-2.28-.12-3.72-.08-1.28-.12-2.32-.12-3.12,0-.16,.12-.24,.36-.24s.36,.08,.36,.24c0,1.12,.22,2.07,.66,2.85s1.2,1.53,2.28,2.25,2.68,1.54,4.8,2.46l29.46,12.78c.12,.04,.19,.18,.21,.42s-.05,.38-.21,.42l-29.7,14.4c-2.92,1.4-4.9,2.57-5.94,3.51-1.04,.94-1.56,2.01-1.56,3.21,0,.2-.12,.3-.36,.3ZM34.29,12.24V28.56l-1.32,.42V11.52l1.32,.72Z" fill="#aeffe0"/>
        <path d="M52.89,71.7c-1.4,1.8-3.3,2.7-5.7,2.7-2.16,0-4.13-.63-5.91-1.89-1.78-1.26-3.18-2.93-4.2-5.01-1.02-2.08-1.53-4.3-1.53-6.66,0-.84,.04-1.82,.12-2.94h-13.5c-1.2,0-2.09,.12-2.67,.36-.58,.24-.97,.69-1.17,1.35s-.3,1.71-.3,3.15c0,.12-.12,.18-.36,.18s-.36-.06-.36-.18c0-1.24,.02-2.22,.06-2.94l.06-4.32-.06-4.2c-.04-.76-.06-1.78-.06-3.06,0-.12,.12-.18,.36-.18s.36,.06,.36,.18c0,1.44,.1,2.5,.3,3.18,.2,.68,.59,1.14,1.17,1.38,.58,.24,1.47,.36,2.67,.36h27.78c1.2,0,2.08-.12,2.64-.36,.56-.24,.95-.69,1.17-1.35,.22-.66,.33-1.71,.33-3.15,0-.08,.12-.12,.36-.12s.36,.04,.36,.12l-.06,3c-.08,1.76-.12,3.16-.12,4.2,0,.84,.02,1.64,.06,2.4,.04,.76,.08,1.42,.12,1.98,.12,1.52,.18,2.9,.18,4.14,0,3.32-.7,5.88-2.1,7.68Zm-30.54,1.23c3.36-2.7,8.06-5.97,14.1-9.81l1.26,4.02c-5,3.4-8.9,6.26-11.7,8.58-2.8,2.32-4.83,4.37-6.09,6.15-1.26,1.78-1.89,3.51-1.89,5.19,0,.12-.12,.18-.36,.18s-.36-.06-.36-.18v-8.58c0-1,1.68-2.85,5.04-5.55Zm29.67-5.31c1.3-1.24,1.95-3.06,1.95-5.46,0-1.56-.29-2.66-.87-3.3-.58-.64-1.67-.96-3.27-.96h-12.66c-.12,1.16-.18,2.34-.18,3.54,0,2.88,.67,4.94,2.01,6.18,1.34,1.24,3.43,1.86,6.27,1.86,3.2,0,5.45-.62,6.75-1.86Z" fill="#aeffe0"/>
        <path d="M54.96,117.81c-.34,1.78-.89,3.45-1.65,5.01-.12,.28-.25,.46-.39,.54-.14,.08-.45,.14-.93,.18l-7.5,.78c-.12,0-.2-.11-.24-.33-.04-.22,.02-.35,.18-.39,6.68-2.04,10.02-6.16,10.02-12.36,0-3.16-.74-5.96-2.22-8.4-1.48-2.44-3.58-4.33-6.3-5.67-2.72-1.34-5.9-2.01-9.54-2.01s-6.77,.73-9.63,2.19c-2.86,1.46-5.1,3.44-6.72,5.94-1.62,2.5-2.43,5.25-2.43,8.25s.79,5.68,2.37,7.68,4.03,3.62,7.35,4.86c.08,.04,.12,.14,.12,.3,0,.08-.03,.17-.09,.27-.06,.1-.11,.15-.15,.15l-6.84-.66c-.48-.04-.78-.1-.9-.18-.12-.08-.26-.28-.42-.6-.92-2-1.57-3.92-1.95-5.76-.38-1.84-.57-3.86-.57-6.06,0-4.24,.83-8.02,2.49-11.34,1.66-3.32,3.97-5.91,6.93-7.77,2.96-1.86,6.36-2.79,10.2-2.79s7.11,.95,10.05,2.85c2.94,1.9,5.22,4.53,6.84,7.89,1.62,3.36,2.43,7.12,2.43,11.28,0,2.32-.17,4.37-.51,6.15Z" fill="#aeffe0"/>
        <path d="M52.59,137.46c.56-.24,.95-.7,1.17-1.38,.22-.68,.33-1.76,.33-3.24,0-.12,.12-.18,.36-.18s.36,.06,.36,.18l-.06,3.06c-.08,1.68-.12,3.08-.12,4.2,0,1.24,.04,2.78,.12,4.62l.06,3.06c0,.08-.12,.12-.36,.12s-.36-.04-.36-.12c0-1.52-.12-2.64-.36-3.36-.24-.72-.65-1.21-1.23-1.47-.58-.26-1.47-.39-2.67-.39H22.17c-1.2,0-2.09,.13-2.67,.39-.58,.26-.97,.74-1.17,1.44-.2,.7-.3,1.83-.3,3.39,0,.08-.12,.12-.36,.12s-.36-.04-.36-.12c0-1.32,.02-2.34,.06-3.06l.06-4.62-.06-4.26c-.04-.76-.06-1.8-.06-3.12,0-.08,.12-.12,.36-.12s.36,.04,.36,.12c0,1.48,.1,2.57,.3,3.27,.2,.7,.59,1.18,1.17,1.44,.58,.26,1.47,.39,2.67,.39h27.78c1.2,0,2.08-.12,2.64-.36Zm-.09,26.64c.58-.24,.99-.72,1.23-1.44s.36-1.84,.36-3.36c0-.12,.12-.18,.36-.18s.36,.06,.36,.18l-.06,2.82c-.08,1.84-.12,3.42-.12,4.74,0,1.12,.04,2.56,.12,4.32l.06,3.06c0,.12-.12,.18-.36,.18s-.36-.06-.36-.18c0-1.48-.11-2.57-.33-3.27-.22-.7-.61-1.17-1.17-1.41-.56-.24-1.44-.36-2.64-.36H22.17c-1.2,0-2.09,.12-2.67,.36-.58,.24-.97,.71-1.17,1.41-.2,.7-.3,1.79-.3,3.27,0,.12-.12,.18-.36,.18s-.36-.06-.36-.18c0-1.28,.02-2.3,.06-3.06l.06-4.32-.06-4.74c-.04-.68-.06-1.62-.06-2.82,0-.12,.12-.18,.36-.18s.36,.06,.36,.18c0,1.56,.1,2.69,.3,3.39,.2,.7,.58,1.17,1.14,1.41,.56,.24,1.46,.36,2.7,.36h27.66c1.2,0,2.09-.12,2.67-.36Zm-14.97-24.06v26.52h-1.38v-26.52h1.38Z" fill="#aeffe0"/>
        <path d="M19.47,192.21c-.56,.22-.94,.66-1.14,1.32s-.3,1.73-.3,3.21c0,.08-.12,.12-.36,.12s-.36-.04-.36-.12c0-1.28,.02-2.28,.06-3l.06-4.32-.06-4.2c-.04-.76-.06-1.8-.06-3.12,0-.08,.12-.12,.36-.12s.36,.04,.36,.12c0,1.44,.1,2.5,.3,3.18,.2,.68,.59,1.15,1.17,1.41,.58,.26,1.47,.39,2.67,.39h27.78c1.2,0,2.08-.13,2.64-.39,.56-.26,.95-.73,1.17-1.41,.22-.68,.33-1.74,.33-3.18,0-.08,.12-.12,.36-.12s.36,.04,.36,.12l-.06,3.12c-.08,1.76-.12,3.16-.12,4.2,0,1.16,.04,2.62,.12,4.38l.06,2.94c0,.08-.12,.12-.36,.12s-.36-.04-.36-.12c0-1.44-.12-2.49-.36-3.15-.24-.66-.65-1.11-1.23-1.35s-1.47-.36-2.67-.36H22.17c-1.24,0-2.14,.11-2.7,.33Z" fill="#aeffe0"/>
        <path d="M51.54,208.62c-1.38-1.4-3.59-2.44-6.63-3.12-.08-.04-.12-.17-.12-.39s.06-.33,.18-.33c1.12,.16,2.94,.34,5.46,.54,2.52,.2,4.42,.3,5.7,.3,.2,0,.3,.12,.3,.36s-.1,.36-.3,.36c-.88,0-1.32,1.1-1.32,3.3-.12,3.44-.18,7.46-.18,12.06,0,2.36,.04,4.86,.12,7.5l.06,4.08c0,1.48,.1,2.56,.3,3.24s.6,1.12,1.2,1.32c.16,.04,.24,.17,.24,.39s-.08,.33-.24,.33c-1.12-.12-2.92-.25-5.4-.39-2.48-.14-4.46-.21-5.94-.21-.12,0-.18-.11-.18-.33s.06-.33,.18-.33c3.08-.28,5.29-1.08,6.63-2.4,1.34-1.32,2.01-3.28,2.01-5.88,0-1.48-.09-2.54-.27-3.18-.18-.64-.52-1.08-1.02-1.32-.5-.24-1.33-.36-2.49-.36H22.17c-1.24,0-2.14,.13-2.7,.39-.56,.26-.94,.77-1.14,1.53-.2,.76-.3,1.98-.3,3.66,0,.08-.12,.12-.36,.12s-.36-.04-.36-.12c0-1.4,.02-2.5,.06-3.3l.06-4.74-.06-4.62c-.04-.8-.06-1.92-.06-3.36,0-.12,.12-.18,.36-.18s.36,.06,.36,.18c0,1.64,.1,2.85,.3,3.63,.2,.78,.59,1.31,1.17,1.59,.58,.28,1.47,.42,2.67,.42h27.78c1.12,0,1.93-.12,2.43-.36,.5-.24,.83-.69,.99-1.35,.16-.66,.24-1.73,.24-3.21,0-2.48-.69-4.42-2.07-5.82Z" fill="#aeffe0"/>
        <path d="M17.67,246.12c.24,0,.36,.06,.36,.18,0,1.44,.1,2.49,.3,3.15,.2,.66,.59,1.11,1.17,1.35s1.47,.36,2.67,.36h27.78c1.2,0,2.08-.12,2.64-.36s.95-.69,1.17-1.35c.22-.66,.33-1.71,.33-3.15,0-.12,.12-.18,.36-.18s.36,.06,.36,.18v24.48c0,.4-.18,.6-.54,.6l-7.56,.12c-.12,0-.19-.11-.21-.33-.02-.22,.03-.35,.15-.39,2.2-.28,3.88-1.06,5.04-2.34,1.16-1.28,1.74-2.96,1.74-5.04v-3.06c0-1.76-.26-2.94-.78-3.54s-1.5-.9-2.94-.9H22.41c-1.44,0-2.42,.27-2.94,.81-.52,.54-.78,1.63-.78,3.27v3.96c0,2.24,.67,4.11,2.01,5.61,1.34,1.5,3.25,2.53,5.73,3.09,.08,0,.12,.08,.12,.24,0,.12-.03,.23-.09,.33-.06,.1-.11,.15-.15,.15-2.88-.4-5.58-.6-8.1-.6-.32,0-.55-.06-.69-.18-.14-.12-.21-.36-.21-.72v-25.56c0-.12,.12-.18,.36-.18Zm17.25,20.91c.82-.98,1.23-2.53,1.23-4.65v-8.76h1.38v8.88c0,2.04,.35,3.54,1.05,4.5s1.79,1.44,3.27,1.44c.08,0,.12,.11,.12,.33s-.04,.33-.12,.33l-5.04-.06-2.7,.06c-1.28,.08-2.28,.12-3,.12-.08,0-.12-.12-.12-.36s.04-.36,.12-.36c1.72,0,2.99-.49,3.81-1.47Z" fill="#aeffe0"/>
        <path d="M54.96,310.35c-.34,1.78-.89,3.45-1.65,5.01-.12,.28-.25,.46-.39,.54-.14,.08-.45,.14-.93,.18l-7.5,.78c-.12,0-.2-.11-.24-.33-.04-.22,.02-.35,.18-.39,6.68-2.04,10.02-6.16,10.02-12.36,0-3.16-.74-5.96-2.22-8.4-1.48-2.44-3.58-4.33-6.3-5.67-2.72-1.34-5.9-2.01-9.54-2.01s-6.77,.73-9.63,2.19c-2.86,1.46-5.1,3.44-6.72,5.94-1.62,2.5-2.43,5.25-2.43,8.25s.79,5.68,2.37,7.68,4.03,3.62,7.35,4.86c.08,.04,.12,.14,.12,.3,0,.08-.03,.17-.09,.27-.06,.1-.11,.15-.15,.15l-6.84-.66c-.48-.04-.78-.1-.9-.18-.12-.08-.26-.28-.42-.6-.92-2-1.57-3.92-1.95-5.76-.38-1.84-.57-3.86-.57-6.06,0-4.24,.83-8.02,2.49-11.34,1.66-3.32,3.97-5.91,6.93-7.77,2.96-1.86,6.36-2.79,10.2-2.79s7.11,.95,10.05,2.85c2.94,1.9,5.22,4.53,6.84,7.89,1.62,3.36,2.43,7.12,2.43,11.28,0,2.32-.17,4.37-.51,6.15Z" fill="#aeffe0"/>
        <path d="M51.54,329.4c-1.38-1.4-3.59-2.44-6.63-3.12-.08-.04-.12-.17-.12-.39s.06-.33,.18-.33c1.12,.16,2.94,.34,5.46,.54,2.52,.2,4.42,.3,5.7,.3,.2,0,.3,.12,.3,.36s-.1,.36-.3,.36c-.88,0-1.32,1.1-1.32,3.3-.12,3.44-.18,7.46-.18,12.06,0,2.36,.04,4.86,.12,7.5l.06,4.08c0,1.48,.1,2.56,.3,3.24s.6,1.12,1.2,1.32c.16,.04,.24,.17,.24,.39s-.08,.33-.24,.33c-1.12-.12-2.92-.25-5.4-.39-2.48-.14-4.46-.21-5.94-.21-.12,0-.18-.11-.18-.33s.06-.33,.18-.33c3.08-.28,5.29-1.08,6.63-2.4,1.34-1.32,2.01-3.28,2.01-5.88,0-1.48-.09-2.54-.27-3.18-.18-.64-.52-1.08-1.02-1.32-.5-.24-1.33-.36-2.49-.36H22.17c-1.24,0-2.14,.13-2.7,.39-.56,.26-.94,.77-1.14,1.53-.2,.76-.3,1.98-.3,3.66,0,.08-.12,.12-.36,.12s-.36-.04-.36-.12c0-1.4,.02-2.5,.06-3.3l.06-4.74-.06-4.62c-.04-.8-.06-1.92-.06-3.36,0-.12,.12-.18,.36-.18s.36,.06,.36,.18c0,1.64,.1,2.85,.3,3.63,.2,.78,.59,1.31,1.17,1.59,.58,.28,1.47,.42,2.67,.42h27.78c1.12,0,1.93-.12,2.43-.36,.5-.24,.83-.69,.99-1.35,.16-.66,.24-1.73,.24-3.21,0-2.48-.69-4.42-2.07-5.82Z" fill="#aeffe0"/>
        <path d="M52.5,397.44c1.06-.92,1.59-2.24,1.59-3.96,0-.12,.12-.18,.36-.18s.36,.06,.36,.18l-.06,2.7c-.08,1.44-.12,2.58-.12,3.42,0,.72,.04,1.76,.12,3.12l.06,2.58c0,.08-.12,.12-.36,.12s-.36-.04-.36-.12c0-1.6-.52-2.81-1.56-3.63-1.04-.82-2.58-1.23-4.62-1.23H30.93c-4.48,0-8-1.31-10.56-3.93-2.56-2.62-3.84-6.11-3.84-10.47,0-2.96,.57-5.56,1.71-7.8,1.14-2.24,2.78-3.98,4.92-5.22,2.14-1.24,4.65-1.86,7.53-1.86h19.26c1.2,0,2.08-.12,2.64-.36s.95-.69,1.17-1.35c.22-.66,.33-1.71,.33-3.15,0-.12,.12-.18,.36-.18s.36,.06,.36,.18l-.06,3c-.08,1.76-.12,3.16-.12,4.2,0,1.16,.04,2.58,.12,4.26l.06,2.94c0,.12-.12,.18-.36,.18s-.36-.06-.36-.18c0-1.4-.12-2.43-.36-3.09-.24-.66-.65-1.11-1.23-1.35s-1.47-.36-2.67-.36h-17.04c-4.72,0-8.29,1.03-10.71,3.09-2.42,2.06-3.63,4.95-3.63,8.67,0,3.48,1.09,6.21,3.27,8.19,2.18,1.98,5.23,2.97,9.15,2.97h17.04c2,0,3.53-.46,4.59-1.38Z" fill="#aeffe0"/>
        <path d="M52.89,435.54c-1.4,1.8-3.3,2.7-5.7,2.7-2.16,0-4.13-.63-5.91-1.89-1.78-1.26-3.18-2.93-4.2-5.01-1.02-2.08-1.53-4.3-1.53-6.66,0-.84,.04-1.82,.12-2.94h-13.5c-1.2,0-2.09,.12-2.67,.36-.58,.24-.97,.69-1.17,1.35s-.3,1.71-.3,3.15c0,.12-.12,.18-.36,.18s-.36-.06-.36-.18c0-1.24,.02-2.22,.06-2.94l.06-4.32-.06-4.2c-.04-.76-.06-1.78-.06-3.06,0-.12,.12-.18,.36-.18s.36,.06,.36,.18c0,1.44,.1,2.5,.3,3.18,.2,.68,.59,1.14,1.17,1.38,.58,.24,1.47,.36,2.67,.36h27.78c1.2,0,2.08-.12,2.64-.36,.56-.24,.95-.69,1.17-1.35,.22-.66,.33-1.71,.33-3.15,0-.08,.12-.12,.36-.12s.36,.04,.36,.12l-.06,3c-.08,1.76-.12,3.16-.12,4.2,0,.84,.02,1.64,.06,2.4,.04,.76,.08,1.42,.12,1.98,.12,1.52,.18,2.9,.18,4.14,0,3.32-.7,5.88-2.1,7.68Zm-30.54,1.23c3.36-2.7,8.06-5.97,14.1-9.81l1.26,4.02c-5,3.4-8.9,6.26-11.7,8.58-2.8,2.32-4.83,4.37-6.09,6.15-1.26,1.78-1.89,3.51-1.89,5.19,0,.12-.12,.18-.36,.18s-.36-.06-.36-.18v-8.58c0-1,1.68-2.85,5.04-5.55Zm29.67-5.31c1.3-1.24,1.95-3.06,1.95-5.46,0-1.56-.29-2.66-.87-3.3-.58-.64-1.67-.96-3.27-.96h-12.66c-.12,1.16-.18,2.34-.18,3.54,0,2.88,.67,4.94,2.01,6.18,1.34,1.24,3.43,1.86,6.27,1.86,3.2,0,5.45-.62,6.75-1.86Z" fill="#aeffe0"/>
        <path d="M17.67,455.76c.24,0,.36,.06,.36,.18,0,1.44,.1,2.49,.3,3.15,.2,.66,.59,1.11,1.17,1.35s1.47,.36,2.67,.36h27.78c1.2,0,2.08-.12,2.64-.36s.95-.69,1.17-1.35c.22-.66,.33-1.71,.33-3.15,0-.12,.12-.18,.36-.18s.36,.06,.36,.18v24.48c0,.4-.18,.6-.54,.6l-7.56,.12c-.12,0-.19-.11-.21-.33-.02-.22,.03-.35,.15-.39,2.2-.28,3.88-1.06,5.04-2.34,1.16-1.28,1.74-2.96,1.74-5.04v-3.06c0-1.76-.26-2.94-.78-3.54s-1.5-.9-2.94-.9H22.41c-1.44,0-2.42,.27-2.94,.81-.52,.54-.78,1.63-.78,3.27v3.96c0,2.24,.67,4.11,2.01,5.61,1.34,1.5,3.25,2.53,5.73,3.09,.08,0,.12,.08,.12,.24,0,.12-.03,.23-.09,.33-.06,.1-.11,.15-.15,.15-2.88-.4-5.58-.6-8.1-.6-.32,0-.55-.06-.69-.18-.14-.12-.21-.36-.21-.72v-25.56c0-.12,.12-.18,.36-.18Zm17.25,20.91c.82-.98,1.23-2.53,1.23-4.65v-8.76h1.38v8.88c0,2.04,.35,3.54,1.05,4.5s1.79,1.44,3.27,1.44c.08,0,.12,.11,.12,.33s-.04,.33-.12,.33l-5.04-.06-2.7,.06c-1.28,.08-2.28,.12-3,.12-.08,0-.12-.12-.12-.36s.04-.36,.12-.36c1.72,0,2.99-.49,3.81-1.47Z" fill="#aeffe0"/>
      </g>
      <line x1=".5" y1=".3" x2=".5" y2="482.06" fill="none" stroke="#aeffe0" stroke-miterlimit="10"/>
    </g>
  </g>
</svg>