<?xml version="1.0" encoding="UTF-8"?>
<svg id="_圖層_2" data-name="圖層 2" xmlns="http://www.w3.org/2000/svg" xmlns:xlink="http://www.w3.org/1999/xlink" viewBox="0 0 452.92 165.89">
  <defs>
    <filter id="drop-shadow-1" filterUnits="userSpaceOnUse">
      <feOffset dx="0" dy="0"/>
      <feGaussianBlur result="blur" stdDeviation="3"/>
      <feFlood flood-color="#244441" flood-opacity=".5"/>
      <feComposite in2="blur" operator="in"/>
      <feComposite in="SourceGraphic"/>
    </filter>
    <filter id="drop-shadow-2" filterUnits="userSpaceOnUse">
      <feOffset dx="0" dy="0"/>
      <feGaussianBlur result="blur-2" stdDeviation="3"/>
      <feFlood flood-color="#244441" flood-opacity=".5"/>
      <feComposite in2="blur-2" operator="in"/>
      <feComposite in="SourceGraphic"/>
    </filter>
  </defs>
  <g id="content">
    <g>
      <rect x="3.91" y="115.84" width="151.87" height="49.55" rx="9.1" ry="9.1" fill="none" stroke="#829995" stroke-miterlimit="10"/>
      <g>
        <path d="M44.37,150l-.69,2.35c-.84,.05-1.91,.08-3.21,.08-5.66,0-9.3-.21-10.92-.64-1.62-.42-3.09-1.26-4.43-2.52-1.16,1.56-2.21,2.73-3.14,3.5l-1.88-1.8c1.42-1.08,2.54-2.27,3.36-3.55-1.05-1.51-1.89-3.35-2.52-5.51l2.21-.75c.38,1.38,.87,2.62,1.45,3.75,.52-1.65,.79-3.39,.79-5.21h-4.5v-2.35c1.79-2.14,3.12-4.16,4.01-6.04h-4.42v-2.38h7.1v2.38c-.76,1.75-1.96,3.76-3.59,6.02h3.89c0,4.23-.58,7.56-1.74,9.99,1.65,1.56,3.66,2.41,6.04,2.55,2.38,.14,5.02,.21,7.93,.21,1.48,0,2.91-.02,4.29-.07Zm-.39-2.94h-7.36v2.24h-2.32v-2.24h-6.47v-2.08h6.47v-1.76h-5.49v-1.98h5.49v-1.65h-4.91v-1.93h4.91v-1.91h-6.47v-1.96h6.47v-1.79h-4.91v-1.96h4.91v-1.74h2.32v1.74h5.75v3.75h1.56v1.96h-1.56v3.84h-5.75v1.65h6.27v1.98h-6.27v1.76h7.36v2.08Zm-4.01-13.28v-1.79h-3.36v1.79h3.36Zm0,3.87v-1.91h-3.36v1.91h3.36Z" fill="#aeffe0"/>
        <path d="M63.32,131.86h-7.34c-1.04,1.18-2.06,2.15-3.06,2.91l-1.6-1.79c2.11-1.53,3.62-3.2,4.53-5.02l2.22,.72c-.15,.42-.33,.77-.55,1.07h5.79v2.11Zm-1.81,5.48h-3.57v2.69c1.43-.27,2.54-.53,3.33-.77l.05,2.16c-3.21,.71-6.29,1.28-9.24,1.71l-.47-2.04c1.86-.23,3.19-.44,4.01-.63v-3.13h-3.33v-2.04h9.21v2.04Zm-.84,11.35c-2.49,1.66-5.05,2.93-7.7,3.8l-1.36-2.16c2.39-.61,4.84-1.75,7.36-3.4l1.69,1.76Zm14.81-2.47h-10.69v6.47h-2.37v-6.47h-10.67v-2.12h10.67v-.9h2.37v.9h10.69v2.12Zm-14.37-12.03l-2.46,.62c-.41-.75-.83-1.36-1.25-1.85l2.44-.71c.45,.47,.88,1.12,1.28,1.94Zm14.62,5.03c-.09,1.4-.32,2.31-.7,2.73-.38,.42-1.18,.62-2.42,.62-.96,0-1.62-.18-1.97-.53s-.53-.9-.53-1.64v-3.05h-2.65c-.13,.7-.31,1.34-.52,1.93,.83,.49,1.54,.98,2.13,1.46l-1.25,1.74c-.68-.56-1.35-1.03-2-1.41-.95,.92-1.82,1.53-2.62,1.83l-1.33-1.71c.58-.17,1.25-.54,2.02-1.09-.42-.26-.95-.51-1.58-.75l1.15-1.68c.43,.15,.92,.35,1.46,.62,.14-.3,.24-.61,.31-.93h-2.92v-2.04h10.04v4.87c0,.25,.11,.37,.32,.37,.39,0,.65-.11,.77-.32,.12-.21,.19-.8,.19-1.76l2.1,.75Zm-.28-7.36h-8.64c-.81,1.09-1.67,2.06-2.57,2.88l-1.82-1.49c1.95-1.72,3.3-3.48,4.04-5.26l2.32,.59c-.12,.35-.31,.74-.57,1.18h7.26v2.11Zm.44,18.84l-1.42,1.87c-2.7-1.7-5.26-2.94-7.68-3.75l1.54-1.94c2.75,1.02,5.27,2.29,7.56,3.81Zm-3.79-16.57l-2.58,.52c-.42-.76-.86-1.38-1.32-1.87l2.6-.59c.57,.72,1,1.37,1.3,1.94Z" fill="#aeffe0"/>
        <path d="M92.57,133.12h-9.55v-2.27h3.66c-.27-.74-.58-1.44-.93-2.11l2.42-.62c.4,.71,.77,1.62,1.12,2.72h3.28v2.27Zm-.65,4.06h-8.16v-2.24h8.16v2.24Zm0,4.01h-8.16v-2.21h8.16v2.21Zm.03,10.86h-2.37v-1.12h-3.44v1.79h-2.32v-9.68h8.12v9.01Zm-2.37-3.39v-3.32h-3.44v3.32h3.44Zm17.59,1.94l-1.15,2.27c-2.29-.75-4.37-1.84-6.24-3.28-1.71,1.33-3.68,2.45-5.93,3.36l-1.38-2.13c2.23-.71,4.08-1.67,5.57-2.88-1.47-1.7-2.62-3.62-3.44-5.77h-1.24v-2.3h11.89v2.3c-1.15,2.43-2.37,4.35-3.68,5.74,1.49,1.17,3.36,2.06,5.59,2.69Zm-.31-12.37h-3.54c-.45,0-.86-.2-1.22-.59s-.55-.85-.55-1.35v-4.98h-3.74v1.68c0,1.23-.3,2.42-.9,3.57-.6,1.15-1.42,2.03-2.46,2.64l-1.69-1.71c1.78-.97,2.68-2.69,2.68-5.18v-3.29h8.48v6.23c0,.18,.08,.35,.25,.49,.17,.15,.33,.22,.48,.22h2.21v2.27Zm-4.22,3.94h-5.43c.79,1.76,1.66,3.14,2.62,4.14,.99-.98,1.93-2.37,2.81-4.14Z" fill="#aeffe0"/>
        <path d="M125.76,133.01h-11.34v-2.21h4.5c-.29-.78-.63-1.54-1.01-2.27l2.54-.48c.42,.76,.82,1.67,1.2,2.75h4.12v2.21Zm-1.28,4.17h-9.08v-2.24h9.08v2.24Zm0,4.03h-9.08v-2.21h9.08v2.21Zm.05,11.12h-2.37v-1.41h-4.23v1.76h-2.4v-9.62h9v9.27Zm-2.37-3.64v-3.34h-4.23v3.34h4.23Zm16.06-10.25h-4.97v14.25h-2.48v-14.25h-4.86v-2.46h4.86v-7.7h2.48v7.7h4.97v2.46Z" fill="#aeffe0"/>
      </g>
      <g filter="url(#drop-shadow-1)">
        <path d="M202.04,152.07h-23.78v-1.48h11.13v-9.97h-9.57v-1.46h9.57v-8.79h-10.17v-1.48h21.81v1.48h-10.17v8.79h9.63v1.46h-9.63v9.97h11.18v1.48Z" fill="#fff"/>
        <path d="M220.99,133.54l-1,1c-.99-1.13-2.4-2.48-4.21-4.06-1.19,1.72-2.5,3.23-3.93,4.51h7.42v1.37h-2.94v3.09h4.06v1.39h-4.06v8.65c1.49-.26,2.81-.53,3.95-.81l.11,1.42c-2.86,.64-6.33,1.28-10.41,1.93l-.33-1.39c1.62-.17,3.38-.46,5.3-.88v-8.93h-4.73v-1.39h4.73v-3.09h-3.41v-1.03c-.55,.48-.98,.83-1.29,1.03l-.79-1.15c2.83-2.36,4.83-4.71,6-7.05l1.33,.45c-.08,.22-.18,.45-.31,.7,2.02,1.78,3.52,3.19,4.5,4.24Zm-7.6,14.7l-1.28,.41c-.18-1.27-.61-3.13-1.29-5.59l1.32-.4c.52,1.71,.93,3.57,1.25,5.58Zm6.68-5.29c-.28,1.69-.67,3.35-1.2,4.98l-1.29-.48c.39-1.1,.78-2.73,1.17-4.89l1.32,.4Zm12.21,9.73h-1.44v-1.85h-6.14v1.85h-1.45v-9.71c-.79,.45-1.39,.77-1.8,.97l-.81-1.2c2.32-1.21,4.23-2.57,5.75-4.06-.91-1.05-2.01-2.13-3.3-3.24l-1.72,2.01-1.06-.97c2.18-2.23,3.96-5.03,5.34-8.38l1.37,.45c-.22,.56-.57,1.35-1.04,2.38h6.19v1.41c-1.42,3.78-3.73,6.87-6.92,9.26h7.03v11.09Zm-1.69-20.34h-5.34c-.61,.96-1.05,1.63-1.32,2.01,1.23,1.01,2.4,2.1,3.5,3.25,1.38-1.59,2.43-3.35,3.16-5.26Zm.25,17.1v-6.44h-6.14v6.44h6.14Z" fill="#fff"/>
        <path d="M246.21,138.71l-.89,1.24c-1.1-1.18-2.56-2.37-4.39-3.57l.93-1.11c1.65,.98,3.1,2.13,4.35,3.43Zm.25,5.18c-1.47,3.71-2.96,6.65-4.45,8.82l-1.09-1.03c1.59-2.31,3.04-5.22,4.34-8.71l1.2,.92Zm-.21-12.26l-.91,1.15c-1.18-1.43-2.51-2.61-3.98-3.53l.96-1.12c1.62,1.11,2.92,2.28,3.93,3.5Zm6.56,13.22c-2.09,1.43-4.25,2.75-6.46,3.95l-.65-1.26c.86-.45,2-1.11,3.41-2v-12.69h-2.13v-1.34h5.59v1.34h-2.16v11.85c.92-.57,1.6-1.03,2.04-1.35l.36,1.49Zm1.67,1.57c-.12,1.6-.51,3.35-1.17,5.26l-1.3-.29c.65-1.68,1.06-3.42,1.25-5.24l1.23,.26Zm10.17-4.96h-9.52v2.13h9.19c0,1.34-.09,2.95-.27,4.82-.18,1.87-.42,2.98-.74,3.31-.32,.33-.63,.59-.94,.78-.31,.19-.87,.28-1.68,.28h-1.12l-.41-1.52c.8,.05,1.45,.08,1.94,.08,.69,0,1.13-.32,1.31-.96s.34-2.47,.46-5.48h-9.05v-14.56h2.78c.17-.47,.38-1.19,.63-2.16l1.38,.21c-.14,.7-.36,1.35-.65,1.96h5.1v7.78h-7.94v2.05h9.52v1.29Zm-7.86,9.88l-1.28,.26c.06-1.97-.08-3.65-.41-5.04l1.22-.16c.31,1.36,.47,3.01,.47,4.95Zm4.94-17.8v-1.89h-6.6v1.89h6.6Zm0,3.29v-1.93h-6.6v1.93h6.6Zm-2.26,13.33l-1.22,.4c-.2-1.52-.5-2.91-.91-4.17l1.17-.26c.37,1.23,.68,2.58,.96,4.03Zm2.53-.86l-1.15,.44c-.25-1.08-.71-2.31-1.38-3.69l1.17-.27c.59,1.15,1.05,2.32,1.36,3.53Z" fill="#fff"/>
        <path d="M296.09,150.89l-.33,1.49c-1.64,.05-3.21,.07-4.69,.07-3.2,0-5.49-.08-6.85-.25-1.36-.17-2.71-.49-4.03-.97-1.33-.48-2.51-1.26-3.54-2.34-1.3,1.68-2.53,2.98-3.69,3.92l-.97-1.15c1.36-1.09,2.56-2.38,3.62-3.87-1.01-1.4-1.86-3.24-2.56-5.51l1.28-.53c.51,1.98,1.19,3.54,2.04,4.68,.96-2.04,1.5-4.43,1.61-7.18h-5.05v-1.31c1.69-2.18,3.37-4.69,5.05-7.53h-5.59v-1.39h7.12v1.39c-1.66,2.87-3.25,5.35-4.78,7.42h4.73c-.18,4.12-.88,7.39-2.1,9.8,.86,.9,1.83,1.61,2.91,2.12,1.08,.51,2.23,.85,3.46,1,1.22,.16,3.64,.24,7.24,.24,1.79,0,3.5-.03,5.13-.1Zm-.21-15.18h-1.94v3.98h-6.22v2.32h6.76v1.37h-6.76v2.3h7.7v1.38h-7.7v2.78h-1.36v-2.78h-6.76v-1.38h6.76v-2.3h-5.73v-1.37h5.73v-2.32h-5.21v-1.39h5.21v-2.58h-6.74v-1.42h6.74v-2.43h-5.18v-1.38h5.18v-2.09h1.36v2.09h6.22v3.81h1.94v1.42Zm-3.33-1.42v-2.38h-4.83v2.38h4.83Zm0,4.01v-2.58h-4.83v2.58h4.83Z" fill="#fff"/>
        <path d="M315.51,131.49h-7.66c-.8,1.08-1.78,2.12-2.96,3.13l-1.22-.86c1.94-1.57,3.55-3.49,4.81-5.77l1.36,.51c-.32,.57-.67,1.13-1.04,1.65h6.71v1.34Zm11.87,14.16h-11.13v7.03h-1.46v-7.03h-11.1v-1.31h11.1v-1.29h1.46v1.29h11.13v1.31Zm-14.81,2.3c-2,1.44-4.62,2.81-7.88,4.12l-.99-1.26c3.14-1.12,5.77-2.41,7.88-3.86l.99,1Zm1.58-11.36h-3.93v4.09c.93-.15,2.23-.46,3.9-.9v1.38c-3.39,.81-6.55,1.46-9.49,1.96l-.39-1.29,4.53-.85v-4.39h-3.98v-1.35h9.36v1.35Zm-1.42-2.49l-1.23,.64c-.62-.97-1.2-1.71-1.74-2.24l1.25-.62c.81,.85,1.38,1.59,1.72,2.21Zm14.75,5.11c0,1.06-.21,1.86-.62,2.41-.41,.55-1.15,.82-2.22,.82-1.47,0-2.21-.53-2.21-1.6v-4.2h-2.64c-.12,1.19-.36,2.13-.72,2.83,.7,.43,1.48,1.04,2.34,1.85l-.95,.86c-.68-.61-1.39-1.17-2.13-1.67-.82,.88-1.74,1.54-2.78,1.98l-1.15-1.04c1.24-.48,2.18-1.04,2.81-1.68-.88-.56-1.61-.98-2.18-1.26l.93-.98c.61,.31,1.27,.69,1.96,1.15,.28-.6,.44-1.28,.47-2.04h-2.97v-1.31h8.4v5.26c0,.31,.31,.46,.93,.46,.56,0,.92-.21,1.08-.64,.16-.43,.25-.99,.25-1.68l1.38,.48Zm-.05-7.72h-8.35c-1.09,1.32-2.14,2.36-3.13,3.1l-1.25-.86c2.05-1.55,3.73-3.43,5.03-5.63l1.32,.56c-.33,.57-.66,1.06-.99,1.49h7.36v1.34Zm.11,19.61l-.95,1.09c-2.15-1.46-4.75-2.8-7.8-4.03l.99-1.15c3.06,1.31,5.65,2.68,7.76,4.09Zm-3.85-16.75l-1.25,.59c-.49-1.02-1-1.83-1.52-2.43l1.3-.51c.68,.76,1.16,1.54,1.46,2.35Z" fill="#fff"/>
        <path d="M344.61,151.01h-7v1.76h-1.43v-21.29h2.78c.66-1.21,1.15-2.31,1.48-3.31l1.36,.42c-.29,.87-.74,1.83-1.33,2.88h3.49v7.53h-6.35v3.64h7v8.35Zm-2.1-13.33v-4.8h-4.9v4.8h4.9Zm.67,11.92v-5.56h-5.57v5.56h5.57Zm15.73-19.21h-5.83v3.95h4.69v14.42c0,1.5-1.04,2.17-3.13,1.98l-.44-1.45c.44,.03,.79,.04,1.05,.04,.75,0,1.13-.26,1.13-.78v-12.85h-3.3v17.06h-1.4v-17.06h-3.37v15.04h-1.42v-16.41h4.79v-3.95h-6.02v-1.45h13.25v1.45Z" fill="#fff"/>
        <path d="M390.15,144.82h-2.24v3.58h-9v2.3c0,.74-.22,1.24-.67,1.52s-1.41,.41-2.9,.41c-.49,0-.99-.02-1.5-.05l-.45-1.34,3.44-.03c.47,0,.71-.25,.71-.75v-2.05h-9.68v-1.26h9.68v-2.32h-11.16v-1.34h11.16v-2.08h-9.68v-1.34h9.68v-2.08h-8.81v-4.73h8.81v-1.87h-10.96v-1.29h10.96v-1.97h1.38v1.97h10.9v1.29h-10.9v1.87h8.84v4.73h-8.84v2.08h9v3.42h2.24v1.34Zm-12.62-8.18v-2.08h-7.36v2.08h7.36Zm8.77,0v-2.08h-7.39v2.08h7.39Zm.17,6.84v-2.08h-7.56v2.08h7.56Zm0,3.66v-2.32h-7.56v2.32h7.56Z" fill="#fff"/>
        <path d="M408.18,137.29c-.12,2.39-.83,4.53-2.13,6.44l-1.04-1.01c.78-1.21,1.33-2.56,1.64-4.03h-2.54v12.29c0,.36-.14,.75-.43,1.14s-1.02,.59-2.2,.59c-.45,0-.87-.03-1.25-.08l-.8-1.5c1.15,.09,2.05,.14,2.7,.14,.13,0,.28-.07,.43-.21s.23-.27,.23-.41v-10.1c-1.32,3.43-2.7,6.1-4.14,8.03l-.93-1.12c1.6-2.13,3.04-5.05,4.34-8.76h-4.23v-1.39h6.03c-1.14-1.34-2.53-2.6-4.19-3.77l1-.93c.65,.46,1.47,1.11,2.46,1.96,1.26-1.48,2.26-2.88,3-4.22h-7.34v-1.39h8.89v1.39c-.9,1.7-2.06,3.41-3.5,5.15l.93,1.07-.84,.75h3.93Zm11.72,6.41c-.05,1.91-.2,3.62-.44,5.15s-.48,2.46-.73,2.78c-.24,.32-.55,.59-.92,.83-.37,.23-1.54,.32-3.51,.25l-.65-1.5c.56,.05,1.17,.07,1.82,.07,.99,0,1.59-.05,1.78-.15,.19-.1,.34-.25,.45-.44,.11-.2,.23-.81,.37-1.85s.27-2.28,.39-3.73h-4.55c-.76,3.6-3.02,6.17-6.76,7.71l-1.04-1.15c1.5-.47,2.86-1.32,4.07-2.55,1.22-1.23,1.99-2.56,2.33-4.01h-4.33v-1.39h4.66c.13-.74,.21-1.67,.24-2.8l1.37,.05c0,.68-.08,1.6-.23,2.75h5.67Zm1.61-3.39l-.79,1.26c-2.1-.64-4.05-1.64-5.87-2.99-1.7,1.29-3.45,2.27-5.23,2.94l-.96-1.2c1.71-.53,3.4-1.41,5.07-2.65-1.12-1.15-1.93-2.19-2.45-3.12l1.2-.7c.62,1.1,1.39,2.07,2.32,2.91,1.24-1.09,2.21-2.6,2.89-4.51h-5.83c-1.16,1.51-2.23,2.66-3.2,3.45l-1.05-1c2.02-1.64,3.73-3.84,5.13-6.59l1.36,.53c-.33,.69-.76,1.43-1.28,2.21h8.28v1.39h-1.93c-.71,2.17-1.78,3.96-3.22,5.39,1.68,1.21,3.53,2.11,5.57,2.68Z" fill="#fff"/>
        <path d="M440.4,129.51c-2.59,1.12-5.29,1.84-8.1,2.15v3.34h7.14v8.15h-7.16c-.24,4.02-.96,7.15-2.16,9.38l-1.2-.86c1.32-2.65,1.98-5.8,1.98-9.45v-11.7c3.69-.42,6.65-1.18,8.87-2.27l.62,1.27Zm-2.34,12.21v-5.36h-5.75v5.36h5.75Zm14.86-3.25h-3.1v14.34h-1.34v-14.34h-4.9c0,3.84-.3,6.68-.93,8.53-.63,1.85-1.59,3.79-2.9,5.81l-1.14-.96c1.54-2.24,2.53-4.25,2.94-6.02,.42-1.77,.63-4.12,.63-7.05v-8.54c3.7-.18,6.93-.85,9.68-2l.75,1.27c-2.42,1.02-5.43,1.69-9.03,2.01v5.58h9.35v1.37Z" fill="#fff"/>
      </g>
      <g filter="url(#drop-shadow-2)">
        <path d="M40.21,58.78c-5.46,.4-12.21,1.42-20.26,3.06-8,1.53-12.63,2.18-13.89,1.95-1.87-.4-3.5-1.41-4.88-3.06-1.21-1.53-1.49-2.72-.83-3.57,.83-.85,1.52-.68,2.07,.51,.5,1.19,1.9,2.09,4.22,2.72,1.38,.34,5.13-.17,11.25-1.53,3.47-.85,7.25-1.56,11.33-2.12,0-.17,.08-.31,.25-.42,.83-2.21,1.24-7.05,1.24-14.52,0-1.92-.03-3.74-.08-5.43-1.82,.51-3.67,1.08-5.54,1.7-4.3,1.08-7.42,1.44-9.35,1.1-.99-.17-1.63-.82-1.9-1.95-.22-1.07-.14-1.92,.25-2.55,.5-.51,1.05-.48,1.65,.08,.99,1.02,2.98,1.27,5.96,.76,2.2-.4,5.18-1.24,8.93-2.55,0-2.77,.11-4.93,.33-6.45,.17-2.77,.19-4.95,.08-6.54-.17-1.53-.61-2.66-1.32-3.4-.22-.17-.41-.37-.58-.59-.55,.17-1.16,.37-1.82,.59-6.95,1.87-10.92,2.89-11.91,3.06-.88,.06-2.15-.17-3.8-.68-.99-.34-1.52-1.02-1.57-2.04,0-1.02,.25-1.7,.74-2.04,.5-.23,.99-.2,1.49,.08,.83,.51,1.93,.74,3.31,.68,1.32-.06,5.38-1.07,12.16-3.06,6.78-1.87,11.83-3.08,15.13-3.65,3.31-.51,6.12-.48,8.43,.08,.99,.17,1.57,.51,1.74,1.02,.05,.51-.11,.93-.5,1.27-.5,.34-.8,.85-.91,1.53-.06,.68-.3,1.08-.74,1.19-.33,0-.72-.17-1.16-.51-.39-.34-1.13-.62-2.23-.85-1.05-.06-2.92,.08-5.62,.42-1.98,.17-5.02,.82-9.1,1.95,.66,.85,1.13,1.93,1.41,3.23,.17,1.36,.17,3.43,0,6.2-.17,1.42-.28,3.91-.33,7.47l.17-.08c5.18-1.87,8.99-3,11.41-3.4,.72,0,1.6,.51,2.65,1.53,.99,1.02,1.43,2.15,1.32,3.4-.06,.34-.39,.74-.99,1.19-.55,.34-3.25,1.67-8.1,3.99-.88,.51-1.74,.74-2.56,.68-.66,0-1.07-.25-1.24-.76-.05-.4,.25-.79,.91-1.19,1.32-.51,2.84-1.36,4.55-2.55,1.65-1.02,2.42-1.7,2.31-2.04-.22-.4-2.4,.08-6.53,1.44-1.32,.34-2.62,.74-3.89,1.19,0,1.76,.03,3.82,.08,6.2,0,7.13-.33,12.03-.99,14.69,1.38-.17,2.87-.31,4.47-.42,6.95-.68,12.35-.99,16.21-.93,3.8,.06,6.53,.51,8.19,1.36,1.65,.68,3.33,1.64,5.04,2.89,1.82,1.19,2.29,1.98,1.41,2.38-.83,.34-1.41,.76-1.74,1.27-.33,.51-.69,.59-1.07,.25-.39-.23-1.13-.34-2.23-.34-1.05,.06-1.68-.31-1.9-1.1-.17-1.02-.96-1.81-2.4-2.38-1.32-.51-3.42-.82-6.29-.93-2.81,0-6.95,.17-12.41,.51Z" fill="#fff"/>
        <path d="M144.74,18.42c-2.27,5.85-4.77,11.32-7.52,16.41-2.59,5.04-5.17,9.37-7.75,13-.16,.16-.29,.35-.39,.57,.47-.16,1.03-.41,1.66-.73,3.85-1.84,7.41-3.11,10.68-3.82,3.22-.65,5.85-.62,7.91,.08,2.21,.81,3.51,2.3,3.88,4.47,.16,2.76-.87,5.47-3.09,8.12-1.63,1.84-4.46,4.03-8.46,6.58,.47,0,.92,.05,1.34,.16,2.37,.32,4.09,.32,5.14,0,1.11-.32,2.53,.05,4.27,1.14,.63,.32,.66,1.06,.08,2.19-.53,.97-1.29,1.38-2.29,1.22-2.11-.65-4.93-1.03-8.46-1.14-3.22,0-7.2,.24-11.95,.73-.16,.32-.45,.6-.87,.81-.95,.32-1.61,.32-1.98,0-.32-.32-.63-.89-.95-1.71-1-2.81-2.24-6.28-3.72-10.4-.53,.65-1.11,1.25-1.74,1.79-3.38,3.09-6.46,5.39-9.26,6.9-2.69,1.46-4.77,2.17-6.25,2.11-1.58-.16-2.53-.7-2.85-1.62-.21-.81-.32-1.79-.32-2.92,0-.49,.03-.84,.08-1.06h-.08c-.32,.16-.61,.32-.87,.49h-.08c-2.43,1.35-4.17,2.25-5.22,2.68-2.37,.81-4.27,1.22-5.7,1.22-2.53-.16-3.93-.49-4.19-.97-.32-.49,0-1.43,.95-2.84,.32-.54,.68-.65,1.11-.32,.32,.38,.9,.6,1.74,.65,.16,0,.42-.03,.79-.08,3.48-2.33,6.64-4.63,9.49-6.9,0-1.35,.08-3.14,.24-5.36v-2.92c-3.32,1.95-7.02,4.5-11.08,7.64-.79,.49-1.42,.3-1.9-.57-.47-.87-.42-1.57,.16-2.11,4.75-3.3,9.04-6.01,12.9-8.12,.05-1.3,.16-2.46,.32-3.49-1,.49-2.24,1.06-3.72,1.71-3.32,1.35-5.75,2.14-7.28,2.36-1.74,.05-2.82,.03-3.24-.08-.37-.16-.66-.84-.87-2.03-.21-2.17,.08-3.03,.87-2.6,.47,.22,.95,.41,1.42,.57,.16-.16,.39-.32,.71-.49,3.32-1.62,7.2-4.44,11.63-8.45,.68-.65,1.37-1.33,2.06-2.03,.05-.49,.18-.92,.4-1.3,.16-.81,.53-1.25,1.11-1.3,.32,0,.63,.08,.95,.24,1.16-1.14,1.71-1.81,1.66-2.03-.16-.16-1.66,.3-4.51,1.38-3.53,1.35-6.01,2.03-7.44,2.03-.37,0-.66-.11-.87-.32-3.8,4.44-7.52,8.58-11.15,12.43-.47,.49-1.08,.84-1.82,1.06-.69,.16-1.19,.08-1.5-.24-.21-.22-.21-.65,0-1.3,.21-.54,.98-1.46,2.29-2.76,4.27-4.55,7.96-8.58,11.08-12.1,3.01-3.47,5.56-6.9,7.67-10.32,.95-1.52,1.71-2.9,2.29-4.14,0-.54,.16-.95,.47-1.22,.47-.97,.79-1.87,.95-2.68,.16-1.35,.13-2.33-.08-2.92-.21-.49-.21-1.11,0-1.87,.05-.38,.4-.7,1.03-.97,.53-.16,1.13,.05,1.82,.65,.63,.65,.84,2.03,.63,4.14-.16,1.03-.47,2.3-.95,3.82,2.22,.38,3.98,.92,5.3,1.62,1.63,.81,2.74,1.71,3.32,2.68,.47,.97,.61,1.81,.4,2.52-.16,.97-.5,1.54-1.03,1.71-.47,.16-.87-.27-1.19-1.3-.37-1.19-1.29-2.17-2.77-2.92-1.27-.54-3.06-.95-5.38-1.22-.16,.32-.29,.65-.4,.97-1.42,2.76-4.01,6.31-7.75,10.64,1-.05,2.45-.41,4.35-1.06,2.9-1.46,4.75-2.27,5.54-2.44,.79-.05,1.42,.03,1.9,.24,.47,.22,1.45,.41,2.93,.57,1.42,.16,1.13,1.22-.87,3.17-.69,.81-2.51,2.57-5.46,5.28-.32,1.19-.58,2.87-.79,5.04,2.21-1.03,3.4-1.65,3.56-1.87l.32-1.06c-.05-.49,.05-.89,.32-1.22,.32-.32,.66-.27,1.03,.16,1.16,.81,2,1.3,2.53,1.46,.68,.32,.79,.84,.32,1.54-.47,.65-.77,1.27-.87,1.87,0,.49-.32,.62-.95,.41-.21,0-2.43,.84-6.64,2.52-.05,.97-.16,2.09-.32,3.33,2.85-1.3,5.14-2.11,6.88-2.44,2.06-.49,3.53-.32,4.43,.49,1.42,1.35,1.4,3.09-.08,5.2-2.53,3.41-6.33,7.12-11.39,11.13l-.08,.08c0,.05,.03,.16,.08,.32,2.69-1.3,5.96-2.98,9.81-5.04,.63-.49,1.05-1,1.27-1.54,.16-.49,.4-.76,.71-.81,.32,0,.66,.46,1.03,1.38,.32,.81-.11,1.73-1.27,2.76-4.64,2.6-8.44,4.79-11.39,6.58,0,.7-.18,1.06-.55,1.06-.05,0-.11-.03-.16-.08,.05,.16,.21,.62,.47,1.38,.32,1.19,1.08,1.79,2.29,1.79,.63,0,2.45-1,5.46-3.01,2.9-1.95,5.72-4.2,8.46-6.74,.48-.49,1.05-1.08,1.74-1.79-.63-2.49-.87-4.49-.71-6.01,0-.87,.26-1.46,.79-1.79,.47-.16,1.08-.03,1.82,.41,.79,.38,1.03,1.03,.71,1.95-.32,.38-.37,1.25-.16,2.6,1.42-1.68,2.95-3.71,4.59-6.09,1-1.62,2.08-3.41,3.24-5.36-.16-.22-.26-.49-.32-.81,0-.38-.53-1.25-1.58-2.6-1-1.3-1.98-2.33-2.93-3.09-.84-.81-1.71-1.38-2.61-1.71-.79-.32-1.4-.76-1.82-1.3-.37-.49-.5-1.11-.39-1.87,.16-.65,.71-.89,1.66-.73,1,.16,2.14,.62,3.4,1.38,1.16,.65,2.72,1.87,4.67,3.66,1,.87,1.79,1.65,2.37,2.36,1.11-2.11,2.24-4.47,3.4-7.07,2.9-6.66,4.22-10.24,3.96-10.72-.16-.22-.5-.32-1.03-.32-1.11,0-3.43,.95-6.96,2.84-3.48,1.79-6.12,3.11-7.91,3.98-.63,.22-1.13,.27-1.5,.16-.47,.65-.95,1.33-1.42,2.03-.69,.7-1.37,.79-2.06,.24-.53-.65-.5-1.35,.08-2.11,4.59-6.5,7.46-10.37,8.62-11.62,1.11-1.14,2.03-2.33,2.77-3.57,.79-1.14,1.13-2.19,1.03-3.17-.16-.97-.66-1.62-1.5-1.95-.79-.22-.92-.81-.4-1.79,.47-.81,1.35-1,2.61-.57,1.11,.49,1.92,1.54,2.45,3.17,.37,1.95-.08,3.82-1.35,5.6-1.27,1.68-2.82,3.63-4.67,5.85-.63,.65-1.34,1.49-2.13,2.52,1.27-.49,2.77-1.19,4.51-2.11,3.22-1.68,6.28-2.65,9.18-2.92,1.63,0,2.74,.57,3.32,1.71,.47,1.14,.4,2.6-.24,4.39Zm-43.43,15.03c-2.74,2.33-5.12,4.2-7.12,5.6,.37-.05,.82-.19,1.34-.41,2.06-.81,3.88-1.54,5.46-2.19v-.08c0-.97,.1-1.95,.32-2.92Zm2.21,11.86c-.16,2.76-.24,5.17-.24,7.23,.05-.05,.16-.13,.32-.24,3.96-3.3,6.57-5.93,7.83-7.88,.16-.7,.08-1.25-.24-1.62-.16-.22-.92-.19-2.29,.08-1,.16-2.8,.92-5.38,2.27v.16Zm32.04,18.11c6.65-4.22,10.63-7.31,11.95-9.26s1.9-3.84,1.74-5.69c-.21-.81-1.5-1.25-3.88-1.3-2.37,0-5.01,.54-7.91,1.62-2.9,1.14-6.83,2.82-11.79,5.04-.32,.05-.63,.08-.95,.08l.16,.41c.84,2.92,2.08,6.12,3.72,9.58,.32,.16,.74,.24,1.27,.24,2.06-.32,3.96-.57,5.7-.73Z" fill="#fff"/>
        <path d="M167.71,28.8c.46-.94,1.07-1.28,1.83-1.02,2.59,1.25,4.36,2.79,5.33,4.61,.46,.68,.79,1.67,.99,2.97,.05,.68-.23,2.32-.84,4.92-.61,2.5-1.09,5.34-1.45,8.52-.36,3.13-.38,5.39-.08,6.8,1.88-2.66,3.6-5.58,5.18-8.75,1.52-3.13,2.94-7.01,4.26-11.65,.15-.63,.46-.86,.91-.7,.46,.05,.63,.42,.53,1.09-.66,3.96-1.88,8.21-3.65,12.74-1.67,4.43-3.1,7.58-4.26,9.46-1.07,1.88-1.7,3.05-1.9,3.52-.15,.47-.48,1.02-.99,1.64-.36,.52-.79,.76-1.29,.7-.46-.05-.76-.44-.91-1.17-.46-1.41-.76-3.05-.91-4.92-.15-1.77-.05-4.51,.3-8.21,.46-3.65,.91-6.62,1.37-8.91,.46-2.19,.63-3.75,.53-4.69,0-1.72-1.62-3.41-4.87-5.08-.51-.21-.53-.83-.08-1.88Zm9.06-19.62c.3-1.41,1.04-1.69,2.21-.86,1.52,1.25,2.87,2.74,4.04,4.46,1.07,1.72,1.85,3.26,2.36,4.61,.46,1.56,.08,2.74-1.14,3.52-1.67,.99-3.4,1.64-5.18,1.95-.96,.05-1.7-.34-2.21-1.17-.46-.83-.33-1.28,.38-1.33,.91,0,2.1-.18,3.58-.55,.51-.16,.91-.52,1.22-1.09,.15-.52,.1-1.12-.15-1.8-.46-1.09-1.09-2.11-1.9-3.05-.66-.83-1.35-1.56-2.06-2.19-.15-.16-.48-.26-.99-.31-.46,0-.51-.73-.15-2.19Zm15.38,11.1c2.13-.78,3.76-1.33,4.87-1.64,1.07-.21,1.98-.26,2.74-.16,.91,0,1.47,.23,1.68,.7,.15,.37,.05,.76-.3,1.17-.36,.31-.56,.83-.61,1.56,0,.63-.18,1.02-.53,1.17-.3,0-.69-.1-1.14-.31-.15-.05-.38-.13-.69-.23h-.46c-.66,4.38-1.96,9.51-3.88,15.4,1.83-1.61,4.57-4.22,8.22-7.82,.46-.63,.71-1.2,.76-1.72,0-.47,.15-.78,.46-.94,.3-.05,.74,.26,1.29,.94,.46,.68,.3,1.64-.46,2.89-5.79,6.57-9.44,10.42-10.96,11.57-1.42,1.09-2.64,1.8-3.65,2.11-2.33,.47-3.73,.55-4.19,.23-.3-.31-.25-1.28,.15-2.89,.15-.63,.48-.81,.99-.55,.46,.21,1.04,.23,1.75,.08,.3-.05,.74-.26,1.29-.63,1.52-4.22,2.74-7.92,3.65-11.1,.51-2.34,.89-4.61,1.14-6.8-.66,.21-1.45,.5-2.36,.86-2.13,.78-3.35,1.2-3.65,1.25-.3,0-.68-.05-1.14-.16-.96-.16-1.55-.73-1.75-1.72-.15-.94,0-1.56,.46-1.88,.36-.31,.79-.36,1.29-.16,.3,.16,.68,.21,1.14,.16,.35-.05,1.65-.52,3.88-1.41Zm.46,43.38c-2.74-.31-4.87-1.9-6.39-4.77-.2-.63,.1-1.28,.91-1.95,.91-.63,1.57-.44,1.98,.55,.81,1.72,1.95,2.74,3.43,3.05,.46,0,1.37-.47,2.74-1.41,1.37-.94,2.74-1.35,4.11-1.25,1.37,.05,2.54-.03,3.5-.23,.96-.21,2.13-.08,3.5,.39,1.27,.31,2.54,.13,3.81-.55,3.2-2.19,5.84-3.44,7.92-3.75,1.98-.31,3.48-.18,4.49,.39,1.22,.78,2.26,1.9,3.12,3.36,.76,1.3,.58,2.14-.53,2.5-.61,.16-1.5,.52-2.67,1.09-1.22,.47-3.17,.91-5.86,1.33-1.37,.31-2.16,.21-2.36-.31-.15-.52,.1-.86,.76-1.02,1.12-.16,2.92-.78,5.4-1.88,1.12-.63,1.02-1.38-.3-2.27-.3-.16-1.14-.1-2.51,.16-1.27,.21-3.3,1.41-6.09,3.6-1.98,1.15-4.11,1.41-6.4,.78-.96-.36-1.85-.52-2.67-.47-.76,.16-1.67,.16-2.74,0-1.07-.05-2.26,.39-3.58,1.33-1.22,.94-2.41,1.38-3.58,1.33Zm12.11-16.65c-.15-5.63-.13-10.45,.08-14.46,0-.78,.02-1.28,.08-1.49,.05-1.3,.18-2.55,.38-3.75,.46-4.74,.58-8.02,.38-9.85-.15-1.72-.41-2.76-.76-3.13-.91,.78-1.65,1.09-2.21,.94-.61-.16-.94-.44-.99-.86,0-.31,.43-.86,1.29-1.64,1.12-.83,2.44-2.11,3.96-3.83,1.42-1.61,2.31-2.84,2.66-3.67,.3-.78,.3-1.3,0-1.56-1.52-1.41-2.05-2.45-1.6-3.13,.46-.52,1.34-.55,2.66-.08,1.22,.47,2.13,1.51,2.74,3.13,.2,.63,.13,1.36-.23,2.19-.46,.78-1.6,2.19-3.43,4.22l-.08,.08c2.94-.99,5.25-1.72,6.93-2.19,2.03-.47,4.24-.63,6.62-.47,1.22,.16,2.33,1.02,3.35,2.58,.15,.47-.23,2.92-1.14,7.35-.91,4.38-1.68,7.53-2.29,9.46-.3,1.15-.99,1.95-2.05,2.42h-.3c-.3,.31-.79,.6-1.45,.86-.61,.16-1.07,.39-1.37,.7-.15,.31-.36,.39-.61,.23-.2-.16-.89-.08-2.06,.23-1.12,.37-2.39,.91-3.81,1.64-1.37,.63-2.46,1.09-3.27,1.41h-.3c-.05,1.72-.1,3.44-.15,5.16,.46-.16,1.07-.31,1.83-.47,1.37-.31,3.02-.86,4.95-1.64,1.88-.63,3.78-1.2,5.71-1.72,1.83-.36,3.12-.57,3.88-.63,.96,0,1.5,.26,1.6,.78,0,.52-.05,1.02-.15,1.49-.15,.31-.76,.63-1.83,.94-.91,.16-1.52,.44-1.83,.86-.3,.36-.61,.42-.91,.16-.2-.31-1.12-.26-2.74,.16-1.52,.37-3.22,.94-5.1,1.72-1.83,.78-3.32,1.3-4.49,1.56-.36,0-.68,.05-.99,.16,0,1.62,.15,2.76,.46,3.44,0,.16,.02,.31,.08,.47,4.01-1.41,7.87-2.4,11.57-2.97,5.08-.78,8.93-1.02,11.57-.7,2.59,.31,4.24,.94,4.95,1.88,1.22,1.62,1.75,3.34,1.6,5.16-.3,2.35-1.04,4.77-2.21,7.27-1.12,2.34-2.03,4.48-2.74,6.41-.61,1.88-2.54,4.58-5.79,8.13-.81,.94-2.08,1.3-3.81,1.09-5.23-.94-9.77-3.47-13.63-7.58-.36-.31-.41-.75-.15-1.33,.3-.47,.69-.55,1.14-.23,2.59,2.03,5.33,3.54,8.22,4.53,2.74,.94,4.62,1.35,5.63,1.25,.3,0,1.12-.86,2.44-2.58,1.37-1.61,2.31-3.15,2.82-4.61,.46-1.3,1.32-3.41,2.59-6.33,1.22-2.81,1.85-5,1.9-6.57,0-1.09-.3-1.9-.91-2.42-.76-.63-2.64-.96-5.63-1.02-3.04,0-6.75,.5-11.12,1.49-4.31,.94-8.5,2.4-12.56,4.38-.91,.36-1.47,0-1.68-1.09-.15-1.15-.03-1.82,.38-2.03,.61-.31,1.24-.6,1.9-.86v-1.02Zm11.34-35.49c-2.59,.63-5.15,1.56-7.69,2.81,.05,1.41,.15,2.84,.3,4.3,1.83-.63,3.5-1.15,5.02-1.56,1.98-.47,3.48-.7,4.49-.7,.91,0,1.55,.21,1.9,.63,1.07,1.25,.99,2.71-.23,4.38-1.07,1.3-2.69,2.76-4.87,4.38-2.13,1.56-3.91,2.58-5.33,3.05-.51,.21-.94,.34-1.29,.39-.05,.47-.1,1.02-.15,1.64,.15,0,.33-.05,.53-.16,.96-.31,2.18-.81,3.65-1.49,1.37-.63,2.77-1.15,4.19-1.56,.66-.21,1.27-.42,1.83-.63,.15-.21,.38-.36,.68-.47,.61-.21,.99-.6,1.14-1.17,.36-1.25,.86-3.02,1.52-5.32,.61-2.35,1.04-4.17,1.29-5.47,.2-1.3-.25-2.53-1.37-3.67-.91-.31-2.79-.1-5.63,.63Zm-7.23,10.24c0,1.72-.08,3.52-.23,5.39,1.83-1.15,3.5-2.35,5.02-3.6,1.42-1.25,2.41-2.21,2.97-2.89,.2-.83,.1-1.46-.3-1.88,0-.05-.25-.08-.76-.08-.46,.05-1.4,.39-2.82,1.02-1.12,.47-2.41,1.15-3.88,2.03Z" fill="#fff"/>
      </g>
    </g>
  </g>
</svg>